<?xml version="1.0" standalone="no"?>
<!DOCTYPE svg PUBLIC "-//W3C//DTD SVG 1.1//EN" "http://www.w3.org/Graphics/SVG/1.1/DTD/svg11.dtd" >
<svg>
<metadata>
Created by FontForge 20090622 at Tue May 19 15:48:32 2015
 By deploy user
2006 Copyright Jean Francois Porchez, Porchez Typofonderie. All rights reserved. designed for an exclusive use by The Boston Consulting Group, inc. distributed exclusively by Porchez Typofonderie, France. Henderson is a trademark of the Boston Consulting Group.
</metadata>
<defs>
<font id="HendersonBCGSans-Regular" horiz-adv-x="520" >
  <font-face 
    font-family="Henderson BCG Sans"
    font-weight="400"
    font-stretch="normal"
    units-per-em="1000"
    panose-1="2 11 5 2 3 4 2 2 2 4"
    ascent="800"
    descent="-200"
    x-height="510"
    cap-height="680"
    bbox="-135 -226 1107 1076"
    underline-thickness="69"
    underline-position="-97"
    unicode-range="U+0020-U+FD3F"
  />
<missing-glyph 
d="M10 700h500v-700h-500v700zM460 650h-400v-600h400v600zM140 524q16 32 47 46t64 14q24 0 47 -7t40.5 -20.5t28 -34t10.5 -47.5t-10.5 -49t-27 -39.5t-37.5 -31t-42 -23.5l-4 -57h-44l-4 96q17 5 36 13.5t35 21.5t26.5 29.5t10.5 38.5q0 30 -19.5 45t-49.5 15
q-18 0 -36 -9t-28 -27zM276 166q0 -18 -13 -30.5t-30 -12.5q-18 0 -30 12.5t-12 30.5t12.5 30.5t30.5 12.5t30 -12.5t12 -30.5z" />
    <glyph glyph-name="f_b" unicode="fb" horiz-adv-x="851" 
d="M816 259q0 -54 -14 -103.5t-42 -87t-70.5 -60t-99.5 -22.5q-36 0 -69 9t-62 29h-4q-4 -12 -10 -24h-68v657q-17 5 -35.5 6.5t-33.5 1.5q-75 0 -105 -34.5t-30 -91.5v-39h106v-69h-106v-431h-88v431h-70v69h70v34q0 38 11.5 74.5t38 65t70 45.5t108.5 17q35 0 77.5 -6
t74.5 -14v-276h1q32 33 69.5 58.5t91.5 25.5q46 0 81 -19.5t59 -54.5t36.5 -83.5t12.5 -107.5zM725 252q0 100 -33 147.5t-89 47.5q-21 0 -40 -8.5t-36.5 -21t-33 -28l-28.5 -29.5v-264q22 -21 53 -30t60 -9q40 0 68 15.5t45.5 42t25.5 62t8 75.5z" />
    <glyph glyph-name="f_f_b" unicode="ffb" horiz-adv-x="1142" 
d="M1107 259q0 -54 -14 -103.5t-42 -87t-70.5 -60t-99.5 -22.5q-36 0 -69 9t-62 29h-4q-4 -12 -10 -24h-68v657q-17 5 -35.5 6.5t-33.5 1.5q-75 0 -105 -34.5t-30 -91.5v-39h106v-69h-106v-431h-88v431h-203v-431h-88v431h-70v69h70v24q0 40 11.5 76.5t36.5 64.5t63.5 44.5
t91.5 16.5q93 0 139 -49h2q27 27 69.5 43t105.5 16q35 0 77.5 -6t74.5 -14v-276h1q32 33 69.5 58.5t91.5 25.5q46 0 81 -19.5t59 -54.5t36.5 -83.5t12.5 -107.5zM1016 252q0 100 -33 147.5t-89 47.5q-21 0 -40 -8.5t-36.5 -21t-33 -28l-28.5 -29.5v-264q22 -21 53 -30t60 -9
q40 0 68 15.5t45.5 42t25.5 62t8 75.5zM376 500v34q0 18 2.5 35.5t7.5 34.5q-17 30 -43.5 40.5t-55.5 10.5q-56 0 -85 -34t-29 -92v-29h203z" />
    <glyph glyph-name="f_f" unicode="ff" horiz-adv-x="609" 
d="M377 0v431h-204v-431h-88v431h-70v69h70v24q0 40 11.5 76.5t36.5 64.5t63.5 44.5t91.5 16.5q91 0 136 -45h2q22 25 55.5 40t82.5 15q41 0 77.5 -16t59.5 -50l-66 -50q-13 20 -30 32.5t-49 12.5q-51 0 -71 -34.5t-20 -91.5v-39h126v-69h-126v-431h-88zM377 500v34
q0 18 1.5 36t6.5 35q-17 29 -43 39.5t-55 10.5q-56 0 -85 -34t-29 -92v-29h204z" />
    <glyph glyph-name="f_h" unicode="fh" horiz-adv-x="840" 
d="M696 0v335q0 52 -21.5 82t-63.5 30q-23 0 -43 -7.5t-38 -20t-34 -28l-31 -31.5v-360h-88v657q-17 5 -35.5 6.5t-33.5 1.5q-75 0 -105 -34.5t-30 -91.5v-39h106v-69h-106v-431h-88v431h-70v69h70v34q0 38 11.5 74.5t38 65t70 45.5t108.5 17q35 0 77.5 -6t74.5 -14v-275h3
q35 36 73.5 59.5t92.5 23.5q31 0 58 -11t47.5 -31.5t32.5 -50.5t12 -68v-363h-88z" />
    <glyph glyph-name="f_f_h" unicode="ffh" horiz-adv-x="1132" 
d="M988 0v335q0 52 -21.5 82t-63.5 30q-23 0 -43 -7.5t-38 -20t-34 -28l-31 -31.5v-360h-88v657q-17 5 -35.5 6.5t-33.5 1.5q-75 0 -105 -34.5t-30 -91.5v-39h106v-69h-106v-431h-88v431h-204v-431h-88v431h-70v69h70v24q0 40 11.5 76.5t36.5 64.5t63.5 44.5t91.5 16.5
q94 0 140 -50h2q26 27 69 43.5t106 16.5q35 0 77.5 -6t74.5 -14v-275h3q35 36 73.5 59.5t92.5 23.5q31 0 58 -11t47.5 -31.5t32.5 -50.5t12 -68v-363h-88zM377 500v34q0 36 9 69q-17 30 -43.5 41t-55.5 11q-56 0 -85 -34t-29 -92v-29h204z" />
    <glyph glyph-name="fi" unicode="fi" horiz-adv-x="535" 
d="M377 0v431h-204v-431h-88v431h-70v69h70v34q0 40 11.5 76.5t36.5 64.5t63.5 44.5t91.5 16.5q69 0 112.5 -25.5t60.5 -81.5l-84 -28q-13 38 -38 51t-57 13q-57 0 -83 -35t-26 -91v-39h292v-500h-88z" />
    <glyph glyph-name="f_f_i" unicode="ffi" horiz-adv-x="827" 
d="M669 0v431h-204v-431h-88v431h-204v-431h-88v431h-70v69h70v24q0 40 11.5 76.5t36.5 64.5t63.5 44.5t91.5 16.5q94 0 139 -48h2q25 26 62 42t89 16q69 0 112.5 -25.5t60.5 -81.5l-84 -28q-13 38 -38 51t-57 13q-57 0 -83 -35t-26 -91v-39h292v-500h-88zM377 500v34
q0 36 9 69q-17 30 -43.5 41t-55.5 11q-56 0 -85 -34t-29 -92v-29h204z" />
    <glyph glyph-name="f_j" unicode="fj" horiz-adv-x="539" 
d="M465 -2q0 -98 -45 -155t-139 -57q-26 0 -53.5 5.5t-46.5 16.5l38 73q14 -10 31.5 -17t37.5 -7q28 0 45 11t27 30t13.5 43t3.5 51v439h-204v-431h-88v431h-70v69h70v34q0 40 11.5 76.5t36.5 64.5t63.5 44.5t91.5 16.5q69 0 112.5 -25.5t60.5 -81.5l-84 -28q-13 38 -38 51
t-57 13q-57 0 -83 -35t-26 -91v-39h292v-502v0z" />
    <glyph glyph-name="f_f_j" unicode="ffj" horiz-adv-x="831" 
d="M573 -214q-26 0 -53.5 5.5t-46.5 16.5l38 73q14 -10 31.5 -17t37.5 -7q28 0 45 11t27 30t13.5 43t3.5 51v439h-204v-431h-88v431h-204v-431h-88v431h-70v69h70v24q0 40 11.5 76.5t36.5 64.5t63.5 44.5t91.5 16.5q94 0 139 -48h2q25 26 62 42t89 16q69 0 112.5 -25.5
t60.5 -81.5l-84 -28q-13 38 -38 51t-57 13q-57 0 -83 -35t-26 -91v-39h292v-502q0 -98 -45 -155t-139 -57zM377 500v34q0 36 9 69q-17 30 -43.5 41t-55.5 11q-56 0 -85 -34t-29 -92v-29h204z" />
    <glyph glyph-name="f_k" unicode="fk" horiz-adv-x="794" 
d="M735 -9q-20 0 -34.5 5.5t-25 15t-18.5 23t-14 29.5l-10.5 26.5l-9 23.5l-10 26l-12.5 33q-8 22 -15.5 36.5t-16.5 24t-20.5 15t-27.5 10.5l-56 -68v-191h-88v657q-17 5 -35.5 6.5t-33.5 1.5q-75 0 -105 -34.5t-30 -91.5v-39h106v-69h-106v-431h-88v431h-70v69h70v34
q0 38 11.5 74.5t38 65t70 45.5t108.5 17q35 0 77.5 -6t74.5 -14v-418h2l172 214h107l-173 -198v-2q24 -6 40 -14t27 -19t19 -25.5t17 -34.5q13 -29 24 -57l21 -52q14 -35 21.5 -45t18.5 -10t21 5l10 -57q-11 -6 -28.5 -9t-28.5 -3z" />
    <glyph glyph-name="f_f_k" unicode="ffk" horiz-adv-x="1086" 
d="M1084 3q-11 -6 -28.5 -9t-28.5 -3q-20 0 -34.5 5.5t-25 15t-18.5 23t-14 29.5l-10.5 26.5l-9 23.5l-10 26l-12.5 33q-8 22 -15.5 36.5t-16.5 24t-20.5 15t-27.5 10.5l-56 -68v-191h-88v657q-17 5 -35.5 6.5t-33.5 1.5q-75 0 -105 -34.5t-30 -91.5v-39h106v-69h-106v-431
h-88v431h-204v-431h-88v431h-70v69h70v24q0 40 11.5 76.5t36.5 64.5t63.5 44.5t91.5 16.5q94 0 140 -50h2q26 27 69 43.5t106 16.5q35 0 77.5 -6t74.5 -14v-418h2l172 214h107l-173 -198v-2q24 -6 40 -14t27 -19t19 -25.5t17 -34.5q13 -29 24 -57l21 -52q14 -35 21.5 -45
t18.5 -10t21 5zM377 500v34q0 36 9 69q-17 30 -43.5 41t-55.5 11q-56 0 -85 -34t-29 -92v-29h204z" />
    <glyph glyph-name="fl" unicode="fl" horiz-adv-x="567" 
d="M552 2q-14 -5 -34.5 -8t-43.5 -3q-53 0 -75 28t-22 86v552q-17 5 -35.5 6.5t-33.5 1.5q-75 0 -105 -34.5t-30 -91.5v-39h106v-69h-106v-431h-88v431h-70v69h70v34q0 38 11.5 74.5t38 65t70 45.5t108.5 17q35 0 77.5 -6t74.5 -14v-590q0 -35 9 -49.5t35 -14.5q16 0 33 5
l10 -65v0z" />
    <glyph glyph-name="f_f_l" unicode="ffl" horiz-adv-x="859" 
d="M844 2q-14 -5 -34.5 -8t-43.5 -3q-53 0 -75 28t-22 86v552q-17 5 -35.5 6.5t-33.5 1.5q-75 0 -105 -34.5t-30 -91.5v-39h106v-69h-106v-431h-88v431h-204v-431h-88v431h-70v69h70v24q0 40 11.5 76.5t36.5 64.5t63.5 44.5t91.5 16.5q94 0 140 -50h2q26 27 69 43.5
t106 16.5q35 0 77.5 -6t74.5 -14v-590q0 -35 9 -49.5t35 -14.5q16 0 33 5zM377 500v34q0 36 9 69q-17 30 -43.5 41t-55.5 11q-56 0 -85 -34t-29 -92v-29h204z" />
    <glyph glyph-name="f_t" unicode="ft" horiz-adv-x="657" 
d="M651 43q-24 -27 -53.5 -42t-67.5 -15q-63 0 -95.5 42.5t-32.5 119.5v283h-229v-431h-88v431h-70v69h70v34q0 40 10.5 76.5t32.5 64.5t56.5 44.5t82.5 16.5q39 0 75.5 -16t59.5 -50l-66 -50q-13 20 -30 32.5t-47 12.5q-45 0 -65.5 -32.5t-20.5 -93.5v-39h229q4 36 14 73
t23 69h51v-142h126v-69h-126v-268q0 -23 1.5 -42t7 -32.5t16.5 -20.5t30 -7q21 0 36 12.5t28 26.5l42 -57v0z" />
    <glyph glyph-name="f_f_t" unicode="fft" horiz-adv-x="949" 
d="M943 43q-24 -27 -53.5 -42t-67.5 -15q-63 0 -95.5 42.5t-32.5 119.5v283h-229v-431h-88v431h-204v-431h-88v431h-70v69h70v24q0 40 11.5 76.5t36.5 64.5t63.5 44.5t91.5 16.5q91 0 136 -45h2q22 25 54.5 40t78.5 15q39 0 75.5 -16t59.5 -50l-66 -50q-13 20 -30 32.5
t-47 12.5q-45 0 -65.5 -32.5t-20.5 -93.5v-39h229q4 36 14 73t23 69h51v-142h126v-69h-126v-268q0 -23 1.5 -42t7 -32.5t16.5 -20.5t30 -7q21 0 36 12.5t28 26.5zM377 500v34q0 37 9 70q-17 30 -43.5 40.5t-55.5 10.5q-56 0 -85 -34t-29 -92v-29h204z" />
    <glyph glyph-name=".notdef" 
d="M10 700h500v-700h-500v700zM460 650h-400v-600h400v600zM140 524q16 32 47 46t64 14q24 0 47 -7t40.5 -20.5t28 -34t10.5 -47.5t-10.5 -49t-27 -39.5t-37.5 -31t-42 -23.5l-4 -57h-44l-4 96q17 5 36 13.5t35 21.5t26.5 29.5t10.5 38.5q0 30 -19.5 45t-49.5 15
q-18 0 -36 -9t-28 -27zM276 166q0 -18 -13 -30.5t-30 -12.5q-18 0 -30 12.5t-12 30.5t12.5 30.5t30.5 12.5t30 -12.5t12 -30.5z" />
    <glyph glyph-name=".null" horiz-adv-x="0" 
 />
    <glyph glyph-name="nonmarkingreturn" horiz-adv-x="260" 
 />
    <glyph glyph-name="space" unicode=" " horiz-adv-x="260" 
 />
    <glyph glyph-name="space" unicode="&#xa0;" horiz-adv-x="260" 
 />
    <glyph glyph-name="A" unicode="A" horiz-adv-x="627" 
d="M515 0l-69 182h-276l-66 -182h-99l264 689h83l270 -689h-107zM307 556h-2l-107 -296h219z" />
    <glyph glyph-name="B" unicode="B" horiz-adv-x="663" 
d="M613 192q0 -52 -22 -88.5t-59.5 -59.5t-86.5 -33.5t-104 -10.5h-232v680h189q48 0 93.5 -8.5t80 -29t55.5 -53t21 -80.5q0 -30 -8.5 -53t-23 -41.5t-34 -32t-41.5 -23.5v-2q36 -5 67.5 -17t55 -32t36.5 -48.5t13 -67.5zM505 197q0 60 -47.5 84t-135.5 24h-116v-225h129
q40 0 71.5 6t53.5 19.5t33.5 36t11.5 55.5zM445 499q0 53 -36 77t-105 24h-98v-220h112q25 0 48.5 7t40.5 21t27.5 36.5t10.5 54.5z" />
    <glyph glyph-name="C" unicode="C" horiz-adv-x="638" 
d="M605 87q-88 -101 -244 -101q-79 0 -138.5 28.5t-99 76.5t-59 111.5t-19.5 134.5q0 75 19.5 140t59 113t99.5 76t142 28q69 0 126 -24t100 -75l-72 -62q-29 35 -66.5 56t-94.5 21q-100 0 -152.5 -70t-52.5 -192q0 -59 13.5 -110t40.5 -88.5t68 -58.5t96 -21q48 0 91.5 19
t72.5 57l70 -59v0z" />
    <glyph glyph-name="D" unicode="D" horiz-adv-x="724" 
d="M679 336q0 -82 -27.5 -144.5t-76.5 -105t-116 -64.5t-145 -22h-205v680h213q81 0 146.5 -23t112.5 -67.5t72.5 -108.5t25.5 -145zM571 331q0 71 -20.5 121.5t-56 83t-84 47.5t-104.5 15h-100v-516h105q58 0 105.5 15t82 45.5t53.5 77.5t19 111z" />
    <glyph glyph-name="E" unicode="E" horiz-adv-x="600" 
d="M109 0v680h400v-82h-303v-203h238v-82h-238v-231h356v-82h-453z" />
    <glyph glyph-name="F" unicode="F" horiz-adv-x="558" 
d="M109 0v680h409v-82h-312v-223h245v-82h-245v-293h-97z" />
    <glyph glyph-name="G" unicode="G" horiz-adv-x="693" 
d="M615 56q-59 -38 -119 -54t-132 -16q-79 0 -139 28.5t-100 77t-60 112.5t-20 134q0 75 20 140t60 113t100 75.5t140 27.5q69 0 126 -24t100 -75l-72 -61q-29 34 -66.5 55t-94.5 21q-52 0 -90.5 -19.5t-64 -54t-38 -82t-12.5 -104.5q0 -137 58.5 -208.5t171.5 -71.5
q37 0 71.5 6.5t63.5 23.5v151h-153v82h250v-277z" />
    <glyph glyph-name="H" unicode="H" horiz-adv-x="752" 
d="M546 0v313h-340v-313h-97v680h97v-285h340v285h97v-680h-97z" />
    <glyph glyph-name="I" unicode="I" horiz-adv-x="315" 
d="M109 0v680h97v-680h-97z" />
    <glyph glyph-name="J" unicode="J" horiz-adv-x="335" 
d="M226 2q0 -45 -13 -84.5t-38 -69t-63 -46t-87 -16.5q-28 0 -56 5.5t-56 18.5l40 82q17 -9 36 -15.5t41 -6.5q28 0 47 10.5t30.5 28.5t16.5 41.5t5 50.5v679h97v-678v0z" />
    <glyph glyph-name="K" unicode="K" horiz-adv-x="675" 
d="M640 7q-15 -8 -37 -12t-36 -4q-51 0 -76.5 27t-41.5 68l-14.5 35.5l-13 33.5l-13.5 36l-16 44q-9 24 -17.5 41.5t-20 30t-27.5 22t-40 17.5l-81 -88v-258h-97v680h97v-318h1l274 318h117l-242 -272v-1q26 -10 45.5 -22t34 -27.5t25.5 -35t20 -44.5q14 -39 29.5 -78
l28.5 -70q14 -32 27 -43.5t32 -11.5q6 0 14.5 1.5t14.5 4.5l13 -74v0z" />
    <glyph glyph-name="L" unicode="L" horiz-adv-x="541" 
d="M109 0v680h97v-598h315v-82h-412z" />
    <glyph glyph-name="M" unicode="M" horiz-adv-x="910" 
d="M704 0v492h-3l-200 -492h-89l-211 492h-3v-492h-89v680h112l241 -562h3l224 562h112v-680h-97z" />
    <glyph glyph-name="N" unicode="N" horiz-adv-x="754" 
d="M554 -9l-349 529h-3v-520h-93v680h106l334 -516h3v516h93v-689h-91z" />
    <glyph glyph-name="O" unicode="O" horiz-adv-x="732" 
d="M687 343q0 -94 -25.5 -161.5t-69.5 -111t-102 -64t-123 -20.5t-123.5 20.5t-102.5 63.5t-70 110t-26 160q0 90 26 157t70 110.5t102 65t123 21.5t123.5 -21.5t102.5 -65t69.5 -109.5t25.5 -155zM579 339q0 134 -57 202.5t-155 68.5q-102 0 -158 -68.5t-56 -202.5
q0 -135 56 -202t158 -67q98 0 155 67.5t57 201.5z" />
    <glyph glyph-name="P" unicode="P" horiz-adv-x="622" 
d="M577 476q0 -60 -23 -100.5t-60 -65t-85 -35t-97 -10.5h-106v-265h-97v680h207q52 0 99.5 -11.5t83.5 -36t57 -63t21 -93.5zM469 475q0 33 -11.5 57t-32 39t-48.5 22t-60 7h-111v-255h102q29 0 58 5t52 19t37 39.5t14 66.5z" />
    <glyph glyph-name="Q" unicode="Q" horiz-adv-x="731" 
d="M687 343q0 -90 -23.5 -156t-64 -109.5t-95 -65.5t-115.5 -25l-50 -51v-2q31 -5 64.5 -15l65.5 -20.5t62 -18.5t56 -8q32 0 43.5 24t12.5 69h76q0 -36 -6 -68.5t-20.5 -57t-39 -39t-61.5 -14.5t-76.5 11.5t-79.5 25t-79 25t-76 11.5q-32 0 -57.5 -12.5t-53.5 -37.5l-42 55
q23 22 46.5 38t49.5 25l63 65v2q-51 11 -95 37t-77 68t-51.5 102t-18.5 139q0 90 26 157t70 110.5t102 65t123 21.5t123.5 -21.5t102.5 -65t69.5 -109.5t25.5 -155zM579 339q0 134 -57 202.5t-155 68.5q-102 0 -158 -68.5t-56 -202.5q0 -135 56 -202t158 -67q98 0 155 67.5
t57 201.5z" />
    <glyph glyph-name="R" unicode="R" horiz-adv-x="689" 
d="M573 500q0 -34 -11.5 -61.5t-32 -48.5t-48.5 -35t-60 -21v-2q33 -17 52.5 -37.5t35.5 -59.5l24.5 -59.5l24.5 -57.5q11 -26 25 -34.5t30 -8.5q6 0 14 1.5t14 4.5l13 -74q-15 -8 -37 -12t-36 -4q-51 0 -76.5 27t-41.5 68l-28 69.5l-29 71.5q-17 40 -43.5 57.5t-78.5 17.5
h-78v-302h-97v680h204q42 0 88 -7.5t84.5 -28t63 -55.5t24.5 -89zM466 494q0 54 -38.5 80t-111.5 26h-110v-223h119q27 0 52.5 6t45 20t31.5 36t12 55z" />
    <glyph glyph-name="S" unicode="S" horiz-adv-x="572" 
d="M287 -14q-87 0 -146 33t-91 94l78 50q34 -51 72.5 -73t95.5 -22q64 0 102 26t38 78q0 45 -27 71t-67 43.5t-87 32t-87 36.5t-67 57.5t-27 94.5q0 41 13.5 75.5t41 59t68.5 38.5t95 14q65 0 120 -19t100 -71l-71 -59q-28 34 -64.5 50.5t-91.5 16.5q-60 0 -89 -27.5
t-29 -65.5q0 -40 27 -63t67.5 -40t87.5 -32t87.5 -39t67.5 -60.5t27 -96.5q0 -51 -18.5 -89t-51 -63t-77 -37.5t-97.5 -12.5z" />
    <glyph glyph-name="T" unicode="T" horiz-adv-x="590" 
d="M247 0v598h-237v82h570v-82h-236v-598h-97z" />
    <glyph glyph-name="U" unicode="U" horiz-adv-x="739" 
d="M635 269q0 -73 -15 -126.5t-48 -88t-84.5 -51.5t-123.5 -17q-61 0 -109.5 13.5t-82 43.5t-51 79t-17.5 121v437h97v-440q0 -85 38 -127.5t129 -42.5t131.5 41.5t40.5 134.5v434h95v-411v0z" />
    <glyph glyph-name="V" unicode="V" horiz-adv-x="588" 
d="M254 -9l-249 689h111l183 -549h2l179 549h103l-246 -689h-83z" />
    <glyph glyph-name="W" unicode="W" horiz-adv-x="899" 
d="M588 -9l-143 546h-2l-158 -546h-93l-187 689h103l136 -549h2l155 549h96l143 -549h2l152 549h100l-214 -689h-92z" />
    <glyph glyph-name="X" unicode="X" horiz-adv-x="564" 
d="M439 0l-165 262h-2l-158 -262h-109l219 339l-214 341h114l164 -264h2l155 264h109l-219 -341l224 -339h-120z" />
    <glyph glyph-name="Y" unicode="Y" horiz-adv-x="570" 
d="M243 0v276l-238 404h112l178 -312h2l163 312h105l-225 -404v-276h-97z" />
    <glyph glyph-name="Z" unicode="Z" horiz-adv-x="550" 
d="M522 0h-489v62l341 534v2h-330v82h451v-69l-346 -527v-2h373v-82z" />
    <glyph glyph-name="Agrave" unicode="&#xc0;" horiz-adv-x="627" 
d="M515 0l-69 182h-276l-66 -182h-99l264 689h83l270 -689h-107zM307 556h-2l-107 -296h219zM265 718l-145 188h102l122 -188h-79z" />
    <glyph glyph-name="Aacute" unicode="&#xc1;" horiz-adv-x="627" 
d="M515 0l-69 182h-276l-66 -182h-99l264 689h83l270 -689h-107zM307 556h-2l-107 -296h219zM274 718l122 188h102l-145 -188h-79z" />
    <glyph glyph-name="Acircumflex" unicode="&#xc2;" horiz-adv-x="627" 
d="M515 0l-69 182h-276l-66 -182h-99l264 689h83l270 -689h-107zM307 556h-2l-107 -296h219zM400 718l-93 122h-2l-93 -122h-77l125 188h92l125 -188h-77z" />
    <glyph glyph-name="Atilde" unicode="&#xc3;" horiz-adv-x="627" 
d="M515 0l-69 182h-276l-66 -182h-99l264 689h83l270 -689h-107zM307 556h-2l-107 -296h219zM374 787q-29 0 -60 8.5t-53 8.5q-20 0 -27 -14t-9 -33h-68q1 19 4 41t11.5 41t25 31t43.5 12q13 0 27.5 -2.5t29 -6t28 -6t24.5 -2.5q17 0 24 10.5t9 30.5h68q-2 -63 -20.5 -91
t-56.5 -28z" />
    <glyph glyph-name="Adieresis" unicode="&#xc4;" horiz-adv-x="627" 
d="M515 0l-69 182h-276l-66 -182h-99l264 689h83l270 -689h-107zM307 556h-2l-107 -296h219zM275 846q0 -25 -17.5 -42.5t-40.5 -17.5q-24 0 -40.5 17.5t-16.5 42.5q0 26 17.5 43t40.5 17q24 0 40.5 -17t16.5 -43zM452 846q0 -25 -17.5 -42.5t-40.5 -17.5q-24 0 -40.5 17.5
t-16.5 42.5q0 26 17.5 43t40.5 17q24 0 40.5 -17t16.5 -43z" />
    <glyph glyph-name="Amacron" unicode="&#x100;" horiz-adv-x="627" 
d="M515 0l-69 182h-276l-66 -182h-99l264 689h83l270 -689h-107zM307 556h-2l-107 -296h219zM176 812v74h260v-74h-260z" />
    <glyph glyph-name="Abreve" unicode="&#x102;" horiz-adv-x="627" 
d="M515 0l-69 182h-276l-66 -182h-99l264 689h83l270 -689h-107zM307 556h-2l-107 -296h219zM306 764q-37 0 -64 11.5t-45 30.5t-27 43.5t-11 51.5l60 5q5 -29 27.5 -49.5t59.5 -20.5t59.5 20.5t27.5 49.5l60 -5q-2 -27 -11 -51.5t-27 -43.5t-45 -30.5t-64 -11.5z" />
    <glyph glyph-name="Aring" unicode="&#xc5;" horiz-adv-x="627" 
d="M414 762q0 -30 -16 -51.5t-42 -31.5l266 -679h-107l-69 182h-276l-66 -182h-99l260 680q-55 20 -55 85q0 41 28 65t73 24q48 0 75.5 -25t27.5 -67zM307 556h-2l-107 -296h219zM355 762q0 19 -9.5 32.5t-34.5 13.5q-24 0 -33.5 -13t-9.5 -30q0 -20 9 -33.5t36 -13.5
q23 0 32.5 13.5t9.5 30.5z" />
    <glyph glyph-name="Aringacute" unicode="&#x1fa;" horiz-adv-x="627" 
d="M414 762q0 -30 -16 -51.5t-42 -31.5l266 -679h-107l-69 182h-276l-66 -182h-99l260 680q-55 20 -55 85q0 41 28 65t73 24q48 0 75.5 -25t27.5 -67zM307 556h-2l-107 -296h219zM355 762q0 19 -9.5 32.5t-34.5 13.5q-24 0 -33.5 -13t-9.5 -30q0 -20 9 -33.5t36 -13.5
q23 0 32.5 13.5t9.5 30.5zM279 888l122 188h102l-145 -188h-79z" />
    <glyph glyph-name="Aogonek" unicode="&#x104;" horiz-adv-x="627" 
d="M537 -214q-17 0 -33.5 5t-29.5 15.5t-20.5 26t-7.5 36.5q0 38 21.5 71t47.5 60l-69 182h-276l-66 -182h-99l264 689h83l270 -689h-49q-19 -20 -36 -46.5t-17 -54.5q0 -18 11.5 -30.5t32.5 -12.5q14 0 26.5 6t23.5 15l21 -56q-16 -16 -42.5 -25.5t-55.5 -9.5zM307 556h-2
l-107 -296h219z" />
    <glyph glyph-name="AE" unicode="&#xc6;" horiz-adv-x="944" 
d="M453 276h-195l-151 -276h-107l387 680h452v-82h-289v-230h224v-82h-224v-204h342v-82h-439v276zM303 358h150v267h-3z" />
    <glyph glyph-name="AEacute" unicode="&#x1fc;" horiz-adv-x="944" 
d="M453 276h-195l-151 -276h-107l387 680h452v-82h-289v-230h224v-82h-224v-204h342v-82h-439v276zM303 358h150v267h-3zM467 718l122 188h102l-145 -188h-79z" />
    <glyph glyph-name="Cacute" unicode="&#x106;" horiz-adv-x="638" 
d="M605 87q-88 -101 -244 -101q-79 0 -138.5 28.5t-99 76.5t-59 111.5t-19.5 134.5q0 75 19.5 140t59 113t99.5 76t142 28q69 0 126 -24t100 -75l-72 -62q-29 35 -66.5 56t-94.5 21q-100 0 -152.5 -70t-52.5 -192q0 -59 13.5 -110t40.5 -88.5t68 -58.5t96 -21q48 0 91.5 19
t72.5 57l70 -59v0zM315 718l122 188h102l-145 -188h-79z" />
    <glyph glyph-name="Ccircumflex" unicode="&#x108;" horiz-adv-x="638" 
d="M605 87q-88 -101 -244 -101q-79 0 -138.5 28.5t-99 76.5t-59 111.5t-19.5 134.5q0 75 19.5 140t59 113t99.5 76t142 28q69 0 126 -24t100 -75l-72 -62q-29 35 -66.5 56t-94.5 21q-100 0 -152.5 -70t-52.5 -192q0 -59 13.5 -110t40.5 -88.5t68 -58.5t96 -21q48 0 91.5 19
t72.5 57l70 -59v0zM450 718l-93 122h-2l-93 -122h-77l125 188h92l125 -188h-77z" />
    <glyph glyph-name="Ccaron" unicode="&#x10c;" horiz-adv-x="638" 
d="M605 87q-88 -101 -244 -101q-79 0 -138.5 28.5t-99 76.5t-59 111.5t-19.5 134.5q0 75 19.5 140t59 113t99.5 76t142 28q69 0 126 -24t100 -75l-72 -62q-29 35 -66.5 56t-94.5 21q-100 0 -152.5 -70t-52.5 -192q0 -59 13.5 -110t40.5 -88.5t68 -58.5t96 -21q48 0 91.5 19
t72.5 57l70 -59v0zM310 718l-125 188h77l93 -122h2l93 122h77l-125 -188h-92z" />
    <glyph glyph-name="Cdotaccent" unicode="&#x10a;" horiz-adv-x="638" 
d="M605 87q-88 -101 -244 -101q-79 0 -138.5 28.5t-99 76.5t-59 111.5t-19.5 134.5q0 75 19.5 140t59 113t99.5 76t142 28q69 0 126 -24t100 -75l-72 -62q-29 35 -66.5 56t-94.5 21q-100 0 -152.5 -70t-52.5 -192q0 -59 13.5 -110t40.5 -88.5t68 -58.5t96 -21q48 0 91.5 19
t72.5 57l70 -59v0zM410 845q0 -26 -17.5 -43.5t-41.5 -17.5q-25 0 -41.5 17.5t-16.5 43.5t17.5 43.5t41.5 17.5q25 0 41.5 -17.5t16.5 -43.5z" />
    <glyph glyph-name="Ccedilla" unicode="&#xc7;" horiz-adv-x="638" 
d="M329 -214q-29 0 -55.5 9.5t-42.5 25.5l21 56q11 -9 23.5 -15t26.5 -6q21 0 32.5 12.5t11.5 30.5q0 25 -13.5 48.5t-30.5 43.5q-65 10 -113 41.5t-80 77.5t-48 104.5t-16 122.5q0 75 19.5 140t59 113t99.5 76t142 28q69 0 126 -24t100 -75l-72 -62q-29 35 -66.5 56
t-94.5 21q-100 0 -152.5 -70t-52.5 -192q0 -59 13.5 -110t40.5 -88.5t68 -58.5t96 -21q48 0 91.5 19t72.5 57l70 -59q-45 -51 -104 -75.5t-137 -25.5q23 -26 39.5 -55t16.5 -62q0 -21 -8 -36.5t-20.5 -26t-29 -15.5t-33.5 -5z" />
    <glyph glyph-name="Dcaron" unicode="&#x10e;" horiz-adv-x="724" 
d="M679 336q0 -82 -27.5 -144.5t-76.5 -105t-116 -64.5t-145 -22h-205v680h213q81 0 146.5 -23t112.5 -67.5t72.5 -108.5t25.5 -145zM571 331q0 71 -20.5 121.5t-56 83t-84 47.5t-104.5 15h-100v-516h105q58 0 105.5 15t82 45.5t53.5 77.5t19 111zM286 718l-125 188h77
l93 -122h2l93 122h77l-125 -188h-92z" />
    <glyph glyph-name="Dcroat" unicode="&#x110;" horiz-adv-x="724" 
d="M679 336q0 -82 -27.5 -144.5t-76.5 -105t-116 -64.5t-145 -22h-205v318h-88v73h88v289h213q81 0 146.5 -23t112.5 -67.5t72.5 -108.5t25.5 -145zM571 331q0 71 -20.5 121.5t-56 83t-84 47.5t-104.5 15h-100v-207h186v-73h-186v-236h105q58 0 105.5 15t82 45.5t53.5 77.5
t19 111z" />
    <glyph glyph-name="Egrave" unicode="&#xc8;" horiz-adv-x="600" 
d="M109 0v680h400v-82h-303v-203h238v-82h-238v-231h356v-82h-453zM268 718l-145 188h102l122 -188h-79z" />
    <glyph glyph-name="Eacute" unicode="&#xc9;" horiz-adv-x="600" 
d="M109 0v680h400v-82h-303v-203h238v-82h-238v-231h356v-82h-453zM251 718l122 188h102l-145 -188h-79z" />
    <glyph glyph-name="Ecircumflex" unicode="&#xca;" horiz-adv-x="600" 
d="M109 0v680h400v-82h-303v-203h238v-82h-238v-231h356v-82h-453zM403 718l-93 122h-2l-93 -122h-77l125 188h92l125 -188h-77z" />
    <glyph glyph-name="Ecaron" unicode="&#x11a;" horiz-adv-x="600" 
d="M109 0v680h400v-82h-303v-203h238v-82h-238v-231h356v-82h-453zM260 718l-125 188h77l93 -122h2l93 122h77l-125 -188h-92z" />
    <glyph glyph-name="Edieresis" unicode="&#xcb;" horiz-adv-x="600" 
d="M109 0v680h400v-82h-303v-203h238v-82h-238v-231h356v-82h-453zM284 846q0 -25 -17.5 -42.5t-40.5 -17.5q-24 0 -40.5 17.5t-16.5 42.5q0 26 17.5 43t40.5 17q24 0 40.5 -17t16.5 -43zM461 846q0 -25 -17.5 -42.5t-40.5 -17.5q-24 0 -40.5 17.5t-16.5 42.5q0 26 17.5 43
t40.5 17q24 0 40.5 -17t16.5 -43z" />
    <glyph glyph-name="Emacron" unicode="&#x112;" horiz-adv-x="600" 
d="M109 0v680h400v-82h-303v-203h238v-82h-238v-231h356v-82h-453zM178 812v74h260v-74h-260z" />
    <glyph glyph-name="Ebreve" unicode="&#x114;" horiz-adv-x="600" 
d="M109 0v680h400v-82h-303v-203h238v-82h-238v-231h356v-82h-453zM311 764q-37 0 -64 11.5t-45 30.5t-27 43.5t-11 51.5l60 5q5 -29 27.5 -49.5t59.5 -20.5t59.5 20.5t27.5 49.5l60 -5q-2 -27 -11 -51.5t-27 -43.5t-45 -30.5t-64 -11.5z" />
    <glyph glyph-name="Edotaccent" unicode="&#x116;" horiz-adv-x="600" 
d="M109 0v680h400v-82h-303v-203h238v-82h-238v-231h356v-82h-453zM374 845q0 -26 -17.5 -43.5t-41.5 -17.5q-25 0 -41.5 17.5t-16.5 43.5t17.5 43.5t41.5 17.5q25 0 41.5 -17.5t16.5 -43.5z" />
    <glyph glyph-name="Eogonek" unicode="&#x118;" horiz-adv-x="600" 
d="M464 -214q-17 0 -33.5 5t-29.5 15.5t-20.5 26t-7.5 36.5q0 38 21 70.5t47 60.5h-332v680h400v-82h-303v-203h238v-82h-238v-231h356v-82h-63q-19 -20 -35.5 -46.5t-16.5 -54.5q0 -18 11.5 -30.5t32.5 -12.5q14 0 26.5 6t23.5 15l21 -56q-16 -16 -42.5 -25.5t-55.5 -9.5z
" />
    <glyph glyph-name="fi.cap" unicode="&#xe09f;" horiz-adv-x="873" 
d="M109 0v680h409v-82h-312v-223h245v-82h-245v-293h-97zM667 0v680h97v-680h-97z" />
    <glyph glyph-name="fl.cap" unicode="&#xe0a0;" horiz-adv-x="1099" 
d="M109 0v680h409v-82h-312v-223h245v-82h-245v-293h-97zM667 0v680h97v-598h315v-82h-412z" />
    <glyph glyph-name="Gcircumflex" unicode="&#x11c;" horiz-adv-x="693" 
d="M615 56q-59 -38 -119 -54t-132 -16q-79 0 -139 28.5t-100 77t-60 112.5t-20 134q0 75 20 140t60 113t100 75.5t140 27.5q69 0 126 -24t100 -75l-72 -61q-29 34 -66.5 55t-94.5 21q-52 0 -90.5 -19.5t-64 -54t-38 -82t-12.5 -104.5q0 -137 58.5 -208.5t171.5 -71.5
q37 0 71.5 6.5t63.5 23.5v151h-153v82h250v-277zM448 718l-93 122h-2l-93 -122h-77l125 188h92l125 -188h-77z" />
    <glyph glyph-name="Gbreve" unicode="&#x11e;" horiz-adv-x="693" 
d="M615 56q-59 -38 -119 -54t-132 -16q-79 0 -139 28.5t-100 77t-60 112.5t-20 134q0 75 20 140t60 113t100 75.5t140 27.5q69 0 126 -24t100 -75l-72 -61q-29 34 -66.5 55t-94.5 21q-52 0 -90.5 -19.5t-64 -54t-38 -82t-12.5 -104.5q0 -137 58.5 -208.5t171.5 -71.5
q37 0 71.5 6.5t63.5 23.5v151h-153v82h250v-277zM352 764q-37 0 -64 11.5t-45 30.5t-27 43.5t-11 51.5l60 5q5 -29 27.5 -49.5t59.5 -20.5t59.5 20.5t27.5 49.5l60 -5q-2 -27 -11 -51.5t-27 -43.5t-45 -30.5t-64 -11.5z" />
    <glyph glyph-name="Gdotaccent" unicode="&#x120;" horiz-adv-x="693" 
d="M615 56q-59 -38 -119 -54t-132 -16q-79 0 -139 28.5t-100 77t-60 112.5t-20 134q0 75 20 140t60 113t100 75.5t140 27.5q69 0 126 -24t100 -75l-72 -61q-29 34 -66.5 55t-94.5 21q-52 0 -90.5 -19.5t-64 -54t-38 -82t-12.5 -104.5q0 -137 58.5 -208.5t171.5 -71.5
q37 0 71.5 6.5t63.5 23.5v151h-153v82h250v-277zM418 845q0 -26 -17.5 -43.5t-41.5 -17.5q-25 0 -41.5 17.5t-16.5 43.5t17.5 43.5t41.5 17.5q25 0 41.5 -17.5t16.5 -43.5z" />
    <glyph glyph-name="Gcommaaccent" unicode="&#x122;" horiz-adv-x="693" 
d="M615 56q-59 -38 -119 -54t-132 -16q-79 0 -139 28.5t-100 77t-60 112.5t-20 134q0 75 20 140t60 113t100 75.5t140 27.5q69 0 126 -24t100 -75l-72 -61q-29 34 -66.5 55t-94.5 21q-52 0 -90.5 -19.5t-64 -54t-38 -82t-12.5 -104.5q0 -137 58.5 -208.5t171.5 -71.5
q37 0 71.5 6.5t63.5 23.5v151h-153v82h250v-277zM329 -214q10 14 19.5 36t9.5 40q0 13 -6.5 21.5t-24.5 8.5h-15l-3 68q25 5 44 5q37 0 57.5 -19t20.5 -53q0 -26 -11.5 -53.5t-28.5 -53.5h-62z" />
    <glyph glyph-name="Hcircumflex" unicode="&#x124;" horiz-adv-x="752" 
d="M546 0v313h-340v-313h-97v680h97v-285h340v285h97v-680h-97zM471 718l-93 122h-2l-93 -122h-77l125 188h92l125 -188h-77z" />
    <glyph glyph-name="Hbar" unicode="&#x126;" horiz-adv-x="752" 
d="M546 0v313h-340v-313h-97v475h-88v73h88v132h97v-132h340v132h97v-132h88v-73h-88v-475h-97zM546 475h-340v-80h340v80z" />
    <glyph glyph-name="Igrave" unicode="&#xcc;" horiz-adv-x="315" 
d="M109 0v680h97v-680h-97zM113 718l-145 188h102l122 -188h-79z" />
    <glyph glyph-name="Iacute" unicode="&#xcd;" horiz-adv-x="315" 
d="M109 0v680h97v-680h-97zM120 718l122 188h102l-145 -188h-79z" />
    <glyph glyph-name="Icircumflex" unicode="&#xce;" horiz-adv-x="315" 
d="M109 0v680h97v-680h-97zM250 718l-93 122h-2l-93 -122h-77l125 188h92l125 -188h-77z" />
    <glyph glyph-name="Itilde" unicode="&#x128;" horiz-adv-x="315" 
d="M109 0v680h97v-680h-97zM225 787q-29 0 -60 8.5t-53 8.5q-20 0 -27 -14t-9 -33h-68q1 19 4 41t11.5 41t25 31t43.5 12q13 0 27.5 -2.5t29 -6t28 -6t24.5 -2.5q17 0 24 10.5t9 30.5h68q-2 -63 -20.5 -91t-56.5 -28z" />
    <glyph glyph-name="Idieresis" unicode="&#xcf;" horiz-adv-x="315" 
d="M109 0v680h97v-680h-97zM124 846q0 -25 -17.5 -42.5t-40.5 -17.5q-24 0 -40.5 17.5t-16.5 42.5q0 26 17.5 43t40.5 17q24 0 40.5 -17t16.5 -43zM301 846q0 -25 -17.5 -42.5t-40.5 -17.5q-24 0 -40.5 17.5t-16.5 42.5q0 26 17.5 43t40.5 17q24 0 40.5 -17t16.5 -43z" />
    <glyph glyph-name="Imacron" unicode="&#x12a;" horiz-adv-x="315" 
d="M109 0v680h97v-680h-97zM27 812v74h260v-74h-260z" />
    <glyph glyph-name="Ibreve" unicode="&#x12c;" horiz-adv-x="315" 
d="M109 0v680h97v-680h-97zM157 764q-37 0 -64 11.5t-45 30.5t-27 43.5t-11 51.5l60 5q5 -29 27.5 -49.5t59.5 -20.5t59.5 20.5t27.5 49.5l60 -5q-2 -27 -11 -51.5t-27 -43.5t-45 -30.5t-64 -11.5z" />
    <glyph glyph-name="Idotaccent" unicode="&#x130;" horiz-adv-x="315" 
d="M109 0v680h97v-680h-97zM215 845q0 -26 -17.5 -43.5t-41.5 -17.5q-25 0 -41.5 17.5t-16.5 43.5t17.5 43.5t41.5 17.5q25 0 41.5 -17.5t16.5 -43.5z" />
    <glyph glyph-name="Iogonek" unicode="&#x12e;" horiz-adv-x="315" 
d="M150 -214q-17 0 -33.5 5t-29.5 15.5t-20.5 26t-7.5 36.5q0 38 21 70.5t47 60.5h-18v680h97v-680h-21q-19 -20 -35.5 -46.5t-16.5 -54.5q0 -18 11.5 -30.5t32.5 -12.5q14 0 26.5 6t23.5 15l21 -56q-16 -16 -42.5 -25.5t-55.5 -9.5z" />
    <glyph glyph-name="IJ" unicode="&#x132;" horiz-adv-x="650" 
d="M109 0v680h97v-680h-97zM541 2q0 -45 -13 -84.5t-38 -69t-63 -46t-87 -16.5q-28 0 -56 5.5t-56 18.5l40 82q17 -9 36 -15.5t41 -6.5q28 0 47 10.5t30.5 28.5t16.5 41.5t5 50.5v679h97v-678v0z" />
    <glyph glyph-name="Jcircumflex" unicode="&#x134;" horiz-adv-x="335" 
d="M226 2q0 -45 -13 -84.5t-38 -69t-63 -46t-87 -16.5q-28 0 -56 5.5t-56 18.5l40 82q17 -9 36 -15.5t41 -6.5q28 0 47 10.5t30.5 28.5t16.5 41.5t5 50.5v679h97v-678v0zM269 718l-93 122h-2l-93 -122h-77l125 188h92l125 -188h-77z" />
    <glyph glyph-name="Kcommaaccent" unicode="&#x136;" horiz-adv-x="675" 
d="M640 7q-15 -8 -37 -12t-36 -4q-51 0 -76.5 27t-41.5 68l-14.5 35.5l-13 33.5l-13.5 36l-16 44q-9 24 -17.5 41.5t-20 30t-27.5 22t-40 17.5l-81 -88v-258h-97v680h97v-318h1l274 318h117l-242 -272v-1q26 -10 45.5 -22t34 -27.5t25.5 -35t20 -44.5q14 -39 29.5 -78
l28.5 -70q14 -32 27 -43.5t32 -11.5q6 0 14.5 1.5t14.5 4.5l13 -74v0zM299 -214q10 14 19.5 36t9.5 40q0 13 -6.5 21.5t-24.5 8.5h-15l-3 68q25 5 44 5q37 0 57.5 -19t20.5 -53q0 -26 -11.5 -53.5t-28.5 -53.5h-62z" />
    <glyph glyph-name="Lacute" unicode="&#x139;" horiz-adv-x="541" 
d="M109 0v680h97v-598h315v-82h-412zM120 718l122 188h102l-145 -188h-79z" />
    <glyph glyph-name="Lcaron" unicode="&#x13d;" horiz-adv-x="541" 
d="M109 0v680h97v-598h315v-82h-412zM276 554l42 182h91l-71 -182h-62z" />
    <glyph glyph-name="Lcommaaccent" unicode="&#x13b;" horiz-adv-x="541" 
d="M109 0v680h97v-598h315v-82h-412zM269 -214q10 14 19.5 36t9.5 40q0 13 -6.5 21.5t-24.5 8.5h-15l-3 68q25 5 44 5q37 0 57.5 -19t20.5 -53q0 -26 -11.5 -53.5t-28.5 -53.5h-62z" />
    <glyph glyph-name="Lslash" unicode="&#x141;" horiz-adv-x="541" 
d="M109 0v250l-76 -37l-32 65l108 53v349h97v-300l203 101l33 -65l-236 -118v-216h315v-82h-412z" />
    <glyph glyph-name="Ldot" unicode="&#x13f;" horiz-adv-x="541" 
d="M109 0v680h97v-598h315v-82h-412zM492 389q0 -28 -19.5 -47.5t-47.5 -19.5t-47.5 19.5t-19.5 47.5t19.5 47.5t47.5 19.5t47.5 -19.5t19.5 -47.5z" />
    <glyph glyph-name="Nacute" unicode="&#x143;" horiz-adv-x="754" 
d="M554 -9l-349 529h-3v-520h-93v680h106l334 -516h3v516h93v-689h-91zM334 718l122 188h102l-145 -188h-79z" />
    <glyph glyph-name="Ncaron" unicode="&#x147;" horiz-adv-x="754" 
d="M554 -9l-349 529h-3v-520h-93v680h106l334 -516h3v516h93v-689h-91zM340 718l-125 188h77l93 -122h2l93 122h77l-125 -188h-92z" />
    <glyph glyph-name="Ntilde" unicode="&#xd1;" horiz-adv-x="754" 
d="M554 -9l-349 529h-3v-520h-93v680h106l334 -516h3v516h93v-689h-91zM456 787q-29 0 -60 8.5t-53 8.5q-20 0 -27 -14t-9 -33h-68q1 19 4 41t11.5 41t25 31t43.5 12q13 0 27.5 -2.5t29 -6t28 -6t24.5 -2.5q17 0 24 10.5t9 30.5h68q-2 -63 -20.5 -91t-56.5 -28z" />
    <glyph glyph-name="Ncommaaccent" unicode="&#x145;" horiz-adv-x="754" 
d="M554 -9l-349 529h-3v-520h-93v680h106l334 -516h3v516h93v-689h-91zM344 -214q10 14 19.5 36t9.5 40q0 13 -6.5 21.5t-24.5 8.5h-15l-3 68q25 5 44 5q37 0 57.5 -19t20.5 -53q0 -26 -11.5 -53.5t-28.5 -53.5h-62z" />
    <glyph glyph-name="Ograve" unicode="&#xd2;" horiz-adv-x="732" 
d="M687 343q0 -94 -25.5 -161.5t-69.5 -111t-102 -64t-123 -20.5t-123.5 20.5t-102.5 63.5t-70 110t-26 160q0 90 26 157t70 110.5t102 65t123 21.5t123.5 -21.5t102.5 -65t69.5 -109.5t25.5 -155zM579 339q0 134 -57 202.5t-155 68.5q-102 0 -158 -68.5t-56 -202.5
q0 -135 56 -202t158 -67q98 0 155 67.5t57 201.5zM319 718l-145 188h102l122 -188h-79z" />
    <glyph glyph-name="Oacute" unicode="&#xd3;" horiz-adv-x="732" 
d="M687 343q0 -94 -25.5 -161.5t-69.5 -111t-102 -64t-123 -20.5t-123.5 20.5t-102.5 63.5t-70 110t-26 160q0 90 26 157t70 110.5t102 65t123 21.5t123.5 -21.5t102.5 -65t69.5 -109.5t25.5 -155zM579 339q0 134 -57 202.5t-155 68.5q-102 0 -158 -68.5t-56 -202.5
q0 -135 56 -202t158 -67q98 0 155 67.5t57 201.5zM326 718l122 188h102l-145 -188h-79z" />
    <glyph glyph-name="Ocircumflex" unicode="&#xd4;" horiz-adv-x="732" 
d="M687 343q0 -94 -25.5 -161.5t-69.5 -111t-102 -64t-123 -20.5t-123.5 20.5t-102.5 63.5t-70 110t-26 160q0 90 26 157t70 110.5t102 65t123 21.5t123.5 -21.5t102.5 -65t69.5 -109.5t25.5 -155zM579 339q0 134 -57 202.5t-155 68.5q-102 0 -158 -68.5t-56 -202.5
q0 -135 56 -202t158 -67q98 0 155 67.5t57 201.5zM462 718l-93 122h-2l-93 -122h-77l125 188h92l125 -188h-77z" />
    <glyph glyph-name="Otilde" unicode="&#xd5;" horiz-adv-x="732" 
d="M687 343q0 -94 -25.5 -161.5t-69.5 -111t-102 -64t-123 -20.5t-123.5 20.5t-102.5 63.5t-70 110t-26 160q0 90 26 157t70 110.5t102 65t123 21.5t123.5 -21.5t102.5 -65t69.5 -109.5t25.5 -155zM579 339q0 134 -57 202.5t-155 68.5q-102 0 -158 -68.5t-56 -202.5
q0 -135 56 -202t158 -67q98 0 155 67.5t57 201.5zM428 787q-29 0 -60 8.5t-53 8.5q-20 0 -27 -14t-9 -33h-68q1 19 4 41t11.5 41t25 31t43.5 12q13 0 27.5 -2.5t29 -6t28 -6t24.5 -2.5q17 0 24 10.5t9 30.5h68q-2 -63 -20.5 -91t-56.5 -28z" />
    <glyph glyph-name="Odieresis" unicode="&#xd6;" horiz-adv-x="732" 
d="M687 343q0 -94 -25.5 -161.5t-69.5 -111t-102 -64t-123 -20.5t-123.5 20.5t-102.5 63.5t-70 110t-26 160q0 90 26 157t70 110.5t102 65t123 21.5t123.5 -21.5t102.5 -65t69.5 -109.5t25.5 -155zM579 339q0 134 -57 202.5t-155 68.5q-102 0 -158 -68.5t-56 -202.5
q0 -135 56 -202t158 -67q98 0 155 67.5t57 201.5zM336 846q0 -25 -17.5 -42.5t-40.5 -17.5q-24 0 -40.5 17.5t-16.5 42.5q0 26 17.5 43t40.5 17q24 0 40.5 -17t16.5 -43zM513 846q0 -25 -17.5 -42.5t-40.5 -17.5q-24 0 -40.5 17.5t-16.5 42.5q0 26 17.5 43t40.5 17
q24 0 40.5 -17t16.5 -43z" />
    <glyph glyph-name="Omacron" unicode="&#x14c;" horiz-adv-x="732" 
d="M687 343q0 -94 -25.5 -161.5t-69.5 -111t-102 -64t-123 -20.5t-123.5 20.5t-102.5 63.5t-70 110t-26 160q0 90 26 157t70 110.5t102 65t123 21.5t123.5 -21.5t102.5 -65t69.5 -109.5t25.5 -155zM579 339q0 134 -57 202.5t-155 68.5q-102 0 -158 -68.5t-56 -202.5
q0 -135 56 -202t158 -67q98 0 155 67.5t57 201.5zM237 812v74h260v-74h-260z" />
    <glyph glyph-name="Obreve" unicode="&#x14e;" horiz-adv-x="732" 
d="M687 343q0 -94 -25.5 -161.5t-69.5 -111t-102 -64t-123 -20.5t-123.5 20.5t-102.5 63.5t-70 110t-26 160q0 90 26 157t70 110.5t102 65t123 21.5t123.5 -21.5t102.5 -65t69.5 -109.5t25.5 -155zM579 339q0 134 -57 202.5t-155 68.5q-102 0 -158 -68.5t-56 -202.5
q0 -135 56 -202t158 -67q98 0 155 67.5t57 201.5zM367 764q-37 0 -64 11.5t-45 30.5t-27 43.5t-11 51.5l60 5q5 -29 27.5 -49.5t59.5 -20.5t59.5 20.5t27.5 49.5l60 -5q-2 -27 -11 -51.5t-27 -43.5t-45 -30.5t-64 -11.5z" />
    <glyph glyph-name="Ohungarumlaut" unicode="&#x150;" horiz-adv-x="735" 
d="M687 343q0 -94 -25.5 -161.5t-69.5 -111t-102 -64t-123 -20.5t-123.5 20.5t-102.5 63.5t-70 110t-26 160q0 90 26 157t70 110.5t102 65t123 21.5t123.5 -21.5t102.5 -65t69.5 -109.5t25.5 -155zM579 339q0 134 -57 202.5t-155 68.5q-102 0 -158 -68.5t-56 -202.5
q0 -135 56 -202t158 -67q98 0 155 67.5t57 201.5zM250 718l122 188h99l-145 -188h-76zM403 718l122 188h99l-145 -188h-76z" />
    <glyph glyph-name="Oslash" unicode="&#xd8;" horiz-adv-x="732" 
d="M687 343q0 -94 -25.5 -161.5t-69.5 -111t-102 -64t-123 -20.5q-48 0 -92 10.5t-82 33.5l-64 -90h-93l97 138q-41 43 -64.5 107.5t-23.5 154.5t26 157t70 110.5t102 65t123 21.5q47 0 90 -11t81 -34l64 91h93l-97 -138q42 -44 66 -108t24 -151zM579 339q0 111 -42 179
l-292 -414q49 -34 122 -34q98 0 155 67.5t57 201.5zM153 339q0 -112 39 -178l293 414q-50 35 -118 35q-102 0 -158 -68.5t-56 -202.5z" />
    <glyph glyph-name="Oslashacute" unicode="&#x1fe;" horiz-adv-x="732" 
d="M687 343q0 -94 -25.5 -161.5t-69.5 -111t-102 -64t-123 -20.5q-48 0 -92 10.5t-82 33.5l-64 -90h-93l97 138q-41 43 -64.5 107.5t-23.5 154.5t26 157t70 110.5t102 65t123 21.5q47 0 90 -11t81 -34l64 91h93l-97 -138q42 -44 66 -108t24 -151zM579 339q0 111 -42 179
l-292 -414q49 -34 122 -34q98 0 155 67.5t57 201.5zM153 339q0 -112 39 -178l293 414q-50 35 -118 35q-102 0 -158 -68.5t-56 -202.5zM326 718l122 188h102l-145 -188h-79z" />
    <glyph glyph-name="OE" unicode="&#x152;" horiz-adv-x="995" 
d="M402 0q-81 0 -146.5 23t-112.5 67.5t-72.5 108.5t-25.5 145q0 82 27.5 144.5t76.5 105t116 64.5t145 22h494v-82h-289v-203h224v-82h-224v-231h342v-82h-555zM153 349q0 -71 20.5 -122t56 -83t84 -47t104.5 -15h100v516h-105q-58 0 -105.5 -15t-82 -46t-53.5 -77.5
t-19 -110.5z" />
    <glyph glyph-name="Racute" unicode="&#x154;" horiz-adv-x="689" 
d="M573 500q0 -34 -11.5 -61.5t-32 -48.5t-48.5 -35t-60 -21v-2q33 -17 52.5 -37.5t35.5 -59.5l24.5 -59.5l24.5 -57.5q11 -26 25 -34.5t30 -8.5q6 0 14 1.5t14 4.5l13 -74q-15 -8 -37 -12t-36 -4q-51 0 -76.5 27t-41.5 68l-28 69.5l-29 71.5q-17 40 -43.5 57.5t-78.5 17.5
h-78v-302h-97v680h204q42 0 88 -7.5t84.5 -28t63 -55.5t24.5 -89zM466 494q0 54 -38.5 80t-111.5 26h-110v-223h119q27 0 52.5 6t45 20t31.5 36t12 55zM278 718l122 188h102l-145 -188h-79z" />
    <glyph glyph-name="Rcaron" unicode="&#x158;" horiz-adv-x="689" 
d="M573 500q0 -34 -11.5 -61.5t-32 -48.5t-48.5 -35t-60 -21v-2q33 -17 52.5 -37.5t35.5 -59.5l24.5 -59.5l24.5 -57.5q11 -26 25 -34.5t30 -8.5q6 0 14 1.5t14 4.5l13 -74q-15 -8 -37 -12t-36 -4q-51 0 -76.5 27t-41.5 68l-28 69.5l-29 71.5q-17 40 -43.5 57.5t-78.5 17.5
h-78v-302h-97v680h204q42 0 88 -7.5t84.5 -28t63 -55.5t24.5 -89zM466 494q0 54 -38.5 80t-111.5 26h-110v-223h119q27 0 52.5 6t45 20t31.5 36t12 55zM273 718l-125 188h77l93 -122h2l93 122h77l-125 -188h-92z" />
    <glyph glyph-name="Rcommaaccent" unicode="&#x156;" horiz-adv-x="689" 
d="M573 500q0 -34 -11.5 -61.5t-32 -48.5t-48.5 -35t-60 -21v-2q33 -17 52.5 -37.5t35.5 -59.5l24.5 -59.5l24.5 -57.5q11 -26 25 -34.5t30 -8.5q6 0 14 1.5t14 4.5l13 -74q-15 -8 -37 -12t-36 -4q-51 0 -76.5 27t-41.5 68l-28 69.5l-29 71.5q-17 40 -43.5 57.5t-78.5 17.5
h-78v-302h-97v680h204q42 0 88 -7.5t84.5 -28t63 -55.5t24.5 -89zM466 494q0 54 -38.5 80t-111.5 26h-110v-223h119q27 0 52.5 6t45 20t31.5 36t12 55zM310 -214q10 14 19.5 36t9.5 40q0 13 -6.5 21.5t-24.5 8.5h-15l-3 68q25 5 44 5q37 0 57.5 -19t20.5 -53
q0 -26 -11.5 -53.5t-28.5 -53.5h-62z" />
    <glyph glyph-name="germandbls.cap" unicode="&#xe0aa;" horiz-adv-x="1144" 
d="M287 -14q-87 0 -146 33t-91 94l78 50q34 -51 72.5 -73t95.5 -22q64 0 102 26t38 78q0 45 -27 71t-67 43.5t-87 32t-87 36.5t-67 57.5t-27 94.5q0 41 13.5 75.5t41 59t68.5 38.5t95 14q65 0 120 -19t100 -71l-71 -59q-28 34 -64.5 50.5t-91.5 16.5q-60 0 -89 -27.5
t-29 -65.5q0 -40 27 -63t67.5 -40t87.5 -32t87.5 -39t67.5 -60.5t27 -96.5q0 -51 -18.5 -89t-51 -63t-77 -37.5t-97.5 -12.5zM859 -14q-87 0 -146 33t-91 94l78 50q34 -51 72.5 -73t95.5 -22q64 0 102 26t38 78q0 45 -27 71t-67 43.5t-87 32t-87 36.5t-67 57.5t-27 94.5
q0 41 13.5 75.5t41 59t68.5 38.5t95 14q65 0 120 -19t100 -71l-71 -59q-28 34 -64.5 50.5t-91.5 16.5q-60 0 -89 -27.5t-29 -65.5q0 -40 27 -63t67.5 -40t87.5 -32t87.5 -39t67.5 -60.5t27 -96.5q0 -51 -18.5 -89t-51 -63t-77 -37.5t-97.5 -12.5z" />
    <glyph glyph-name="Sacute" unicode="&#x15a;" horiz-adv-x="572" 
d="M287 -14q-87 0 -146 33t-91 94l78 50q34 -51 72.5 -73t95.5 -22q64 0 102 26t38 78q0 45 -27 71t-67 43.5t-87 32t-87 36.5t-67 57.5t-27 94.5q0 41 13.5 75.5t41 59t68.5 38.5t95 14q65 0 120 -19t100 -71l-71 -59q-28 34 -64.5 50.5t-91.5 16.5q-60 0 -89 -27.5
t-29 -65.5q0 -40 27 -63t67.5 -40t87.5 -32t87.5 -39t67.5 -60.5t27 -96.5q0 -51 -18.5 -89t-51 -63t-77 -37.5t-97.5 -12.5zM272 718l122 188h102l-145 -188h-79z" />
    <glyph glyph-name="Scircumflex" unicode="&#x15c;" horiz-adv-x="572" 
d="M287 -14q-87 0 -146 33t-91 94l78 50q34 -51 72.5 -73t95.5 -22q64 0 102 26t38 78q0 45 -27 71t-67 43.5t-87 32t-87 36.5t-67 57.5t-27 94.5q0 41 13.5 75.5t41 59t68.5 38.5t95 14q65 0 120 -19t100 -71l-71 -59q-28 34 -64.5 50.5t-91.5 16.5q-60 0 -89 -27.5
t-29 -65.5q0 -40 27 -63t67.5 -40t87.5 -32t87.5 -39t67.5 -60.5t27 -96.5q0 -51 -18.5 -89t-51 -63t-77 -37.5t-97.5 -12.5zM396 718l-93 122h-2l-93 -122h-77l125 188h92l125 -188h-77z" />
    <glyph glyph-name="Scaron" unicode="&#x160;" horiz-adv-x="572" 
d="M287 -14q-87 0 -146 33t-91 94l78 50q34 -51 72.5 -73t95.5 -22q64 0 102 26t38 78q0 45 -27 71t-67 43.5t-87 32t-87 36.5t-67 57.5t-27 94.5q0 41 13.5 75.5t41 59t68.5 38.5t95 14q65 0 120 -19t100 -71l-71 -59q-28 34 -64.5 50.5t-91.5 16.5q-60 0 -89 -27.5
t-29 -65.5q0 -40 27 -63t67.5 -40t87.5 -32t87.5 -39t67.5 -60.5t27 -96.5q0 -51 -18.5 -89t-51 -63t-77 -37.5t-97.5 -12.5zM254 718l-125 188h77l93 -122h2l93 122h77l-125 -188h-92z" />
    <glyph glyph-name="Scedilla" unicode="&#x15e;" horiz-adv-x="572" 
d="M289 -214q-29 0 -55.5 9.5t-42.5 25.5l21 56q11 -9 23.5 -15t26.5 -6q21 0 32.5 12.5t11.5 30.5q0 23 -12 45.5t-28 41.5q-78 5 -132.5 37.5t-83.5 89.5l78 50q34 -51 72.5 -73t95.5 -22q64 0 102 26t38 78q0 45 -27 71t-67 43.5t-87 32t-87 36.5t-67 57.5t-27 94.5
q0 41 13.5 75.5t41 59t68.5 38.5t95 14q65 0 120 -19t100 -71l-71 -59q-28 34 -64.5 50.5t-91.5 16.5q-60 0 -89 -27.5t-29 -65.5q0 -40 27 -63t67.5 -40t87.5 -32t87.5 -39t67.5 -60.5t27 -96.5q0 -47 -15.5 -82.5t-43 -60.5t-65.5 -39t-84 -18q23 -26 40 -56t17 -63
q0 -21 -8 -36.5t-20.5 -26t-29 -15.5t-33.5 -5z" />
    <glyph glyph-name="Scommaaccent" unicode="&#x218;" horiz-adv-x="572" 
d="M287 -14q-87 0 -146 33t-91 94l78 50q34 -51 72.5 -73t95.5 -22q64 0 102 26t38 78q0 45 -27 71t-67 43.5t-87 32t-87 36.5t-67 57.5t-27 94.5q0 41 13.5 75.5t41 59t68.5 38.5t95 14q65 0 120 -19t100 -71l-71 -59q-28 34 -64.5 50.5t-91.5 16.5q-60 0 -89 -27.5
t-29 -65.5q0 -40 27 -63t67.5 -40t87.5 -32t87.5 -39t67.5 -60.5t27 -96.5q0 -51 -18.5 -89t-51 -63t-77 -37.5t-97.5 -12.5zM258 -214q10 14 19.5 36t9.5 40q0 13 -6.5 21.5t-24.5 8.5h-15l-3 68q25 5 44 5q37 0 57.5 -19t20.5 -53q0 -26 -11.5 -53.5t-28.5 -53.5h-62z" />
    <glyph glyph-name="Tcaron" unicode="&#x164;" horiz-adv-x="590" 
d="M247 0v598h-237v82h570v-82h-236v-598h-97zM249 718l-125 188h77l93 -122h2l93 122h77l-125 -188h-92z" />
    <glyph glyph-name="Tcommaaccent" unicode="&#x162;" horiz-adv-x="590" 
d="M247 0v598h-237v82h570v-82h-236v-598h-97zM254 -214q10 14 19.5 36t9.5 40q0 13 -6.5 21.5t-24.5 8.5h-15l-3 68q25 5 44 5q37 0 57.5 -19t20.5 -53q0 -26 -11.5 -53.5t-28.5 -53.5h-62z" />
    <glyph glyph-name="Tcommaaccent" unicode="&#x21a;" horiz-adv-x="590" 
d="M247 0v598h-237v82h570v-82h-236v-598h-97zM254 -214q10 14 19.5 36t9.5 40q0 13 -6.5 21.5t-24.5 8.5h-15l-3 68q25 5 44 5q37 0 57.5 -19t20.5 -53q0 -26 -11.5 -53.5t-28.5 -53.5h-62z" />
    <glyph glyph-name="Tbar" unicode="&#x166;" horiz-adv-x="590" 
d="M344 391h158v-73h-158v-318h-97v318h-159v73h159v207h-237v82h570v-82h-236v-207z" />
    <glyph glyph-name="Ugrave" unicode="&#xd9;" horiz-adv-x="739" 
d="M635 269q0 -73 -15 -126.5t-48 -88t-84.5 -51.5t-123.5 -17q-61 0 -109.5 13.5t-82 43.5t-51 79t-17.5 121v437h97v-440q0 -85 38 -127.5t129 -42.5t131.5 41.5t40.5 134.5v434h95v-411v0zM326 718l-145 188h102l122 -188h-79z" />
    <glyph glyph-name="Uacute" unicode="&#xda;" horiz-adv-x="739" 
d="M635 269q0 -73 -15 -126.5t-48 -88t-84.5 -51.5t-123.5 -17q-61 0 -109.5 13.5t-82 43.5t-51 79t-17.5 121v437h97v-440q0 -85 38 -127.5t129 -42.5t131.5 41.5t40.5 134.5v434h95v-411v0zM323 718l122 188h102l-145 -188h-79z" />
    <glyph glyph-name="Ucircumflex" unicode="&#xdb;" horiz-adv-x="739" 
d="M635 269q0 -73 -15 -126.5t-48 -88t-84.5 -51.5t-123.5 -17q-61 0 -109.5 13.5t-82 43.5t-51 79t-17.5 121v437h97v-440q0 -85 38 -127.5t129 -42.5t131.5 41.5t40.5 134.5v434h95v-411v0zM467 718l-93 122h-2l-93 -122h-77l125 188h92l125 -188h-77z" />
    <glyph glyph-name="Utilde" unicode="&#x168;" horiz-adv-x="739" 
d="M635 269q0 -73 -15 -126.5t-48 -88t-84.5 -51.5t-123.5 -17q-61 0 -109.5 13.5t-82 43.5t-51 79t-17.5 121v437h97v-440q0 -85 38 -127.5t129 -42.5t131.5 41.5t40.5 134.5v434h95v-411v0zM442 787q-29 0 -60 8.5t-53 8.5q-20 0 -27 -14t-9 -33h-68q1 19 4 41t11.5 41
t25 31t43.5 12q13 0 27.5 -2.5t29 -6t28 -6t24.5 -2.5q17 0 24 10.5t9 30.5h68q-2 -63 -20.5 -91t-56.5 -28z" />
    <glyph glyph-name="Udieresis" unicode="&#xdc;" horiz-adv-x="739" 
d="M635 269q0 -73 -15 -126.5t-48 -88t-84.5 -51.5t-123.5 -17q-61 0 -109.5 13.5t-82 43.5t-51 79t-17.5 121v437h97v-440q0 -85 38 -127.5t129 -42.5t131.5 41.5t40.5 134.5v434h95v-411v0zM337 846q0 -25 -17.5 -42.5t-40.5 -17.5q-24 0 -40.5 17.5t-16.5 42.5
q0 26 17.5 43t40.5 17q24 0 40.5 -17t16.5 -43zM514 846q0 -25 -17.5 -42.5t-40.5 -17.5q-24 0 -40.5 17.5t-16.5 42.5q0 26 17.5 43t40.5 17q24 0 40.5 -17t16.5 -43z" />
    <glyph glyph-name="Umacron" unicode="&#x16a;" horiz-adv-x="739" 
d="M635 269q0 -73 -15 -126.5t-48 -88t-84.5 -51.5t-123.5 -17q-61 0 -109.5 13.5t-82 43.5t-51 79t-17.5 121v437h97v-440q0 -85 38 -127.5t129 -42.5t131.5 41.5t40.5 134.5v434h95v-411v0zM240 812v74h260v-74h-260z" />
    <glyph glyph-name="Ubreve" unicode="&#x16c;" horiz-adv-x="739" 
d="M635 269q0 -73 -15 -126.5t-48 -88t-84.5 -51.5t-123.5 -17q-61 0 -109.5 13.5t-82 43.5t-51 79t-17.5 121v437h97v-440q0 -85 38 -127.5t129 -42.5t131.5 41.5t40.5 134.5v434h95v-411v0zM370 764q-37 0 -64 11.5t-45 30.5t-27 43.5t-11 51.5l60 5q5 -29 27.5 -49.5
t59.5 -20.5t59.5 20.5t27.5 49.5l60 -5q-2 -27 -11 -51.5t-27 -43.5t-45 -30.5t-64 -11.5z" />
    <glyph glyph-name="Uring" unicode="&#x16e;" horiz-adv-x="739" 
d="M635 269q0 -73 -15 -126.5t-48 -88t-84.5 -51.5t-123.5 -17q-61 0 -109.5 13.5t-82 43.5t-51 79t-17.5 121v437h97v-440q0 -85 38 -127.5t129 -42.5t131.5 41.5t40.5 134.5v434h95v-411v0zM472 814q0 -42 -29.5 -66t-71.5 -24q-50 0 -76.5 25t-26.5 68q0 41 28 65t73 24
q48 0 75.5 -25t27.5 -67zM413 814q0 19 -9.5 32.5t-34.5 13.5q-24 0 -33.5 -13t-9.5 -30q0 -20 9 -33.5t36 -13.5q23 0 32.5 13.5t9.5 30.5z" />
    <glyph glyph-name="Uhungarumlaut" unicode="&#x170;" horiz-adv-x="739" 
d="M635 269q0 -73 -15 -126.5t-48 -88t-84.5 -51.5t-123.5 -17q-61 0 -109.5 13.5t-82 43.5t-51 79t-17.5 121v437h97v-440q0 -85 38 -127.5t129 -42.5t131.5 41.5t40.5 134.5v434h95v-411v0zM253 718l122 188h99l-145 -188h-76zM406 718l122 188h99l-145 -188h-76z" />
    <glyph glyph-name="Uogonek" unicode="&#x172;" horiz-adv-x="739" 
d="M366 -214q-17 0 -33.5 5t-29.5 15.5t-20.5 26t-7.5 36.5q0 33 17 62.5t40 55.5q-54 3 -96 18.5t-71.5 46t-45 77.5t-15.5 114v437h97v-440q0 -85 38 -127.5t129 -42.5t131.5 41.5t40.5 134.5v434h95v-411q0 -140 -57.5 -208.5t-187.5 -73.5q-16 -19 -28.5 -42t-12.5 -46
q0 -18 11.5 -30.5t32.5 -12.5q14 0 26.5 6t23.5 15l21 -56q-16 -16 -42.5 -25.5t-55.5 -9.5z" />
    <glyph glyph-name="Wgrave" unicode="&#x1e80;" horiz-adv-x="899" 
d="M588 -9l-143 546h-2l-158 -546h-93l-187 689h103l136 -549h2l155 549h96l143 -549h2l152 549h100l-214 -689h-92zM404 718l-145 188h102l122 -188h-79z" />
    <glyph glyph-name="Wacute" unicode="&#x1e82;" horiz-adv-x="899" 
d="M588 -9l-143 546h-2l-158 -546h-93l-187 689h103l136 -549h2l155 549h96l143 -549h2l152 549h100l-214 -689h-92zM408 718l122 188h102l-145 -188h-79z" />
    <glyph glyph-name="Wcircumflex" unicode="&#x174;" horiz-adv-x="899" 
d="M588 -9l-143 546h-2l-158 -546h-93l-187 689h103l136 -549h2l155 549h96l143 -549h2l152 549h100l-214 -689h-92zM538 718l-93 122h-2l-93 -122h-77l125 188h92l125 -188h-77z" />
    <glyph glyph-name="Wdieresis" unicode="&#x1e84;" horiz-adv-x="899" 
d="M588 -9l-143 546h-2l-158 -546h-93l-187 689h103l136 -549h2l155 549h96l143 -549h2l152 549h100l-214 -689h-92zM413 846q0 -25 -17.5 -42.5t-40.5 -17.5q-24 0 -40.5 17.5t-16.5 42.5q0 26 17.5 43t40.5 17q24 0 40.5 -17t16.5 -43zM590 846q0 -25 -17.5 -42.5
t-40.5 -17.5q-24 0 -40.5 17.5t-16.5 42.5q0 26 17.5 43t40.5 17q24 0 40.5 -17t16.5 -43z" />
    <glyph glyph-name="Ygrave" unicode="&#x1ef2;" horiz-adv-x="570" 
d="M243 0v276l-238 404h112l178 -312h2l163 312h105l-225 -404v-276h-97zM245 718l-145 188h102l122 -188h-79z" />
    <glyph glyph-name="Yacute" unicode="&#xdd;" horiz-adv-x="570" 
d="M243 0v276l-238 404h112l178 -312h2l163 312h105l-225 -404v-276h-97zM255 718l122 188h102l-145 -188h-79z" />
    <glyph glyph-name="Ycircumflex" unicode="&#x176;" horiz-adv-x="570" 
d="M243 0v276l-238 404h112l178 -312h2l163 312h105l-225 -404v-276h-97zM383 718l-93 122h-2l-93 -122h-77l125 188h92l125 -188h-77z" />
    <glyph glyph-name="Ydieresis" unicode="&#x178;" horiz-adv-x="570" 
d="M243 0v276l-238 404h112l178 -312h2l163 312h105l-225 -404v-276h-97zM259 846q0 -25 -17.5 -42.5t-40.5 -17.5q-24 0 -40.5 17.5t-16.5 42.5q0 26 17.5 43t40.5 17q24 0 40.5 -17t16.5 -43zM436 846q0 -25 -17.5 -42.5t-40.5 -17.5q-24 0 -40.5 17.5t-16.5 42.5
q0 26 17.5 43t40.5 17q24 0 40.5 -17t16.5 -43z" />
    <glyph glyph-name="Zacute" unicode="&#x179;" horiz-adv-x="550" 
d="M522 0h-489v62l341 534v2h-330v82h451v-69l-346 -527v-2h373v-82zM217 718l122 188h102l-145 -188h-79z" />
    <glyph glyph-name="Zcaron" unicode="&#x17d;" horiz-adv-x="550" 
d="M522 0h-489v62l341 534v2h-330v82h451v-69l-346 -527v-2h373v-82zM218 718l-125 188h77l93 -122h2l93 122h77l-125 -188h-92z" />
    <glyph glyph-name="Zdotaccent" unicode="&#x17b;" horiz-adv-x="550" 
d="M522 0h-489v62l341 534v2h-330v82h451v-69l-346 -527v-2h373v-82zM319 845q0 -26 -17.5 -43.5t-41.5 -17.5q-25 0 -41.5 17.5t-16.5 43.5t17.5 43.5t41.5 17.5q25 0 41.5 -17.5t16.5 -43.5z" />
    <glyph glyph-name="Eng" unicode="&#x14a;" horiz-adv-x="754" 
d="M205 520h-3v-520h-93v680h106l334 -506h3v506h93v-680q0 -45 -11 -84.5t-33 -68t-54.5 -45t-74.5 -16.5q-24 0 -48.5 5.5t-48.5 18.5l35 81q14 -9 29.5 -15.5t33.5 -6.5q25 0 41 10.5t25.5 28t13.5 41.5t4 51z" />
    <glyph glyph-name="Eth" unicode="&#xd0;" horiz-adv-x="724" 
d="M679 336q0 -82 -27.5 -144.5t-76.5 -105t-116 -64.5t-145 -22h-205v317h-88v75h88v288h213q81 0 146.5 -23t112.5 -67.5t72.5 -108.5t25.5 -145zM571 331q0 71 -20.5 121.5t-56 83t-84 47.5t-104.5 15h-100v-206h186v-75h-186v-235h105q58 0 105.5 15t82 45.5t53.5 77.5
t19 111z" />
    <glyph glyph-name="Thorn" unicode="&#xde;" horiz-adv-x="622" 
d="M469 389q0 33 -11.5 57t-32 39t-48.5 22t-60 7h-111v-255h102q29 0 58 5t52 19t37 39.5t14 66.5zM577 390q0 -60 -23 -100.5t-60 -65t-85 -35t-97 -10.5h-106v-179h-97v680h97v-86h110q52 0 99.5 -11.5t83.5 -36t57 -63t21 -93.5z" />
    <glyph glyph-name="a" unicode="a" horiz-adv-x="531" 
d="M448 -9q-35 0 -54 16t-33 53h-3q-37 -34 -77 -54t-94 -20q-27 0 -52 8.5t-44 25t-30.5 40.5t-11.5 55q0 36 15 66.5t50 57t93.5 50t145.5 46.5v21q0 52 -27.5 72.5t-75.5 20.5q-26 0 -44 -4t-30.5 -13t-21 -23t-15.5 -34l-77 24q15 55 61.5 90t133.5 35q92 0 138 -40
t46 -136v-196q0 -51 8.5 -70.5t30.5 -19.5q11 0 24 5l10 -64q-14 -5 -30.5 -8.5t-35.5 -3.5zM353 269q-62 -18 -102.5 -34.5t-64.5 -33t-33.5 -34t-9.5 -36.5q0 -33 19 -51.5t52 -18.5q43 0 78 22t61 50v136z" />
    <glyph glyph-name="b" unicode="b" horiz-adv-x="559" 
d="M524 259q0 -54 -14 -103.5t-42 -87t-70.5 -60t-99.5 -22.5q-36 0 -69 9t-62 29h-4q-4 -12 -10 -24h-68v726h88v-286h1q32 33 69.5 58.5t91.5 25.5q46 0 81 -19.5t59 -54.5t36.5 -83.5t12.5 -107.5zM433 252q0 100 -33 147.5t-89 47.5q-21 0 -40 -8.5t-36.5 -21t-33 -28
l-28.5 -29.5v-264q22 -21 53 -30t60 -9q40 0 68 15.5t45.5 42t25.5 62t8 75.5z" />
    <glyph glyph-name="c" unicode="c" horiz-adv-x="462" 
d="M259 -14q-57 0 -99 20.5t-70 56t-41.5 83.5t-13.5 104q0 57 14.5 107t43 87t71.5 58.5t100 21.5q50 0 92 -18.5t73 -60.5l-65 -51q-16 22 -39 38t-65 16q-38 0 -64 -15.5t-41.5 -41t-22 -60t-6.5 -71.5q0 -44 8 -80.5t25 -62.5t43 -40.5t61 -14.5q24 0 42.5 6.5t32 17
t23.5 24t18 27.5l63 -41q-32 -59 -77.5 -84.5t-105.5 -25.5z" />
    <glyph glyph-name="d" unicode="d" horiz-adv-x="559" 
d="M405 0q-8 22 -11 38t-5 33h-3q-33 -34 -70.5 -59.5t-91.5 -25.5q-46 0 -81 19.5t-59 54.5t-36.5 83.5t-12.5 107.5q0 54 14 103.5t42 87t70.5 60t99.5 22.5q38 0 68.5 -8.5t54.5 -24.5h2v235h88v-726h-69zM386 414q-22 21 -53 30t-60 9q-40 0 -68 -15.5t-45.5 -42
t-25.5 -62t-8 -75.5q0 -100 33 -147.5t89 -47.5q21 0 40 8t36.5 21t33 28.5l28.5 29.5v264z" />
    <glyph glyph-name="e" unicode="e" horiz-adv-x="522" 
d="M274 -14q-61 0 -106 21.5t-75 58t-44.5 86t-14.5 105.5q0 54 15 102.5t44 85t72.5 58t100.5 21.5q50 0 89 -16t66 -45t41 -70.5t14 -92.5q0 -12 -0.5 -26.5t-2.5 -28.5h-349q1 -39 10.5 -72.5t28.5 -58t48 -38.5t68 -14q27 0 47.5 6.5t35.5 17t26 24t20 27.5l63 -41
q-34 -59 -83.5 -84.5t-113.5 -25.5zM385 314q2 29 -4.5 55t-21.5 45.5t-39.5 30.5t-57.5 11q-62 0 -95.5 -39.5t-38.5 -102.5h257z" />
    <glyph glyph-name="f" unicode="f" horiz-adv-x="317" 
d="M85 0v431h-70v69h70v34q0 39 10 75.5t32 64.5t57.5 45t87.5 17q41 0 77.5 -16t59.5 -50l-66 -50q-13 20 -30 32.5t-49 12.5q-51 0 -71 -34.5t-20 -91.5v-39h126v-69h-126v-431h-88z" />
    <glyph glyph-name="g" unicode="g" horiz-adv-x="501" 
d="M473 -46q0 -35 -13.5 -65.5t-40.5 -53.5t-68.5 -36t-97.5 -13q-43 0 -82.5 7.5t-70 24.5t-48.5 43.5t-18 64.5q0 37 18 67l79 -15q-6 -9 -9.5 -19t-3.5 -22q0 -38 35 -60t101 -22q69 0 100 24t31 65q0 21 -8.5 35.5t-22.5 23t-32 12.5t-37 5l-95 3q-57 2 -89.5 21.5
t-32.5 66.5q0 29 13 53t34 44v2q-34 20 -53 56t-19 88q0 42 15 73.5t40.5 53t59.5 32.5t72 11q35 0 66.5 -9.5t56.5 -26.5q30 36 86 36q14 0 29.5 -3.5t26.5 -8.5l-18 -70q-9 5 -19.5 8t-22.5 3q-24 0 -39 -12v-2q21 -36 21 -85q0 -36 -11 -67.5t-34 -55.5t-58 -38t-84 -14
q-35 0 -62 7q-10 -10 -16 -22t-6 -26q0 -22 16.5 -28.5t42.5 -7.5l95 -3q36 -1 68 -9.5t55 -26t36.5 -44.5t13.5 -65zM331 348q0 19 -5 39t-17 36t-32 26t-50 10q-26 0 -44.5 -10t-30 -25.5t-17 -34t-5.5 -35.5q0 -20 5.5 -39.5t17.5 -36t31.5 -26.5t47.5 -10t47 10t30.5 26
t16.5 34.5t5 35.5z" />
    <glyph glyph-name="h" unicode="h" horiz-adv-x="571" 
d="M404 0v335q0 52 -21.5 82t-63.5 30q-23 0 -43 -7.5t-38 -20t-34 -28l-31 -31.5v-360h-88v726h88v-285h3q35 36 73.5 59.5t92.5 23.5q31 0 58 -11t47.5 -31.5t32.5 -50.5t12 -68v-363h-88z" />
    <glyph glyph-name="i" unicode="i" horiz-adv-x="273" 
d="M100 0v441h-82v69h170v-510h-88zM203 675q0 -26 -17.5 -43.5t-41.5 -17.5q-25 0 -41.5 17.5t-16.5 43.5t17.5 43.5t41.5 17.5q25 0 41.5 -17.5t16.5 -43.5z" />
    <glyph glyph-name="j" unicode="j" horiz-adv-x="258" 
d="M-11 -214q-26 0 -53.5 5.5t-46.5 16.5l38 73q14 -10 31.5 -17t37.5 -7q28 0 45 11t27 30t13.5 43t3.5 51v518h88v-512q0 -98 -45 -155t-139 -57zM184 675q0 -26 -17.5 -43.5t-41.5 -17.5q-25 0 -41.5 17.5t-16.5 43.5t17.5 43.5t41.5 17.5q25 0 41.5 -17.5t16.5 -43.5z
" />
    <glyph glyph-name="k" unicode="k" horiz-adv-x="502" 
d="M500 3q-11 -6 -28.5 -9t-28.5 -3q-20 0 -34.5 5.5t-25 15t-18.5 23t-14 29.5l-10.5 26.5l-9 23.5l-10 26l-12.5 33q-8 22 -15.5 36.5t-16.5 24t-20.5 15t-27.5 10.5l-56 -68v-191h-88v726h88v-428h2l171 212h106l-171 -196v-2q24 -6 40 -14t27 -19t19 -25.5t17 -34.5
q13 -29 24 -57l21 -52q14 -35 21.5 -45t18.5 -10t21 5l10 -57v0z" />
    <glyph glyph-name="l" unicode="l" horiz-adv-x="275" 
d="M260 2q-14 -5 -34.5 -8t-43.5 -3q-53 0 -75 28t-22 86v621h88v-600q0 -35 9 -49.5t35 -14.5q16 0 33 5l10 -65v0z" />
    <glyph glyph-name="m" unicode="m" horiz-adv-x="894" 
d="M723 0v335q0 52 -21.5 82t-63.5 30q-23 0 -43 -7.5t-38 -20t-34 -28l-31 -31.5v-360h-88v335q0 52 -21.5 82t-63.5 30q-23 0 -43 -7.5t-38 -20t-34 -28l-31 -31.5v-360h-88v510h69q8 -22 11 -38t5 -33h3q38 38 76.5 61.5t92.5 23.5q46 0 83.5 -24t54.5 -69h3
q23 23 44 40.5t42 29t43.5 17.5t48.5 6q31 0 58 -11t47.5 -31.5t32.5 -50.5t12 -68v-363h-88z" />
    <glyph glyph-name="n" unicode="n" horiz-adv-x="584" 
d="M417 0v335q0 52 -22.5 82t-67.5 30q-24 0 -45.5 -7.5t-40 -20t-35.5 -28l-33 -31.5v-360h-88v510h69q8 -22 11 -38t5 -33h3q38 37 78.5 61t97.5 24q33 0 61.5 -11t49.5 -31.5t33 -50.5t12 -68v-363h-88z" />
    <glyph glyph-name="o" unicode="o" horiz-adv-x="533" 
d="M498 253q0 -62 -17.5 -111t-48.5 -84t-73 -53.5t-91 -18.5q-55 0 -98.5 19t-73.5 54t-45.5 85.5t-15.5 112.5q0 61 17.5 110.5t48.5 84.5t73 53.5t91 18.5q55 0 98.5 -19t73.5 -54.5t45.5 -85.5t15.5 -112zM407 251q0 39 -7.5 74.5t-24 63t-44.5 44t-68 16.5
q-38 0 -64 -16.5t-42.5 -43.5t-23.5 -61t-7 -69q0 -39 7.5 -74.5t24 -63t44 -44t68.5 -16.5q38 0 64 16.5t42.5 43.5t23.5 61t7 69z" />
    <glyph glyph-name="p" unicode="p" horiz-adv-x="559" 
d="M524 259q0 -54 -14 -103.5t-42 -87t-70.5 -60t-99.5 -22.5q-74 0 -124 33h-1v-219h-88v710h69q8 -22 11 -38t5 -33h3q33 34 70.5 59.5t91.5 25.5q46 0 81 -19.5t59 -54.5t36.5 -83.5t12.5 -107.5zM433 252q0 100 -33 147.5t-89 47.5q-21 0 -40 -8.5t-36.5 -21t-33 -28
l-28.5 -29.5v-264q22 -21 53 -30t60 -9q40 0 68 15.5t45.5 42t25.5 62t8 75.5z" />
    <glyph glyph-name="q" unicode="q" horiz-adv-x="559" 
d="M386 -200v270h-1q-32 -33 -69.5 -58.5t-91.5 -25.5q-46 0 -81 19.5t-59 54.5t-36.5 83.5t-12.5 107.5q0 54 14 103.5t42 87t70.5 60t99.5 22.5q36 0 69 -9t62 -29h4q4 12 10 24h68v-710h-88zM386 414q-22 21 -53 30t-60 9q-40 0 -68 -15.5t-45.5 -42t-25.5 -62t-8 -75.5
q0 -100 33 -147.5t89 -47.5q21 0 40 8t36.5 21t33 28.5l28.5 29.5v264z" />
    <glyph glyph-name="r" unicode="r" horiz-adv-x="375" 
d="M85 0v510h69q7 -20 11 -37.5t5 -38.5h4l33 32.5t36.5 29t42 20.5t48.5 8q17 0 35 -3l-20 -91q-17 5 -33 5q-33 0 -66.5 -17t-76.5 -61v-357h-88z" />
    <glyph glyph-name="s" unicode="s" horiz-adv-x="444" 
d="M411 146q0 -43 -14.5 -73t-39.5 -49.5t-59 -28.5t-73 -9q-76 0 -121 26.5t-69 77.5l67 43q21 -36 49 -55t77 -19q48 0 71.5 19t23.5 50q0 32 -20 50t-49.5 31t-64.5 24t-64.5 28.5t-49.5 45t-20 72.5q0 65 44.5 105t125.5 40q58 0 98.5 -14.5t73.5 -56.5l-61 -51
q-22 28 -48.5 39.5t-68.5 11.5q-40 0 -60.5 -15.5t-20.5 -44.5t20 -46t50.5 -29t66 -23.5t66 -29.5t50.5 -46t20 -73z" />
    <glyph glyph-name="t" unicode="t" horiz-adv-x="340" 
d="M213 -14q-63 0 -95.5 42.5t-32.5 119.5v283h-70v69h70q4 36 14 73t23 69h51v-142h126v-69h-126v-268q0 -23 1.5 -42t7 -32.5t16.5 -20.5t30 -7q21 0 36 12.5t28 26.5l42 -57q-24 -27 -53.5 -42t-67.5 -15z" />
    <glyph glyph-name="u" unicode="u" horiz-adv-x="572" 
d="M419 0q-8 22 -11 38t-5 33h-3q-36 -37 -75 -61t-94 -24q-32 0 -59 11t-47.5 31.5t-32 50.5t-11.5 68v363h88v-335q0 -52 21.5 -82t63.5 -30q23 0 43 7.5t38 20t34 28l31 31.5v360h88v-510h-69z" />
    <glyph glyph-name="v" unicode="v" horiz-adv-x="468" 
d="M197 -9l-193 519h100l133 -390h2l132 390h93l-194 -519h-73z" />
    <glyph glyph-name="w" unicode="w" horiz-adv-x="685" 
d="M466 -9l-127 386h-2l-121 -386h-73l-139 519h100l89 -367h2l115 367h73l119 -372h2l87 372h90l-142 -519h-73z" />
    <glyph glyph-name="x" unicode="x" horiz-adv-x="484" 
d="M373 0l-137 195h-2l-127 -195h-103l181 268l-166 242h109l115 -169h2l107 169h102l-160 -242l186 -268h-107z" />
    <glyph glyph-name="y" unicode="y" horiz-adv-x="463" 
d="M266 -66q-12 -37 -28.5 -62.5t-38 -42.5t-49 -27t-62.5 -16l-20 81q56 7 82.5 30t40.5 69l11 34l-198 510h101l142 -398h2l118 398h92l-193 -576v0z" />
    <glyph glyph-name="z" unicode="z" horiz-adv-x="467" 
d="M53 0v64l255 370v2h-242v74h355v-62l-257 -369v-2h275v-77h-386z" />
    <glyph glyph-name="agrave" unicode="&#xe0;" horiz-adv-x="531" 
d="M448 -9q-35 0 -54 16t-33 53h-3q-37 -34 -77 -54t-94 -20q-27 0 -52 8.5t-44 25t-30.5 40.5t-11.5 55q0 36 15 66.5t50 57t93.5 50t145.5 46.5v21q0 52 -27.5 72.5t-75.5 20.5q-26 0 -44 -4t-30.5 -13t-21 -23t-15.5 -34l-77 24q15 55 61.5 90t133.5 35q92 0 138 -40
t46 -136v-196q0 -51 8.5 -70.5t30.5 -19.5q11 0 24 5l10 -64q-14 -5 -30.5 -8.5t-35.5 -3.5zM353 269q-62 -18 -102.5 -34.5t-64.5 -33t-33.5 -34t-9.5 -36.5q0 -33 19 -51.5t52 -18.5q43 0 78 22t61 50v136zM216 548l-145 188h102l122 -188h-79z" />
    <glyph glyph-name="aacute" unicode="&#xe1;" horiz-adv-x="531" 
d="M448 -9q-35 0 -54 16t-33 53h-3q-37 -34 -77 -54t-94 -20q-27 0 -52 8.5t-44 25t-30.5 40.5t-11.5 55q0 36 15 66.5t50 57t93.5 50t145.5 46.5v21q0 52 -27.5 72.5t-75.5 20.5q-26 0 -44 -4t-30.5 -13t-21 -23t-15.5 -34l-77 24q15 55 61.5 90t133.5 35q92 0 138 -40
t46 -136v-196q0 -51 8.5 -70.5t30.5 -19.5q11 0 24 5l10 -64q-14 -5 -30.5 -8.5t-35.5 -3.5zM353 269q-62 -18 -102.5 -34.5t-64.5 -33t-33.5 -34t-9.5 -36.5q0 -33 19 -51.5t52 -18.5q43 0 78 22t61 50v136zM219 548l122 188h102l-145 -188h-79z" />
    <glyph glyph-name="acircumflex" unicode="&#xe2;" horiz-adv-x="531" 
d="M448 -9q-35 0 -54 16t-33 53h-3q-37 -34 -77 -54t-94 -20q-27 0 -52 8.5t-44 25t-30.5 40.5t-11.5 55q0 36 15 66.5t50 57t93.5 50t145.5 46.5v21q0 52 -27.5 72.5t-75.5 20.5q-26 0 -44 -4t-30.5 -13t-21 -23t-15.5 -34l-77 24q15 55 61.5 90t133.5 35q92 0 138 -40
t46 -136v-196q0 -51 8.5 -70.5t30.5 -19.5q11 0 24 5l10 -64q-14 -5 -30.5 -8.5t-35.5 -3.5zM353 269q-62 -18 -102.5 -34.5t-64.5 -33t-33.5 -34t-9.5 -36.5q0 -33 19 -51.5t52 -18.5q43 0 78 22t61 50v136zM356 548l-93 122h-2l-93 -122h-77l125 188h92l125 -188h-77z" />
    <glyph glyph-name="atilde" unicode="&#xe3;" horiz-adv-x="531" 
d="M448 -9q-35 0 -54 16t-33 53h-3q-37 -34 -77 -54t-94 -20q-27 0 -52 8.5t-44 25t-30.5 40.5t-11.5 55q0 36 15 66.5t50 57t93.5 50t145.5 46.5v21q0 52 -27.5 72.5t-75.5 20.5q-26 0 -44 -4t-30.5 -13t-21 -23t-15.5 -34l-77 24q15 55 61.5 90t133.5 35q92 0 138 -40
t46 -136v-196q0 -51 8.5 -70.5t30.5 -19.5q11 0 24 5l10 -64q-14 -5 -30.5 -8.5t-35.5 -3.5zM353 269q-62 -18 -102.5 -34.5t-64.5 -33t-33.5 -34t-9.5 -36.5q0 -33 19 -51.5t52 -18.5q43 0 78 22t61 50v136zM329 619q-14 0 -30 2.5t-31.5 6t-29.5 6t-26 2.5
q-20 0 -27.5 -15t-9.5 -34h-70q1 22 4.5 44.5t13 39.5t26 28t43.5 11q13 0 28 -2.5t30 -6t29 -6t26 -2.5q17 0 24.5 11.5t9.5 31.5h70q-2 -61 -21 -89t-59 -28z" />
    <glyph glyph-name="adieresis" unicode="&#xe4;" horiz-adv-x="531" 
d="M448 -9q-35 0 -54 16t-33 53h-3q-37 -34 -77 -54t-94 -20q-27 0 -52 8.5t-44 25t-30.5 40.5t-11.5 55q0 36 15 66.5t50 57t93.5 50t145.5 46.5v21q0 52 -27.5 72.5t-75.5 20.5q-26 0 -44 -4t-30.5 -13t-21 -23t-15.5 -34l-77 24q15 55 61.5 90t133.5 35q92 0 138 -40
t46 -136v-196q0 -51 8.5 -70.5t30.5 -19.5q11 0 24 5l10 -64q-14 -5 -30.5 -8.5t-35.5 -3.5zM353 269q-62 -18 -102.5 -34.5t-64.5 -33t-33.5 -34t-9.5 -36.5q0 -33 19 -51.5t52 -18.5q43 0 78 22t61 50v136zM221 676q0 -25 -17.5 -42.5t-40.5 -17.5q-24 0 -40.5 17.5
t-16.5 42.5q0 26 17.5 43t40.5 17q24 0 40.5 -17t16.5 -43zM398 676q0 -25 -17.5 -42.5t-40.5 -17.5q-24 0 -40.5 17.5t-16.5 42.5q0 26 17.5 43t40.5 17q24 0 40.5 -17t16.5 -43z" />
    <glyph glyph-name="amacron" unicode="&#x101;" horiz-adv-x="531" 
d="M448 -9q-35 0 -54 16t-33 53h-3q-37 -34 -77 -54t-94 -20q-27 0 -52 8.5t-44 25t-30.5 40.5t-11.5 55q0 36 15 66.5t50 57t93.5 50t145.5 46.5v21q0 52 -27.5 72.5t-75.5 20.5q-26 0 -44 -4t-30.5 -13t-21 -23t-15.5 -34l-77 24q15 55 61.5 90t133.5 35q92 0 138 -40
t46 -136v-196q0 -51 8.5 -70.5t30.5 -19.5q11 0 24 5l10 -64q-14 -5 -30.5 -8.5t-35.5 -3.5zM353 269q-62 -18 -102.5 -34.5t-64.5 -33t-33.5 -34t-9.5 -36.5q0 -33 19 -51.5t52 -18.5q43 0 78 22t61 50v136zM135 642v74h260v-74h-260z" />
    <glyph glyph-name="abreve" unicode="&#x103;" horiz-adv-x="531" 
d="M448 -9q-35 0 -54 16t-33 53h-3q-37 -34 -77 -54t-94 -20q-27 0 -52 8.5t-44 25t-30.5 40.5t-11.5 55q0 36 15 66.5t50 57t93.5 50t145.5 46.5v21q0 52 -27.5 72.5t-75.5 20.5q-26 0 -44 -4t-30.5 -13t-21 -23t-15.5 -34l-77 24q15 55 61.5 90t133.5 35q92 0 138 -40
t46 -136v-196q0 -51 8.5 -70.5t30.5 -19.5q11 0 24 5l10 -64q-14 -5 -30.5 -8.5t-35.5 -3.5zM353 269q-62 -18 -102.5 -34.5t-64.5 -33t-33.5 -34t-9.5 -36.5q0 -33 19 -51.5t52 -18.5q43 0 78 22t61 50v136zM260 594q-37 0 -64 11.5t-45 30.5t-27 43.5t-11 51.5l60 5
q5 -29 27.5 -49.5t59.5 -20.5t59.5 20.5t27.5 49.5l60 -5q-2 -27 -11 -51.5t-27 -43.5t-45 -30.5t-64 -11.5z" />
    <glyph glyph-name="aring" unicode="&#xe5;" horiz-adv-x="531" 
d="M448 -9q-35 0 -54 16t-33 53h-3q-37 -34 -77 -54t-94 -20q-27 0 -52 8.5t-44 25t-30.5 40.5t-11.5 55q0 36 15 66.5t50 57t93.5 50t145.5 46.5v21q0 52 -27.5 72.5t-75.5 20.5q-26 0 -44 -4t-30.5 -13t-21 -23t-15.5 -34l-77 24q15 55 61.5 90t133.5 35q92 0 138 -40
t46 -136v-196q0 -51 8.5 -70.5t30.5 -19.5q11 0 24 5l10 -64q-14 -5 -30.5 -8.5t-35.5 -3.5zM353 269q-62 -18 -102.5 -34.5t-64.5 -33t-33.5 -34t-9.5 -36.5q0 -33 19 -51.5t52 -18.5q43 0 78 22t61 50v136zM361 644q0 -42 -29.5 -66t-71.5 -24q-50 0 -76.5 25t-26.5 68
q0 41 28 65t73 24q48 0 75.5 -25t27.5 -67zM302 644q0 19 -9.5 32.5t-34.5 13.5q-24 0 -33.5 -13t-9.5 -30q0 -20 9 -33.5t36 -13.5q23 0 32.5 13.5t9.5 30.5z" />
    <glyph glyph-name="aringacute" unicode="&#x1fb;" horiz-adv-x="531" 
d="M448 -9q-35 0 -54 16t-33 53h-3q-37 -34 -77 -54t-94 -20q-27 0 -52 8.5t-44 25t-30.5 40.5t-11.5 55q0 36 15 66.5t50 57t93.5 50t145.5 46.5v21q0 52 -27.5 72.5t-75.5 20.5q-26 0 -44 -4t-30.5 -13t-21 -23t-15.5 -34l-77 24q15 55 61.5 90t133.5 35q92 0 138 -40
t46 -136v-196q0 -51 8.5 -70.5t30.5 -19.5q11 0 24 5l10 -64q-14 -5 -30.5 -8.5t-35.5 -3.5zM353 269q-62 -18 -102.5 -34.5t-64.5 -33t-33.5 -34t-9.5 -36.5q0 -33 19 -51.5t52 -18.5q43 0 78 22t61 50v136zM361 644q0 -42 -29.5 -66t-71.5 -24q-50 0 -76.5 25t-26.5 68
q0 41 28 65t73 24q48 0 75.5 -25t27.5 -67zM302 644q0 19 -9.5 32.5t-34.5 13.5q-24 0 -33.5 -13t-9.5 -30q0 -20 9 -33.5t36 -13.5q23 0 32.5 13.5t9.5 30.5zM214 759l122 188h102l-145 -188h-79z" />
    <glyph glyph-name="aogonek" unicode="&#x105;" horiz-adv-x="531" 
d="M420 -214q-36 0 -63.5 23t-27.5 68q0 21 6.5 39.5t16.5 35t23 29t25 21.5q-24 15 -39 58h-3q-37 -34 -77 -54t-94 -20q-27 0 -52 8.5t-44 25t-30.5 40.5t-11.5 55q0 36 15 66.5t50 57t93.5 50t145.5 46.5v21q0 52 -27.5 72.5t-75.5 20.5q-26 0 -44 -4t-30.5 -13t-21 -23
t-15.5 -34l-77 24q15 55 61.5 90t133.5 35q92 0 138 -40t46 -136v-196q0 -51 8.5 -70.5t30.5 -19.5q11 0 24 5l10 -64q-23 -8 -39.5 -15t-29.5 -16q-42 -29 -42 -67q0 -20 10.5 -34.5t33.5 -14.5q14 0 26.5 6t23.5 15l21 -56q-16 -16 -42.5 -25.5t-55.5 -9.5zM353 269
q-62 -18 -102.5 -34.5t-64.5 -33t-33.5 -34t-9.5 -36.5q0 -33 19 -51.5t52 -18.5q43 0 78 22t61 50v136z" />
    <glyph glyph-name="ae" unicode="&#xe6;" horiz-adv-x="838" 
d="M787 96q-34 -59 -83.5 -84.5t-113.5 -25.5q-74 0 -123 29t-77 80h-3q-11 -14 -29.5 -33t-43.5 -36t-57 -28.5t-70 -11.5q-27 0 -52 8.5t-44 25t-30.5 40.5t-11.5 55q0 36 15 65t50 53t93.5 45.5t145.5 42.5v35q0 53 -27.5 73t-75.5 20q-26 0 -44 -4t-30.5 -13t-21 -23
t-15.5 -34l-77 24q15 55 61.5 90t133.5 35q122 0 159 -69h2q27 32 67.5 50.5t96.5 18.5q50 0 89 -16t66 -45t41 -69.5t14 -90.5q0 -25 -3 -50h-348q-1 -41 8.5 -76t28.5 -60.5t48.5 -40t68.5 -14.5q27 0 47.5 6.5t35.5 17t26 24t20 27.5zM699 320q2 28 -4.5 52.5t-21.5 43.5
t-39 30t-57 11q-58 0 -92.5 -37t-40.5 -100h255zM353 256q-62 -16 -102.5 -30.5t-64.5 -29t-33.5 -30.5t-9.5 -35q0 -33 19 -51.5t52 -18.5q25 0 47.5 8.5t42.5 21.5t36 28.5t27 30.5q-8 24 -11 50.5t-3 55.5z" />
    <glyph glyph-name="aeacute" unicode="&#x1fd;" horiz-adv-x="838" 
d="M787 96q-34 -59 -83.5 -84.5t-113.5 -25.5q-74 0 -123 29t-77 80h-3q-11 -14 -29.5 -33t-43.5 -36t-57 -28.5t-70 -11.5q-27 0 -52 8.5t-44 25t-30.5 40.5t-11.5 55q0 36 15 65t50 53t93.5 45.5t145.5 42.5v35q0 53 -27.5 73t-75.5 20q-26 0 -44 -4t-30.5 -13t-21 -23
t-15.5 -34l-77 24q15 55 61.5 90t133.5 35q122 0 159 -69h2q27 32 67.5 50.5t96.5 18.5q50 0 89 -16t66 -45t41 -69.5t14 -90.5q0 -25 -3 -50h-348q-1 -41 8.5 -76t28.5 -60.5t48.5 -40t68.5 -14.5q27 0 47.5 6.5t35.5 17t26 24t20 27.5zM699 320q2 28 -4.5 52.5t-21.5 43.5
t-39 30t-57 11q-58 0 -92.5 -37t-40.5 -100h255zM353 256q-62 -16 -102.5 -30.5t-64.5 -29t-33.5 -30.5t-9.5 -35q0 -33 19 -51.5t52 -18.5q25 0 47.5 8.5t42.5 21.5t36 28.5t27 30.5q-8 24 -11 50.5t-3 55.5zM384 548l122 188h102l-145 -188h-79z" />
    <glyph glyph-name="cacute" unicode="&#x107;" horiz-adv-x="462" 
d="M259 -14q-57 0 -99 20.5t-70 56t-41.5 83.5t-13.5 104q0 57 14.5 107t43 87t71.5 58.5t100 21.5q50 0 92 -18.5t73 -60.5l-65 -51q-16 22 -39 38t-65 16q-38 0 -64 -15.5t-41.5 -41t-22 -60t-6.5 -71.5q0 -44 8 -80.5t25 -62.5t43 -40.5t61 -14.5q24 0 42.5 6.5t32 17
t23.5 24t18 27.5l63 -41q-32 -59 -77.5 -84.5t-105.5 -25.5zM224 548l122 188h102l-145 -188h-79z" />
    <glyph glyph-name="ccircumflex" unicode="&#x109;" horiz-adv-x="462" 
d="M259 -14q-57 0 -99 20.5t-70 56t-41.5 83.5t-13.5 104q0 57 14.5 107t43 87t71.5 58.5t100 21.5q50 0 92 -18.5t73 -60.5l-65 -51q-16 22 -39 38t-65 16q-38 0 -64 -15.5t-41.5 -41t-22 -60t-6.5 -71.5q0 -44 8 -80.5t25 -62.5t43 -40.5t61 -14.5q24 0 42.5 6.5t32 17
t23.5 24t18 27.5l63 -41q-32 -59 -77.5 -84.5t-105.5 -25.5zM351 548l-93 122h-2l-93 -122h-77l125 188h92l125 -188h-77z" />
    <glyph glyph-name="ccaron" unicode="&#x10d;" horiz-adv-x="462" 
d="M259 -14q-57 0 -99 20.5t-70 56t-41.5 83.5t-13.5 104q0 57 14.5 107t43 87t71.5 58.5t100 21.5q50 0 92 -18.5t73 -60.5l-65 -51q-16 22 -39 38t-65 16q-38 0 -64 -15.5t-41.5 -41t-22 -60t-6.5 -71.5q0 -44 8 -80.5t25 -62.5t43 -40.5t61 -14.5q24 0 42.5 6.5t32 17
t23.5 24t18 27.5l63 -41q-32 -59 -77.5 -84.5t-105.5 -25.5zM206 548l-125 188h77l93 -122h2l93 122h77l-125 -188h-92z" />
    <glyph glyph-name="cdotaccent" unicode="&#x10b;" horiz-adv-x="462" 
d="M259 -14q-57 0 -99 20.5t-70 56t-41.5 83.5t-13.5 104q0 57 14.5 107t43 87t71.5 58.5t100 21.5q50 0 92 -18.5t73 -60.5l-65 -51q-16 22 -39 38t-65 16q-38 0 -64 -15.5t-41.5 -41t-22 -60t-6.5 -71.5q0 -44 8 -80.5t25 -62.5t43 -40.5t61 -14.5q24 0 42.5 6.5t32 17
t23.5 24t18 27.5l63 -41q-32 -59 -77.5 -84.5t-105.5 -25.5zM314 675q0 -26 -17.5 -43.5t-41.5 -17.5q-25 0 -41.5 17.5t-16.5 43.5t17.5 43.5t41.5 17.5q25 0 41.5 -17.5t16.5 -43.5z" />
    <glyph glyph-name="ccedilla" unicode="&#xe7;" horiz-adv-x="462" 
d="M242 -214q-29 0 -55.5 9.5t-42.5 25.5l21 56q11 -9 23.5 -15t26.5 -6q21 0 32.5 12.5t11.5 30.5q0 25 -13 47.5t-29 42.5q-46 7 -80.5 30t-57 57.5t-33.5 79t-11 94.5q0 57 14.5 107t43 87t71.5 58.5t100 21.5q50 0 92 -18.5t73 -60.5l-65 -51q-16 22 -39 38t-65 16
q-38 0 -64 -15.5t-41.5 -41t-22 -60t-6.5 -71.5q0 -44 8 -80.5t25 -62.5t43 -40.5t61 -14.5q24 0 42.5 6.5t32 17t23.5 24t18 27.5l63 -41q-29 -54 -71.5 -80.5t-93.5 -29.5q23 -26 39.5 -55t16.5 -62q0 -21 -8 -36.5t-20.5 -26t-29 -15.5t-33.5 -5z" />
    <glyph glyph-name="dcaron" unicode="&#x10f;" horiz-adv-x="562" 
d="M405 0q-8 22 -11 38t-5 33h-3q-33 -34 -70.5 -59.5t-91.5 -25.5q-46 0 -81 19.5t-59 54.5t-36.5 83.5t-12.5 107.5q0 54 14 103.5t42 87t70.5 60t99.5 22.5q38 0 68.5 -8.5t54.5 -24.5h2v235h88v-726h-69zM386 414q-22 21 -53 30t-60 9q-40 0 -68 -15.5t-45.5 -42
t-25.5 -62t-8 -75.5q0 -100 33 -147.5t89 -47.5q21 0 40 8t36.5 21t33 28.5l28.5 29.5v264zM510 554l42 182h91l-71 -182h-62z" />
    <glyph glyph-name="dcroat" unicode="&#x111;" horiz-adv-x="559" 
d="M405 0q-8 22 -11 38t-5 33h-3q-33 -34 -70.5 -59.5t-91.5 -25.5q-46 0 -81 19.5t-59 54.5t-36.5 83.5t-12.5 107.5q0 54 14 103.5t42 87t70.5 60t99.5 22.5q38 0 68.5 -8.5t54.5 -24.5h2v83h-152v63h152v89h88v-89h74v-63h-74v-574h-69zM386 414q-22 21 -53 30t-60 9
q-40 0 -68 -15.5t-45.5 -42t-25.5 -62t-8 -75.5q0 -100 33 -147.5t89 -47.5q21 0 40 8t36.5 21t33 28.5l28.5 29.5v264z" />
    <glyph glyph-name="egrave" unicode="&#xe8;" horiz-adv-x="522" 
d="M274 -14q-61 0 -106 21.5t-75 58t-44.5 86t-14.5 105.5q0 54 15 102.5t44 85t72.5 58t100.5 21.5q50 0 89 -16t66 -45t41 -70.5t14 -92.5q0 -12 -0.5 -26.5t-2.5 -28.5h-349q1 -39 10.5 -72.5t28.5 -58t48 -38.5t68 -14q27 0 47.5 6.5t35.5 17t26 24t20 27.5l63 -41
q-34 -59 -83.5 -84.5t-113.5 -25.5zM385 314q2 29 -4.5 55t-21.5 45.5t-39.5 30.5t-57.5 11q-62 0 -95.5 -39.5t-38.5 -102.5h257zM225 548l-145 188h102l122 -188h-79z" />
    <glyph glyph-name="eacute" unicode="&#xe9;" horiz-adv-x="522" 
d="M274 -14q-61 0 -106 21.5t-75 58t-44.5 86t-14.5 105.5q0 54 15 102.5t44 85t72.5 58t100.5 21.5q50 0 89 -16t66 -45t41 -70.5t14 -92.5q0 -12 -0.5 -26.5t-2.5 -28.5h-349q1 -39 10.5 -72.5t28.5 -58t48 -38.5t68 -14q27 0 47.5 6.5t35.5 17t26 24t20 27.5l63 -41
q-34 -59 -83.5 -84.5t-113.5 -25.5zM385 314q2 29 -4.5 55t-21.5 45.5t-39.5 30.5t-57.5 11q-62 0 -95.5 -39.5t-38.5 -102.5h257zM224 548l122 188h102l-145 -188h-79z" />
    <glyph glyph-name="ecircumflex" unicode="&#xea;" horiz-adv-x="522" 
d="M274 -14q-61 0 -106 21.5t-75 58t-44.5 86t-14.5 105.5q0 54 15 102.5t44 85t72.5 58t100.5 21.5q50 0 89 -16t66 -45t41 -70.5t14 -92.5q0 -12 -0.5 -26.5t-2.5 -28.5h-349q1 -39 10.5 -72.5t28.5 -58t48 -38.5t68 -14q27 0 47.5 6.5t35.5 17t26 24t20 27.5l63 -41
q-34 -59 -83.5 -84.5t-113.5 -25.5zM385 314q2 29 -4.5 55t-21.5 45.5t-39.5 30.5t-57.5 11q-62 0 -95.5 -39.5t-38.5 -102.5h257zM359 548l-93 122h-2l-93 -122h-77l125 188h92l125 -188h-77z" />
    <glyph glyph-name="ecaron" unicode="&#x11b;" horiz-adv-x="522" 
d="M274 -14q-61 0 -106 21.5t-75 58t-44.5 86t-14.5 105.5q0 54 15 102.5t44 85t72.5 58t100.5 21.5q50 0 89 -16t66 -45t41 -70.5t14 -92.5q0 -12 -0.5 -26.5t-2.5 -28.5h-349q1 -39 10.5 -72.5t28.5 -58t48 -38.5t68 -14q27 0 47.5 6.5t35.5 17t26 24t20 27.5l63 -41
q-34 -59 -83.5 -84.5t-113.5 -25.5zM385 314q2 29 -4.5 55t-21.5 45.5t-39.5 30.5t-57.5 11q-62 0 -95.5 -39.5t-38.5 -102.5h257zM218 548l-125 188h77l93 -122h2l93 122h77l-125 -188h-92z" />
    <glyph glyph-name="edieresis" unicode="&#xeb;" horiz-adv-x="522" 
d="M274 -14q-61 0 -106 21.5t-75 58t-44.5 86t-14.5 105.5q0 54 15 102.5t44 85t72.5 58t100.5 21.5q50 0 89 -16t66 -45t41 -70.5t14 -92.5q0 -12 -0.5 -26.5t-2.5 -28.5h-349q1 -39 10.5 -72.5t28.5 -58t48 -38.5t68 -14q27 0 47.5 6.5t35.5 17t26 24t20 27.5l63 -41
q-34 -59 -83.5 -84.5t-113.5 -25.5zM385 314q2 29 -4.5 55t-21.5 45.5t-39.5 30.5t-57.5 11q-62 0 -95.5 -39.5t-38.5 -102.5h257zM237 676q0 -25 -17.5 -42.5t-40.5 -17.5q-24 0 -40.5 17.5t-16.5 42.5q0 26 17.5 43t40.5 17q24 0 40.5 -17t16.5 -43zM414 676
q0 -25 -17.5 -42.5t-40.5 -17.5q-24 0 -40.5 17.5t-16.5 42.5q0 26 17.5 43t40.5 17q24 0 40.5 -17t16.5 -43z" />
    <glyph glyph-name="emacron" unicode="&#x113;" horiz-adv-x="522" 
d="M274 -14q-61 0 -106 21.5t-75 58t-44.5 86t-14.5 105.5q0 54 15 102.5t44 85t72.5 58t100.5 21.5q50 0 89 -16t66 -45t41 -70.5t14 -92.5q0 -12 -0.5 -26.5t-2.5 -28.5h-349q1 -39 10.5 -72.5t28.5 -58t48 -38.5t68 -14q27 0 47.5 6.5t35.5 17t26 24t20 27.5l63 -41
q-34 -59 -83.5 -84.5t-113.5 -25.5zM385 314q2 29 -4.5 55t-21.5 45.5t-39.5 30.5t-57.5 11q-62 0 -95.5 -39.5t-38.5 -102.5h257zM132 642v74h260v-74h-260z" />
    <glyph glyph-name="ebreve" unicode="&#x115;" horiz-adv-x="522" 
d="M274 -14q-61 0 -106 21.5t-75 58t-44.5 86t-14.5 105.5q0 54 15 102.5t44 85t72.5 58t100.5 21.5q50 0 89 -16t66 -45t41 -70.5t14 -92.5q0 -12 -0.5 -26.5t-2.5 -28.5h-349q1 -39 10.5 -72.5t28.5 -58t48 -38.5t68 -14q27 0 47.5 6.5t35.5 17t26 24t20 27.5l63 -41
q-34 -59 -83.5 -84.5t-113.5 -25.5zM385 314q2 29 -4.5 55t-21.5 45.5t-39.5 30.5t-57.5 11q-62 0 -95.5 -39.5t-38.5 -102.5h257zM265 594q-37 0 -64 11.5t-45 30.5t-27 43.5t-11 51.5l60 5q5 -29 27.5 -49.5t59.5 -20.5t59.5 20.5t27.5 49.5l60 -5q-2 -27 -11 -51.5
t-27 -43.5t-45 -30.5t-64 -11.5z" />
    <glyph glyph-name="edotaccent" unicode="&#x117;" horiz-adv-x="522" 
d="M274 -14q-61 0 -106 21.5t-75 58t-44.5 86t-14.5 105.5q0 54 15 102.5t44 85t72.5 58t100.5 21.5q50 0 89 -16t66 -45t41 -70.5t14 -92.5q0 -12 -0.5 -26.5t-2.5 -28.5h-349q1 -39 10.5 -72.5t28.5 -58t48 -38.5t68 -14q27 0 47.5 6.5t35.5 17t26 24t20 27.5l63 -41
q-34 -59 -83.5 -84.5t-113.5 -25.5zM385 314q2 29 -4.5 55t-21.5 45.5t-39.5 30.5t-57.5 11q-62 0 -95.5 -39.5t-38.5 -102.5h257zM318 675q0 -26 -17.5 -43.5t-41.5 -17.5q-25 0 -41.5 17.5t-16.5 43.5t17.5 43.5t41.5 17.5q25 0 41.5 -17.5t16.5 -43.5z" />
    <glyph glyph-name="eogonek" unicode="&#x119;" horiz-adv-x="522" 
d="M358 -214q-17 0 -33.5 5t-29.5 15.5t-20.5 26t-7.5 36.5q0 35 18 65.5t42 56.5q-28 -5 -53 -5q-61 0 -106 21.5t-75 58t-44.5 86t-14.5 105.5q0 54 15 102.5t44 85t72.5 58t100.5 21.5q50 0 89 -16t66 -45t41 -70.5t14 -92.5q0 -12 -0.5 -26.5t-2.5 -28.5h-349
q1 -39 10.5 -72.5t28.5 -58t48 -38.5t68 -14q27 0 47.5 6.5t35.5 17t26 24t20 27.5l63 -41q-14 -23 -36 -47l-43 -48.5t-36 -49.5t-15 -52q0 -18 11.5 -30.5t32.5 -12.5q14 0 26.5 6t23.5 15l21 -56q-16 -16 -42.5 -25.5t-55.5 -9.5zM385 314q2 29 -4.5 55t-21.5 45.5
t-39.5 30.5t-57.5 11q-62 0 -95.5 -39.5t-38.5 -102.5h257z" />
    <glyph glyph-name="gcircumflex" unicode="&#x11d;" horiz-adv-x="501" 
d="M473 -46q0 -35 -13.5 -65.5t-40.5 -53.5t-68.5 -36t-97.5 -13q-43 0 -82.5 7.5t-70 24.5t-48.5 43.5t-18 64.5q0 37 18 67l79 -15q-6 -9 -9.5 -19t-3.5 -22q0 -38 35 -60t101 -22q69 0 100 24t31 65q0 21 -8.5 35.5t-22.5 23t-32 12.5t-37 5l-95 3q-57 2 -89.5 21.5
t-32.5 66.5q0 29 13 53t34 44v2q-34 20 -53 56t-19 88q0 42 15 73.5t40.5 53t59.5 32.5t72 11q35 0 66.5 -9.5t56.5 -26.5q30 36 86 36q14 0 29.5 -3.5t26.5 -8.5l-18 -70q-9 5 -19.5 8t-22.5 3q-24 0 -39 -12v-2q21 -36 21 -85q0 -36 -11 -67.5t-34 -55.5t-58 -38t-84 -14
q-35 0 -62 7q-10 -10 -16 -22t-6 -26q0 -22 16.5 -28.5t42.5 -7.5l95 -3q36 -1 68 -9.5t55 -26t36.5 -44.5t13.5 -65zM331 348q0 19 -5 39t-17 36t-32 26t-50 10q-26 0 -44.5 -10t-30 -25.5t-17 -34t-5.5 -35.5q0 -20 5.5 -39.5t17.5 -36t31.5 -26.5t47.5 -10t47 10t30.5 26
t16.5 34.5t5 35.5zM342 548l-93 122h-2l-93 -122h-77l125 188h92l125 -188h-77z" />
    <glyph glyph-name="gbreve" unicode="&#x11f;" horiz-adv-x="501" 
d="M473 -46q0 -35 -13.5 -65.5t-40.5 -53.5t-68.5 -36t-97.5 -13q-43 0 -82.5 7.5t-70 24.5t-48.5 43.5t-18 64.5q0 37 18 67l79 -15q-6 -9 -9.5 -19t-3.5 -22q0 -38 35 -60t101 -22q69 0 100 24t31 65q0 21 -8.5 35.5t-22.5 23t-32 12.5t-37 5l-95 3q-57 2 -89.5 21.5
t-32.5 66.5q0 29 13 53t34 44v2q-34 20 -53 56t-19 88q0 42 15 73.5t40.5 53t59.5 32.5t72 11q35 0 66.5 -9.5t56.5 -26.5q30 36 86 36q14 0 29.5 -3.5t26.5 -8.5l-18 -70q-9 5 -19.5 8t-22.5 3q-24 0 -39 -12v-2q21 -36 21 -85q0 -36 -11 -67.5t-34 -55.5t-58 -38t-84 -14
q-35 0 -62 7q-10 -10 -16 -22t-6 -26q0 -22 16.5 -28.5t42.5 -7.5l95 -3q36 -1 68 -9.5t55 -26t36.5 -44.5t13.5 -65zM331 348q0 19 -5 39t-17 36t-32 26t-50 10q-26 0 -44.5 -10t-30 -25.5t-17 -34t-5.5 -35.5q0 -20 5.5 -39.5t17.5 -36t31.5 -26.5t47.5 -10t47 10t30.5 26
t16.5 34.5t5 35.5zM244 594q-37 0 -64 11.5t-45 30.5t-27 43.5t-11 51.5l60 5q5 -29 27.5 -49.5t59.5 -20.5t59.5 20.5t27.5 49.5l60 -5q-2 -27 -11 -51.5t-27 -43.5t-45 -30.5t-64 -11.5z" />
    <glyph glyph-name="gdotaccent" unicode="&#x121;" horiz-adv-x="501" 
d="M473 -46q0 -35 -13.5 -65.5t-40.5 -53.5t-68.5 -36t-97.5 -13q-43 0 -82.5 7.5t-70 24.5t-48.5 43.5t-18 64.5q0 37 18 67l79 -15q-6 -9 -9.5 -19t-3.5 -22q0 -38 35 -60t101 -22q69 0 100 24t31 65q0 21 -8.5 35.5t-22.5 23t-32 12.5t-37 5l-95 3q-57 2 -89.5 21.5
t-32.5 66.5q0 29 13 53t34 44v2q-34 20 -53 56t-19 88q0 42 15 73.5t40.5 53t59.5 32.5t72 11q35 0 66.5 -9.5t56.5 -26.5q30 36 86 36q14 0 29.5 -3.5t26.5 -8.5l-18 -70q-9 5 -19.5 8t-22.5 3q-24 0 -39 -12v-2q21 -36 21 -85q0 -36 -11 -67.5t-34 -55.5t-58 -38t-84 -14
q-35 0 -62 7q-10 -10 -16 -22t-6 -26q0 -22 16.5 -28.5t42.5 -7.5l95 -3q36 -1 68 -9.5t55 -26t36.5 -44.5t13.5 -65zM331 348q0 19 -5 39t-17 36t-32 26t-50 10q-26 0 -44.5 -10t-30 -25.5t-17 -34t-5.5 -35.5q0 -20 5.5 -39.5t17.5 -36t31.5 -26.5t47.5 -10t47 10t30.5 26
t16.5 34.5t5 35.5zM286 675q0 -26 -17.5 -43.5t-41.5 -17.5q-25 0 -41.5 17.5t-16.5 43.5t17.5 43.5t41.5 17.5q25 0 41.5 -17.5t16.5 -43.5z" />
    <glyph glyph-name="gcommaaccent" unicode="&#x123;" horiz-adv-x="501" 
d="M473 -46q0 -35 -13.5 -65.5t-40.5 -53.5t-68.5 -36t-97.5 -13q-43 0 -82.5 7.5t-70 24.5t-48.5 43.5t-18 64.5q0 37 18 67l79 -15q-6 -9 -9.5 -19t-3.5 -22q0 -38 35 -60t101 -22q69 0 100 24t31 65q0 21 -8.5 35.5t-22.5 23t-32 12.5t-37 5l-95 3q-57 2 -89.5 21.5
t-32.5 66.5q0 29 13 53t34 44v2q-34 20 -53 56t-19 88q0 42 15 73.5t40.5 53t59.5 32.5t72 11q35 0 66.5 -9.5t56.5 -26.5q30 36 86 36q14 0 29.5 -3.5t26.5 -8.5l-18 -70q-9 5 -19.5 8t-22.5 3q-24 0 -39 -12v-2q21 -36 21 -85q0 -36 -11 -67.5t-34 -55.5t-58 -38t-84 -14
q-35 0 -62 7q-10 -10 -16 -22t-6 -26q0 -22 16.5 -28.5t42.5 -7.5l95 -3q36 -1 68 -9.5t55 -26t36.5 -44.5t13.5 -65zM331 348q0 19 -5 39t-17 36t-32 26t-50 10q-26 0 -44.5 -10t-30 -25.5t-17 -34t-5.5 -35.5q0 -20 5.5 -39.5t17.5 -36t31.5 -26.5t47.5 -10t47 10t30.5 26
t16.5 34.5t5 35.5zM286 562q-25 -5 -44 -5q-37 0 -57.5 19t-20.5 53q0 26 11.5 53.5t28.5 53.5h62q-10 -14 -19.5 -36t-9.5 -40q0 -13 6.5 -21.5t24.5 -8.5h15z" />
    <glyph glyph-name="hcircumflex" unicode="&#x125;" horiz-adv-x="571" 
d="M404 0v335q0 52 -21.5 82t-63.5 30q-23 0 -43 -7.5t-38 -20t-34 -28l-31 -31.5v-360h-88v726h88v-285h3q35 36 73.5 59.5t92.5 23.5q31 0 58 -11t47.5 -31.5t32.5 -50.5t12 -68v-363h-88zM222 716l-93 122h-2l-93 -122h-77l125 188h92l125 -188h-77z" />
    <glyph glyph-name="hbar" unicode="&#x127;" horiz-adv-x="571" 
d="M404 0v335q0 52 -21.5 82t-63.5 30q-23 0 -43 -7.5t-38 -20t-34 -28l-31 -31.5v-360h-88v574h-74v63h74v89h88v-89h152v-63h-152v-133h3q35 36 73.5 59.5t92.5 23.5q31 0 58 -11t47.5 -31.5t32.5 -50.5t12 -68v-363h-88z" />
    <glyph glyph-name="igrave" unicode="&#xec;" horiz-adv-x="273" 
d="M96 548l-145 188h102l122 -188h-79zM100 0v441h-82v69h170v-510h-88z" />
    <glyph glyph-name="iacute" unicode="&#xed;" horiz-adv-x="273" 
d="M104 548l122 188h102l-145 -188h-79zM100 0v441h-82v69h170v-510h-88z" />
    <glyph glyph-name="icircumflex" unicode="&#xee;" horiz-adv-x="273" 
d="M100 0v441h-82v69h170v-510h-88zM235 548l-93 122h-2l-93 -122h-77l125 188h92l125 -188h-77z" />
    <glyph glyph-name="itilde" unicode="&#x129;" horiz-adv-x="273" 
d="M210 619q-14 0 -30 2.5t-31.5 6t-29.5 6t-26 2.5q-20 0 -27.5 -15t-9.5 -34h-70q1 22 4.5 44.5t13 39.5t26 28t43.5 11q13 0 28 -2.5t30 -6t29 -6t26 -2.5q17 0 24.5 11.5t9.5 31.5h70q-2 -61 -21 -89t-59 -28zM100 0v441h-82v69h170v-510h-88z" />
    <glyph glyph-name="idieresis" unicode="&#xef;" horiz-adv-x="273" 
d="M111 676q0 -25 -17.5 -42.5t-40.5 -17.5q-24 0 -40.5 17.5t-16.5 42.5q0 26 17.5 43t40.5 17q24 0 40.5 -17t16.5 -43zM288 676q0 -25 -17.5 -42.5t-40.5 -17.5q-24 0 -40.5 17.5t-16.5 42.5q0 26 17.5 43t40.5 17q24 0 40.5 -17t16.5 -43zM100 0v441h-82v69h170v-510
h-88z" />
    <glyph glyph-name="imacron" unicode="&#x12b;" horiz-adv-x="273" 
d="M-1 642v74h260v-74h-260zM100 0v441h-82v69h170v-510h-88z" />
    <glyph glyph-name="ibreve" unicode="&#x12d;" horiz-adv-x="273" 
d="M132 594q-37 0 -64 11.5t-45 30.5t-27 43.5t-11 51.5l60 5q5 -29 27.5 -49.5t59.5 -20.5t59.5 20.5t27.5 49.5l60 -5q-2 -27 -11 -51.5t-27 -43.5t-45 -30.5t-64 -11.5zM100 0v441h-82v69h170v-510h-88z" />
    <glyph glyph-name="iogonek" unicode="&#x12f;" horiz-adv-x="273" 
d="M131 -214q-17 0 -33.5 5t-29.5 15.5t-20.5 26t-7.5 36.5q0 38 21 70.5t47 60.5h-8v441h-82v69h170v-510h-22q-19 -20 -35.5 -46.5t-16.5 -54.5q0 -18 11.5 -30.5t32.5 -12.5q14 0 26.5 6t23.5 15l21 -56q-16 -16 -42.5 -25.5t-55.5 -9.5zM203 675q0 -26 -17.5 -43.5
t-41.5 -17.5q-25 0 -41.5 17.5t-16.5 43.5t17.5 43.5t41.5 17.5q25 0 41.5 -17.5t16.5 -43.5z" />
    <glyph glyph-name="dotlessi" unicode="&#x131;" horiz-adv-x="273" 
d="M100 0v441h-82v69h170v-510h-88z" />
    <glyph glyph-name="ij" unicode="&#x133;" horiz-adv-x="531" 
d="M100 0v441h-82v69h170v-510h-88zM203 675q0 -26 -17.5 -43.5t-41.5 -17.5q-25 0 -41.5 17.5t-16.5 43.5t17.5 43.5t41.5 17.5q25 0 41.5 -17.5t16.5 -43.5zM262 -214q-26 0 -53.5 5.5t-46.5 16.5l38 73q14 -10 31.5 -17t37.5 -7q28 0 45 11t27 30t13.5 43t3.5 51v518h88
v-512q0 -98 -45 -155t-139 -57zM457 675q0 -26 -17.5 -43.5t-41.5 -17.5q-25 0 -41.5 17.5t-16.5 43.5t17.5 43.5t41.5 17.5q25 0 41.5 -17.5t16.5 -43.5z" />
    <glyph glyph-name="jcircumflex" unicode="&#x135;" horiz-adv-x="258" 
d="M173 -2q0 -98 -45 -155t-139 -57q-26 0 -53.5 5.5t-46.5 16.5l38 73q14 -10 31.5 -17t37.5 -7q28 0 45 11t27 30t13.5 43t3.5 51v518h88v-512zM222 548l-93 122h-2l-93 -122h-77l125 188h92l125 -188h-77z" />
    <glyph glyph-name="kcommaaccent" unicode="&#x137;" horiz-adv-x="502" 
d="M500 3q-11 -6 -28.5 -9t-28.5 -3q-20 0 -34.5 5.5t-25 15t-18.5 23t-14 29.5l-10.5 26.5l-9 23.5l-10 26l-12.5 33q-8 22 -15.5 36.5t-16.5 24t-20.5 15t-27.5 10.5l-56 -68v-191h-88v726h88v-428h2l171 212h106l-171 -196v-2q24 -6 40 -14t27 -19t19 -25.5t17 -34.5
q13 -29 24 -57l21 -52q14 -35 21.5 -45t18.5 -10t21 5l10 -57v0zM236 -214q10 14 19.5 36t9.5 40q0 13 -6.5 21.5t-24.5 8.5h-15l-3 68q25 5 44 5q37 0 57.5 -19t20.5 -53q0 -26 -11.5 -53.5t-28.5 -53.5h-62z" />
    <glyph glyph-name="lacute" unicode="&#x13a;" horiz-adv-x="276" 
d="M260 2q-14 -5 -34.5 -8t-43.5 -3q-53 0 -75 28t-22 86v621h88v-600q0 -35 9 -49.5t35 -14.5q16 0 33 5l10 -65v0zM90 764l122 188h102l-145 -188h-79z" />
    <glyph glyph-name="lcaron" unicode="&#x13e;" horiz-adv-x="297" 
d="M260 2q-14 -5 -34.5 -8t-43.5 -3q-53 0 -75 28t-22 86v621h88v-600q0 -35 9 -49.5t35 -14.5q16 0 33 5l10 -65v0zM219 554l42 182h91l-71 -182h-62z" />
    <glyph glyph-name="lcommaaccent" unicode="&#x13c;" horiz-adv-x="276" 
d="M260 2q-14 -5 -34.5 -8t-43.5 -3q-53 0 -75 28t-22 86v621h88v-600q0 -35 9 -49.5t35 -14.5q16 0 33 5l10 -65v0zM112 -214q10 14 19.5 36t9.5 40q0 13 -6.5 21.5t-24.5 8.5h-15l-3 68q25 5 44 5q37 0 57.5 -19t20.5 -53q0 -26 -11.5 -53.5t-28.5 -53.5h-62z" />
    <glyph glyph-name="lslash" unicode="&#x142;" horiz-adv-x="275" 
d="M260 2q-14 -5 -34.5 -8t-43.5 -3q-53 0 -75 28t-22 86v268l-64 -30l-27 57l91 43v283h88v-241l77 37l27 -57l-104 -50v-289q0 -35 9 -49.5t35 -14.5q16 0 33 5l10 -65v0z" />
    <glyph glyph-name="ldot" unicode="&#x140;" horiz-adv-x="331" 
d="M260 2q-14 -5 -34.5 -8t-43.5 -3q-53 0 -75 28t-22 86v621h88v-600q0 -35 9 -49.5t35 -14.5q16 0 33 5l10 -65v0zM364 271q0 -28 -19.5 -47.5t-47.5 -19.5t-47.5 19.5t-19.5 47.5t19.5 47.5t47.5 19.5t47.5 -19.5t19.5 -47.5z" />
    <glyph glyph-name="nacute" unicode="&#x144;" horiz-adv-x="584" 
d="M417 0v335q0 52 -22.5 82t-67.5 30q-24 0 -45.5 -7.5t-40 -20t-35.5 -28l-33 -31.5v-360h-88v510h69q8 -22 11 -38t5 -33h3q38 37 78.5 61t97.5 24q33 0 61.5 -11t49.5 -31.5t33 -50.5t12 -68v-363h-88zM270 548l122 188h102l-145 -188h-79z" />
    <glyph glyph-name="ncaron" unicode="&#x148;" horiz-adv-x="584" 
d="M417 0v335q0 52 -22.5 82t-67.5 30q-24 0 -45.5 -7.5t-40 -20t-35.5 -28l-33 -31.5v-360h-88v510h69q8 -22 11 -38t5 -33h3q38 37 78.5 61t97.5 24q33 0 61.5 -11t49.5 -31.5t33 -50.5t12 -68v-363h-88zM267 548l-125 188h77l93 -122h2l93 122h77l-125 -188h-92z" />
    <glyph glyph-name="ntilde" unicode="&#xf1;" horiz-adv-x="584" 
d="M417 0v335q0 52 -22.5 82t-67.5 30q-24 0 -45.5 -7.5t-40 -20t-35.5 -28l-33 -31.5v-360h-88v510h69q8 -22 11 -38t5 -33h3q38 37 78.5 61t97.5 24q33 0 61.5 -11t49.5 -31.5t33 -50.5t12 -68v-363h-88zM372 619q-14 0 -30 2.5t-31.5 6t-29.5 6t-26 2.5q-20 0 -27.5 -15
t-9.5 -34h-70q1 22 4.5 44.5t13 39.5t26 28t43.5 11q13 0 28 -2.5t30 -6t29 -6t26 -2.5q17 0 24.5 11.5t9.5 31.5h70q-2 -61 -21 -89t-59 -28z" />
    <glyph glyph-name="ncommaaccent" unicode="&#x146;" horiz-adv-x="584" 
d="M417 0v335q0 52 -22.5 82t-67.5 30q-24 0 -45.5 -7.5t-40 -20t-35.5 -28l-33 -31.5v-360h-88v510h69q8 -22 11 -38t5 -33h3q38 37 78.5 61t97.5 24q33 0 61.5 -11t49.5 -31.5t33 -50.5t12 -68v-363h-88zM260 -214q10 14 19.5 36t9.5 40q0 13 -6.5 21.5t-24.5 8.5h-15
l-3 68q25 5 44 5q37 0 57.5 -19t20.5 -53q0 -26 -11.5 -53.5t-28.5 -53.5h-62z" />
    <glyph glyph-name="ograve" unicode="&#xf2;" horiz-adv-x="533" 
d="M498 253q0 -62 -17.5 -111t-48.5 -84t-73 -53.5t-91 -18.5q-55 0 -98.5 19t-73.5 54t-45.5 85.5t-15.5 112.5q0 61 17.5 110.5t48.5 84.5t73 53.5t91 18.5q55 0 98.5 -19t73.5 -54.5t45.5 -85.5t15.5 -112zM407 251q0 39 -7.5 74.5t-24 63t-44.5 44t-68 16.5
q-38 0 -64 -16.5t-42.5 -43.5t-23.5 -61t-7 -69q0 -39 7.5 -74.5t24 -63t44 -44t68.5 -16.5q38 0 64 16.5t42.5 43.5t23.5 61t7 69zM223 548l-145 188h102l122 -188h-79z" />
    <glyph glyph-name="oacute" unicode="&#xf3;" horiz-adv-x="533" 
d="M498 253q0 -62 -17.5 -111t-48.5 -84t-73 -53.5t-91 -18.5q-55 0 -98.5 19t-73.5 54t-45.5 85.5t-15.5 112.5q0 61 17.5 110.5t48.5 84.5t73 53.5t91 18.5q55 0 98.5 -19t73.5 -54.5t45.5 -85.5t15.5 -112zM407 251q0 39 -7.5 74.5t-24 63t-44.5 44t-68 16.5
q-38 0 -64 -16.5t-42.5 -43.5t-23.5 -61t-7 -69q0 -39 7.5 -74.5t24 -63t44 -44t68.5 -16.5q38 0 64 16.5t42.5 43.5t23.5 61t7 69zM230 548l122 188h102l-145 -188h-79z" />
    <glyph glyph-name="ocircumflex" unicode="&#xf4;" horiz-adv-x="533" 
d="M498 253q0 -62 -17.5 -111t-48.5 -84t-73 -53.5t-91 -18.5q-55 0 -98.5 19t-73.5 54t-45.5 85.5t-15.5 112.5q0 61 17.5 110.5t48.5 84.5t73 53.5t91 18.5q55 0 98.5 -19t73.5 -54.5t45.5 -85.5t15.5 -112zM407 251q0 39 -7.5 74.5t-24 63t-44.5 44t-68 16.5
q-38 0 -64 -16.5t-42.5 -43.5t-23.5 -61t-7 -69q0 -39 7.5 -74.5t24 -63t44 -44t68.5 -16.5q38 0 64 16.5t42.5 43.5t23.5 61t7 69zM361 548l-93 122h-2l-93 -122h-77l125 188h92l125 -188h-77z" />
    <glyph glyph-name="otilde" unicode="&#xf5;" horiz-adv-x="533" 
d="M498 253q0 -62 -17.5 -111t-48.5 -84t-73 -53.5t-91 -18.5q-55 0 -98.5 19t-73.5 54t-45.5 85.5t-15.5 112.5q0 61 17.5 110.5t48.5 84.5t73 53.5t91 18.5q55 0 98.5 -19t73.5 -54.5t45.5 -85.5t15.5 -112zM407 251q0 39 -7.5 74.5t-24 63t-44.5 44t-68 16.5
q-38 0 -64 -16.5t-42.5 -43.5t-23.5 -61t-7 -69q0 -39 7.5 -74.5t24 -63t44 -44t68.5 -16.5q38 0 64 16.5t42.5 43.5t23.5 61t7 69zM336 619q-14 0 -30 2.5t-31.5 6t-29.5 6t-26 2.5q-20 0 -27.5 -15t-9.5 -34h-70q1 22 4.5 44.5t13 39.5t26 28t43.5 11q13 0 28 -2.5t30 -6
t29 -6t26 -2.5q17 0 24.5 11.5t9.5 31.5h70q-2 -61 -21 -89t-59 -28z" />
    <glyph glyph-name="odieresis" unicode="&#xf6;" horiz-adv-x="533" 
d="M498 253q0 -62 -17.5 -111t-48.5 -84t-73 -53.5t-91 -18.5q-55 0 -98.5 19t-73.5 54t-45.5 85.5t-15.5 112.5q0 61 17.5 110.5t48.5 84.5t73 53.5t91 18.5q55 0 98.5 -19t73.5 -54.5t45.5 -85.5t15.5 -112zM407 251q0 39 -7.5 74.5t-24 63t-44.5 44t-68 16.5
q-38 0 -64 -16.5t-42.5 -43.5t-23.5 -61t-7 -69q0 -39 7.5 -74.5t24 -63t44 -44t68.5 -16.5q38 0 64 16.5t42.5 43.5t23.5 61t7 69zM234 676q0 -25 -17.5 -42.5t-40.5 -17.5q-24 0 -40.5 17.5t-16.5 42.5q0 26 17.5 43t40.5 17q24 0 40.5 -17t16.5 -43zM411 676
q0 -25 -17.5 -42.5t-40.5 -17.5q-24 0 -40.5 17.5t-16.5 42.5q0 26 17.5 43t40.5 17q24 0 40.5 -17t16.5 -43z" />
    <glyph glyph-name="omacron" unicode="&#x14d;" horiz-adv-x="533" 
d="M498 253q0 -62 -17.5 -111t-48.5 -84t-73 -53.5t-91 -18.5q-55 0 -98.5 19t-73.5 54t-45.5 85.5t-15.5 112.5q0 61 17.5 110.5t48.5 84.5t73 53.5t91 18.5q55 0 98.5 -19t73.5 -54.5t45.5 -85.5t15.5 -112zM407 251q0 39 -7.5 74.5t-24 63t-44.5 44t-68 16.5
q-38 0 -64 -16.5t-42.5 -43.5t-23.5 -61t-7 -69q0 -39 7.5 -74.5t24 -63t44 -44t68.5 -16.5q38 0 64 16.5t42.5 43.5t23.5 61t7 69zM134 642v74h260v-74h-260z" />
    <glyph glyph-name="obreve" unicode="&#x14f;" horiz-adv-x="533" 
d="M498 253q0 -62 -17.5 -111t-48.5 -84t-73 -53.5t-91 -18.5q-55 0 -98.5 19t-73.5 54t-45.5 85.5t-15.5 112.5q0 61 17.5 110.5t48.5 84.5t73 53.5t91 18.5q55 0 98.5 -19t73.5 -54.5t45.5 -85.5t15.5 -112zM407 251q0 39 -7.5 74.5t-24 63t-44.5 44t-68 16.5
q-38 0 -64 -16.5t-42.5 -43.5t-23.5 -61t-7 -69q0 -39 7.5 -74.5t24 -63t44 -44t68.5 -16.5q38 0 64 16.5t42.5 43.5t23.5 61t7 69zM264 594q-37 0 -64 11.5t-45 30.5t-27 43.5t-11 51.5l60 5q5 -29 27.5 -49.5t59.5 -20.5t59.5 20.5t27.5 49.5l60 -5q-2 -27 -11 -51.5
t-27 -43.5t-45 -30.5t-64 -11.5z" />
    <glyph glyph-name="ohungarumlaut" unicode="&#x151;" horiz-adv-x="533" 
d="M498 253q0 -62 -17.5 -111t-48.5 -84t-73 -53.5t-91 -18.5q-55 0 -98.5 19t-73.5 54t-45.5 85.5t-15.5 112.5q0 61 17.5 110.5t48.5 84.5t73 53.5t91 18.5q55 0 98.5 -19t73.5 -54.5t45.5 -85.5t15.5 -112zM407 251q0 39 -7.5 74.5t-24 63t-44.5 44t-68 16.5
q-38 0 -64 -16.5t-42.5 -43.5t-23.5 -61t-7 -69q0 -39 7.5 -74.5t24 -63t44 -44t68.5 -16.5q38 0 64 16.5t42.5 43.5t23.5 61t7 69zM153 548l122 188h99l-145 -188h-76zM306 548l122 188h99l-145 -188h-76z" />
    <glyph glyph-name="oslash" unicode="&#xf8;" horiz-adv-x="533" 
d="M498 253q0 -62 -17.5 -111t-48.5 -84t-73 -53.5t-91 -18.5q-32 0 -59 6.5t-51 17.5l-41 -70h-76l64 109q-34 35 -52 88t-18 120q0 61 17.5 110.5t48.5 84.5t73 53.5t91 18.5q58 0 106 -23l40 69h77l-63 -107q35 -35 54 -88.5t19 -121.5zM407 251q0 37 -6.5 71.5
t-22.5 61.5l-179 -305q28 -18 71 -18q38 0 64 16.5t42.5 43.5t23.5 61t7 69zM126 259q0 -36 6 -69.5t20 -60.5l178 304q-29 16 -67 16t-64 -16.5t-42.5 -43.5t-23.5 -61t-7 -69z" />
    <glyph glyph-name="oslashacute" unicode="&#x1ff;" horiz-adv-x="533" 
d="M230 548l122 188h102l-145 -188h-79zM498 253q0 -62 -17.5 -111t-48.5 -84t-73 -53.5t-91 -18.5q-32 0 -59 6.5t-51 17.5l-41 -70h-76l64 109q-34 35 -52 88t-18 120q0 61 17.5 110.5t48.5 84.5t73 53.5t91 18.5q58 0 106 -23l40 69h77l-63 -107q35 -35 54 -88.5
t19 -121.5zM407 251q0 37 -6.5 71.5t-22.5 61.5l-179 -305q28 -18 71 -18q38 0 64 16.5t42.5 43.5t23.5 61t7 69zM126 259q0 -36 6 -69.5t20 -60.5l178 304q-29 16 -67 16t-64 -16.5t-42.5 -43.5t-23.5 -61t-7 -69z" />
    <glyph glyph-name="oe" unicode="&#x153;" horiz-adv-x="894" 
d="M646 -14q-72 0 -120.5 28.5t-73.5 73.5h-2q-13 -20 -30 -38t-39 -32.5t-50 -23t-63 -8.5q-55 0 -98.5 19t-73.5 54t-45.5 85.5t-15.5 112.5q0 61 17.5 110.5t48.5 84.5t73 53.5t91 18.5q69 0 115.5 -27t72.5 -73h2q24 44 69.5 72t113.5 28q50 0 89 -16t66 -45t41 -70.5
t14 -92.5q0 -12 -0.5 -26.5t-2.5 -28.5h-348q0 -39 9.5 -72t28.5 -58t48 -39t68 -14q27 0 47.5 6.5t35.5 17t26 24t20 27.5l63 -41q-34 -59 -83.5 -84.5t-113.5 -25.5zM755 314q2 29 -4 55t-21 45.5t-39.5 30.5t-57.5 11q-62 0 -95 -39.5t-38 -102.5h255zM407 251
q0 39 -7.5 74.5t-24 63t-44.5 44t-68 16.5q-38 0 -64 -16.5t-42.5 -43.5t-23.5 -61t-7 -69q0 -39 7.5 -74.5t24 -63t44 -44t68.5 -16.5q38 0 64 16.5t42.5 43.5t23.5 61t7 69z" />
    <glyph glyph-name="racute" unicode="&#x155;" horiz-adv-x="375" 
d="M85 0v510h69q7 -20 11 -37.5t5 -38.5h4l33 32.5t36.5 29t42 20.5t48.5 8q17 0 35 -3l-20 -91q-17 5 -33 5q-33 0 -66.5 -17t-76.5 -61v-357h-88zM170 548l122 188h102l-145 -188h-79z" />
    <glyph glyph-name="rcaron" unicode="&#x159;" horiz-adv-x="375" 
d="M85 0v510h69q7 -20 11 -37.5t5 -38.5h4l33 32.5t36.5 29t42 20.5t48.5 8q17 0 35 -3l-20 -91q-17 5 -33 5q-33 0 -66.5 -17t-76.5 -61v-357h-88zM160 548l-125 188h77l93 -122h2l93 122h77l-125 -188h-92z" />
    <glyph glyph-name="rcommaaccent" unicode="&#x157;" horiz-adv-x="375" 
d="M85 0v510h69q7 -20 11 -37.5t5 -38.5h4l33 32.5t36.5 29t42 20.5t48.5 8q17 0 35 -3l-20 -91q-17 5 -33 5q-33 0 -66.5 -17t-76.5 -61v-357h-88zM93 -214q10 14 19.5 36t9.5 40q0 13 -6.5 21.5t-24.5 8.5h-15l-3 68q25 5 44 5q37 0 57.5 -19t20.5 -53q0 -26 -11.5 -53.5
t-28.5 -53.5h-62z" />
    <glyph glyph-name="sacute" unicode="&#x15b;" horiz-adv-x="444" 
d="M411 146q0 -43 -14.5 -73t-39.5 -49.5t-59 -28.5t-73 -9q-76 0 -121 26.5t-69 77.5l67 43q21 -36 49 -55t77 -19q48 0 71.5 19t23.5 50q0 32 -20 50t-49.5 31t-64.5 24t-64.5 28.5t-49.5 45t-20 72.5q0 65 44.5 105t125.5 40q58 0 98.5 -14.5t73.5 -56.5l-61 -51
q-22 28 -48.5 39.5t-68.5 11.5q-40 0 -60.5 -15.5t-20.5 -44.5t20 -46t50.5 -29t66 -23.5t66 -29.5t50.5 -46t20 -73zM195 548l122 188h102l-145 -188h-79z" />
    <glyph glyph-name="scircumflex" unicode="&#x15d;" horiz-adv-x="444" 
d="M411 146q0 -43 -14.5 -73t-39.5 -49.5t-59 -28.5t-73 -9q-76 0 -121 26.5t-69 77.5l67 43q21 -36 49 -55t77 -19q48 0 71.5 19t23.5 50q0 32 -20 50t-49.5 31t-64.5 24t-64.5 28.5t-49.5 45t-20 72.5q0 65 44.5 105t125.5 40q58 0 98.5 -14.5t73.5 -56.5l-61 -51
q-22 28 -48.5 39.5t-68.5 11.5q-40 0 -60.5 -15.5t-20.5 -44.5t20 -46t50.5 -29t66 -23.5t66 -29.5t50.5 -46t20 -73zM325 548l-93 122h-2l-93 -122h-77l125 188h92l125 -188h-77z" />
    <glyph glyph-name="scaron" unicode="&#x161;" horiz-adv-x="444" 
d="M411 146q0 -43 -14.5 -73t-39.5 -49.5t-59 -28.5t-73 -9q-76 0 -121 26.5t-69 77.5l67 43q21 -36 49 -55t77 -19q48 0 71.5 19t23.5 50q0 32 -20 50t-49.5 31t-64.5 24t-64.5 28.5t-49.5 45t-20 72.5q0 65 44.5 105t125.5 40q58 0 98.5 -14.5t73.5 -56.5l-61 -51
q-22 28 -48.5 39.5t-68.5 11.5q-40 0 -60.5 -15.5t-20.5 -44.5t20 -46t50.5 -29t66 -23.5t66 -29.5t50.5 -46t20 -73zM185 548l-125 188h77l93 -122h2l93 122h77l-125 -188h-92z" />
    <glyph glyph-name="scedilla" unicode="&#x15f;" horiz-adv-x="444" 
d="M222 -214q-29 0 -55.5 9.5t-42.5 25.5l21 56q11 -9 23.5 -15t26.5 -6q21 0 32.5 12.5t11.5 30.5q0 23 -12.5 46t-28.5 42q-63 5 -102 30.5t-61 72.5l67 43q21 -36 49 -55t77 -19q48 0 71.5 19t23.5 50q0 32 -20 50t-49.5 31t-64.5 24t-64.5 28.5t-49.5 45t-20 72.5
q0 65 44.5 105t125.5 40q58 0 98.5 -14.5t73.5 -56.5l-61 -51q-22 28 -48.5 39.5t-68.5 11.5q-40 0 -60.5 -15.5t-20.5 -44.5t20 -46t50.5 -29t66 -23.5t66 -29.5t50.5 -46t20 -73q0 -39 -11.5 -67t-32.5 -47.5t-49.5 -30t-61.5 -13.5q23 -26 40 -56t17 -63q0 -21 -8 -36.5
t-20.5 -26t-29 -15.5t-33.5 -5z" />
    <glyph glyph-name="scommaaccent" unicode="&#x219;" horiz-adv-x="444" 
d="M411 146q0 -43 -14.5 -73t-39.5 -49.5t-59 -28.5t-73 -9q-76 0 -121 26.5t-69 77.5l67 43q21 -36 49 -55t77 -19q48 0 71.5 19t23.5 50q0 32 -20 50t-49.5 31t-64.5 24t-64.5 28.5t-49.5 45t-20 72.5q0 65 44.5 105t125.5 40q58 0 98.5 -14.5t73.5 -56.5l-61 -51
q-22 28 -48.5 39.5t-68.5 11.5q-40 0 -60.5 -15.5t-20.5 -44.5t20 -46t50.5 -29t66 -23.5t66 -29.5t50.5 -46t20 -73zM189 -214q10 14 19.5 36t9.5 40q0 13 -6.5 21.5t-24.5 8.5h-15l-3 68q25 5 44 5q37 0 57.5 -19t20.5 -53q0 -26 -11.5 -53.5t-28.5 -53.5h-62z" />
    <glyph glyph-name="germandbls" unicode="&#xdf;" horiz-adv-x="581" 
d="M571 146q0 -43 -14.5 -73t-39.5 -49.5t-59 -28.5t-73 -9q-76 0 -121 26.5t-69 77.5l67 43q21 -36 49 -55t77 -19q48 0 71.5 19t23.5 50q0 32 -20 50t-49.5 31t-64.5 24t-64.5 28.5t-49.5 45t-20 72.5q0 40 15.5 65.5t39 42t50.5 27.5l50.5 21t39 22.5t15.5 33.5
q0 35 -29.5 54.5t-92.5 19.5q-24 0 -47.5 -7t-41.5 -22t-29.5 -39t-11.5 -58v-539h-88v534q0 54 19.5 92t51.5 62.5t72.5 36t82.5 11.5q40 0 77 -9.5t64.5 -27.5t44 -45t16.5 -62q0 -36 -16 -58.5t-40 -37.5t-51.5 -25t-51.5 -20t-40 -23t-16 -35q0 -29 20 -46t50.5 -29
t66 -23.5t66 -29.5t50.5 -46t20 -73z" />
    <glyph glyph-name="tcaron" unicode="&#x165;" horiz-adv-x="340" 
d="M213 -14q-63 0 -95.5 42.5t-32.5 119.5v283h-70v69h70q4 36 14 73t23 69h51v-142h126v-69h-126v-268q0 -23 1.5 -42t7 -32.5t16.5 -20.5t30 -7q21 0 36 12.5t28 26.5l42 -57q-24 -27 -53.5 -42t-67.5 -15zM215 554l42 182h91l-71 -182h-62z" />
    <glyph glyph-name="tcommaaccent" unicode="&#x163;" horiz-adv-x="340" 
d="M213 -14q-63 0 -95.5 42.5t-32.5 119.5v283h-70v69h70q4 36 14 73t23 69h51v-142h126v-69h-126v-268q0 -23 1.5 -42t7 -32.5t16.5 -20.5t30 -7q21 0 36 12.5t28 26.5l42 -57q-24 -27 -53.5 -42t-67.5 -15zM172 -214q10 14 19.5 36t9.5 40q0 13 -6.5 21.5t-24.5 8.5h-15
l-3 68q25 5 44 5q37 0 57.5 -19t20.5 -53q0 -26 -11.5 -53.5t-28.5 -53.5h-62z" />
    <glyph glyph-name="tcommaaccent" unicode="&#x21b;" horiz-adv-x="340" 
d="M213 -14q-63 0 -95.5 42.5t-32.5 119.5v283h-70v69h70q4 36 14 73t23 69h51v-142h126v-69h-126v-268q0 -23 1.5 -42t7 -32.5t16.5 -20.5t30 -7q21 0 36 12.5t28 26.5l42 -57q-24 -27 -53.5 -42t-67.5 -15zM172 -214q10 14 19.5 36t9.5 40q0 13 -6.5 21.5t-24.5 8.5h-15
l-3 68q25 5 44 5q37 0 57.5 -19t20.5 -53q0 -26 -11.5 -53.5t-28.5 -53.5h-62z" />
    <glyph glyph-name="tbar" unicode="&#x167;" horiz-adv-x="340" 
d="M213 -14q-63 0 -95.5 42.5t-32.5 119.5v96h-70v63h70v124h-70v69h70q4 36 14 73t23 69h51v-142h126v-69h-126v-124h116v-63h-116v-81q0 -23 1.5 -42t7 -32.5t16.5 -20.5t30 -7q21 0 36 12.5t28 26.5l42 -57q-24 -27 -53.5 -42t-67.5 -15z" />
    <glyph glyph-name="ugrave" unicode="&#xf9;" horiz-adv-x="571" 
d="M417 0q-8 22 -11 38t-5 33h-3q-36 -37 -75 -61t-94 -24q-32 0 -59 11t-47.5 31.5t-32 50.5t-11.5 68v363h88v-335q0 -52 21.5 -82t63.5 -30q23 0 43 7.5t38 20t34 28l31 31.5v360h88v-510h-69zM247 548l-145 188h102l122 -188h-79z" />
    <glyph glyph-name="uacute" unicode="&#xfa;" horiz-adv-x="571" 
d="M417 0q-8 22 -11 38t-5 33h-3q-36 -37 -75 -61t-94 -24q-32 0 -59 11t-47.5 31.5t-32 50.5t-11.5 68v363h88v-335q0 -52 21.5 -82t63.5 -30q23 0 43 7.5t38 20t34 28l31 31.5v360h88v-510h-69zM244 548l122 188h102l-145 -188h-79z" />
    <glyph glyph-name="ucircumflex" unicode="&#xfb;" horiz-adv-x="571" 
d="M417 0q-8 22 -11 38t-5 33h-3q-36 -37 -75 -61t-94 -24q-32 0 -59 11t-47.5 31.5t-32 50.5t-11.5 68v363h88v-335q0 -52 21.5 -82t63.5 -30q23 0 43 7.5t38 20t34 28l31 31.5v360h88v-510h-69zM373 548l-93 122h-2l-93 -122h-77l125 188h92l125 -188h-77z" />
    <glyph glyph-name="utilde" unicode="&#x169;" horiz-adv-x="571" 
d="M417 0q-8 22 -11 38t-5 33h-3q-36 -37 -75 -61t-94 -24q-32 0 -59 11t-47.5 31.5t-32 50.5t-11.5 68v363h88v-335q0 -52 21.5 -82t63.5 -30q23 0 43 7.5t38 20t34 28l31 31.5v360h88v-510h-69zM358 619q-14 0 -30 2.5t-31.5 6t-29.5 6t-26 2.5q-20 0 -27.5 -15t-9.5 -34
h-70q1 22 4.5 44.5t13 39.5t26 28t43.5 11q13 0 28 -2.5t30 -6t29 -6t26 -2.5q17 0 24.5 11.5t9.5 31.5h70q-2 -61 -21 -89t-59 -28z" />
    <glyph glyph-name="udieresis" unicode="&#xfc;" horiz-adv-x="571" 
d="M417 0q-8 22 -11 38t-5 33h-3q-36 -37 -75 -61t-94 -24q-32 0 -59 11t-47.5 31.5t-32 50.5t-11.5 68v363h88v-335q0 -52 21.5 -82t63.5 -30q23 0 43 7.5t38 20t34 28l31 31.5v360h88v-510h-69zM258 676q0 -25 -17.5 -42.5t-40.5 -17.5q-24 0 -40.5 17.5t-16.5 42.5
q0 26 17.5 43t40.5 17q24 0 40.5 -17t16.5 -43zM435 676q0 -25 -17.5 -42.5t-40.5 -17.5q-24 0 -40.5 17.5t-16.5 42.5q0 26 17.5 43t40.5 17q24 0 40.5 -17t16.5 -43z" />
    <glyph glyph-name="umacron" unicode="&#x16b;" horiz-adv-x="571" 
d="M417 0q-8 22 -11 38t-5 33h-3q-36 -37 -75 -61t-94 -24q-32 0 -59 11t-47.5 31.5t-32 50.5t-11.5 68v363h88v-335q0 -52 21.5 -82t63.5 -30q23 0 43 7.5t38 20t34 28l31 31.5v360h88v-510h-69zM152 642v74h260v-74h-260z" />
    <glyph glyph-name="ubreve" unicode="&#x16d;" horiz-adv-x="571" 
d="M417 0q-8 22 -11 38t-5 33h-3q-36 -37 -75 -61t-94 -24q-32 0 -59 11t-47.5 31.5t-32 50.5t-11.5 68v363h88v-335q0 -52 21.5 -82t63.5 -30q23 0 43 7.5t38 20t34 28l31 31.5v360h88v-510h-69zM284 594q-37 0 -64 11.5t-45 30.5t-27 43.5t-11 51.5l60 5q5 -29 27.5 -49.5
t59.5 -20.5t59.5 20.5t27.5 49.5l60 -5q-2 -27 -11 -51.5t-27 -43.5t-45 -30.5t-64 -11.5z" />
    <glyph glyph-name="uring" unicode="&#x16f;" horiz-adv-x="571" 
d="M417 0q-8 22 -11 38t-5 33h-3q-36 -37 -75 -61t-94 -24q-32 0 -59 11t-47.5 31.5t-32 50.5t-11.5 68v363h88v-335q0 -52 21.5 -82t63.5 -30q23 0 43 7.5t38 20t34 28l31 31.5v360h88v-510h-69zM380 644q0 -42 -29.5 -66t-71.5 -24q-50 0 -76.5 25t-26.5 68q0 41 28 65
t73 24q48 0 75.5 -25t27.5 -67zM321 644q0 19 -9.5 32.5t-34.5 13.5q-24 0 -33.5 -13t-9.5 -30q0 -20 9 -33.5t36 -13.5q23 0 32.5 13.5t9.5 30.5z" />
    <glyph glyph-name="uhungarumlaut" unicode="&#x171;" horiz-adv-x="571" 
d="M417 0q-8 22 -11 38t-5 33h-3q-36 -37 -75 -61t-94 -24q-32 0 -59 11t-47.5 31.5t-32 50.5t-11.5 68v363h88v-335q0 -52 21.5 -82t63.5 -30q23 0 43 7.5t38 20t34 28l31 31.5v360h88v-510h-69zM169 548l122 188h99l-145 -188h-76zM322 548l122 188h99l-145 -188h-76z" />
    <glyph glyph-name="uogonek" unicode="&#x173;" horiz-adv-x="571" 
d="M440 -214q-17 0 -33.5 5t-29.5 15.5t-20.5 26t-7.5 36.5q0 38 21 70.5t47 60.5q-8 22 -11 38t-5 33h-3q-36 -37 -75 -61t-94 -24q-32 0 -59 11t-47.5 31.5t-32 50.5t-11.5 68v363h88v-335q0 -52 21.5 -82t63.5 -30q23 0 43 7.5t38 20t34 28l31 31.5v360h88v-510h-11
q-18 -20 -35 -46.5t-17 -54.5q0 -18 11.5 -30.5t32.5 -12.5q14 0 26.5 6t23.5 15l21 -56q-16 -16 -42.5 -25.5t-55.5 -9.5z" />
    <glyph glyph-name="wgrave" unicode="&#x1e81;" horiz-adv-x="685" 
d="M466 -9l-127 386h-2l-121 -386h-73l-139 519h100l89 -367h2l115 367h73l119 -372h2l87 372h90l-142 -519h-73zM299 548l-145 188h102l122 -188h-79z" />
    <glyph glyph-name="wacute" unicode="&#x1e83;" horiz-adv-x="685" 
d="M466 -9l-127 386h-2l-121 -386h-73l-139 519h100l89 -367h2l115 367h73l119 -372h2l87 372h90l-142 -519h-73zM317 548l122 188h102l-145 -188h-79z" />
    <glyph glyph-name="wcircumflex" unicode="&#x175;" horiz-adv-x="685" 
d="M466 -9l-127 386h-2l-121 -386h-73l-139 519h100l89 -367h2l115 367h73l119 -372h2l87 372h90l-142 -519h-73zM432 548l-93 122h-2l-93 -122h-77l125 188h92l125 -188h-77z" />
    <glyph glyph-name="wdieresis" unicode="&#x1e85;" horiz-adv-x="685" 
d="M466 -9l-127 386h-2l-121 -386h-73l-139 519h100l89 -367h2l115 367h73l119 -372h2l87 372h90l-142 -519h-73zM307 676q0 -25 -17.5 -42.5t-40.5 -17.5q-24 0 -40.5 17.5t-16.5 42.5q0 26 17.5 43t40.5 17q24 0 40.5 -17t16.5 -43zM484 676q0 -25 -17.5 -42.5
t-40.5 -17.5q-24 0 -40.5 17.5t-16.5 42.5q0 26 17.5 43t40.5 17q24 0 40.5 -17t16.5 -43z" />
    <glyph glyph-name="ygrave" unicode="&#x1ef3;" horiz-adv-x="463" 
d="M266 -66q-12 -37 -28.5 -62.5t-38 -42.5t-49 -27t-62.5 -16l-20 81q56 7 82.5 30t40.5 69l11 34l-198 510h101l142 -398h2l118 398h92l-193 -576v0zM193 548l-145 188h102l122 -188h-79z" />
    <glyph glyph-name="yacute" unicode="&#xfd;" horiz-adv-x="463" 
d="M266 -66q-12 -37 -28.5 -62.5t-38 -42.5t-49 -27t-62.5 -16l-20 81q56 7 82.5 30t40.5 69l11 34l-198 510h101l142 -398h2l118 398h92l-193 -576v0zM198 548l122 188h102l-145 -188h-79z" />
    <glyph glyph-name="ycircumflex" unicode="&#x177;" horiz-adv-x="463" 
d="M266 -66q-12 -37 -28.5 -62.5t-38 -42.5t-49 -27t-62.5 -16l-20 81q56 7 82.5 30t40.5 69l11 34l-198 510h101l142 -398h2l118 398h92l-193 -576v0zM328 548l-93 122h-2l-93 -122h-77l125 188h92l125 -188h-77z" />
    <glyph glyph-name="ydieresis" unicode="&#xff;" horiz-adv-x="463" 
d="M266 -66q-12 -37 -28.5 -62.5t-38 -42.5t-49 -27t-62.5 -16l-20 81q56 7 82.5 30t40.5 69l11 34l-198 510h101l142 -398h2l118 398h92l-193 -576v0zM207 676q0 -25 -17.5 -42.5t-40.5 -17.5q-24 0 -40.5 17.5t-16.5 42.5q0 26 17.5 43t40.5 17q24 0 40.5 -17t16.5 -43z
M384 676q0 -25 -17.5 -42.5t-40.5 -17.5q-24 0 -40.5 17.5t-16.5 42.5q0 26 17.5 43t40.5 17q24 0 40.5 -17t16.5 -43z" />
    <glyph glyph-name="zacute" unicode="&#x17a;" horiz-adv-x="467" 
d="M53 0v64l255 370v2h-242v74h355v-62l-257 -369v-2h275v-77h-386zM194 548l122 188h102l-145 -188h-79z" />
    <glyph glyph-name="zcaron" unicode="&#x17e;" horiz-adv-x="467" 
d="M53 0v64l255 370v2h-242v74h355v-62l-257 -369v-2h275v-77h-386zM198 548l-125 188h77l93 -122h2l93 122h77l-125 -188h-92z" />
    <glyph glyph-name="zdotaccent" unicode="&#x17c;" horiz-adv-x="467" 
d="M53 0v64l255 370v2h-242v74h355v-62l-257 -369v-2h275v-77h-386zM297 675q0 -26 -17.5 -43.5t-41.5 -17.5q-25 0 -41.5 17.5t-16.5 43.5t17.5 43.5t41.5 17.5q25 0 41.5 -17.5t16.5 -43.5z" />
    <glyph glyph-name="eng" unicode="&#x14b;" horiz-adv-x="584" 
d="M346 -214q-57 0 -88 21l34 74q13 -9 27 -13.5t28 -4.5q33 0 51.5 30.5t18.5 105.5v336q0 52 -22.5 82t-67.5 30q-24 0 -45.5 -7.5t-40 -20t-35.5 -28l-33 -31.5v-360h-88v510h69q8 -22 11 -38t5 -33h3q38 37 78.5 61t97.5 24q33 0 61.5 -11t49.5 -31.5t33 -50.5t12 -68
v-364q0 -97 -39 -155t-120 -58z" />
    <glyph glyph-name="eth" unicode="&#xf0;" horiz-adv-x="534" 
d="M499 299q0 -55 -11.5 -110.5t-39.5 -100.5t-73.5 -73.5t-113.5 -28.5q-53 0 -95 20t-71 55t-44.5 83.5t-15.5 105.5t16.5 105t46 82.5t70.5 53.5t89 19q42 0 79 -17.5t67 -50.5l2 1q-35 98 -102 152l-112 -54l-27 57l76 36q-58 27 -134 36l13 68q116 -9 203 -64l106 50
l27 -57l-77 -37q57 -56 89 -138.5t32 -192.5zM408 251q0 36 -7.5 69t-24 58.5t-44.5 41t-68 15.5q-38 0 -64 -16t-42.5 -41.5t-23.5 -58.5t-7 -67q0 -38 7.5 -72.5t24 -60.5t44 -42t68.5 -16q35 0 61 16t43 42.5t25 61t8 70.5z" />
    <glyph glyph-name="thorn" unicode="&#xfe;" horiz-adv-x="559" 
d="M524 259q0 -54 -14 -103.5t-42 -87t-70.5 -60t-99.5 -22.5q-74 0 -124 33h-1v-219h-88v926h88v-286h1q32 33 69.5 58.5t91.5 25.5q46 0 81 -19.5t59 -54.5t36.5 -83.5t12.5 -107.5zM433 252q0 100 -33 147.5t-89 47.5q-21 0 -40 -8.5t-36.5 -21t-33 -28l-28.5 -29.5v-264
q22 -21 53 -30t60 -9q40 0 68 15.5t45.5 42t25.5 62t8 75.5z" />
    <glyph glyph-name="A.small" unicode="&#xe0c3;" horiz-adv-x="546" 
d="M441 0l-57 149h-233l-54 -149h-92l222 588h87l227 -588h-100zM267 464h-2l-89 -241h183z" />
    <glyph glyph-name="B.small" unicode="&#xe0c4;" horiz-adv-x="598" 
d="M548 164q0 -44 -19 -75.5t-50.5 -51t-74 -28.5t-88.5 -9h-207v580h170q41 0 79.5 -7.5t68 -24.5t47.5 -45t18 -69q0 -51 -27 -81t-66 -47v-2q32 -5 59 -15t47 -26.5t31.5 -41t11.5 -57.5zM448 169q0 48 -38.5 67.5t-112.5 19.5h-97v-181h107q66 0 103.5 20t37.5 74z
M398 424q0 42 -30.5 61.5t-87.5 19.5h-80v-178h91q22 0 41.5 5.5t34 17t23 30t8.5 44.5z" />
    <glyph glyph-name="C.small" unicode="&#xe0c5;" horiz-adv-x="564" 
d="M531 76q-38 -48 -90.5 -69t-120.5 -21t-119.5 23t-86 63.5t-52 95.5t-17.5 118q0 66 17.5 122.5t52 98t86.5 64.5t121 23q61 0 110.5 -20.5t86.5 -68.5l-68 -55q-24 29 -55.5 47t-79.5 18q-83 0 -126.5 -58t-43.5 -161q0 -51 11 -93t33.5 -73t56.5 -48t80 -17q42 0 78 16
t59 48l67 -53v0z" />
    <glyph glyph-name="D.small" unicode="&#xe0c6;" horiz-adv-x="646" 
d="M601 287q0 -70 -23.5 -123.5t-65 -90t-98 -55t-123.5 -18.5h-182v580h189q69 0 124.5 -20t95.5 -57.5t61.5 -92t21.5 -123.5zM501 282q0 59 -17 100.5t-46 68t-69.5 39t-86.5 12.5h-82v-424h86q48 0 87.5 12t68 37.5t44 63.5t15.5 91z" />
    <glyph glyph-name="E.small" unicode="&#xe0c7;" horiz-adv-x="538" 
d="M109 0v580h347v-78h-256v-164h201v-78h-201v-182h300v-78h-391z" />
    <glyph glyph-name="F.small" unicode="&#xe0c8;" horiz-adv-x="504" 
d="M109 0v580h355v-78h-264v-178h207v-78h-207v-246h-91z" />
    <glyph glyph-name="G.small" unicode="&#xe0c9;" horiz-adv-x="618" 
d="M540 46q-51 -32 -103 -46t-115 -14q-68 0 -119.5 24t-86.5 65t-53 96t-18 117q0 67 17.5 123t52.5 96.5t87 63.5t120 23q61 0 111 -20.5t86 -68.5l-67 -54q-24 29 -55.5 46.5t-79.5 17.5q-43 0 -75 -16t-53.5 -45t-32 -68.5t-10.5 -87.5q0 -115 48.5 -174.5t143.5 -59.5
q29 0 58 5t54 19v122h-129v78h219v-242v0z" />
    <glyph glyph-name="H.small" unicode="&#xe0ca;" horiz-adv-x="682" 
d="M483 0v260h-283v-260h-91v580h91v-242h283v242h90v-580h-90z" />
    <glyph glyph-name="I.small" unicode="&#xe0cb;" horiz-adv-x="309" 
d="M109 0v580h91v-580h-91z" />
    <glyph glyph-name="J.small" unicode="&#xe0cc;" horiz-adv-x="297" 
d="M188 -30q0 -39 -12 -73t-34.5 -58.5t-55 -38.5t-74.5 -14q-53 0 -99 23l38 74q14 -8 30 -13t34 -5q46 0 64 30t18 74v611h91v-610v0z" />
    <glyph glyph-name="K.small" unicode="&#xe0cd;" horiz-adv-x="608" 
d="M109 0v580h91v-262h2l227 262h109l-204 -230v-2q43 -17 66.5 -40.5t39.5 -66.5l24.5 -66t24.5 -60q11 -27 22.5 -36.5t26.5 -9.5q13 0 25 5l11 -69q-14 -7 -33 -10.5t-31 -3.5q-44 0 -67 22.5t-37 58.5l-23.5 60l-24.5 66q-7 19 -14 33.5t-16.5 25t-23 18.5t-33.5 14
l-71 -75v-214h-91z" />
    <glyph glyph-name="L.small" unicode="&#xe0ce;" horiz-adv-x="486" 
d="M109 0v580h91v-502h266v-78h-357z" />
    <glyph glyph-name="M.small" unicode="&#xe0cf;" horiz-adv-x="821" 
d="M621 0v411h-3l-165 -411h-83l-174 410h-2v-410h-85v580h107l201 -466h2l184 466h109v-580h-91z" />
    <glyph glyph-name="N.small" unicode="&#xe0d0;" horiz-adv-x="686" 
d="M493 -9l-295 438h-2v-429h-87v580h97l282 -419h2v419h87v-589h-84z" />
    <glyph glyph-name="O.small" unicode="&#xe0d1;" horiz-adv-x="646" 
d="M601 293q0 -81 -22 -139.5t-60 -95.5t-88.5 -54.5t-106.5 -17.5t-107 17.5t-89 54.5t-60.5 94.5t-22.5 137.5q0 78 22.5 135t60.5 94.5t88.5 56t106.5 18.5q57 0 107.5 -18t88.5 -55.5t60 -94t22 -133.5zM501 289q0 112 -47.5 169t-129.5 57q-85 0 -131.5 -57t-46.5 -169
q0 -113 46.5 -168.5t131.5 -55.5q82 0 129.5 56t47.5 168z" />
    <glyph glyph-name="P.small" unicode="&#xe0d2;" horiz-adv-x="562" 
d="M517 404q0 -52 -19.5 -87t-51 -56.5t-72.5 -31t-83 -9.5h-91v-220h-91v580h186q44 0 84.5 -10t71 -31t48.5 -54.5t18 -80.5zM417 403q0 55 -36 78.5t-90 23.5h-91v-210h84q24 0 48 4t42.5 16t30.5 33t12 55z" />
    <glyph glyph-name="Q.small" unicode="&#xe0d3;" horiz-adv-x="639" 
d="M601 293q0 -79 -21 -136t-56.5 -94t-83 -56t-101.5 -21l-50 -54v-2q32 -5 65.5 -15.5l65.5 -21t62 -18t56 -7.5q34 0 46 26t13 71h73q0 -36 -6 -68.5t-20.5 -57t-39 -39t-61.5 -14.5t-76.5 11.5t-79.5 25t-79 25t-76 11.5q-32 0 -57.5 -12.5t-53.5 -37.5l-39 51
q24 23 46.5 39t49.5 26l64 69v2q-42 10 -78 33t-62.5 59t-41.5 86.5t-15 115.5q0 78 22.5 135t60.5 94.5t88.5 56t106.5 18.5q57 0 107.5 -18t88.5 -55.5t60 -94t22 -133.5zM501 289q0 112 -47.5 169t-129.5 57q-85 0 -131.5 -57t-46.5 -169q0 -113 46.5 -168.5t131.5 -55.5
q82 0 129.5 56t47.5 168z" />
    <glyph glyph-name="R.small" unicode="&#xe0d4;" horiz-adv-x="621" 
d="M518 426q0 -30 -10 -53.5t-28 -41t-42 -29.5t-51 -18v-2q29 -14 46 -31t31 -51l20.5 -48t20.5 -46q11 -22 21 -29.5t24 -7.5q13 0 25 5l11 -69q-13 -7 -32 -10.5t-32 -3.5q-44 0 -66.5 22t-37.5 59l-24 58l-25 60q-14 34 -36.5 48.5t-66.5 14.5h-66v-253h-91v580h187
q36 0 75 -6.5t72 -24t54 -47.5t21 -76zM418 419q0 45 -31.5 66t-93.5 21h-93v-183h100q23 0 44.5 5t38 16t26 29.5t9.5 45.5z" />
    <glyph glyph-name="S.small" unicode="&#xe0d5;" horiz-adv-x="511" 
d="M255 -14q-75 0 -127 28.5t-78 83.5l72 44q29 -42 60.5 -60.5t79.5 -18.5q55 0 86.5 21t31.5 63q0 35 -23 56t-57.5 36t-74.5 27.5t-74.5 32t-57.5 50.5t-23 81q0 72 48 118t144 46q57 0 105.5 -17t86.5 -63l-67 -52q-23 27 -53.5 41t-77.5 14q-49 0 -74 -22t-25 -53
q0 -32 23 -51t58 -33.5t75.5 -27.5t75.5 -33.5t58 -52.5t23 -83q0 -45 -16 -77.5t-45 -54.5t-68.5 -32.5t-85.5 -10.5z" />
    <glyph glyph-name="T.small" unicode="&#xe0d6;" horiz-adv-x="510" 
d="M209 0v502h-199v78h490v-78h-200v-502h-91z" />
    <glyph glyph-name="U.small" unicode="&#xe0d7;" horiz-adv-x="667" 
d="M329 -14q-53 0 -95 11.5t-71 37t-44 67.5t-15 103v375h91v-374q0 -70 31 -105.5t106 -35.5q76 0 108.5 34t32.5 112v369h90v-353q0 -125 -54.5 -183t-179.5 -58z" />
    <glyph glyph-name="V.small" unicode="&#xe0d8;" horiz-adv-x="513" 
d="M217 -9l-212 589h102l154 -459h2l149 459h96l-208 -589h-83z" />
    <glyph glyph-name="W.small" unicode="&#xe0d9;" horiz-adv-x="775" 
d="M503 -9l-119 458h-2l-130 -458h-92l-155 589h98l109 -458h2l127 458h94l117 -458h2l122 458h94l-177 -589h-90z" />
    <glyph glyph-name="X.small" unicode="&#xe0da;" horiz-adv-x="493" 
d="M375 0l-136 219h-2l-131 -219h-101l186 289l-181 291h106l135 -219h2l129 219h102l-187 -291l191 -289h-113z" />
    <glyph glyph-name="Y.small" unicode="&#xe0db;" horiz-adv-x="495" 
d="M207 0v234l-202 346h106l145 -258h2l134 258h98l-192 -346v-234h-91z" />
    <glyph glyph-name="Z.small" unicode="&#xe0dc;" horiz-adv-x="483" 
d="M455 0h-422v61l285 439v2h-275v78h389v-66l-288 -434v-2h311v-78z" />
    <glyph glyph-name="Agrave.small" unicode="&#xe0dd;" horiz-adv-x="546" 
d="M223 618l-145 188h102l122 -188h-79zM441 0l-57 149h-233l-54 -149h-92l222 588h87l227 -588h-100zM267 464h-2l-89 -241h183z" />
    <glyph glyph-name="Aacute.small" unicode="&#xe0de;" horiz-adv-x="546" 
d="M441 0l-57 149h-233l-54 -149h-92l222 588h87l227 -588h-100zM267 464h-2l-89 -241h183zM235 618l122 188h102l-145 -188h-79z" />
    <glyph glyph-name="Acircumflex.small" unicode="&#xe0df;" horiz-adv-x="546" 
d="M441 0l-57 149h-233l-54 -149h-92l222 588h87l227 -588h-100zM267 464h-2l-89 -241h183zM360 618l-93 122h-2l-93 -122h-77l125 188h92l125 -188h-77z" />
    <glyph glyph-name="Atilde.small" unicode="&#xe0e0;" horiz-adv-x="546" 
d="M335 689q-14 0 -30 2.5t-31.5 6t-29.5 6t-26 2.5q-20 0 -27.5 -15t-9.5 -34h-70q1 22 4.5 44.5t13 39.5t26 28t43.5 11q13 0 28 -2.5t30 -6t29 -6t26 -2.5q17 0 24.5 11.5t9.5 31.5h70q-2 -61 -21 -89t-59 -28zM441 0l-57 149h-233l-54 -149h-92l222 588h87l227 -588
h-100zM267 464h-2l-89 -241h183z" />
    <glyph glyph-name="Adieresis.small" unicode="&#xe0e1;" horiz-adv-x="546" 
d="M441 0l-57 149h-233l-54 -149h-92l222 588h87l227 -588h-100zM267 464h-2l-89 -241h183zM238 746q0 -25 -17.5 -42.5t-40.5 -17.5q-24 0 -40.5 17.5t-16.5 42.5q0 26 17.5 43t40.5 17q24 0 40.5 -17t16.5 -43zM415 746q0 -25 -17.5 -42.5t-40.5 -17.5q-24 0 -40.5 17.5
t-16.5 42.5q0 26 17.5 43t40.5 17q24 0 40.5 -17t16.5 -43z" />
    <glyph glyph-name="Amacron.small" unicode="&#xe0e2;" horiz-adv-x="546" 
d="M139 712v74h260v-74h-260zM441 0l-57 149h-233l-54 -149h-92l222 588h87l227 -588h-100zM267 464h-2l-89 -241h183z" />
    <glyph glyph-name="Abreve.small" unicode="&#xe0e3;" horiz-adv-x="546" 
d="M267 664q-37 0 -64 11.5t-45 30.5t-27 43.5t-11 51.5l60 5q5 -29 27.5 -49.5t59.5 -20.5t59.5 20.5t27.5 49.5l60 -5q-2 -27 -11 -51.5t-27 -43.5t-45 -30.5t-64 -11.5zM441 0l-57 149h-233l-54 -149h-92l222 588h87l227 -588h-100zM267 464h-2l-89 -241h183z" />
    <glyph glyph-name="Aring.small" unicode="&#xe0e4;" horiz-adv-x="546" 
d="M441 0l-57 149h-233l-54 -149h-92l221 587q-28 10 -42.5 32t-14.5 54q0 41 28 65t73 24q48 0 75.5 -25t27.5 -67q0 -30 -16.5 -51.5t-42.5 -31.5l227 -587h-100zM267 464h-2l-89 -241h183zM314 670q0 19 -9.5 32.5t-34.5 13.5q-24 0 -33.5 -13t-9.5 -30q0 -20 9 -33.5
t36 -13.5q23 0 32.5 13.5t9.5 30.5z" />
    <glyph glyph-name="Aringacute.small" unicode="&#xe0e5;" horiz-adv-x="546" 
d="M441 0l-57 149h-233l-54 -149h-92l221 587q-28 10 -42.5 32t-14.5 54q0 41 28 65t73 24q48 0 75.5 -25t27.5 -67q0 -30 -16.5 -51.5t-42.5 -31.5l227 -587h-100zM267 464h-2l-89 -241h183zM314 670q0 19 -9.5 32.5t-34.5 13.5q-24 0 -33.5 -13t-9.5 -30q0 -20 9 -33.5
t36 -13.5q23 0 32.5 13.5t9.5 30.5zM234 778l122 188h102l-145 -188h-79z" />
    <glyph glyph-name="Aogonek.small" unicode="&#xe0e6;" horiz-adv-x="546" 
d="M464 -214q-17 0 -33.5 5t-29.5 15.5t-20.5 26t-7.5 36.5q0 38 21 70.5t47 60.5l-57 149h-233l-54 -149h-92l222 588h87l227 -588h-42q-19 -20 -35.5 -46.5t-16.5 -54.5q0 -18 11.5 -30.5t32.5 -12.5q14 0 26.5 6t23.5 15l21 -56q-16 -16 -42.5 -25.5t-55.5 -9.5zM267 464
h-2l-89 -241h183z" />
    <glyph glyph-name="AE.small" unicode="&#xe0e7;" horiz-adv-x="805" 
d="M387 0v231h-162l-126 -231h-99l325 580h398v-78h-245v-184h190v-78h-190v-162h289v-78h-380zM387 528h-2l-121 -220h123v220z" />
    <glyph glyph-name="AEacute.small" unicode="&#xe0e8;" horiz-adv-x="805" 
d="M387 0v231h-162l-126 -231h-99l325 580h398v-78h-245v-184h190v-78h-190v-162h289v-78h-380zM387 528h-2l-121 -220h123v220zM404 618l122 188h102l-145 -188h-79z" />
    <glyph glyph-name="Cacute.small" unicode="&#xe0e9;" horiz-adv-x="564" 
d="M531 76q-38 -48 -90.5 -69t-120.5 -21t-119.5 23t-86 63.5t-52 95.5t-17.5 118q0 66 17.5 122.5t52 98t86.5 64.5t121 23q61 0 110.5 -20.5t86.5 -68.5l-68 -55q-24 29 -55.5 47t-79.5 18q-83 0 -126.5 -58t-43.5 -161q0 -51 11 -93t33.5 -73t56.5 -48t80 -17q42 0 78 16
t59 48l67 -53v0zM274 618l122 188h102l-145 -188h-79z" />
    <glyph glyph-name="Ccircumflex.small" unicode="&#xe0ea;" horiz-adv-x="564" 
d="M531 76q-38 -48 -90.5 -69t-120.5 -21t-119.5 23t-86 63.5t-52 95.5t-17.5 118q0 66 17.5 122.5t52 98t86.5 64.5t121 23q61 0 110.5 -20.5t86.5 -68.5l-68 -55q-24 29 -55.5 47t-79.5 18q-83 0 -126.5 -58t-43.5 -161q0 -51 11 -93t33.5 -73t56.5 -48t80 -17q42 0 78 16
t59 48l67 -53v0zM411 618l-93 122h-2l-93 -122h-77l125 188h92l125 -188h-77z" />
    <glyph glyph-name="Ccaron.small" unicode="&#xe0eb;" horiz-adv-x="564" 
d="M531 76q-38 -48 -90.5 -69t-120.5 -21t-119.5 23t-86 63.5t-52 95.5t-17.5 118q0 66 17.5 122.5t52 98t86.5 64.5t121 23q61 0 110.5 -20.5t86.5 -68.5l-68 -55q-24 29 -55.5 47t-79.5 18q-83 0 -126.5 -58t-43.5 -161q0 -51 11 -93t33.5 -73t56.5 -48t80 -17q42 0 78 16
t59 48l67 -53v0zM272 618l-125 188h77l93 -122h2l93 122h77l-125 -188h-92z" />
    <glyph glyph-name="Cdotaccent.small" unicode="&#xe0ec;" horiz-adv-x="564" 
d="M531 76q-38 -48 -90.5 -69t-120.5 -21t-119.5 23t-86 63.5t-52 95.5t-17.5 118q0 66 17.5 122.5t52 98t86.5 64.5t121 23q61 0 110.5 -20.5t86.5 -68.5l-68 -55q-24 29 -55.5 47t-79.5 18q-83 0 -126.5 -58t-43.5 -161q0 -51 11 -93t33.5 -73t56.5 -48t80 -17q42 0 78 16
t59 48l67 -53v0zM376 745q0 -26 -17.5 -43.5t-41.5 -17.5q-25 0 -41.5 17.5t-16.5 43.5t17.5 43.5t41.5 17.5q25 0 41.5 -17.5t16.5 -43.5z" />
    <glyph glyph-name="Ccedilla.small" unicode="&#xe0ed;" horiz-adv-x="564" 
d="M531 76q-34 -42 -79.5 -63t-103.5 -26q23 -26 40 -55.5t17 -62.5q0 -21 -8 -36.5t-20.5 -26t-29 -15.5t-33.5 -5q-29 0 -55.5 9.5t-42.5 25.5l21 56q11 -9 23.5 -15t26.5 -6q21 0 32.5 12.5t11.5 30.5q0 24 -12.5 46.5t-28.5 41.5q-61 5 -107 30t-76.5 65t-46 92
t-15.5 112q0 66 17.5 122.5t52 98t86.5 64.5t121 23q61 0 110.5 -20.5t86.5 -68.5l-68 -55q-24 29 -55.5 47t-79.5 18q-83 0 -126.5 -58t-43.5 -161q0 -51 11 -93t33.5 -73t56.5 -48t80 -17q42 0 78 16t59 48l67 -53v0z" />
    <glyph glyph-name="Dcaron.small" unicode="&#xe0ef;" horiz-adv-x="646" 
d="M601 287q0 -70 -23.5 -123.5t-65 -90t-98 -55t-123.5 -18.5h-182v580h189q69 0 124.5 -20t95.5 -57.5t61.5 -92t21.5 -123.5zM501 282q0 59 -17 100.5t-46 68t-69.5 39t-86.5 12.5h-82v-424h86q48 0 87.5 12t68 37.5t44 63.5t15.5 91zM253 618l-125 188h77l93 -122h2
l93 122h77l-125 -188h-92z" />
    <glyph glyph-name="Dcroat.small" unicode="&#xe0f0;" horiz-adv-x="646" 
d="M601 287q0 -70 -23.5 -123.5t-65 -90t-98 -55t-123.5 -18.5h-182v266h-80v67h80v247h189q69 0 124.5 -20t95.5 -57.5t61.5 -92t21.5 -123.5zM501 282q0 59 -17 100.5t-46 68t-69.5 39t-86.5 12.5h-82v-169h142v-67h-142v-188h86q48 0 87.5 12t68 37.5t44 63.5t15.5 91z
" />
    <glyph glyph-name="Egrave.small" unicode="&#xe0f1;" horiz-adv-x="538" 
d="M250 618l-145 188h102l122 -188h-79zM109 0v580h347v-78h-256v-164h201v-78h-201v-182h300v-78h-391z" />
    <glyph glyph-name="Eacute.small" unicode="&#xe0f2;" horiz-adv-x="538" 
d="M109 0v580h347v-78h-256v-164h201v-78h-201v-182h300v-78h-391zM245 618l122 188h102l-145 -188h-79z" />
    <glyph glyph-name="Ecircumflex.small" unicode="&#xe0f3;" horiz-adv-x="538" 
d="M109 0v580h347v-78h-256v-164h201v-78h-201v-182h300v-78h-391zM376 618l-93 122h-2l-93 -122h-77l125 188h92l125 -188h-77z" />
    <glyph glyph-name="Ecaron.small" unicode="&#xe0f4;" horiz-adv-x="538" 
d="M109 0v580h347v-78h-256v-164h201v-78h-201v-182h300v-78h-391zM235 618l-125 188h77l93 -122h2l93 122h77l-125 -188h-92z" />
    <glyph glyph-name="Edieresis.small" unicode="&#xe0f5;" horiz-adv-x="538" 
d="M109 0v580h347v-78h-256v-164h201v-78h-201v-182h300v-78h-391zM253 746q0 -25 -17.5 -42.5t-40.5 -17.5q-24 0 -40.5 17.5t-16.5 42.5q0 26 17.5 43t40.5 17q24 0 40.5 -17t16.5 -43zM430 746q0 -25 -17.5 -42.5t-40.5 -17.5q-24 0 -40.5 17.5t-16.5 42.5q0 26 17.5 43
t40.5 17q24 0 40.5 -17t16.5 -43z" />
    <glyph glyph-name="Emacron.small" unicode="&#xe0f6;" horiz-adv-x="538" 
d="M154 712v74h260v-74h-260zM109 0v580h347v-78h-256v-164h201v-78h-201v-182h300v-78h-391z" />
    <glyph glyph-name="Ebreve.small" unicode="&#xe0f7;" horiz-adv-x="538" 
d="M287 664q-37 0 -64 11.5t-45 30.5t-27 43.5t-11 51.5l60 5q5 -29 27.5 -49.5t59.5 -20.5t59.5 20.5t27.5 49.5l60 -5q-2 -27 -11 -51.5t-27 -43.5t-45 -30.5t-64 -11.5zM109 0v580h347v-78h-256v-164h201v-78h-201v-182h300v-78h-391z" />
    <glyph glyph-name="Edotaccent.small" unicode="&#xe0f8;" horiz-adv-x="538" 
d="M109 0v580h347v-78h-256v-164h201v-78h-201v-182h300v-78h-391zM338 745q0 -26 -17.5 -43.5t-41.5 -17.5q-25 0 -41.5 17.5t-16.5 43.5t17.5 43.5t41.5 17.5q25 0 41.5 -17.5t16.5 -43.5z" />
    <glyph glyph-name="Eogonek.small" unicode="&#xe0f9;" horiz-adv-x="538" 
d="M443 0q-19 -20 -35.5 -46.5t-16.5 -54.5q0 -18 11.5 -30.5t32.5 -12.5q14 0 26.5 6t23.5 15l21 -56q-16 -16 -42.5 -25.5t-55.5 -9.5q-17 0 -33.5 5t-29.5 15.5t-20.5 26t-7.5 36.5q0 38 21 70.5t47 60.5h-276v580h347v-78h-256v-164h201v-78h-201v-182h300v-78h-57z" />
    <glyph glyph-name="fi.small" unicode="&#xe0fa;" horiz-adv-x="813" 
d="M109 0v580h355v-78h-264v-178h207v-78h-207v-246h-91zM613 0v580h91v-580h-91z" />
    <glyph glyph-name="fl.small" unicode="&#xe0fb;" horiz-adv-x="990" 
d="M109 0v580h355v-78h-264v-178h207v-78h-207v-246h-91zM613 0v580h91v-502h266v-78h-357z" />
    <glyph glyph-name="Gcircumflex.small" unicode="&#xe0fc;" horiz-adv-x="618" 
d="M540 46q-51 -32 -103 -46t-115 -14q-68 0 -119.5 24t-86.5 65t-53 96t-18 117q0 67 17.5 123t52.5 96.5t87 63.5t120 23q61 0 111 -20.5t86 -68.5l-67 -54q-24 29 -55.5 46.5t-79.5 17.5q-43 0 -75 -16t-53.5 -45t-32 -68.5t-10.5 -87.5q0 -115 48.5 -174.5t143.5 -59.5
q29 0 58 5t54 19v122h-129v78h219v-242v0zM405 618l-93 122h-2l-93 -122h-77l125 188h92l125 -188h-77z" />
    <glyph glyph-name="Gbreve.small" unicode="&#xe0fd;" horiz-adv-x="618" 
d="M316 664q-37 0 -64 11.5t-45 30.5t-27 43.5t-11 51.5l60 5q5 -29 27.5 -49.5t59.5 -20.5t59.5 20.5t27.5 49.5l60 -5q-2 -27 -11 -51.5t-27 -43.5t-45 -30.5t-64 -11.5zM540 46q-51 -32 -103 -46t-115 -14q-68 0 -119.5 24t-86.5 65t-53 96t-18 117q0 67 17.5 123
t52.5 96.5t87 63.5t120 23q61 0 111 -20.5t86 -68.5l-67 -54q-24 29 -55.5 46.5t-79.5 17.5q-43 0 -75 -16t-53.5 -45t-32 -68.5t-10.5 -87.5q0 -115 48.5 -174.5t143.5 -59.5q29 0 58 5t54 19v122h-129v78h219v-242v0z" />
    <glyph glyph-name="Gdotaccent.small" unicode="&#xe0fe;" horiz-adv-x="618" 
d="M540 46q-51 -32 -103 -46t-115 -14q-68 0 -119.5 24t-86.5 65t-53 96t-18 117q0 67 17.5 123t52.5 96.5t87 63.5t120 23q61 0 111 -20.5t86 -68.5l-67 -54q-24 29 -55.5 46.5t-79.5 17.5q-43 0 -75 -16t-53.5 -45t-32 -68.5t-10.5 -87.5q0 -115 48.5 -174.5t143.5 -59.5
q29 0 58 5t54 19v122h-129v78h219v-242v0zM371 745q0 -26 -17.5 -43.5t-41.5 -17.5q-25 0 -41.5 17.5t-16.5 43.5t17.5 43.5t41.5 17.5q25 0 41.5 -17.5t16.5 -43.5z" />
    <glyph glyph-name="Gcommaaccent.small" unicode="&#xe0ff;" horiz-adv-x="618" 
d="M540 46q-51 -32 -103 -46t-115 -14q-68 0 -119.5 24t-86.5 65t-53 96t-18 117q0 67 17.5 123t52.5 96.5t87 63.5t120 23q61 0 111 -20.5t86 -68.5l-67 -54q-24 29 -55.5 46.5t-79.5 17.5q-43 0 -75 -16t-53.5 -45t-32 -68.5t-10.5 -87.5q0 -115 48.5 -174.5t143.5 -59.5
q29 0 58 5t54 19v122h-129v78h219v-242v0zM287 -214q10 14 19.5 36t9.5 40q0 13 -6.5 21.5t-24.5 8.5h-15l-3 68q25 5 44 5q37 0 57.5 -19t20.5 -53q0 -26 -11.5 -53.5t-28.5 -53.5h-62z" />
    <glyph glyph-name="Hcircumflex.small" unicode="&#xe100;" horiz-adv-x="682" 
d="M483 0v260h-283v-260h-91v580h91v-242h283v242h90v-580h-90zM435 618l-93 122h-2l-93 -122h-77l125 188h92l125 -188h-77z" />
    <glyph glyph-name="Hbar.small" unicode="&#xe101;" horiz-adv-x="682" 
d="M483 0v260h-283v-260h-91v408h-80v67h80v105h91v-105h283v105h90v-105h80v-67h-80v-408h-90zM483 408h-283v-70h283v70z" />
    <glyph glyph-name="Igrave.small" unicode="&#xe102;" horiz-adv-x="309" 
d="M113 618l-145 188h102l122 -188h-79zM109 0v580h91v-580h-91z" />
    <glyph glyph-name="Iacute.small" unicode="&#xe103;" horiz-adv-x="309" 
d="M109 0v580h91v-580h-91zM115 617l122 188h102l-145 -188h-79z" />
    <glyph glyph-name="Icircumflex.small" unicode="&#xe104;" horiz-adv-x="309" 
d="M109 0v580h91v-580h-91zM248 618l-93 122h-2l-93 -122h-77l125 188h92l125 -188h-77z" />
    <glyph glyph-name="Itilde.small" unicode="&#xe105;" horiz-adv-x="309" 
d="M226 689q-14 0 -30 2.5t-31.5 6t-29.5 6t-26 2.5q-20 0 -27.5 -15t-9.5 -34h-70q1 22 4.5 44.5t13 39.5t26 28t43.5 11q13 0 28 -2.5t30 -6t29 -6t26 -2.5q17 0 24.5 11.5t9.5 31.5h70q-2 -61 -21 -89t-59 -28zM109 0v580h91v-580h-91z" />
    <glyph glyph-name="Idieresis.small" unicode="&#xe106;" horiz-adv-x="309" 
d="M109 0v580h91v-580h-91zM124 746q0 -25 -17.5 -42.5t-40.5 -17.5q-24 0 -40.5 17.5t-16.5 42.5q0 26 17.5 43t40.5 17q24 0 40.5 -17t16.5 -43zM301 746q0 -25 -17.5 -42.5t-40.5 -17.5q-24 0 -40.5 17.5t-16.5 42.5q0 26 17.5 43t40.5 17q24 0 40.5 -17t16.5 -43z" />
    <glyph glyph-name="Imacron.small" unicode="&#xe107;" horiz-adv-x="309" 
d="M25 712v74h260v-74h-260zM109 0v580h91v-580h-91z" />
    <glyph glyph-name="Ibreve.small" unicode="&#xe108;" horiz-adv-x="309" 
d="M155 664q-37 0 -64 11.5t-45 30.5t-27 43.5t-11 51.5l60 5q5 -29 27.5 -49.5t59.5 -20.5t59.5 20.5t27.5 49.5l60 -5q-2 -27 -11 -51.5t-27 -43.5t-45 -30.5t-64 -11.5zM109 0v580h91v-580h-91z" />
    <glyph glyph-name="Idotaccent.small" unicode="&#xe109;" horiz-adv-x="309" 
d="M109 0v580h91v-580h-91zM213 745q0 -26 -17.5 -43.5t-41.5 -17.5q-25 0 -41.5 17.5t-16.5 43.5t17.5 43.5t41.5 17.5q25 0 41.5 -17.5t16.5 -43.5z" />
    <glyph glyph-name="Iogonek.small" unicode="&#xe10a;" horiz-adv-x="309" 
d="M183 0q-18 -20 -35 -46.5t-17 -54.5q0 -18 11.5 -30.5t32.5 -12.5q14 0 26.5 6t23.5 15l21 -56q-16 -16 -42.5 -25.5t-55.5 -9.5q-17 0 -33.5 5t-29.5 15.5t-20.5 26t-7.5 36.5q0 38 21 70.5t47 60.5h-16v580h91v-580h-17z" />
    <glyph glyph-name="IJ.small" unicode="&#xe10b;" horiz-adv-x="606" 
d="M109 0v580h91v-580h-91zM497 -30q0 -39 -12 -73t-34.5 -58.5t-55 -38.5t-74.5 -14q-53 0 -99 23l38 74q14 -8 30 -13t34 -5q46 0 64 30t18 74v611h91v-610v0z" />
    <glyph glyph-name="Jcircumflex.small" unicode="&#xe10c;" horiz-adv-x="297" 
d="M188 -30q0 -39 -12 -73t-34.5 -58.5t-55 -38.5t-74.5 -14q-53 0 -99 23l38 74q14 -8 30 -13t34 -5q46 0 64 30t18 74v611h91v-610v0zM235 618l-93 122h-2l-93 -122h-77l125 188h92l125 -188h-77z" />
    <glyph glyph-name="Kcommaaccent.small" unicode="&#xe10d;" horiz-adv-x="608" 
d="M109 0v580h91v-262h2l227 262h109l-204 -230v-2q43 -17 66.5 -40.5t39.5 -66.5l24.5 -66t24.5 -60q11 -27 22.5 -36.5t26.5 -9.5q13 0 25 5l11 -69q-14 -7 -33 -10.5t-31 -3.5q-44 0 -67 22.5t-37 58.5l-23.5 60l-24.5 66q-7 19 -14 33.5t-16.5 25t-23 18.5t-33.5 14
l-71 -75v-214h-91zM281 -214q10 14 19.5 36t9.5 40q0 13 -6.5 21.5t-24.5 8.5h-15l-3 68q25 5 44 5q37 0 57.5 -19t20.5 -53q0 -26 -11.5 -53.5t-28.5 -53.5h-62z" />
    <glyph glyph-name="Lacute.small" unicode="&#xe10e;" horiz-adv-x="486" 
d="M109 0v580h91v-502h266v-78h-357zM115 617l122 188h102l-145 -188h-79z" />
    <glyph glyph-name="Lcaron.small" unicode="&#xe10f;" horiz-adv-x="486" 
d="M109 0v580h91v-502h266v-78h-357zM266 438l42 182h91l-71 -182h-62z" />
    <glyph glyph-name="Lcommaaccent.small" unicode="&#xe110;" horiz-adv-x="486" 
d="M109 0v580h91v-502h266v-78h-357zM249 -214q10 14 19.5 36t9.5 40q0 13 -6.5 21.5t-24.5 8.5h-15l-3 68q25 5 44 5q37 0 57.5 -19t20.5 -53q0 -26 -11.5 -53.5t-28.5 -53.5h-62z" />
    <glyph glyph-name="Lslash.small" unicode="&#xe111;" horiz-adv-x="486" 
d="M109 0v208l-60 -30l-31 60l91 46v296h91v-250l167 83l31 -60l-198 -99v-176h266v-78h-357z" />
    <glyph glyph-name="Ldot.small" unicode="&#xe112;" horiz-adv-x="486" 
d="M109 0v580h91v-502h266v-78h-357zM466 333q0 -28 -19.5 -47.5t-47.5 -19.5t-47.5 19.5t-19.5 47.5t19.5 47.5t47.5 19.5t47.5 -19.5t19.5 -47.5z" />
    <glyph glyph-name="Nacute.small" unicode="&#xe113;" horiz-adv-x="686" 
d="M493 -9l-295 438h-2v-429h-87v580h97l282 -419h2v419h87v-589h-84zM314 617l122 188h102l-145 -188h-79z" />
    <glyph glyph-name="Ncaron.small" unicode="&#xe114;" horiz-adv-x="686" 
d="M493 -9l-295 438h-2v-429h-87v580h97l282 -419h2v419h87v-589h-84zM307 618l-125 188h77l93 -122h2l93 122h77l-125 -188h-92z" />
    <glyph glyph-name="Ntilde.small" unicode="&#xe115;" horiz-adv-x="686" 
d="M422 689q-14 0 -30 2.5t-31.5 6t-29.5 6t-26 2.5q-20 0 -27.5 -15t-9.5 -34h-70q1 22 4.5 44.5t13 39.5t26 28t43.5 11q13 0 28 -2.5t30 -6t29 -6t26 -2.5q17 0 24.5 11.5t9.5 31.5h70q-2 -61 -21 -89t-59 -28zM493 -9l-295 438h-2v-429h-87v580h97l282 -419h2v419h87
v-589h-84z" />
    <glyph glyph-name="Ncommaaccent.small" unicode="&#xe116;" horiz-adv-x="686" 
d="M493 -9l-295 438h-2v-429h-87v580h97l282 -419h2v419h87v-589h-84zM307 -214q10 14 19.5 36t9.5 40q0 13 -6.5 21.5t-24.5 8.5h-15l-3 68q25 5 44 5q37 0 57.5 -19t20.5 -53q0 -26 -11.5 -53.5t-28.5 -53.5h-62z" />
    <glyph glyph-name="Ograve.small" unicode="&#xe117;" horiz-adv-x="646" 
d="M283 618l-145 188h102l122 -188h-79zM601 293q0 -81 -22 -139.5t-60 -95.5t-88.5 -54.5t-106.5 -17.5t-107 17.5t-89 54.5t-60.5 94.5t-22.5 137.5q0 78 22.5 135t60.5 94.5t88.5 56t106.5 18.5q57 0 107.5 -18t88.5 -55.5t60 -94t22 -133.5zM501 289q0 112 -47.5 169
t-129.5 57q-85 0 -131.5 -57t-46.5 -169q0 -113 46.5 -168.5t131.5 -55.5q82 0 129.5 56t47.5 168z" />
    <glyph glyph-name="Oacute.small" unicode="&#xe118;" horiz-adv-x="646" 
d="M601 293q0 -81 -22 -139.5t-60 -95.5t-88.5 -54.5t-106.5 -17.5t-107 17.5t-89 54.5t-60.5 94.5t-22.5 137.5q0 78 22.5 135t60.5 94.5t88.5 56t106.5 18.5q57 0 107.5 -18t88.5 -55.5t60 -94t22 -133.5zM501 289q0 112 -47.5 169t-129.5 57q-85 0 -131.5 -57t-46.5 -169
q0 -113 46.5 -168.5t131.5 -55.5q82 0 129.5 56t47.5 168zM277 617l122 188h102l-145 -188h-79z" />
    <glyph glyph-name="Ocircumflex.small" unicode="&#xe119;" horiz-adv-x="646" 
d="M601 293q0 -81 -22 -139.5t-60 -95.5t-88.5 -54.5t-106.5 -17.5t-107 17.5t-89 54.5t-60.5 94.5t-22.5 137.5q0 78 22.5 135t60.5 94.5t88.5 56t106.5 18.5q57 0 107.5 -18t88.5 -55.5t60 -94t22 -133.5zM501 289q0 112 -47.5 169t-129.5 57q-85 0 -131.5 -57t-46.5 -169
q0 -113 46.5 -168.5t131.5 -55.5q82 0 129.5 56t47.5 168zM418 618l-93 122h-2l-93 -122h-77l125 188h92l125 -188h-77z" />
    <glyph glyph-name="Otilde.small" unicode="&#xe11a;" horiz-adv-x="646" 
d="M402 689q-14 0 -30 2.5t-31.5 6t-29.5 6t-26 2.5q-20 0 -27.5 -15t-9.5 -34h-70q1 22 4.5 44.5t13 39.5t26 28t43.5 11q13 0 28 -2.5t30 -6t29 -6t26 -2.5q17 0 24.5 11.5t9.5 31.5h70q-2 -61 -21 -89t-59 -28zM601 293q0 -81 -22 -139.5t-60 -95.5t-88.5 -54.5
t-106.5 -17.5t-107 17.5t-89 54.5t-60.5 94.5t-22.5 137.5q0 78 22.5 135t60.5 94.5t88.5 56t106.5 18.5q57 0 107.5 -18t88.5 -55.5t60 -94t22 -133.5zM501 289q0 112 -47.5 169t-129.5 57q-85 0 -131.5 -57t-46.5 -169q0 -113 46.5 -168.5t131.5 -55.5q82 0 129.5 56
t47.5 168z" />
    <glyph glyph-name="Odieresis.small" unicode="&#xe11b;" horiz-adv-x="646" 
d="M601 293q0 -81 -22 -139.5t-60 -95.5t-88.5 -54.5t-106.5 -17.5t-107 17.5t-89 54.5t-60.5 94.5t-22.5 137.5q0 78 22.5 135t60.5 94.5t88.5 56t106.5 18.5q57 0 107.5 -18t88.5 -55.5t60 -94t22 -133.5zM501 289q0 112 -47.5 169t-129.5 57q-85 0 -131.5 -57t-46.5 -169
q0 -113 46.5 -168.5t131.5 -55.5q82 0 129.5 56t47.5 168zM287 746q0 -25 -17.5 -42.5t-40.5 -17.5q-24 0 -40.5 17.5t-16.5 42.5q0 26 17.5 43t40.5 17q24 0 40.5 -17t16.5 -43zM464 746q0 -25 -17.5 -42.5t-40.5 -17.5q-24 0 -40.5 17.5t-16.5 42.5q0 26 17.5 43t40.5 17
q24 0 40.5 -17t16.5 -43z" />
    <glyph glyph-name="Omacron.small" unicode="&#xe11c;" horiz-adv-x="646" 
d="M188 712v74h260v-74h-260zM601 293q0 -81 -22 -139.5t-60 -95.5t-88.5 -54.5t-106.5 -17.5t-107 17.5t-89 54.5t-60.5 94.5t-22.5 137.5q0 78 22.5 135t60.5 94.5t88.5 56t106.5 18.5q57 0 107.5 -18t88.5 -55.5t60 -94t22 -133.5zM501 289q0 112 -47.5 169t-129.5 57
q-85 0 -131.5 -57t-46.5 -169q0 -113 46.5 -168.5t131.5 -55.5q82 0 129.5 56t47.5 168z" />
    <glyph glyph-name="Obreve.small" unicode="&#xe11d;" horiz-adv-x="646" 
d="M323 664q-37 0 -64 11.5t-45 30.5t-27 43.5t-11 51.5l60 5q5 -29 27.5 -49.5t59.5 -20.5t59.5 20.5t27.5 49.5l60 -5q-2 -27 -11 -51.5t-27 -43.5t-45 -30.5t-64 -11.5zM601 293q0 -81 -22 -139.5t-60 -95.5t-88.5 -54.5t-106.5 -17.5t-107 17.5t-89 54.5t-60.5 94.5
t-22.5 137.5q0 78 22.5 135t60.5 94.5t88.5 56t106.5 18.5q57 0 107.5 -18t88.5 -55.5t60 -94t22 -133.5zM501 289q0 112 -47.5 169t-129.5 57q-85 0 -131.5 -57t-46.5 -169q0 -113 46.5 -168.5t131.5 -55.5q82 0 129.5 56t47.5 168z" />
    <glyph glyph-name="Ohungarumlaut.small" unicode="&#xe11e;" horiz-adv-x="646" 
d="M601 293q0 -81 -22 -139.5t-60 -95.5t-88.5 -54.5t-106.5 -17.5t-107 17.5t-89 54.5t-60.5 94.5t-22.5 137.5q0 78 22.5 135t60.5 94.5t88.5 56t106.5 18.5q57 0 107.5 -18t88.5 -55.5t60 -94t22 -133.5zM501 289q0 112 -47.5 169t-129.5 57q-85 0 -131.5 -57t-46.5 -169
q0 -113 46.5 -168.5t131.5 -55.5q82 0 129.5 56t47.5 168zM206 618l122 188h99l-145 -188h-76zM359 618l122 188h99l-145 -188h-76z" />
    <glyph glyph-name="Oslash.small" unicode="&#xe11f;" horiz-adv-x="646" 
d="M601 293q0 -81 -22 -139.5t-60 -95.5t-88.5 -54.5t-106.5 -17.5q-44 0 -84 10.5t-74 31.5l-60 -88h-82l90 132q-32 37 -50.5 91t-18.5 127q0 78 22.5 135t60.5 94.5t88.5 56t106.5 18.5q67 0 128 -28l50 74h81l-75 -110q43 -37 68.5 -95.5t25.5 -141.5zM501 289
q0 107 -45 166l-242 -356q41 -34 110 -34q82 0 129.5 56t47.5 168zM146 289q0 -83 25 -134l233 342q-35 18 -80 18q-85 0 -131.5 -57t-46.5 -169z" />
    <glyph glyph-name="Oslashacute.small" unicode="&#xe120;" horiz-adv-x="646" 
d="M601 293q0 -81 -22 -139.5t-60 -95.5t-88.5 -54.5t-106.5 -17.5q-44 0 -84 10.5t-74 31.5l-60 -88h-82l90 132q-32 37 -50.5 91t-18.5 127q0 78 22.5 135t60.5 94.5t88.5 56t106.5 18.5q67 0 128 -28l50 74h81l-75 -110q43 -37 68.5 -95.5t25.5 -141.5zM501 289
q0 107 -45 166l-242 -356q41 -34 110 -34q82 0 129.5 56t47.5 168zM146 289q0 -83 25 -134l233 342q-35 18 -80 18q-85 0 -131.5 -57t-46.5 -169zM279 617l122 188h102l-145 -188h-79z" />
    <glyph glyph-name="OE.small" unicode="&#xe121;" horiz-adv-x="832" 
d="M348 0q-69 0 -124.5 20t-95.5 57.5t-61.5 92t-21.5 123.5q0 70 23.5 123.5t65 90t98 55t123.5 18.5h395v-78h-244v-164h189v-78h-189v-182h288v-78h-446zM415 502h-55q-48 0 -87.5 -12t-68 -37.5t-44 -64t-15.5 -90.5q0 -59 17 -100.5t46 -68t69 -39t87 -12.5h51v424z
" />
    <glyph glyph-name="Racute.small" unicode="&#xe122;" horiz-adv-x="621" 
d="M518 426q0 -30 -10 -53.5t-28 -41t-42 -29.5t-51 -18v-2q29 -14 46 -31t31 -51l20.5 -48t20.5 -46q11 -22 21 -29.5t24 -7.5q13 0 25 5l11 -69q-13 -7 -32 -10.5t-32 -3.5q-44 0 -66.5 22t-37.5 59l-24 58l-25 60q-14 34 -36.5 48.5t-66.5 14.5h-66v-253h-91v580h187
q36 0 75 -6.5t72 -24t54 -47.5t21 -76zM418 419q0 45 -31.5 66t-93.5 21h-93v-183h100q23 0 44.5 5t38 16t26 29.5t9.5 45.5zM253 617l122 188h102l-145 -188h-79z" />
    <glyph glyph-name="Rcaron.small" unicode="&#xe123;" horiz-adv-x="621" 
d="M518 426q0 -30 -10 -53.5t-28 -41t-42 -29.5t-51 -18v-2q29 -14 46 -31t31 -51l20.5 -48t20.5 -46q11 -22 21 -29.5t24 -7.5q13 0 25 5l11 -69q-13 -7 -32 -10.5t-32 -3.5q-44 0 -66.5 22t-37.5 59l-24 58l-25 60q-14 34 -36.5 48.5t-66.5 14.5h-66v-253h-91v580h187
q36 0 75 -6.5t72 -24t54 -47.5t21 -76zM418 419q0 45 -31.5 66t-93.5 21h-93v-183h100q23 0 44.5 5t38 16t26 29.5t9.5 45.5zM248 618l-125 188h77l93 -122h2l93 122h77l-125 -188h-92z" />
    <glyph glyph-name="Rcommaaccent.small" unicode="&#xe124;" horiz-adv-x="621" 
d="M518 426q0 -30 -10 -53.5t-28 -41t-42 -29.5t-51 -18v-2q29 -14 46 -31t31 -51l20.5 -48t20.5 -46q11 -22 21 -29.5t24 -7.5q13 0 25 5l11 -69q-13 -7 -32 -10.5t-32 -3.5q-44 0 -66.5 22t-37.5 59l-24 58l-25 60q-14 34 -36.5 48.5t-66.5 14.5h-66v-253h-91v580h187
q36 0 75 -6.5t72 -24t54 -47.5t21 -76zM418 419q0 45 -31.5 66t-93.5 21h-93v-183h100q23 0 44.5 5t38 16t26 29.5t9.5 45.5zM289 -214q10 14 19.5 36t9.5 40q0 13 -6.5 21.5t-24.5 8.5h-15l-3 68q25 5 44 5q37 0 57.5 -19t20.5 -53q0 -26 -11.5 -53.5t-28.5 -53.5h-62z" />
    <glyph glyph-name="germandbls.small" unicode="&#xe125;" horiz-adv-x="1022" 
d="M766 -14q-75 0 -127 28.5t-78 83.5l72 44q29 -42 60.5 -60.5t79.5 -18.5q55 0 86.5 21t31.5 63q0 35 -23 56t-57.5 36t-74.5 27.5t-74.5 32t-57.5 50.5t-23 81q0 72 48 118t144 46q57 0 105.5 -17t86.5 -63l-67 -52q-23 27 -53.5 41t-77.5 14q-49 0 -74 -22t-25 -53
q0 -32 23 -51t58 -33.5t75.5 -27.5t75.5 -33.5t58 -52.5t23 -83q0 -45 -16 -77.5t-45 -54.5t-68.5 -32.5t-85.5 -10.5zM255 -14q-75 0 -127 28.5t-78 83.5l72 44q29 -42 60.5 -60.5t79.5 -18.5q55 0 86.5 21t31.5 63q0 35 -23 56t-57.5 36t-74.5 27.5t-74.5 32t-57.5 50.5
t-23 81q0 72 48 118t144 46q57 0 105.5 -17t86.5 -63l-67 -52q-23 27 -53.5 41t-77.5 14q-49 0 -74 -22t-25 -53q0 -32 23 -51t58 -33.5t75.5 -27.5t75.5 -33.5t58 -52.5t23 -83q0 -45 -16 -77.5t-45 -54.5t-68.5 -32.5t-85.5 -10.5z" />
    <glyph glyph-name="Sacute.small" unicode="&#xe126;" horiz-adv-x="511" 
d="M255 -14q-75 0 -127 28.5t-78 83.5l72 44q29 -42 60.5 -60.5t79.5 -18.5q55 0 86.5 21t31.5 63q0 35 -23 56t-57.5 36t-74.5 27.5t-74.5 32t-57.5 50.5t-23 81q0 72 48 118t144 46q57 0 105.5 -17t86.5 -63l-67 -52q-23 27 -53.5 41t-77.5 14q-49 0 -74 -22t-25 -53
q0 -32 23 -51t58 -33.5t75.5 -27.5t75.5 -33.5t58 -52.5t23 -83q0 -45 -16 -77.5t-45 -54.5t-68.5 -32.5t-85.5 -10.5zM218 617l122 188h102l-145 -188h-79z" />
    <glyph glyph-name="Scircumflex.small" unicode="&#xe127;" horiz-adv-x="511" 
d="M255 -14q-75 0 -127 28.5t-78 83.5l72 44q29 -42 60.5 -60.5t79.5 -18.5q55 0 86.5 21t31.5 63q0 35 -23 56t-57.5 36t-74.5 27.5t-74.5 32t-57.5 50.5t-23 81q0 72 48 118t144 46q57 0 105.5 -17t86.5 -63l-67 -52q-23 27 -53.5 41t-77.5 14q-49 0 -74 -22t-25 -53
q0 -32 23 -51t58 -33.5t75.5 -27.5t75.5 -33.5t58 -52.5t23 -83q0 -45 -16 -77.5t-45 -54.5t-68.5 -32.5t-85.5 -10.5zM362 618l-93 122h-2l-93 -122h-77l125 188h92l125 -188h-77z" />
    <glyph glyph-name="Scaron.small" unicode="&#xe128;" horiz-adv-x="511" 
d="M255 -14q-75 0 -127 28.5t-78 83.5l72 44q29 -42 60.5 -60.5t79.5 -18.5q55 0 86.5 21t31.5 63q0 35 -23 56t-57.5 36t-74.5 27.5t-74.5 32t-57.5 50.5t-23 81q0 72 48 118t144 46q57 0 105.5 -17t86.5 -63l-67 -52q-23 27 -53.5 41t-77.5 14q-49 0 -74 -22t-25 -53
q0 -32 23 -51t58 -33.5t75.5 -27.5t75.5 -33.5t58 -52.5t23 -83q0 -45 -16 -77.5t-45 -54.5t-68.5 -32.5t-85.5 -10.5zM215 618l-125 188h77l93 -122h2l93 122h77l-125 -188h-92z" />
    <glyph glyph-name="Scedilla.small" unicode="&#xe129;" horiz-adv-x="511" 
d="M349 -131q0 -21 -8 -36.5t-20.5 -26t-29 -15.5t-33.5 -5q-29 0 -55.5 9.5t-42.5 25.5l21 56q11 -9 23.5 -15t26.5 -6q21 0 32.5 12.5t11.5 30.5q0 23 -12.5 45.5t-27.5 41.5q-136 8 -185 112l72 44q29 -42 60.5 -60.5t79.5 -18.5q55 0 86.5 21t31.5 63q0 35 -23 56
t-57.5 36t-74.5 27.5t-74.5 32t-57.5 50.5t-23 81q0 72 48 118t144 46q57 0 105.5 -17t86.5 -63l-67 -52q-23 27 -53.5 41t-77.5 14q-49 0 -74 -22t-25 -53q0 -32 23 -51t58 -33.5t75.5 -27.5t75.5 -33.5t58 -52.5t23 -83q0 -80 -50 -123t-128 -50q23 -26 40 -56t17 -63z
" />
    <glyph glyph-name="Scommaaccent.small" unicode="&#xe12a;" horiz-adv-x="511" 
d="M255 -14q-75 0 -127 28.5t-78 83.5l72 44q29 -42 60.5 -60.5t79.5 -18.5q55 0 86.5 21t31.5 63q0 35 -23 56t-57.5 36t-74.5 27.5t-74.5 32t-57.5 50.5t-23 81q0 72 48 118t144 46q57 0 105.5 -17t86.5 -63l-67 -52q-23 27 -53.5 41t-77.5 14q-49 0 -74 -22t-25 -53
q0 -32 23 -51t58 -33.5t75.5 -27.5t75.5 -33.5t58 -52.5t23 -83q0 -45 -16 -77.5t-45 -54.5t-68.5 -32.5t-85.5 -10.5zM232 -214q10 14 19.5 36t9.5 40q0 13 -6.5 21.5t-24.5 8.5h-15l-3 68q25 5 44 5q37 0 57.5 -19t20.5 -53q0 -26 -11.5 -53.5t-28.5 -53.5h-62z" />
    <glyph glyph-name="Tcaron.small" unicode="&#xe12b;" horiz-adv-x="510" 
d="M209 0v502h-199v78h490v-78h-200v-502h-91zM207 618l-125 188h77l93 -122h2l93 122h77l-125 -188h-92z" />
    <glyph glyph-name="Tcommaaccent.small" unicode="&#xe12c;" horiz-adv-x="510" 
d="M209 0v502h-199v78h490v-78h-200v-502h-91zM214 -214q10 14 19.5 36t9.5 40q0 13 -6.5 21.5t-24.5 8.5h-15l-3 68q25 5 44 5q37 0 57.5 -19t20.5 -53q0 -26 -11.5 -53.5t-28.5 -53.5h-62z" />
    <glyph glyph-name="Tbar.small" unicode="&#xe12d;" horiz-adv-x="510" 
d="M209 0v266h-110v67h110v169h-199v78h490v-78h-200v-169h112v-67h-112v-266h-91z" />
    <glyph glyph-name="Ugrave.small" unicode="&#xe12e;" horiz-adv-x="667" 
d="M292 618l-145 188h102l122 -188h-79zM329 -14q-53 0 -95 11.5t-71 37t-44 67.5t-15 103v375h91v-374q0 -70 31 -105.5t106 -35.5q76 0 108.5 34t32.5 112v369h90v-353q0 -125 -54.5 -183t-179.5 -58z" />
    <glyph glyph-name="Uacute.small" unicode="&#xe12f;" horiz-adv-x="667" 
d="M329 -14q-53 0 -95 11.5t-71 37t-44 67.5t-15 103v375h91v-374q0 -70 31 -105.5t106 -35.5q76 0 108.5 34t32.5 112v369h90v-353q0 -125 -54.5 -183t-179.5 -58zM287 617l122 188h102l-145 -188h-79z" />
    <glyph glyph-name="Ucircumflex.small" unicode="&#xe130;" horiz-adv-x="667" 
d="M329 -14q-53 0 -95 11.5t-71 37t-44 67.5t-15 103v375h91v-374q0 -70 31 -105.5t106 -35.5q76 0 108.5 34t32.5 112v369h90v-353q0 -125 -54.5 -183t-179.5 -58zM429 618l-93 122h-2l-93 -122h-77l125 188h92l125 -188h-77z" />
    <glyph glyph-name="Utilde.small" unicode="&#xe131;" horiz-adv-x="667" 
d="M411 689q-14 0 -30 2.5t-31.5 6t-29.5 6t-26 2.5q-20 0 -27.5 -15t-9.5 -34h-70q1 22 4.5 44.5t13 39.5t26 28t43.5 11q13 0 28 -2.5t30 -6t29 -6t26 -2.5q17 0 24.5 11.5t9.5 31.5h70q-2 -61 -21 -89t-59 -28zM329 -14q-53 0 -95 11.5t-71 37t-44 67.5t-15 103v375h91
v-374q0 -70 31 -105.5t106 -35.5q76 0 108.5 34t32.5 112v369h90v-353q0 -125 -54.5 -183t-179.5 -58z" />
    <glyph glyph-name="Udieresis.small" unicode="&#xe132;" horiz-adv-x="667" 
d="M329 -14q-53 0 -95 11.5t-71 37t-44 67.5t-15 103v375h91v-374q0 -70 31 -105.5t106 -35.5q76 0 108.5 34t32.5 112v369h90v-353q0 -125 -54.5 -183t-179.5 -58zM301 746q0 -25 -17.5 -42.5t-40.5 -17.5q-24 0 -40.5 17.5t-16.5 42.5q0 26 17.5 43t40.5 17q24 0 40.5 -17
t16.5 -43zM478 746q0 -25 -17.5 -42.5t-40.5 -17.5q-24 0 -40.5 17.5t-16.5 42.5q0 26 17.5 43t40.5 17q24 0 40.5 -17t16.5 -43z" />
    <glyph glyph-name="Umacron.small" unicode="&#xe133;" horiz-adv-x="667" 
d="M200 712v74h260v-74h-260zM329 -14q-53 0 -95 11.5t-71 37t-44 67.5t-15 103v375h91v-374q0 -70 31 -105.5t106 -35.5q76 0 108.5 34t32.5 112v369h90v-353q0 -125 -54.5 -183t-179.5 -58z" />
    <glyph glyph-name="Ubreve.small" unicode="&#xe134;" horiz-adv-x="667" 
d="M331 664q-37 0 -64 11.5t-45 30.5t-27 43.5t-11 51.5l60 5q5 -29 27.5 -49.5t59.5 -20.5t59.5 20.5t27.5 49.5l60 -5q-2 -27 -11 -51.5t-27 -43.5t-45 -30.5t-64 -11.5zM329 -14q-53 0 -95 11.5t-71 37t-44 67.5t-15 103v375h91v-374q0 -70 31 -105.5t106 -35.5
q76 0 108.5 34t32.5 112v369h90v-353q0 -125 -54.5 -183t-179.5 -58z" />
    <glyph glyph-name="Uring.small" unicode="&#xe135;" horiz-adv-x="667" 
d="M436 714q0 -42 -29.5 -66t-71.5 -24q-50 0 -76.5 25t-26.5 68q0 41 28 65t73 24q48 0 75.5 -25t27.5 -67zM377 714q0 19 -9.5 32.5t-34.5 13.5q-24 0 -33.5 -13t-9.5 -30q0 -20 9 -33.5t36 -13.5q23 0 32.5 13.5t9.5 30.5zM329 -14q-53 0 -95 11.5t-71 37t-44 67.5
t-15 103v375h91v-374q0 -70 31 -105.5t106 -35.5q76 0 108.5 34t32.5 112v369h90v-353q0 -125 -54.5 -183t-179.5 -58z" />
    <glyph glyph-name="Uhungarumlaut.small" unicode="&#xe136;" horiz-adv-x="667" 
d="M329 -14q-53 0 -95 11.5t-71 37t-44 67.5t-15 103v375h91v-374q0 -70 31 -105.5t106 -35.5q76 0 108.5 34t32.5 112v369h90v-353q0 -125 -54.5 -183t-179.5 -58zM221 618l122 188h99l-145 -188h-76zM374 618l122 188h99l-145 -188h-76z" />
    <glyph glyph-name="Uogonek.small" unicode="&#xe137;" horiz-adv-x="667" 
d="M326 -214q-17 0 -33.5 5t-29.5 15.5t-20.5 26t-7.5 36.5q0 33 17 62.5t40 55.5q-90 7 -139 56.5t-49 161.5v375h91v-374q0 -70 31 -105.5t106 -35.5q76 0 108.5 34t32.5 112v369h90v-353q0 -120 -50 -178.5t-164 -62.5q-16 -19 -28 -41.5t-12 -45.5q0 -18 11.5 -30.5
t32.5 -12.5q14 0 26.5 6t23.5 15l21 -56q-16 -16 -42.5 -25.5t-55.5 -9.5z" />
    <glyph glyph-name="Wgrave.small" unicode="&#xe138;" horiz-adv-x="775" 
d="M347 618l-145 188h102l122 -188h-79zM503 -9l-119 458h-2l-130 -458h-92l-155 589h98l109 -458h2l127 458h94l117 -458h2l122 458h94l-177 -589h-90z" />
    <glyph glyph-name="Wacute.small" unicode="&#xe139;" horiz-adv-x="775" 
d="M503 -9l-119 458h-2l-130 -458h-92l-155 589h98l109 -458h2l127 458h94l117 -458h2l122 458h94l-177 -589h-90zM351 618l122 188h102l-145 -188h-79z" />
    <glyph glyph-name="Wcircumflex.small" unicode="&#xe13a;" horiz-adv-x="775" 
d="M503 -9l-119 458h-2l-130 -458h-92l-155 589h98l109 -458h2l127 458h94l117 -458h2l122 458h94l-177 -589h-90zM480 617l-93 122h-2l-93 -122h-77l125 188h92l125 -188h-77z" />
    <glyph glyph-name="Wdieresis.small" unicode="&#xe13b;" horiz-adv-x="775" 
d="M503 -9l-119 458h-2l-130 -458h-92l-155 589h98l109 -458h2l127 458h94l117 -458h2l122 458h94l-177 -589h-90zM357 746q0 -25 -17.5 -42.5t-40.5 -17.5q-24 0 -40.5 17.5t-16.5 42.5q0 26 17.5 43t40.5 17q24 0 40.5 -17t16.5 -43zM534 746q0 -25 -17.5 -42.5
t-40.5 -17.5q-24 0 -40.5 17.5t-16.5 42.5q0 26 17.5 43t40.5 17q24 0 40.5 -17t16.5 -43z" />
    <glyph glyph-name="Ygrave.small" unicode="&#xe13c;" horiz-adv-x="495" 
d="M221 618l-145 188h102l122 -188h-79zM207 0v234l-202 346h106l145 -258h2l134 258h98l-192 -346v-234h-91z" />
    <glyph glyph-name="Yacute.small" unicode="&#xe13d;" horiz-adv-x="495" 
d="M207 0v234l-202 346h106l145 -258h2l134 258h98l-192 -346v-234h-91zM221 618l122 188h102l-145 -188h-79z" />
    <glyph glyph-name="Ycircumflex.small" unicode="&#xe13e;" horiz-adv-x="495" 
d="M207 0v234l-202 346h106l145 -258h2l134 258h98l-192 -346v-234h-91zM344 618l-93 122h-2l-93 -122h-77l125 188h92l125 -188h-77z" />
    <glyph glyph-name="Ydieresis.small" unicode="&#xe13f;" horiz-adv-x="495" 
d="M207 0v234l-202 346h106l145 -258h2l134 258h98l-192 -346v-234h-91zM223 746q0 -25 -17.5 -42.5t-40.5 -17.5q-24 0 -40.5 17.5t-16.5 42.5q0 26 17.5 43t40.5 17q24 0 40.5 -17t16.5 -43zM400 746q0 -25 -17.5 -42.5t-40.5 -17.5q-24 0 -40.5 17.5t-16.5 42.5
q0 26 17.5 43t40.5 17q24 0 40.5 -17t16.5 -43z" />
    <glyph glyph-name="Zacute.small" unicode="&#xe140;" horiz-adv-x="483" 
d="M455 0h-422v61l285 439v2h-275v78h389v-66l-288 -434v-2h311v-78zM197 618l122 188h102l-145 -188h-79z" />
    <glyph glyph-name="Zcaron.small" unicode="&#xe141;" horiz-adv-x="483" 
d="M455 0h-422v61l285 439v2h-275v78h389v-66l-288 -434v-2h311v-78zM196 618l-125 188h77l93 -122h2l93 122h77l-125 -188h-92z" />
    <glyph glyph-name="Zdotaccent.small" unicode="&#xe142;" horiz-adv-x="483" 
d="M455 0h-422v61l285 439v2h-275v78h389v-66l-288 -434v-2h311v-78zM298 745q0 -26 -17.5 -43.5t-41.5 -17.5q-25 0 -41.5 17.5t-16.5 43.5t17.5 43.5t41.5 17.5q25 0 41.5 -17.5t16.5 -43.5z" />
    <glyph glyph-name="Eng.small" unicode="&#xe143;" horiz-adv-x="686" 
d="M429 -214q-46 0 -86 24l32 74q14 -9 27.5 -14t28.5 -5q39 0 52 37.5t13 97.5l-298 429h-2v-429h-87v580h97l282 -411h2v411h87v-580q0 -101 -38 -157.5t-110 -56.5z" />
    <glyph glyph-name="Eth.small" unicode="&#xe144;" horiz-adv-x="646" 
d="M601 287q0 -70 -23.5 -123.5t-65 -90t-98 -55t-123.5 -18.5h-182v266h-80v67h80v247h189q69 0 124.5 -20t95.5 -57.5t61.5 -92t21.5 -123.5zM501 282q0 59 -17 100.5t-46 68t-69.5 39t-86.5 12.5h-82v-169h142v-67h-142v-188h86q48 0 87.5 12t68 37.5t44 63.5t15.5 91z
" />
    <glyph glyph-name="Thorn.small" unicode="&#xe145;" horiz-adv-x="562" 
d="M109 0v580h91v-70h95q44 0 84.5 -10t71 -31t48.5 -54.5t18 -80.5q0 -52 -19.5 -87t-51 -56.5t-72.5 -31t-83 -9.5h-91v-150h-91zM417 333q0 55 -36 78.5t-90 23.5h-91v-210h84q24 0 48 4t42.5 16t30.5 33t12 55z" />
    <glyph glyph-name="a.superior" unicode="&#xe000;" horiz-adv-x="333" 
d="M323 333q-10 -3 -20.5 -5t-24.5 -2q-22 0 -35.5 9t-22.5 32h-3q-23 -21 -47 -32.5t-56 -11.5q-34 0 -60 20.5t-26 58.5q0 22 8.5 41t30 35t57.5 29.5t91 26.5v11q0 26 -15.5 38t-43.5 12q-30 0 -44 -10t-23 -33l-54 22q13 35 43 54.5t84 19.5q58 0 88.5 -23t30.5 -81
v-115q0 -28 4.5 -40t17.5 -12q8 0 14 3zM215 489q-35 -9 -58 -18t-36.5 -18t-19 -18.5t-5.5 -19.5q0 -18 10.5 -28t28.5 -10q25 0 44.5 12t35.5 28v72z" />
    <glyph glyph-name="b.superior" unicode="&#xe001;" horiz-adv-x="347" 
d="M49 331v436h66v-167h1q20 19 42 33.5t54 14.5q28 0 49.5 -12t35.5 -33.5t21.5 -51t7.5 -64.5q0 -32 -8 -62t-25 -52.5t-43 -36t-61 -13.5q-45 0 -79 22h-2q-2 -4 -3 -7t-3 -7h-53zM115 398q11 -11 28.5 -16.5t33.5 -5.5q22 0 38 8.5t25.5 23t14 34t4.5 41.5
q0 52 -17.5 79.5t-49.5 27.5q-23 0 -43 -15.5t-34 -31.5v-145z" />
    <glyph glyph-name="c.superior" unicode="&#xe002;" horiz-adv-x="285" 
d="M275 389q-20 -36 -48.5 -51t-66.5 -15q-71 0 -105.5 45.5t-34.5 114.5q0 35 9 65.5t27 52.5t44.5 34.5t62.5 12.5q33 0 60 -12.5t45 -41.5l-49 -34q-8 14 -21 23.5t-36 9.5q-21 0 -35 -8.5t-23 -23t-12.5 -33.5t-3.5 -40q0 -50 18 -80t58 -30q27 0 41.5 13t23.5 29z" />
    <glyph glyph-name="d.superior" unicode="&#xe003;" horiz-adv-x="347" 
d="M245 331q-5 13 -6.5 22.5t-3.5 19.5h-1q-20 -20 -43 -35t-56 -15q-57 0 -86 45t-29 115q0 33 8.5 62.5t25.5 52.5t43 36.5t62 13.5q22 0 40.5 -5t32.5 -13h1v137h65v-436h-53zM233 573q-12 11 -29 16t-34 5q-22 0 -37.5 -8.5t-25.5 -23t-14.5 -34t-4.5 -41.5
q0 -51 18 -78.5t50 -27.5q23 0 42.5 15t34.5 31v146z" />
    <glyph glyph-name="e.superior" unicode="&#xe004;" horiz-adv-x="326" 
d="M297 386q-22 -35 -53.5 -49t-70.5 -14t-68 12.5t-47.5 34t-28 51.5t-9.5 65q0 33 9.5 62.5t28 51.5t46 35t63.5 13q63 0 98 -36.5t35 -101.5v-18.5t-2 -17.5h-209q1 -42 22 -69.5t65 -27.5q32 0 48.5 12.5t27.5 29.5zM233 523q2 32 -14.5 54.5t-54.5 22.5
q-35 0 -53.5 -21.5t-21.5 -55.5h144z" />
    <glyph glyph-name="f.superior" unicode="&#xe005;" horiz-adv-x="203" 
d="M50 331v249h-41v53h41v18q0 23 6 45t20.5 39t37 27.5t55.5 10.5q29 0 52 -10.5t37 -31.5l-47 -37q-8 11 -17.5 18t-27.5 7q-28 0 -39 -18.5t-11 -48.5v-19h74v-53h-74v-249h-66z" />
    <glyph glyph-name="g.superior" unicode="&#xe006;" horiz-adv-x="314" 
d="M113 341q-35 1 -54.5 13.5t-19.5 41.5q0 17 8 32.5t21 28.5q-44 28 -44 87q0 51 34.5 77.5t85.5 26.5q49 0 80 -22q20 22 52 22q20 0 34 -7l-11 -52q-12 7 -25 7q-7 0 -12 -1t-10 -5q11 -20 11 -46q0 -44 -28.5 -75t-90.5 -31q-19 0 -39 5q-5 -5 -8 -11.5t-3 -13.5
q0 -13 9.5 -16.5t24.5 -4.5l64 -2q46 -1 76 -21t30 -68q0 -20 -8 -39t-25 -33t-43.5 -22.5t-63.5 -8.5q-28 0 -53.5 4.5t-44.5 14.5t-30 25.5t-11 38.5q0 22 11 41l56 -9q-7 -11 -7 -22q0 -44 78 -44q41 0 58 12.5t17 34.5q0 23 -18 31t-39 9zM145 481q15 0 26 5.5
t17.5 14.5t9.5 19.5t3 20.5q0 23 -13 42t-46 19q-30 0 -42.5 -19t-12.5 -39q0 -23 13 -43t45 -20z" />
    <glyph glyph-name="h.superior" unicode="&#xe007;" horiz-adv-x="354" 
d="M243 331v198q0 29 -12 45t-36 16q-26 0 -44.5 -14.5t-35.5 -32.5v-212h-66v436h66v-167h2q21 21 44 34.5t56 13.5q38 0 64.5 -25t26.5 -72v-220h-65z" />
    <glyph glyph-name="i.superior" unicode="&#xe008;" horiz-adv-x="173" 
d="M58 331v256h-47v53h113v-309h-66zM135 733q0 -19 -12.5 -32.5t-31.5 -13.5q-20 0 -32 13.5t-12 32.5t14 32.5t31 13.5q19 0 31 -13.5t12 -32.5z" />
    <glyph glyph-name="j.superior" unicode="&#xe009;" horiz-adv-x="164" 
d="M49 640h66v-311q0 -60 -30.5 -93t-87.5 -33q-16 0 -35 3.5t-32 13.5l29 52q16 -12 41 -12q49 0 49 70v310zM126 733q0 -19 -12.5 -32.5t-31.5 -13.5q-20 0 -32 13.5t-12 32.5t14 32.5t31 13.5q19 0 31 -13.5t12 -32.5z" />
    <glyph glyph-name="k.superior" unicode="&#xe00a;" horiz-adv-x="318" 
d="M316 333q-8 -4 -19.5 -5.5t-19.5 -1.5q-27 0 -40.5 12t-21.5 33q-7 16 -11 27.5t-12 31.5q-9 26 -17.5 35t-26.5 14l-33 -41v-107h-66v436h66v-246h1l96 119h77l-102 -117v-1q29 -7 40 -19.5t22 -37.5q14 -31 25 -59q8 -20 12.5 -26t11.5 -6t12 3z" />
    <glyph glyph-name="l.superior" unicode="&#xe00b;" horiz-adv-x="175" 
d="M166 332q-9 -2 -22.5 -4t-28.5 -2q-37 0 -52 20.5t-15 62.5v358h66v-348q0 -23 5.5 -31.5t21.5 -8.5q10 0 19 3z" />
    <glyph glyph-name="m.superior" unicode="&#xe00c;" horiz-adv-x="550" 
d="M437 331v198q0 29 -12 45t-35 16q-26 0 -45.5 -14.5t-36.5 -32.5v-212h-65v198q0 29 -12 45t-36 16q-26 0 -44.5 -14.5t-35.5 -32.5v-212h-66v309h53q5 -13 7 -22.5t3 -20.5h2q23 23 46.5 37t56.5 14q28 0 50.5 -14t33.5 -40h2q26 26 51 40t57 14q38 0 65 -25t27 -72
v-220h-66z" />
    <glyph glyph-name="n.superior" unicode="&#xe00d;" horiz-adv-x="361" 
d="M251 331v198q0 29 -12.5 45t-38.5 16q-27 0 -47 -14.5t-38 -32.5v-212h-66v309h53q5 -13 7 -22.5t3 -20.5h2q23 23 47.5 37t59.5 14q41 0 68 -25t27 -72v-220h-65z" />
    <glyph glyph-name="o.superior" unicode="&#xe00e;" horiz-adv-x="333" 
d="M312 484q0 -37 -11 -67t-30 -51t-46 -32t-58 -11q-71 0 -109 44t-38 119q0 37 11 67t30.5 51t46 32.5t57.5 11.5q72 0 109.5 -44.5t37.5 -119.5zM168 375q21 0 35.5 9.5t23.5 24.5t13 34.5t4 39.5q0 22 -4 42.5t-13 36t-24.5 24.5t-38.5 9q-21 0 -35.5 -9.5t-23.5 -24.5
t-13 -34.5t-4 -39.5q0 -22 4 -42t13 -35.5t24.5 -25t38.5 -9.5z" />
    <glyph glyph-name="p.superior" unicode="&#xe00f;" horiz-adv-x="347" 
d="M49 211v429h53q5 -13 7 -22.5t3 -20.5h2q20 20 43 35.5t55 15.5q28 0 49.5 -12t35.5 -33.5t21.5 -51t7.5 -64.5q0 -32 -8 -62t-25 -52.5t-43 -36t-61 -13.5q-44 0 -74 18v-130h-66zM115 398q11 -11 28.5 -16.5t33.5 -5.5q22 0 38 8.5t25.5 23t14 34t4.5 41.5
q0 52 -17.5 79.5t-49.5 27.5q-23 0 -43 -15.5t-34 -31.5v-145z" />
    <glyph glyph-name="q.superior" unicode="&#xe010;" horiz-adv-x="346" 
d="M233 211v160h-1q-20 -19 -42.5 -33.5t-54.5 -14.5q-57 0 -86 45t-29 115q0 33 8.5 62.5t25.5 52.5t43 36.5t62 13.5q46 0 78 -22h3q1 6 6 14h52v-429h-65zM233 573q-12 11 -29 16t-34 5q-22 0 -37.5 -8.5t-25.5 -23t-14.5 -34t-4.5 -41.5q0 -51 18 -78.5t50 -27.5
q23 0 42.5 15t34.5 31v146z" />
    <glyph glyph-name="r.superior" unicode="&#xe011;" horiz-adv-x="235" 
d="M49 331v309h52q9 -23 10 -46h2q20 20 43 37t53 17h11.5t10.5 -1l-12 -68q-11 3 -20 3q-20 0 -39.5 -9t-44.5 -32v-210h-66z" />
    <glyph glyph-name="s.superior" unicode="&#xe012;" horiz-adv-x="278" 
d="M261 421q0 -26 -9 -44.5t-25.5 -30.5t-39 -17.5t-48.5 -5.5q-48 0 -76 16t-43 49l47 29q12 -20 28 -30.5t45 -10.5t42 9.5t13 25.5q0 17 -12 26t-30 16t-39.5 13.5t-39.5 17t-30 27.5t-12 45q0 42 28.5 67t82.5 25q38 0 63.5 -9.5t45.5 -35.5l-42 -36q-14 16 -29.5 22.5
t-39.5 6.5q-46 0 -46 -31q0 -15 12.5 -24t30.5 -15.5t40 -13t40 -17t30.5 -28.5t12.5 -46z" />
    <glyph glyph-name="t.superior" unicode="&#xe013;" horiz-adv-x="214" 
d="M211 355q-32 -32 -78 -32q-41 0 -62 25.5t-21 71.5v160h-41v53h41q2 21 8 43.5t14 41.5h44v-85h74v-53h-74v-144q0 -26 5 -41t27 -15q12 0 21 6.5t17 14.5z" />
    <glyph glyph-name="u.superior" unicode="&#xe014;" horiz-adv-x="354" 
d="M252 331q-5 13 -6.5 22.5t-2.5 19.5h-2q-23 -22 -46.5 -36t-57.5 -14q-39 0 -65.5 25t-26.5 72v220h66v-199q0 -28 12 -44t35 -16q26 0 45.5 14.5t36.5 31.5v213h65v-309h-53z" />
    <glyph glyph-name="v.superior" unicode="&#xe015;" horiz-adv-x="293" 
d="M116 326l-114 314h74l73 -227h1l72 227h68l-114 -314h-60z" />
    <glyph glyph-name="w.superior" unicode="&#xe016;" horiz-adv-x="437" 
d="M287 326l-71 219h-1l-66 -219h-63l-83 314h74l50 -216h1l63 216h61l65 -219h1l49 219h68l-85 -314h-63z" />
    <glyph glyph-name="x.superior" unicode="&#xe017;" horiz-adv-x="304" 
d="M224 331l-76 112h-2l-70 -112h-74l106 162l-97 147h80l63 -97h1l58 97h73l-93 -146l109 -163h-78z" />
    <glyph glyph-name="y.superior" unicode="&#xe018;" horiz-adv-x="301" 
d="M44 261q34 4 50 16t24 38l5 16l-121 309h76l78 -232h1l63 232h68l-110 -340q-8 -26 -19 -43.5t-26 -28.5t-34 -16.5t-43 -8.5z" />
    <glyph glyph-name="z.superior" unicode="&#xe019;" horiz-adv-x="290" 
d="M31 331v49l145 203v1h-137v56h224v-49l-147 -202v-1h157v-57h-242z" />
    <glyph glyph-name="grave" unicode="`" 
d="M293 548l-145 188h102l122 -188h-79z" />
    <glyph glyph-name="grave" unicode="&#x300;" 
d="M293 548l-145 188h102l122 -188h-79z" />
    <glyph glyph-name="grave" unicode="&#x2cb;" 
d="M293 548l-145 188h102l122 -188h-79z" />
    <glyph glyph-name="grave.cap" unicode="&#xe01a;" 
d="M293 718l-145 188h102l122 -188h-79z" />
    <glyph glyph-name="acute" unicode="&#xb4;" 
d="M148 548l122 188h102l-145 -188h-79z" />
    <glyph glyph-name="acute" unicode="&#x301;" 
d="M148 548l122 188h102l-145 -188h-79z" />
    <glyph glyph-name="acute" unicode="&#x2ca;" 
d="M148 548l122 188h102l-145 -188h-79z" />
    <glyph glyph-name="acute.cap" unicode="&#xe01b;" 
d="M148 718l122 188h102l-145 -188h-79z" />
    <glyph glyph-name="circumflex" unicode="&#x2c6;" 
d="M354 548l-93 122h-2l-93 -122h-77l125 188h92l125 -188h-77z" />
    <glyph glyph-name="circumflex" unicode="&#x302;" 
d="M354 548l-93 122h-2l-93 -122h-77l125 188h92l125 -188h-77z" />
    <glyph glyph-name="circumflex.cap" unicode="&#xe01c;" 
d="M354 718l-93 122h-2l-93 -122h-77l125 188h92l125 -188h-77z" />
    <glyph glyph-name="caron" unicode="&#x2c7;" 
d="M214 548l-125 188h77l93 -122h2l93 122h77l-125 -188h-92z" />
    <glyph glyph-name="caron" unicode="&#x30c;" 
d="M214 548l-125 188h77l93 -122h2l93 122h77l-125 -188h-92z" />
    <glyph glyph-name="caron.cap" unicode="&#xe01d;" 
d="M214 718l-125 188h77l93 -122h2l93 122h77l-125 -188h-92z" />
    <glyph glyph-name="caronSlovak" unicode="&#x315;" 
d="M196 554l42 182h91l-71 -182h-62z" />
    <glyph glyph-name="caronSlovak" unicode="&#xe01e;" 
d="M196 554l42 182h91l-71 -182h-62z" />
    <glyph glyph-name="tilde" unicode="&#x2dc;" 
d="M332 619q-14 0 -30 2.5t-31.5 6t-29.5 6t-26 2.5q-20 0 -27.5 -15t-9.5 -34h-70q1 22 4.5 44.5t13 39.5t26 28t43.5 11q13 0 28 -2.5t30 -6t29 -6t26 -2.5q17 0 24.5 11.5t9.5 31.5h70q-2 -61 -21 -89t-59 -28z" />
    <glyph glyph-name="tilde" unicode="&#x303;" 
d="M332 619q-14 0 -30 2.5t-31.5 6t-29.5 6t-26 2.5q-20 0 -27.5 -15t-9.5 -34h-70q1 22 4.5 44.5t13 39.5t26 28t43.5 11q13 0 28 -2.5t30 -6t29 -6t26 -2.5q17 0 24.5 11.5t9.5 31.5h70q-2 -61 -21 -89t-59 -28z" />
    <glyph glyph-name="tilde.cap" unicode="&#xe01f;" 
d="M330 787q-29 0 -60 8.5t-53 8.5q-20 0 -27 -14t-9 -33h-68q1 19 4 41t11.5 41t25 31t43.5 12q13 0 27.5 -2.5t29 -6t28 -6t24.5 -2.5q17 0 24 10.5t9 30.5h68q-2 -63 -20.5 -91t-56.5 -28z" />
    <glyph glyph-name="dieresis" unicode="&#xa8;" 
d="M229 676q0 -25 -17.5 -42.5t-40.5 -17.5q-24 0 -40.5 17.5t-16.5 42.5q0 26 17.5 43t40.5 17q24 0 40.5 -17t16.5 -43zM406 676q0 -25 -17.5 -42.5t-40.5 -17.5q-24 0 -40.5 17.5t-16.5 42.5q0 26 17.5 43t40.5 17q24 0 40.5 -17t16.5 -43z" />
    <glyph glyph-name="dieresis" unicode="&#x308;" 
d="M229 676q0 -25 -17.5 -42.5t-40.5 -17.5q-24 0 -40.5 17.5t-16.5 42.5q0 26 17.5 43t40.5 17q24 0 40.5 -17t16.5 -43zM406 676q0 -25 -17.5 -42.5t-40.5 -17.5q-24 0 -40.5 17.5t-16.5 42.5q0 26 17.5 43t40.5 17q24 0 40.5 -17t16.5 -43z" />
    <glyph glyph-name="dieresis.cap" unicode="&#xe020;" 
d="M229 846q0 -25 -17.5 -42.5t-40.5 -17.5q-24 0 -40.5 17.5t-16.5 42.5q0 26 17.5 43t40.5 17q24 0 40.5 -17t16.5 -43zM406 846q0 -25 -17.5 -42.5t-40.5 -17.5q-24 0 -40.5 17.5t-16.5 42.5q0 26 17.5 43t40.5 17q24 0 40.5 -17t16.5 -43z" />
    <glyph glyph-name="macron" unicode="&#xaf;" 
d="M130 642v74h260v-74h-260z" />
    <glyph glyph-name="macron" unicode="&#x304;" 
d="M130 642v74h260v-74h-260z" />
    <glyph glyph-name="macron" unicode="&#x2c9;" 
d="M130 642v74h260v-74h-260z" />
    <glyph glyph-name="macron.cap" unicode="&#xe021;" 
d="M130 812v74h260v-74h-260z" />
    <glyph glyph-name="breve" unicode="&#x2d8;" 
d="M260 594q-37 0 -64 11.5t-45 30.5t-27 43.5t-11 51.5l60 5q5 -29 27.5 -49.5t59.5 -20.5t59.5 20.5t27.5 49.5l60 -5q-2 -27 -11 -51.5t-27 -43.5t-45 -30.5t-64 -11.5z" />
    <glyph glyph-name="breve" unicode="&#x306;" 
d="M260 594q-37 0 -64 11.5t-45 30.5t-27 43.5t-11 51.5l60 5q5 -29 27.5 -49.5t59.5 -20.5t59.5 20.5t27.5 49.5l60 -5q-2 -27 -11 -51.5t-27 -43.5t-45 -30.5t-64 -11.5z" />
    <glyph glyph-name="breve.cap" unicode="&#xe022;" 
d="M260 764q-37 0 -64 11.5t-45 30.5t-27 43.5t-11 51.5l60 5q5 -29 27.5 -49.5t59.5 -20.5t59.5 20.5t27.5 49.5l60 -5q-2 -27 -11 -51.5t-27 -43.5t-45 -30.5t-64 -11.5z" />
    <glyph glyph-name="ring" unicode="&#x2da;" 
d="M362 644q0 -42 -29.5 -66t-71.5 -24q-50 0 -76.5 25t-26.5 68q0 41 28 65t73 24q48 0 75.5 -25t27.5 -67zM303 644q0 19 -9.5 32.5t-34.5 13.5q-24 0 -33.5 -13t-9.5 -30q0 -20 9 -33.5t36 -13.5q23 0 32.5 13.5t9.5 30.5z" />
    <glyph glyph-name="ring" unicode="&#x30a;" 
d="M362 644q0 -42 -29.5 -66t-71.5 -24q-50 0 -76.5 25t-26.5 68q0 41 28 65t73 24q48 0 75.5 -25t27.5 -67zM303 644q0 19 -9.5 32.5t-34.5 13.5q-24 0 -33.5 -13t-9.5 -30q0 -20 9 -33.5t36 -13.5q23 0 32.5 13.5t9.5 30.5z" />
    <glyph glyph-name="ring.cap" unicode="&#xe023;" 
d="M362 814q0 -42 -29.5 -66t-71.5 -24q-50 0 -76.5 25t-26.5 68q0 41 28 65t73 24q48 0 75.5 -25t27.5 -67zM303 814q0 19 -9.5 32.5t-34.5 13.5q-24 0 -33.5 -13t-9.5 -30q0 -20 9 -33.5t36 -13.5q23 0 32.5 13.5t9.5 30.5z" />
    <glyph glyph-name="hungarumlaut" unicode="&#x2dd;" 
d="M73 548l122 188h99l-145 -188h-76zM226 548l122 188h99l-145 -188h-76z" />
    <glyph glyph-name="hungarumlaut" unicode="&#x30b;" 
d="M73 548l122 188h99l-145 -188h-76zM226 548l122 188h99l-145 -188h-76z" />
    <glyph glyph-name="hungarumlaut.cap" unicode="&#xe024;" 
d="M73 718l122 188h99l-145 -188h-76zM226 718l122 188h99l-145 -188h-76z" />
    <glyph glyph-name="dotaccent" unicode="&#x2d9;" 
d="M318 675q0 -26 -17.5 -43.5t-41.5 -17.5q-25 0 -41.5 17.5t-16.5 43.5t17.5 43.5t41.5 17.5q25 0 41.5 -17.5t16.5 -43.5z" />
    <glyph glyph-name="dotaccent" unicode="&#x307;" 
d="M318 675q0 -26 -17.5 -43.5t-41.5 -17.5q-25 0 -41.5 17.5t-16.5 43.5t17.5 43.5t41.5 17.5q25 0 41.5 -17.5t16.5 -43.5z" />
    <glyph glyph-name="dotaccent.cap" unicode="&#xe025;" 
d="M318 845q0 -26 -17.5 -43.5t-41.5 -17.5q-25 0 -41.5 17.5t-16.5 43.5t17.5 43.5t41.5 17.5q25 0 41.5 -17.5t16.5 -43.5z" />
    <glyph glyph-name="cedilla" unicode="&#xb8;" 
d="M264 -214q-29 0 -55.5 9.5t-42.5 25.5l21 56q11 -9 23.5 -15t26.5 -6q21 0 32.5 12.5t11.5 30.5q0 16 -6 31.5t-15 30t-20 27t-21 22.5h58l28 -31t25 -34t18 -37t7 -39q0 -21 -8 -36.5t-20.5 -26t-29 -15.5t-33.5 -5z" />
    <glyph glyph-name="cedilla" unicode="&#x327;" 
d="M264 -214q-29 0 -55.5 9.5t-42.5 25.5l21 56q11 -9 23.5 -15t26.5 -6q21 0 32.5 12.5t11.5 30.5q0 16 -6 31.5t-15 30t-20 27t-21 22.5h58l28 -31t25 -34t18 -37t7 -39q0 -21 -8 -36.5t-20.5 -26t-29 -15.5t-33.5 -5z" />
    <glyph glyph-name="ogonek" unicode="&#x2db;" 
d="M256 -214q-17 0 -33.5 5t-29.5 15.5t-20.5 26t-7.5 36.5q0 20 7 39t18 37t25 34l28 31h58q-10 -10 -21 -22.5t-20 -27t-15 -30t-6 -31.5q0 -18 11.5 -30.5t32.5 -12.5q14 0 26.5 6t23.5 15l21 -56q-16 -16 -42.5 -25.5t-55.5 -9.5z" />
    <glyph glyph-name="ogonek" unicode="&#x328;" 
d="M256 -214q-17 0 -33.5 5t-29.5 15.5t-20.5 26t-7.5 36.5q0 20 7 39t18 37t25 34l28 31h58q-10 -10 -21 -22.5t-20 -27t-15 -30t-6 -31.5q0 -18 11.5 -30.5t32.5 -12.5q14 0 26.5 6t23.5 15l21 -56q-16 -16 -42.5 -25.5t-55.5 -9.5z" />
    <glyph glyph-name="commaaccent" unicode="&#x326;" 
d="M219 -214q10 14 19.5 36t9.5 40q0 13 -6.5 21.5t-24.5 8.5h-15l-3 68q25 5 44 5q37 0 57.5 -19t20.5 -53q0 -26 -11.5 -53.5t-28.5 -53.5h-62z" />
    <glyph glyph-name="commaaccent.alt" unicode="&#x2bb;" 
d="M318 562q-25 -5 -41 -5q-36 0 -55.5 16.5t-19.5 48.5q0 29 10.5 57.5t26.5 56.5h62q-10 -22 -16.5 -41t-6.5 -33q0 -11 5.5 -18t20.5 -7h11l3 -75v0z" />
    <glyph glyph-name="commaaccent.alt" unicode="&#xe026;" 
d="M318 562q-25 -5 -41 -5q-36 0 -55.5 16.5t-19.5 48.5q0 29 10.5 57.5t26.5 56.5h62q-10 -22 -16.5 -41t-6.5 -33q0 -11 5.5 -18t20.5 -7h11l3 -75v0z" />
    <glyph glyph-name="commaaccent.alt" unicode="&#x312;" 
d="M318 562q-25 -5 -41 -5q-36 0 -55.5 16.5t-19.5 48.5q0 29 10.5 57.5t26.5 56.5h62q-10 -22 -16.5 -41t-6.5 -33q0 -11 5.5 -18t20.5 -7h11l3 -75v0z" />
    <glyph glyph-name="comma" unicode="," horiz-adv-x="260" 
d="M199 19q0 -49 -19.5 -99t-39.5 -91h-68l17 37.5t16.5 42.5t12.5 43.5t5 40.5q0 22 -11.5 35.5t-34.5 13.5h-5.5t-8.5 -1l-5 77q8 1 16.5 1.5t19.5 0.5q48 0 76.5 -24.5t28.5 -76.5z" />
    <glyph glyph-name="semicolon" unicode=";" horiz-adv-x="260" 
d="M199 19q0 -49 -19.5 -99t-39.5 -91h-68l17 37.5t16.5 42.5t12.5 43.5t5 40.5q0 22 -11.5 35.5t-34.5 13.5h-5.5t-8.5 -1l-5 77q8 1 16.5 1.5t19.5 0.5q48 0 76.5 -24.5t28.5 -76.5zM196 457q0 -28 -19.5 -47.5t-47.5 -19.5t-47.5 19.5t-19.5 47.5t19.5 47.5t47.5 19.5
t47.5 -19.5t19.5 -47.5z" />
    <glyph glyph-name="colon" unicode=":" horiz-adv-x="260" 
d="M197 457q0 -28 -19.5 -47.5t-47.5 -19.5t-47.5 19.5t-19.5 47.5t19.5 47.5t47.5 19.5t47.5 -19.5t19.5 -47.5zM197 53q0 -28 -19.5 -47.5t-47.5 -19.5t-47.5 19.5t-19.5 47.5t19.5 47.5t47.5 19.5t47.5 -19.5t19.5 -47.5z" />
    <glyph glyph-name="period" unicode="." horiz-adv-x="260" 
d="M197 53q0 -28 -19.5 -47.5t-47.5 -19.5t-47.5 19.5t-19.5 47.5t19.5 47.5t47.5 19.5t47.5 -19.5t19.5 -47.5z" />
    <glyph glyph-name="ellipsis" unicode="&#x2026;" horiz-adv-x="1040" 
d="M197 53q0 -28 -19.5 -47.5t-47.5 -19.5t-47.5 19.5t-19.5 47.5t19.5 47.5t47.5 19.5t47.5 -19.5t19.5 -47.5zM552 53q0 -28 -19.5 -47.5t-47.5 -19.5t-47.5 19.5t-19.5 47.5t19.5 47.5t47.5 19.5t47.5 -19.5t19.5 -47.5zM906 53q0 -28 -19.5 -47.5t-47.5 -19.5
t-47.5 19.5t-19.5 47.5t19.5 47.5t47.5 19.5t47.5 -19.5t19.5 -47.5z" />
    <glyph glyph-name="hyphen" unicode="-" horiz-adv-x="260" 
d="M10 222v77h240v-77h-240z" />
    <glyph glyph-name="hyphen.cap" unicode="&#xe027;" horiz-adv-x="260" 
d="M10 292v77h240v-77h-240z" />
    <glyph glyph-name="exclam" unicode="!" horiz-adv-x="320" 
d="M122 192l-19 534h114l-20 -534h-75zM223 50q0 -27 -19 -45.5t-45 -18.5q-27 0 -45 18.5t-18 45.5t19 45.5t45 18.5q27 0 45 -18.5t18 -45.5z" />
    <glyph glyph-name="exclamdown" unicode="&#xa1;" horiz-adv-x="320" 
d="M198 318l20 -534h-114l19 534h75zM224 460q0 -27 -18 -45.5t-45 -18.5q-26 0 -45 18.5t-19 45.5t18 45.5t45 18.5q26 0 45 -18.5t19 -45.5z" />
    <glyph glyph-name="exclamdown.cap" unicode="&#xe028;" horiz-adv-x="320" 
d="M197 488l20 -534h-114l19 534h75zM223 630q0 -27 -18 -45.5t-45 -18.5q-26 0 -45 18.5t-19 45.5t18 45.5t45 18.5q26 0 45 -18.5t19 -45.5z" />
    <glyph glyph-name="question" unicode="?" horiz-adv-x="400" 
d="M221 50q0 -27 -19 -45.5t-45 -18.5q-27 0 -45 18.5t-18 45.5t19 45.5t45 18.5q27 0 45 -18.5t18 -45.5zM120 192l-7 204q85 29 123 65.5t38 94.5q0 49 -28.5 76.5t-73.5 27.5q-29 0 -55.5 -13.5t-41.5 -41.5l-65 41q23 46 70 68t97 22q41 0 75.5 -11.5t60 -33.5t39.5 -54
t14 -73q0 -47 -14.5 -82t-38.5 -60.5t-53.5 -44.5t-59.5 -35l-5 -150h-75z" />
    <glyph glyph-name="questiondown" unicode="&#xbf;" horiz-adv-x="400" 
d="M179 460q0 27 19 45.5t45 18.5q27 0 45 -18.5t18 -45.5t-19 -45.5t-45 -18.5q-27 0 -45 18.5t-18 45.5zM280 318l7 -204q-85 -29 -123 -65.5t-38 -94.5q0 -49 28.5 -76.5t73.5 -27.5q29 0 55.5 13.5t41.5 41.5l65 -41q-23 -46 -70 -68t-97 -22q-41 0 -75.5 11.5t-60 33.5
t-39.5 54t-14 73q0 47 14.5 82t38.5 60.5t53.5 44.5t59.5 35l5 150h75z" />
    <glyph glyph-name="questiondown.cap" unicode="&#xe029;" horiz-adv-x="400" 
d="M179 630q0 27 19 45.5t45 18.5q27 0 45 -18.5t18 -45.5t-19 -45.5t-45 -18.5q-27 0 -45 18.5t-18 45.5zM280 488l7 -204q-85 -29 -123 -65.5t-38 -94.5q0 -49 28.5 -76.5t73.5 -27.5q29 0 55.5 13.5t41.5 41.5l65 -41q-23 -46 -70 -68t-97 -22q-41 0 -75.5 11.5t-60 33.5
t-39.5 54t-14 73q0 47 14.5 82t38.5 60.5t53.5 44.5t59.5 35l5 150h75z" />
    <glyph glyph-name="quoteleft" unicode="&#x2018;" horiz-adv-x="260" 
d="M199 466q-8 -1 -16.5 -1.5t-19.5 -0.5q-48 0 -76.5 23t-28.5 71q0 46 19.5 93t39.5 85h68l-17 -35t-16.5 -39t-12.5 -39.5t-5 -35.5q0 -20 11.5 -32.5t34.5 -12.5h5.5t8.5 1l5 -77v0z" />
    <glyph glyph-name="quoteright" unicode="&#x2019;" horiz-adv-x="260" 
d="M75 464l17 35t16.5 39t12.5 39.5t5 35.5q0 20 -11.5 32.5t-34.5 12.5h-5.5t-8.5 -1l-5 77q8 1 16.5 1.5t19.5 0.5q48 0 76.5 -23t28.5 -71q0 -46 -19.5 -93t-39.5 -85h-68z" />
    <glyph glyph-name="quotedblleft" unicode="&#x201c;" horiz-adv-x="450" 
d="M199 466q-8 -1 -16.5 -1.5t-19.5 -0.5q-48 0 -76.5 23t-28.5 71q0 46 19.5 93t39.5 85h68l-17 -35t-16.5 -39t-12.5 -39.5t-5 -35.5q0 -20 11.5 -32.5t34.5 -12.5h5.5t8.5 1l5 -77v0zM389 466q-8 -1 -16.5 -1.5t-19.5 -0.5q-48 0 -76.5 23t-28.5 71q0 46 19.5 93t39.5 85
h68l-17 -35t-16.5 -39t-12.5 -39.5t-5 -35.5q0 -20 11.5 -32.5t34.5 -12.5h5.5t8.5 1l5 -77v0z" />
    <glyph glyph-name="quotedblright" unicode="&#x201d;" horiz-adv-x="450" 
d="M75 464l17 35t16.5 39t12.5 39.5t5 35.5q0 20 -11.5 32.5t-34.5 12.5h-5.5t-8.5 -1l-5 77q8 1 16.5 1.5t19.5 0.5q48 0 76.5 -23t28.5 -71q0 -46 -19.5 -93t-39.5 -85h-68zM265 464l17 35t16.5 39t12.5 39.5t5 35.5q0 20 -11.5 32.5t-34.5 12.5h-5.5t-8.5 -1l-5 77
q8 1 16.5 1.5t19.5 0.5q48 0 76.5 -23t28.5 -71q0 -46 -19.5 -93t-39.5 -85h-68z" />
    <glyph glyph-name="quotesinglbase" unicode="&#x201a;" horiz-adv-x="260" 
d="M61 118q8 1 16.5 1.5t19.5 0.5q48 0 76.5 -23t28.5 -71q0 -46 -19.5 -93t-39.5 -85h-68l17 35t16.5 39t12.5 39.5t5 35.5q0 20 -11.5 32.5t-34.5 12.5h-5.5t-8.5 -1l-5 77v0z" />
    <glyph glyph-name="quotedblbase" unicode="&#x201e;" horiz-adv-x="450" 
d="M61 118q8 1 16.5 1.5t19.5 0.5q48 0 76.5 -23t28.5 -71q0 -46 -19.5 -93t-39.5 -85h-68l17 35t16.5 39t12.5 39.5t5 35.5q0 20 -11.5 32.5t-34.5 12.5h-5.5t-8.5 -1l-5 77v0zM251 118q8 1 16.5 1.5t19.5 0.5q48 0 76.5 -23t28.5 -71q0 -46 -19.5 -93t-39.5 -85h-68l17 35
t16.5 39t12.5 39.5t5 35.5q0 20 -11.5 32.5t-34.5 12.5h-5.5t-8.5 -1l-5 77v0z" />
    <glyph glyph-name="quotesingle" unicode="'" horiz-adv-x="260" 
d="M94 467l-13 269h98l-13 -269h-72z" />
    <glyph glyph-name="quotedbl" unicode="&#x22;" horiz-adv-x="440" 
d="M94 467l-13 269h98l-13 -269h-72zM274 467l-13 269h98l-13 -269h-72z" />
    <glyph glyph-name="guilsinglleft" unicode="&#x2039;" horiz-adv-x="300" 
d="M186 72l-167 189l167 189h88l-146 -188v-2l146 -188h-88z" />
    <glyph glyph-name="guilsinglright" unicode="&#x203a;" horiz-adv-x="300" 
d="M26 72l146 188v2l-146 188h88l167 -189l-167 -189h-88z" />
    <glyph glyph-name="guilsinglleft.cap" unicode="&#xe02a;" horiz-adv-x="300" 
d="M186 142l-167 189l167 189h88l-146 -188v-2l146 -188h-88z" />
    <glyph glyph-name="guilsinglright.cap" unicode="&#xe02b;" horiz-adv-x="300" 
d="M26 142l146 188v2l-146 188h88l167 -189l-167 -189h-88z" />
    <glyph glyph-name="guillemotleft" unicode="&#xab;" horiz-adv-x="490" 
d="M186 72l-167 189l167 189h88l-146 -188v-2l146 -188h-88zM376 72l-167 189l167 189h88l-146 -188v-2l146 -188h-88z" />
    <glyph glyph-name="guillemotright" unicode="&#xbb;" horiz-adv-x="490" 
d="M26 72l146 188v2l-146 188h88l167 -189l-167 -189h-88zM216 72l146 188v2l-146 188h88l167 -189l-167 -189h-88z" />
    <glyph glyph-name="guillemotleft.cap" unicode="&#xe02c;" horiz-adv-x="490" 
d="M186 142l-167 189l167 189h88l-146 -188v-2l146 -188h-88zM376 142l-167 189l167 189h88l-146 -188v-2l146 -188h-88z" />
    <glyph glyph-name="guillemotright.cap" unicode="&#xe02d;" horiz-adv-x="490" 
d="M26 142l146 188v2l-146 188h88l167 -189l-167 -189h-88zM216 142l146 188v2l-146 188h88l167 -189l-167 -189h-88z" />
    <glyph glyph-name="slash" unicode="/" horiz-adv-x="370" 
d="M5 0l286 680h74l-286 -680h-74z" />
    <glyph glyph-name="backslash" unicode="\" horiz-adv-x="370" 
d="M291 0l-286 680h74l286 -680h-74z" />
    <glyph glyph-name="bar" unicode="|" horiz-adv-x="260" 
d="M95 806h69v-1020h-69v1020z" />
    <glyph glyph-name="brokenbar" unicode="&#xa6;" horiz-adv-x="260" 
d="M95 386v420h69v-420h-69zM95 -214v420h69v-420h-69z" />
    <glyph glyph-name="endash" unicode="&#x2013;" 
d="M10 226v69h500v-69h-500z" />
    <glyph glyph-name="endash.cap" unicode="&#xe02e;" 
d="M10 296v69h500v-69h-500z" />
    <glyph glyph-name="underscore" unicode="_" 
d="M0 -200v69h520v-69h-520z" />
    <glyph glyph-name="emdash" unicode="&#x2014;" horiz-adv-x="1040" 
d="M10 226v69h1020v-69h-1020z" />
    <glyph glyph-name="emdash.cap" unicode="&#xe02f;" horiz-adv-x="1040" 
d="M10 296v69h1020v-69h-1020z" />
    <glyph glyph-name="bullet" unicode="&#x2022;" horiz-adv-x="460" 
d="M389 261q0 -34 -13 -64t-35 -52t-52 -35t-64 -13t-63.5 13t-51.5 35t-35 52t-13 64t13 63.5t35 52t51.5 35.5t63.5 13t64 -13t52 -35.5t35 -52t13 -63.5z" />
    <glyph glyph-name="periodcentered" unicode="&#xb7;" horiz-adv-x="260" 
d="M197 261q0 -28 -19.5 -47.5t-47.5 -19.5t-47.5 19.5t-19.5 47.5t19.5 47.5t47.5 19.5t47.5 -19.5t19.5 -47.5z" />
    <glyph glyph-name="periodcentered" unicode="&#x2219;" horiz-adv-x="260" 
d="M197 261q0 -28 -19.5 -47.5t-47.5 -19.5t-47.5 19.5t-19.5 47.5t19.5 47.5t47.5 19.5t47.5 -19.5t19.5 -47.5z" />
    <glyph glyph-name="periodcentered.cap" unicode="&#xe031;" horiz-adv-x="260" 
d="M197 331q0 -28 -19.5 -47.5t-47.5 -19.5t-47.5 19.5t-19.5 47.5t19.5 47.5t47.5 19.5t47.5 -19.5t19.5 -47.5z" />
    <glyph glyph-name="parenleft" unicode="(" horiz-adv-x="327" 
d="M293 -180q-44 29 -86 71.5t-75 97t-53 121.5t-20 146t20 146t53 121.5t75 97t86 71.5l34 -45q-42 -34 -79 -73.5t-64 -86.5t-42.5 -104t-15.5 -127t15.5 -127t42.5 -104t64 -86.5t79 -73.5l-34 -45v0z" />
    <glyph glyph-name="parenright" unicode=")" horiz-adv-x="327" 
d="M0 -135q42 34 79 73.5t64 86.5t42.5 104t15.5 127t-15.5 127t-42.5 104t-64 86.5t-79 73.5l34 45q44 -29 86 -71.5t75 -97t53 -121.5t20 -146t-20 -146t-53 -121.5t-75 -97t-86 -71.5z" />
    <glyph glyph-name="parenleft.cap" unicode="&#xe032;" horiz-adv-x="327" 
d="M293 -95q-44 29 -86 71.5t-75 97t-53 121.5t-20 146t20 146t53 121.5t75 97t86 71.5l34 -45q-42 -34 -79 -73.5t-64 -86.5t-42.5 -104t-15.5 -127t15.5 -127t42.5 -104t64 -86.5t79 -73.5l-34 -45v0z" />
    <glyph glyph-name="parenright.cap" unicode="&#xe033;" horiz-adv-x="327" 
d="M34 -95l-34 45q42 34 79 73.5t64 86.5t42.5 104t15.5 127t-15.5 127t-42.5 104t-64 86.5t-79 73.5l34 45q44 -29 86 -71.5t75 -97t53 -121.5t20 -146t-20 -146t-53 -121.5t-75 -97t-86 -71.5z" />
    <glyph glyph-name="parenleft.small" unicode="&#xe146;" horiz-adv-x="275" 
d="M230 -81q-37 25 -73 61t-64 82.5t-45 103.5t-17 124t17 124t45 103.5t64 82.5t73 61l30 -41q-36 -30 -67 -63.5t-53.5 -73.5t-35.5 -88t-13 -105t13 -105t35.5 -88t53.5 -74t67 -63l-30 -41v0z" />
    <glyph glyph-name="parenright.small" unicode="&#xe147;" horiz-adv-x="275" 
d="M15 -40q36 29 67 63t53.5 74t35.5 88t13 105t-13 105t-35.5 88t-53.5 73.5t-67 63.5l30 41q37 -25 73 -61t64 -82.5t45 -103.5t17 -124t-17 -124t-45 -103.5t-64 -82.5t-73 -61z" />
    <glyph glyph-name="bracketleft" unicode="[" horiz-adv-x="360" 
d="M124 -158v828l226 8v-54l-160 -8v-720l160 -8v-54z" />
    <glyph glyph-name="bracketright" unicode="]" horiz-adv-x="360" 
d="M10 -166v54l160 8v720l-160 8v54l226 -8v-828z" />
    <glyph glyph-name="bracketleft.cap" unicode="&#xe034;" horiz-adv-x="360" 
d="M124 -73v828l226 8v-54l-160 -8v-720l160 -8v-54z" />
    <glyph glyph-name="bracketright.cap" unicode="&#xe035;" horiz-adv-x="360" 
d="M10 -81v54l160 8v720l-160 8v54l226 -8v-828z" />
    <glyph glyph-name="bracketleft.small" unicode="&#xe148;" horiz-adv-x="305" 
d="M86 -62v703l194 7v-48l-135 -7v-606l135 -7v-49z" />
    <glyph glyph-name="bracketright.small" unicode="&#xe149;" horiz-adv-x="305" 
d="M25 -69v49l135 7v606l-135 7v48l194 -7v-703z" />
    <glyph glyph-name="braceleft" unicode="{" horiz-adv-x="400" 
d="M345 -166q-55 0 -90.5 8.5t-56.5 26.5t-29 46.5t-8 68.5v131q0 27 -3 47.5t-16 34.5t-40.5 21.5t-76.5 9.5v56q49 1 76.5 9t40.5 22t16 34.5t3 47.5v131q0 40 8 68.5t29 46.5t56.5 26.5t90.5 8.5v-52q-41 0 -64.5 -4t-35.5 -12.5t-15 -22.5t-3 -34v-164
q0 -57 -24.5 -87.5t-75.5 -44.5v-2q52 -13 76 -44.5t24 -87.5v-164q0 -20 3.5 -34t15.5 -22.5t35.5 -12.5t63.5 -4v-52v0z" />
    <glyph glyph-name="braceright" unicode="}" horiz-adv-x="400" 
d="M55 -114q40 0 63.5 4t35.5 12.5t15.5 22.5t3.5 34v164q0 56 24 87.5t76 44.5v2q-51 14 -75.5 44.5t-24.5 87.5v164q0 20 -3 34t-15 22.5t-35.5 12.5t-64.5 4v52q55 0 90.5 -8.5t56.5 -26.5t29 -46.5t8 -68.5v-131q0 -27 3 -47.5t16 -34.5t40.5 -22t76.5 -9v-56
q-49 -2 -76.5 -9.5t-40.5 -21.5t-16 -34.5t-3 -47.5v-131q0 -40 -8 -68.5t-29 -46.5t-56.5 -26.5t-90.5 -8.5v52z" />
    <glyph glyph-name="braceleft.cap" unicode="&#xe036;" horiz-adv-x="400" 
d="M345 -81q-55 0 -90.5 8.5t-56.5 26.5t-29 46.5t-8 68.5v131q0 27 -3 47.5t-16 34.5t-40.5 21.5t-76.5 9.5v56q49 1 76.5 9t40.5 22t16 34.5t3 47.5v131q0 40 8 68.5t29 46.5t56.5 26.5t90.5 8.5v-52q-41 0 -64.5 -4t-35.5 -12.5t-15 -22.5t-3 -34v-164q0 -57 -24.5 -87.5
t-75.5 -44.5v-2q52 -13 76 -44.5t24 -87.5v-164q0 -20 3.5 -34t15.5 -22.5t35.5 -12.5t63.5 -4v-52v0z" />
    <glyph glyph-name="braceright.cap" unicode="&#xe037;" horiz-adv-x="400" 
d="M25 -81v52q40 0 63.5 4t35.5 12.5t15.5 22.5t3.5 34v164q0 56 24 87.5t76 44.5v2q-51 14 -75.5 44.5t-24.5 87.5v164q0 20 -3 34t-15 22.5t-35.5 12.5t-64.5 4v52q55 0 90.5 -8.5t56.5 -26.5t29 -46.5t8 -68.5v-131q0 -27 3 -47.5t16 -34.5t40.5 -22t76.5 -9v-56
q-49 -2 -76.5 -9.5t-40.5 -21.5t-16 -34.5t-3 -47.5v-131q0 -40 -8 -68.5t-29 -46.5t-56.5 -26.5t-90.5 -8.5z" />
    <glyph glyph-name="braceleft.small" unicode="&#xe14a;" horiz-adv-x="340" 
d="M286 -68q-47 0 -77.5 7t-48.5 22.5t-25 39.5t-7 59v111q0 23 -2.5 40t-14 29t-34.5 18.5t-64 7.5v50q41 1 64 7t34.5 18t14 29.5t2.5 40.5v110q0 34 7 58.5t25 40t48.5 22.5t77.5 7v-48q-35 0 -54.5 -3t-29.5 -10.5t-12.5 -19.5t-2.5 -29v-135q0 -49 -21 -75t-64 -37v-2
q44 -11 64.5 -37.5t20.5 -74.5v-136q0 -17 3 -29t13 -19.5t30 -10.5t53 -3v-48z" />
    <glyph glyph-name="braceright.small" unicode="&#xe14b;" horiz-adv-x="340" 
d="M54 -20q33 0 53 3t30 10.5t13 19.5t3 29v136q0 48 20.5 74.5t64.5 37.5v2q-43 11 -64 37t-21 75v135q0 17 -2.5 29t-12.5 19.5t-30 10.5t-54 3v48q47 0 77.5 -7t48.5 -22.5t25 -40t7 -58.5v-110q0 -23 2.5 -40.5t14 -29.5t34.5 -18t64 -7v-50q-41 -1 -64.5 -7.5
t-34.5 -18.5t-13.5 -29t-2.5 -40v-111q0 -35 -7 -59t-25 -39.5t-48.5 -22.5t-77.5 -7v48z" />
    <glyph glyph-name="asterisk" unicode="*" 
d="M263 479h-4l-82 -142l-74 56l110 120l-1 3l-161 32l29 91l149 -67l2 2l-20 162h98l-20 -162l2 -2l149 67l29 -91l-161 -32l-1 -3l110 -120l-76 -56z" />
    <glyph glyph-name="dagger" unicode="&#x2020;" 
d="M233 -158l-26 456l27 196l-183 -21v90l183 -18l-16 191h87l-19 -191l183 18v-90l-183 21l27 -196l-26 -456h-54z" />
    <glyph glyph-name="daggerdbl" unicode="&#x2021;" 
d="M218 -158l16 191l-183 -18v90l183 -21l-27 196v18l27 196l-183 -21v90l183 -18l-16 191h87l-19 -191l183 18v-90l-183 21l27 -196v-18l-27 -196l183 21v-90l-183 18l19 -191h-87z" />
    <glyph glyph-name="section" unicode="&#xa7;" 
d="M475 38q0 -48 -15.5 -93t-45 -80.5t-72.5 -56.5t-99 -21q-45 0 -79 13t-59 37l48 63q24 -21 45.5 -29t50.5 -8q32 0 55 16t23 52q0 24 -14.5 53.5t-38 63t-52.5 71t-57 78.5q-18 26 -35.5 54t-31.5 58.5t-22.5 63.5t-8.5 68q0 54 17 100t48 80t75.5 53.5t100.5 19.5
q33 0 61.5 -9t53.5 -25l-42 -68q-16 11 -35 17t-42 6q-90 0 -90 -66q0 -23 13 -50.5t34.5 -60t48.5 -69l55 -76.5l37.5 -55.5t35.5 -61.5t26.5 -66.5t10.5 -71.5zM412 25q0 57 -33 114t-82 127l-64 90t-47 69.5t-29 60.5t-10 63h-2q-13 -25 -15.5 -48t-2.5 -46
q0 -57 30 -114.5t75 -119.5l63 -86.5t50 -74t33.5 -66t14.5 -62.5h2q12 26 14.5 47.5t2.5 45.5z" />
    <glyph glyph-name="paragraph" unicode="&#xb6;" 
d="M222 -214q-38 0 -67 12t-49.5 32t-31 46.5t-10.5 55.5q0 35 15.5 71t52.5 66l48 -38q-26 -19 -37.5 -45.5t-11.5 -51.5q0 -18 6.5 -34t19 -28.5t30.5 -20t40 -7.5q49 0 78.5 36t29.5 119v261h-96q-44 0 -82 11t-66 36t-44.5 64.5t-16.5 96.5q0 42 14 80.5t43.5 68
t74 46.5t104.5 17h211v-66h-76v-615q0 -59 -14 -99.5t-38 -65.5t-57 -36.5t-70 -11.5z" />
    <glyph glyph-name="at" unicode="@" horiz-adv-x="852" 
d="M723 -53q-32 -26 -66 -45.5t-71.5 -32t-80 -19t-91.5 -6.5q-75 0 -144.5 23t-123 69.5t-86 117t-32.5 165.5q0 118 36.5 207t99 148.5t145.5 89.5t176 30q72 0 135 -20t110 -60t74 -100t27 -140q0 -57 -17.5 -116.5t-49 -108t-76.5 -79.5t-100 -31q-48 0 -71.5 23
t-15.5 78h-3q-14 -17 -31 -35.5t-37 -33.5t-43 -24.5t-49 -9.5q-62 0 -90.5 45.5t-28.5 117.5q0 49 13.5 106t42.5 105.5t74.5 80.5t108.5 32q33 0 59 -8t49 -26h2l12 20h61l-58 -324q-5 -25 -6.5 -41t0 -25t7 -12.5t16.5 -3.5q32 0 61 23t51.5 61t35.5 87t13 102
q0 66 -21.5 114.5t-60 81t-91 48t-113.5 15.5q-90 0 -161 -31t-119.5 -85t-74 -128t-25.5 -161t27 -148.5t72.5 -100.5t105.5 -57t126 -18q85 0 151 24t117 63zM542 428q-14 15 -35.5 24t-45.5 9q-47 0 -77 -26.5t-47.5 -65.5t-24.5 -84.5t-7 -82.5q0 -93 52 -93q21 0 43 14
t42.5 35t38 44.5t29.5 43.5z" />
    <glyph glyph-name="at.small" unicode="&#xe14c;" horiz-adv-x="736" 
d="M618 -4q-55 -43 -117.5 -64.5t-146.5 -21.5q-65 0 -125 20t-106 59.5t-73 99.5t-27 140q0 99 31 174.5t84 127t124.5 78t152.5 26.5q61 0 115.5 -17t94.5 -51.5t63.5 -85.5t23.5 -120q0 -52 -15 -103t-43 -91.5t-66.5 -65.5t-85.5 -25q-42 0 -62.5 19.5t-14.5 66.5h-2
q-12 -15 -26.5 -30.5t-31 -28t-36.5 -21t-42 -8.5q-53 0 -77 38.5t-24 100.5q0 43 12 91.5t36.5 90t63 68.5t92.5 27q53 0 92 -29h2l10 17h56l-49 -274q-8 -41 -5.5 -54.5t19.5 -13.5q26 0 50.5 18.5t43 49.5t30 72.5t11.5 86.5q0 55 -18.5 96t-51 68t-77 40.5t-97.5 13.5
q-77 0 -137.5 -26t-101.5 -72t-62.5 -108t-21.5 -135t22.5 -124.5t61 -84.5t89.5 -48.5t108 -15.5q72 0 128.5 20t99.5 54zM460 404q-24 26 -67 26q-38 0 -63 -21.5t-39.5 -54t-20.5 -69t-6 -66.5q0 -36 11.5 -55.5t32.5 -19.5q17 0 35 11.5t34.5 28t31 36t25.5 36.5z" />
    <glyph glyph-name="at.cap" unicode="&#xe038;" horiz-adv-x="852" 
d="M723 -3q-32 -26 -66 -45.5t-71.5 -32t-80 -19t-91.5 -6.5q-75 0 -144.5 23t-123 69.5t-86 117t-32.5 165.5q0 118 36.5 207t99 148.5t145.5 89.5t176 30q72 0 135 -20t110 -60t74 -100t27 -140q0 -57 -17.5 -116.5t-49 -108t-76.5 -79.5t-100 -31q-48 0 -71.5 23
t-15.5 78h-3q-14 -17 -31 -35.5t-37 -33.5t-43 -24.5t-49 -9.5q-62 0 -90.5 45.5t-28.5 117.5q0 49 13.5 106t42.5 105.5t74.5 80.5t108.5 32q33 0 59 -8t49 -26h2l12 20h61l-58 -324q-5 -25 -6.5 -41t0 -25t7 -12.5t16.5 -3.5q32 0 61 23t51.5 61t35.5 87t13 102
q0 66 -21.5 114.5t-60 81t-91 48t-113.5 15.5q-90 0 -161 -31t-119.5 -85t-74 -128t-25.5 -161t27 -148.5t72.5 -100.5t105.5 -57t126 -18q85 0 151 24t117 63zM542 478q-14 15 -35.5 24t-45.5 9q-47 0 -77 -26.5t-47.5 -65.5t-24.5 -84.5t-7 -82.5q0 -93 52 -93q21 0 43 14
t42.5 35t38 44.5t29.5 43.5z" />
    <glyph glyph-name="copyright" unicode="&#xa9;" horiz-adv-x="740" 
d="M691 343q0 -94 -25.5 -161.5t-69.5 -111t-102 -64t-123 -20.5t-123.5 20.5t-102.5 63.5t-70 110t-26 160q0 90 26 157t70 110.5t102 65t123 21.5t123.5 -21.5t102.5 -65t69.5 -109.5t25.5 -155zM627 339q0 148 -69 223.5t-187 75.5q-122 0 -190 -75t-68 -224t68 -223
t190 -74q118 0 187 74.5t69 222.5zM521 210q-23 -37 -59.5 -52.5t-82.5 -15.5q-88 0 -138.5 52t-50.5 146q0 96 50 148.5t138 52.5q43 0 77.5 -15.5t57.5 -51.5l-61 -41q-13 19 -31 29.5t-45 10.5q-48 0 -73 -33t-25 -96t26.5 -98.5t78.5 -35.5t78 39z" />
    <glyph glyph-name="registered" unicode="&#xae;" horiz-adv-x="740" 
d="M691 343q0 -94 -25.5 -161.5t-69.5 -111t-102 -64t-123 -20.5t-123.5 20.5t-102.5 63.5t-70 110t-26 160q0 90 26 157t70 110.5t102 65t123 21.5t123.5 -21.5t102.5 -65t69.5 -109.5t25.5 -155zM627 339q0 148 -69 223.5t-187 75.5q-122 0 -190 -75t-68 -224t68 -223
t190 -74q118 0 187 74.5t69 222.5zM511 431q0 -42 -25.5 -64.5t-60.5 -30.5v-1q22 -8 34 -19t21 -34q5 -13 10 -24.5l10 -23.5q7 -15 13.5 -20t14.5 -5q9 0 15 3l6 -58q-9 -5 -23.5 -7t-26.5 -2q-32 0 -48.5 13t-26.5 40l-13 36t-13 33q-9 22 -24 31t-42 9h-34v-157h-81v383
h148q24 0 49.5 -4.5t47 -16t35.5 -31t14 -50.5zM424 422q0 52 -77 52h-49v-108h54q31 0 51.5 12t20.5 44z" />
    <glyph glyph-name="published" unicode="&#x2117;" horiz-adv-x="740" 
d="M691 343q0 -94 -25.5 -161.5t-69.5 -111t-102 -64t-123 -20.5t-123.5 20.5t-102.5 63.5t-70 110t-26 160q0 90 26 157t70 110.5t102 65t123 21.5t123.5 -21.5t102.5 -65t69.5 -109.5t25.5 -155zM627 339q0 148 -69 223.5t-187 75.5q-122 0 -190 -75t-68 -224t68 -223
t190 -74q118 0 187 74.5t69 222.5zM552 411q0 -36 -13 -60t-34 -38.5t-47.5 -21t-54.5 -6.5h-63v-135h-81v383h146q29 0 55.5 -7t47 -21.5t32.5 -37.5t12 -56zM464 411q0 32 -21 46t-53 14h-50v-124h45q14 0 28 2.5t25.5 9.5t18.5 19.5t7 32.5z" />
    <glyph glyph-name="published" unicode="&#xe039;" horiz-adv-x="740" 
d="M691 343q0 -94 -25.5 -161.5t-69.5 -111t-102 -64t-123 -20.5t-123.5 20.5t-102.5 63.5t-70 110t-26 160q0 90 26 157t70 110.5t102 65t123 21.5t123.5 -21.5t102.5 -65t69.5 -109.5t25.5 -155zM627 339q0 148 -69 223.5t-187 75.5q-122 0 -190 -75t-68 -224t68 -223
t190 -74q118 0 187 74.5t69 222.5zM552 411q0 -36 -13 -60t-34 -38.5t-47.5 -21t-54.5 -6.5h-63v-135h-81v383h146q29 0 55.5 -7t47 -21.5t32.5 -37.5t12 -56zM464 411q0 32 -21 46t-53 14h-50v-124h45q14 0 28 2.5t25.5 9.5t18.5 19.5t7 32.5z" />
    <glyph glyph-name="trademark" unicode="&#x2122;" horiz-adv-x="886" 
d="M132 297v316h-126v67h334v-67h-126v-316h-82zM747 297v250h-1l-91 -250h-79l-95 249h-1v-249h-77v383h106l109 -274h2l102 274h107v-383h-82z" />
    <glyph glyph-name="ordfeminine" unicode="&#xaa;" horiz-adv-x="333" 
d="M21 402q0 22 8.5 41t30 35t57.5 29.5t91 26.5v11q0 26 -15.5 38t-43.5 12q-30 0 -44 -10t-23 -33l-54 22q13 35 43 54.5t84 19.5q58 0 88.5 -23t30.5 -81v-115q0 -28 4.5 -40t17.5 -12q8 0 14 3l6 -47q-10 -3 -20.5 -5t-24.5 -2q-22 0 -35.5 9t-22.5 32h-3
q-23 -21 -47 -32.5t-56 -11.5q-34 0 -60 20.5t-26 58.5zM89 415q0 -18 10.5 -28t28.5 -10q25 0 44.5 12t35.5 28v72q-35 -9 -58 -18t-36.5 -18t-19 -18.5t-5.5 -19.5zM17 192v48h298v-48h-298z" />
    <glyph glyph-name="ordmasculine" unicode="&#xba;" horiz-adv-x="339" 
d="M315 484q0 -37 -11 -67t-30 -51t-46 -32t-58 -11q-71 0 -109 44t-38 119q0 37 11 67t30.5 51t46 32.5t57.5 11.5q72 0 109.5 -44.5t37.5 -119.5zM247 483q0 22 -4 42.5t-13 36t-24.5 24.5t-38.5 9q-21 0 -35.5 -9.5t-23.5 -24.5t-13 -34.5t-4 -39.5q0 -22 4 -42t13 -35.5
t24.5 -25t38.5 -9.5q21 0 35.5 9.5t23.5 24.5t13 34.5t4 39.5zM20 192v48h298v-48h-298z" />
    <glyph glyph-name="numero" unicode="&#x2116;" horiz-adv-x="978" 
d="M954 484q0 -37 -11 -67t-30 -51t-46 -32t-58 -11q-71 0 -109 44t-38 119q0 37 11 67t30.5 51t46 32.5t57.5 11.5q72 0 109.5 -44.5t37.5 -119.5zM886 483q0 22 -4 42.5t-13 36t-24.5 24.5t-38.5 9q-21 0 -35.5 -9.5t-23.5 -24.5t-13 -34.5t-4 -39.5q0 -22 4 -42t13 -35.5
t24.5 -25t38.5 -9.5q21 0 35.5 9.5t23.5 24.5t13 34.5t4 39.5zM659 192v48h298v-48h-298zM493 -9l-295 438h-2v-429h-87v580h97l282 -419h2v419h87v-589h-84z" />
    <glyph glyph-name="numbersign" unicode="#" 
d="M265 0l23 180h-100l-23 -180h-67l23 180h-103v71h112l19 143h-131v71h140l24 180h67l-24 -180h100l24 180h67l-24 -180h110v-71h-119l-19 -143h138v-71h-147l-23 -180h-67zM316 394h-100l-19 -143h100z" />
    <glyph glyph-name="Euro" unicode="&#x20ac;" 
d="M512 82q-33 -50 -77 -73t-104 -23q-52 0 -91.5 17t-68 47t-46.5 71.5t-27 91.5h-88v70h80q-2 21 -1.5 42.5t1.5 43.5h-80v70h89q9 45 26 85t45 70t67 47.5t92 17.5q54 0 100 -22.5t72 -70.5l-67 -51q-21 32 -45.5 50t-61.5 18q-59 0 -91 -39.5t-44 -104.5h241v-70h-249
q-2 -21 -1.5 -42.5t1.5 -43.5h249v-70h-241q13 -72 48.5 -111.5t101.5 -39.5q20 0 36 6.5t29 16.5t24 23t20 26l61 -52v0z" />
    <glyph glyph-name="dollar" unicode="$" 
d="M487 178q0 -44 -14.5 -77.5t-39.5 -56.5t-58 -36.5t-70 -18.5v-99h-71v97q-74 4 -121.5 32t-71.5 79l70 43q11 -15 22 -28t25 -23.5t32 -17t44 -9.5v236q-32 12 -63.5 25.5t-56 34t-39.5 50t-15 72.5q0 40 12.5 71t35.5 53t55 35t71 17v92h71v-92q53 -4 93 -21.5
t73 -56.5l-65 -50q-20 22 -42 34.5t-59 17.5v-212q33 -12 65.5 -26.5t58.5 -36.5t42 -52.5t16 -75.5zM398 171q0 41 -26.5 63.5t-66.5 38.5v-208q93 15 93 106zM149 489q0 -35 24 -56.5t61 -36.5v185q-45 -7 -65 -31t-20 -61z" />
    <glyph glyph-name="cent" unicode="&#xa2;" 
d="M245 -110v100q-46 8 -80.5 31t-58 57.5t-35 78.5t-11.5 94q0 52 11.5 97.5t34.5 81t57.5 59t81.5 31.5v95h71v-92q47 -5 86.5 -27t62.5 -65l-67 -51q-17 26 -36.5 43.5t-45.5 22.5v-383q33 5 55.5 26t39.5 45l61 -52q-30 -45 -67.5 -67.5t-88.5 -27.5v-97h-71zM154 260
q0 -69 22.5 -118t68.5 -69v367q-45 -16 -68 -62.5t-23 -117.5z" />
    <glyph glyph-name="sterling" unicode="&#xa3;" 
d="M513 164q0 -39 -6 -71.5t-20 -56.5t-38.5 -37t-60.5 -13q-34 0 -66 8t-63 18t-61 18t-60 8q-28 0 -47.5 -13.5t-36.5 -36.5l-50 43q25 35 51.5 53.5t54.5 26.5q38 37 54.5 67t16.5 58q0 26 -11 56h-123v70h93q-16 32 -29 65.5t-13 70.5t14.5 66.5t40.5 50.5t61.5 32.5
t77.5 11.5q64 0 112.5 -23t71.5 -80l-76 -36q-12 33 -38.5 48t-67.5 15q-48 0 -74 -21.5t-26 -64.5q0 -34 14 -67l30 -68h187v-70h-160q3 -12 5 -24.5t2 -24.5q0 -35 -18.5 -67t-51.5 -63v-2q25 -5 48 -11.5l45.5 -13.5t44.5 -11.5t43 -4.5q32 0 42.5 23.5t11.5 70.5h76v0z
" />
    <glyph glyph-name="florin" unicode="&#x192;" 
d="M146 0v292h-107v70h107v95q0 52 14.5 90t40 63t60 37t75.5 12q76 0 118 -30.5t59 -84.5l-75 -38q-12 38 -34.5 57.5t-63.5 19.5q-48 0 -75.5 -25.5t-27.5 -92.5v-103h180v-70h-180v-292h-91z" />
    <glyph glyph-name="yen" unicode="&#xa5;" 
d="M220 0v136h-155v70h155v86h-155v70h118l-165 283h106l145 -258h2l134 258h98l-157 -283h120v-70h-155v-86h155v-70h-155v-136h-91z" />
    <glyph glyph-name="zero.slash" unicode="&#xe03a;" 
d="M481 317q0 -79 -15.5 -140.5t-44.5 -104t-69.5 -64.5t-90.5 -22q-60 0 -107 30l-35 -76h-76l59 128q-32 45 -47.5 110.5t-15.5 149.5q0 75 15 136t43.5 104.5t69.5 67t93 23.5q30 0 55.5 -8t47.5 -22l36 76h77l-60 -128q32 -46 48.5 -112t16.5 -148zM387 317
q0 44 -4 84.5t-14 74.5l-179 -383q29 -31 75 -31q36 0 59.5 22.5t37.5 58.5t19.5 81.5t5.5 92.5zM133 329q0 -45 3.5 -85t13.5 -73l178 382q-30 30 -73 30q-36 0 -59.5 -22.5t-37.5 -59t-19.5 -82t-5.5 -90.5z" />
    <glyph glyph-name="zero" unicode="0" 
d="M481 317q0 -79 -15.5 -140.5t-44.5 -104t-69.5 -64.5t-90.5 -22q-54 0 -95.5 24t-69.5 68.5t-42.5 108t-14.5 141.5q0 75 15 136t43.5 104.5t69.5 67t93 23.5q55 0 96.5 -25t69.5 -70.5t41.5 -108.5t13.5 -138zM387 317q0 53 -6 101.5t-21 85t-40.5 58t-64.5 21.5
q-36 0 -59.5 -22.5t-37.5 -59t-19.5 -82t-5.5 -90.5q0 -54 6 -102.5t21 -85t40.5 -58t64.5 -21.5q36 0 59.5 22.5t37.5 58.5t19.5 81.5t5.5 92.5z" />
    <glyph glyph-name="one" unicode="1" 
d="M90 0v78h171v472l-1 1l-166 -80l-32 68l61.5 31l55.5 29.5l53.5 29l54.5 30.5h65v-581h134v-78h-396z" />
    <glyph glyph-name="two" unicode="2" 
d="M71 0v71q19 33 47 64l58.5 62l60.5 62t54.5 63.5t39.5 66.5t15 71q0 59 -24 91t-70 32q-27 0 -46 -7.5t-32 -21t-20 -32.5t-11 -41l-81 20q17 84 67.5 121t130.5 37q39 0 73 -11.5t59.5 -35t40 -59t14.5 -84.5q0 -65 -28.5 -116t-69 -95t-85 -85t-76.5 -85v-3h300v-85
h-417z" />
    <glyph glyph-name="three" unicode="3" 
d="M455 172q0 -49 -16.5 -89.5t-46.5 -70t-72 -45.5t-92 -16q-63 0 -111.5 22t-78.5 82l71 49q18 -38 47.5 -57.5t73.5 -19.5q59 0 95 36t36 98q0 66 -29.5 97.5t-77.5 31.5q-26 0 -48.5 -6.5t-48.5 -16.5l-20 62l47 18q73 27 111 59.5t38 83.5q0 45 -25.5 69t-65.5 24
q-42 0 -66.5 -20t-44.5 -62l-68 41q26 60 71 88.5t117 28.5q32 0 63.5 -9t56.5 -28.5t40.5 -49t15.5 -69.5q0 -32 -9 -55.5t-23.5 -41.5t-34 -32t-40.5 -25v-3q62 -12 98.5 -57t36.5 -117z" />
    <glyph glyph-name="four" unicode="4" 
d="M334 -35v155h-303v81l302 458h79v-463h84v-76h-84v-155h-78zM327 525h-2l-206 -327v-2h208v329z" />
    <glyph glyph-name="five" unicode="5" 
d="M474 167q0 -48 -17.5 -88t-48.5 -68.5t-73.5 -44t-92.5 -15.5q-33 0 -62.5 4.5t-55.5 16.5t-48 32t-39 51l66 49q22 -38 54.5 -57.5t83.5 -19.5q36 0 62.5 10t44 27t26.5 39.5t9 48.5q0 49 -22.5 81t-61.5 53t-90.5 32t-109.5 18l21 309h313v-83h-245l-10 -155
q54 -9 107 -24t95 -42t68 -69t26 -105z" />
    <glyph glyph-name="six" unicode="6" 
d="M494 217q0 -53 -17 -95.5t-47 -72.5t-70 -46.5t-86 -16.5q-68 0 -113 25t-72 67t-38.5 97.5t-11.5 117.5q0 94 19.5 168.5t55.5 126.5t88.5 79t118.5 27q64 0 111.5 -22.5t77.5 -73.5l-66 -49q-22 34 -51 51.5t-72 17.5q-91 0 -135 -70t-51 -200h2q40 32 78 51.5t88 19.5
q44 0 79.5 -15t60 -42t38 -64t13.5 -81zM397 205q0 70 -33.5 103.5t-83.5 33.5q-48 0 -80.5 -20.5t-60.5 -47.5q-1 -8 -1 -15v-15q0 -40 8 -73.5t24.5 -57.5t41.5 -37.5t60 -13.5q32 0 55.5 11t39 30t23 45t7.5 57z" />
    <glyph glyph-name="seven" unicode="7" 
d="M152 -49q7 63 25.5 125t48.5 132.5t72 155l97 192.5v2h-256v-98h-81v185h436v-76l-100.5 -198t-69.5 -154t-44 -132.5t-24 -133.5h-104z" />
    <glyph glyph-name="eight" unicode="8" 
d="M485 182q0 -41 -15.5 -77t-45.5 -62.5t-73.5 -41.5t-98.5 -15q-51 0 -91.5 13t-68 36t-42 55t-14.5 71q0 35 11 62.5t30.5 50t45.5 40.5t57 33v2q-24 13 -46 29.5t-38.5 37t-26 46.5t-9.5 59q0 37 15 69t43 55t66 36t85 13q39 0 74 -10.5t61 -30.5t41 -49.5t15 -67.5
q0 -35 -9.5 -60.5t-25.5 -45.5t-37 -35.5t-45 -29.5v-2q27 -15 53 -31.5t45.5 -38t31.5 -49t12 -62.5zM394 166q0 28 -12 49t-31.5 38t-45 30.5l-53.5 27.5q-25 -13 -47 -27t-39 -31t-27 -37.5t-10 -46.5q0 -57 36 -84.5t95 -27.5q62 0 98 30.5t36 78.5zM154 528
q0 -23 9.5 -41.5t26 -34t37.5 -29t45 -25.5q19 12 36.5 24.5t31 28t22 34t8.5 42.5q0 47 -31 72.5t-77 25.5q-49 0 -78.5 -26t-29.5 -71z" />
    <glyph glyph-name="nine" unicode="9" 
d="M28 428q0 53 17 95.5t47 72.5t70 46.5t86 16.5q68 0 113 -25t72 -67t38.5 -97.5t11.5 -117.5q0 -94 -19.5 -168.5t-55.5 -126.5t-88.5 -79t-118.5 -27q-64 0 -111.5 22.5t-77.5 73.5l66 49q22 -34 51 -51.5t72 -17.5q91 0 135 70t51 200h-2q-40 -32 -78 -51.5t-88 -19.5
q-44 0 -79.5 15t-60 42t-38 64t-13.5 81zM125 440q0 -70 33.5 -103.5t83.5 -33.5q48 0 80.5 20.5t60.5 47.5q1 8 1 15v15q0 40 -8 73.5t-24.5 57.5t-41.5 37.5t-60 13.5q-32 0 -55.5 -11t-39 -30t-23 -45t-7.5 -57z" />
    <glyph glyph-name="numbersign.LT" unicode="&#xe14d;" 
d="M258 0l25 190h-100l-25 -190h-67l25 190h-98v71h107l21 158h-128v71h137l25 190h67l-25 -190h100l25 190h67l-25 -190h113v-71h-122l-21 -158h143v-71h-152l-25 -190h-67zM313 419h-100l-21 -158h100z" />
    <glyph glyph-name="Euro.LT" unicode="&#xe03b;" 
d="M512 82q-33 -50 -76.5 -73t-103.5 -23q-54 0 -94.5 18t-69 50.5t-46 77.5t-25.5 98h-87v70h80q-2 21 -1.5 42.5t1.5 43.5h-80v70h87q9 52 27.5 95.5t47 75t68.5 49.5t92 18q54 0 100 -22.5t72 -70.5l-67 -51q-21 32 -45.5 50t-61.5 18q-62 0 -94.5 -43.5t-44.5 -118.5
h242v-70h-249q-2 -25 -1.5 -47.5t1.5 -38.5h249v-70h-243q12 -88 48.5 -128t104.5 -40q20 0 36 6.5t28.5 16.5t23.5 23t20 26l61 -52v0z" />
    <glyph glyph-name="dollar.LT" unicode="&#xe03c;" 
d="M234 -111v98q-74 4 -121.5 32t-71.5 79l70 43q11 -15 22 -28t25 -23.5t32 -17t44 -9.5v257q-32 12 -63.5 25.5t-56 34t-39.5 51t-15 75.5q0 86 47.5 132t126.5 54v92h71v-92q53 -4 93 -21.5t73 -56.5l-65 -50q-20 22 -42 34.5t-59 17.5v-230q33 -12 65.5 -26.5t58.5 -37
t42 -55t16 -79.5q0 -83 -44 -135.5t-138 -63.5v-100h-71zM397 173q0 49 -26.5 75.5t-65.5 44.5v-228q46 8 69 35.5t23 72.5zM149 515q0 -40 24 -62.5t61 -39.5v203q-47 -7 -66 -33t-19 -68z" />
    <glyph glyph-name="cent.LT" unicode="&#xe03d;" 
d="M227 -110v100q-46 8 -80.5 31t-58 57.5t-35 78.5t-11.5 94q0 52 11.5 97.5t34.5 81t57.5 59t81.5 31.5v95h71v-92q47 -5 86.5 -27t62.5 -65l-67 -51q-17 26 -36.5 43.5t-45.5 22.5v-383q33 5 55.5 26t39.5 45l61 -52q-30 -45 -67.5 -67.5t-88.5 -27.5v-97h-71zM136 260
q0 -69 22.5 -118t68.5 -69v367q-45 -16 -68 -62.5t-23 -117.5z" />
    <glyph glyph-name="sterling.LT" unicode="&#xe03e;" 
d="M513 164q0 -39 -6 -71.5t-20 -56.5t-38.5 -37t-60.5 -13q-34 0 -66 8t-63 18t-61 18t-60 8q-28 0 -47.5 -13.5t-36.5 -36.5l-50 43q24 35 51 53.5t54 26.5q46 48 60.5 82.5t14.5 65.5q0 18 -3.5 34.5t-9.5 33.5h-124v70h92q-15 30 -26.5 61.5t-11.5 69.5q0 42 15.5 73
t42.5 51.5t62 31t74 10.5q64 0 112.5 -23t71.5 -80l-76 -36q-12 33 -38.5 48t-67.5 15q-21 0 -39 -4t-31.5 -14.5t-21.5 -28t-8 -44.5q0 -35 12.5 -66.5t28.5 -63.5h187v-70h-159q5 -15 7.5 -30t2.5 -31q0 -39 -16.5 -74.5t-54.5 -77.5v-3q24 -5 47 -11.5t45 -13.5
t43.5 -11.5t42.5 -4.5q32 0 42.5 23.5t11.5 70.5h76v0z" />
    <glyph glyph-name="florin.LT" unicode="&#xe03f;" 
d="M146 0v327h-107v70h107v95q0 52 14.5 90t40 63t60 37t75.5 12q76 0 118 -30.5t59 -84.5l-75 -38q-12 38 -34.5 57.5t-63.5 19.5q-48 0 -75.5 -25.5t-27.5 -92.5v-103h180v-70h-180v-327h-91z" />
    <glyph glyph-name="yen.LT" unicode="&#xe040;" 
d="M220 0v171h-155v70h155v86h-155v70h118l-165 283h106l145 -258h2l134 258h98l-157 -283h120v-70h-155v-86h155v-70h-155v-171h-91z" />
    <glyph glyph-name="zero.slashLT" unicode="&#xe14e;" 
d="M481 334q0 -83 -15.5 -148t-44.5 -109.5t-69.5 -67.5t-90.5 -23q-32 0 -59 8.5t-50 24.5l-35 -79h-76l60 135q-31 47 -46.5 115.5t-15.5 155.5q0 78 15 142.5t43.5 110t69.5 70.5t93 25q58 0 103 -31l34 77h77l-29.5 -65.5l-28.5 -65.5q32 -48 48.5 -118t16.5 -157z
M387 334q0 48 -4 91t-14 79l-181 -406q30 -36 77 -36q35 0 58.5 23t37.5 61t20 87t6 101zM133 347q0 -47 3.5 -88t12.5 -76l179 402q-30 33 -73 33q-35 0 -58.5 -23.5t-37.5 -62t-20 -87t-6 -98.5z" />
    <glyph glyph-name="zero.LT" unicode="&#xe041;" 
d="M481 334q0 -83 -15.5 -148t-44.5 -109.5t-69.5 -67.5t-90.5 -23q-54 0 -95.5 25.5t-69.5 72t-42.5 113t-14.5 149.5q0 78 15 142.5t43.5 110t69.5 70.5t93 25q55 0 96.5 -26.5t69.5 -74t41.5 -114t13.5 -145.5zM387 334q0 59 -6.5 110.5t-22 90t-41 61t-62.5 22.5
q-35 0 -58.5 -23.5t-37.5 -62t-20 -87t-6 -98.5q0 -60 6.5 -112t22 -90.5t40.5 -60.5t63 -22q35 0 58.5 23t37.5 61t20 87t6 101z" />
    <glyph glyph-name="one.LT" unicode="&#xe042;" 
d="M90 0v78h171v507l-1 1l-166 -80l-32 68l61.5 31l55.5 29.5l53.5 29l54.5 30.5h65v-616h134v-78h-396z" />
    <glyph glyph-name="two.LT" unicode="&#xe043;" 
d="M71 0v70q39 64 86.5 114l89.5 97t70.5 96.5t28.5 113.5q0 60 -24 93.5t-70 33.5q-27 0 -46 -8t-32 -22t-20 -33t-11 -41l-81 20q17 86 67 123t131 37q39 0 73 -12t59.5 -37t40 -62.5t14.5 -89.5q0 -69 -28.5 -123t-69 -101t-85 -90.5t-76.5 -90.5v-3h300v-85h-417z" />
    <glyph glyph-name="three.LT" unicode="&#xe044;" 
d="M455 207q0 -49 -16.5 -89.5t-46.5 -70t-72 -45.5t-92 -16q-63 0 -111.5 22t-78.5 82l71 49q18 -38 47.5 -57.5t73.5 -19.5q59 0 95 36t36 98q0 66 -29.5 97.5t-77.5 31.5q-26 0 -48.5 -6.5t-48.5 -16.5l-20 62l47 18q73 27 111 59.5t38 83.5q0 45 -25.5 69t-65.5 24
q-42 0 -66.5 -20t-44.5 -62l-68 41q26 60 71 88.5t117 28.5q32 0 63.5 -9t56.5 -28.5t40.5 -49t15.5 -69.5q0 -32 -9 -55.5t-23.5 -41.5t-34 -32t-40.5 -25v-3q62 -12 98.5 -57t36.5 -117z" />
    <glyph glyph-name="four.LT" unicode="&#xe045;" 
d="M334 0v155h-303v81l302 458h79v-463h84v-76h-84v-155h-78zM327 560h-2l-206 -327v-2h208v329z" />
    <glyph glyph-name="five.LT" unicode="&#xe046;" 
d="M474 202q0 -48 -17.5 -88t-48.5 -68.5t-73.5 -44t-92.5 -15.5q-33 0 -62.5 4.5t-55.5 16.5t-48 32t-39 51l66 49q22 -38 54.5 -57.5t83.5 -19.5q36 0 62.5 10t44 27t26.5 39.5t9 48.5q0 49 -22.5 81t-61.5 53t-90.5 32t-109.5 18l21 309h313v-83h-245l-10 -155
q54 -9 107 -24t95 -42t68 -69t26 -105z" />
    <glyph glyph-name="six.LT" unicode="&#xe047;" 
d="M494 217q0 -53 -17 -95.5t-47 -72.5t-70 -46.5t-86 -16.5q-68 0 -113 25t-72 67t-38.5 97.5t-11.5 117.5q0 94 19.5 168.5t55.5 126.5t88.5 79t118.5 27q64 0 111.5 -22.5t77.5 -73.5l-66 -49q-22 34 -51 51.5t-72 17.5q-91 0 -135 -70t-51 -200h2q40 32 78 51.5t88 19.5
q44 0 79.5 -15t60 -42t38 -64t13.5 -81zM397 205q0 70 -33.5 103.5t-83.5 33.5q-48 0 -80.5 -20.5t-60.5 -47.5q-1 -8 -1 -15v-15q0 -40 8 -73.5t24.5 -57.5t41.5 -37.5t60 -13.5q32 0 55.5 11t39 30t23 45t7.5 57z" />
    <glyph glyph-name="seven.LT" unicode="&#xe048;" 
d="M152 -14q7 63 25.5 125t48.5 132.5t72 155l97 192.5v2h-256v-98h-81v185h436v-76l-100.5 -198t-69.5 -154t-44 -132.5t-24 -133.5h-104z" />
    <glyph glyph-name="eight.LT" unicode="&#xe049;" 
d="M485 182q0 -41 -15.5 -77t-45.5 -62.5t-73.5 -41.5t-98.5 -15q-51 0 -91.5 13t-68 36t-42 55t-14.5 71q0 35 11 62.5t30.5 50t45.5 40.5t57 33v2q-24 13 -46 29.5t-38.5 37t-26 46.5t-9.5 59q0 37 15 69t43 55t66 36t85 13q39 0 74 -10.5t61 -30.5t41 -49.5t15 -67.5
q0 -35 -9.5 -60.5t-25.5 -45.5t-37 -35.5t-45 -29.5v-2q27 -15 53 -31.5t45.5 -38t31.5 -49t12 -62.5zM394 166q0 28 -12 49t-31.5 38t-45 30.5l-53.5 27.5q-25 -13 -47 -27t-39 -31t-27 -37.5t-10 -46.5q0 -57 36 -84.5t95 -27.5q62 0 98 30.5t36 78.5zM154 528
q0 -23 9.5 -41.5t26 -34t37.5 -29t45 -25.5q19 12 36.5 24.5t31 28t22 34t8.5 42.5q0 47 -31 72.5t-77 25.5q-49 0 -78.5 -26t-29.5 -71z" />
    <glyph glyph-name="nine.LT" unicode="&#xe04a;" 
d="M28 463q0 53 17 95.5t47 72.5t70 46.5t86 16.5q68 0 113 -25t72 -67t38.5 -97.5t11.5 -117.5q0 -94 -19.5 -168.5t-55.5 -126.5t-88.5 -79t-118.5 -27q-64 0 -111.5 22.5t-77.5 73.5l66 49q22 -34 51 -51.5t72 -17.5q91 0 135 70t51 200h-2q-40 -32 -78 -51.5t-88 -19.5
q-44 0 -79.5 15t-60 42t-38 64t-13.5 81zM125 475q0 -70 33.5 -103.5t83.5 -33.5q48 0 80.5 20.5t60.5 47.5q1 8 1 15v15q0 40 -8 73.5t-24.5 57.5t-41.5 37.5t-60 13.5q-32 0 -55.5 -11t-39 -30t-23 -45t-7.5 -57z" />
    <glyph glyph-name="numbersign.OT" unicode="&#xe14f;" 
d="M261 0l20 153h-100l-20 -153h-67l20 153h-96v71h105l19 140h-124v71h133l19 145h67l-19 -145h100l19 145h67l-19 -145h117v-71h-126l-19 -140h145v-71h-154l-20 -153h-67zM309 364h-100l-19 -140h100z" />
    <glyph glyph-name="Euro.OT" unicode="&#xe04b;" 
d="M512 82q-33 -50 -78.5 -73t-105.5 -23q-92 0 -148.5 52.5t-77.5 136.5h-92v70h81q-2 23 -2 44.5t2 41.5h-81v70h92q21 87 78 140t151 53q54 0 101.5 -22.5t73.5 -70.5l-67 -51q-21 32 -47 50t-63 18q-54 0 -87 -30t-48 -87h239v-70h-249q-2 -21 -1.5 -42.5t2.5 -43.5h248
v-70h-235q16 -53 49.5 -83t90.5 -30q20 0 36.5 6.5t30.5 16.5t25.5 23t20.5 26l61 -52v0z" />
    <glyph glyph-name="dollar.OT" unicode="&#xe04c;" 
d="M486 160q0 -66 -44 -114t-137 -58v-99h-71v98q-74 4 -121.5 32t-71.5 79l70 43q11 -15 22 -28t25 -23.5t32 -17t44 -9.5v199q-32 10 -63.5 23t-56 32.5t-39.5 46.5t-15 66q0 70 48 112t126 50v93h71v-93q53 -4 93 -21.5t73 -56.5l-65 -50q-20 22 -42 34.5t-59 17.5v-184
q33 -11 65.5 -24t58 -32.5t41.5 -47.5t16 -68zM397 150q0 35 -26.5 54.5t-65.5 33.5v-174q47 7 69.5 29t22.5 57zM149 440q0 -32 24 -51t61 -33v160q-42 -5 -63.5 -25t-21.5 -51z" />
    <glyph glyph-name="cent.OT" unicode="&#xe04d;" 
d="M245 -110v101q-91 16 -138 92.5t-47 201.5q0 63 11 115.5t34 91.5t58 64t82 34v95h71v-92q47 -5 86.5 -27t63.5 -65l-67 -51q-18 27 -37 44t-46 22v-454q34 5 56.5 26.5t39.5 45.5l61 -52q-30 -45 -68 -67.5t-89 -27.5v-97h-71zM154 296q0 -97 24.5 -150t66.5 -73v437
q-44 -16 -67.5 -67.5t-23.5 -146.5z" />
    <glyph glyph-name="sterling.OT" unicode="&#xe04e;" 
d="M513 164q0 -39 -6 -71.5t-20 -56.5t-38.5 -37t-60.5 -13q-34 0 -66 8t-63 18t-61 18t-60 8q-28 0 -47.5 -13.5t-36.5 -36.5l-50 43q23 32 48 51.5t51 27.5q24 20 39.5 34.5t24.5 26.5t13 23.5t4 26.5q0 12 -3 26h-134v70h103q-17 29 -32 59t-15 66q0 35 14 63.5t39.5 48
t60 30t75.5 10.5q64 0 112.5 -23t71.5 -80l-76 -36q-12 33 -38.5 48t-67.5 15q-96 0 -96 -67q0 -19 5 -36t13 -33.5t17.5 -32.5l18.5 -32h173v-70h-151q1 -4 1 -12q0 -30 -14.5 -60t-53.5 -61v-3q48 -10 91 -25.5t85 -15.5q32 0 42.5 23.5t11.5 70.5h76v0z" />
    <glyph glyph-name="florin.OT" unicode="&#xe04f;" 
d="M146 0v247h-107v70h107v75q0 52 14.5 90t40 63t60 37t75.5 12q76 0 118 -30.5t59 -84.5l-75 -38q-12 38 -34.5 57.5t-63.5 19.5q-48 0 -75.5 -25.5t-27.5 -92.5v-83h180v-70h-180v-247h-91z" />
    <glyph glyph-name="yen.OT" unicode="&#xe050;" 
d="M220 0v78h-155v70h155v86h-155v70h114l-161 276h106l145 -258h2l134 258h98l-153 -276h116v-70h-155v-86h155v-70h-155v-78h-91z" />
    <glyph glyph-name="zero.slashOT" unicode="&#xe150;" 
d="M481 286q0 -72 -15.5 -127.5t-44.5 -94t-69.5 -58.5t-90.5 -20q-58 0 -103 25l-36 -71h-76l59 117q-33 40 -49.5 100t-16.5 137q0 68 15 123.5t43.5 94.5t69.5 60.5t93 21.5q29 0 54.5 -7t47.5 -19l36 72h77l-60 -118q33 -42 49.5 -102t16.5 -134zM133 294q0 -41 4 -77.5
t15 -66.5l173 344q-29 24 -70 24q-36 0 -59.5 -20t-37.5 -51.5t-19.5 -72t-5.5 -80.5zM387 287q0 39 -4 75t-15 66l-173 -343q28 -23 70 -23q36 0 59.5 19.5t37.5 51t19.5 72t5.5 82.5z" />
    <glyph glyph-name="zero.OT" unicode="&#xe051;" 
d="M481 286q0 -72 -15.5 -127.5t-44.5 -94t-69.5 -58.5t-90.5 -20q-54 0 -95.5 21.5t-69.5 62t-42.5 97t-14.5 127.5q0 68 15 123.5t43.5 94.5t69.5 60.5t93 21.5q55 0 96.5 -23t69.5 -63.5t41.5 -97.5t13.5 -124zM387 287q0 46 -6 88t-21 73.5t-40.5 50.5t-64.5 19
q-36 0 -59.5 -20t-37.5 -51.5t-19.5 -72t-5.5 -80.5q0 -47 6 -89.5t21 -74t40.5 -50t64.5 -18.5q36 0 59.5 19.5t37.5 51t19.5 72t5.5 82.5z" />
    <glyph glyph-name="one.OT" unicode="&#xe052;" 
d="M90 0v78h171v407l-1 1l-166 -80l-32 68l61.5 31l55.5 29.5l53.5 29l54.5 30.5h65v-516h134v-78h-396z" />
    <glyph glyph-name="two.OT" unicode="&#xe053;" 
d="M73 0v73q19 29 47 56.5l58.5 55l60.5 55t54.5 56t39.5 58.5t15 63q0 101 -94 101q-28 0 -47 -7.5t-32 -21t-20 -31.5t-11 -40l-82 19q18 84 68.5 120.5t131.5 36.5q39 0 73 -10t59.5 -31t40 -53t14.5 -75q0 -58 -28.5 -103t-69 -84t-85 -75t-76.5 -75v-3h300v-85h-417z
" />
    <glyph glyph-name="three.OT" unicode="&#xe054;" 
d="M455 107q0 -49 -16.5 -89.5t-46.5 -70t-72 -45.5t-92 -16q-63 0 -111.5 22t-78.5 82l71 49q18 -38 47.5 -57.5t73.5 -19.5q59 0 95 36t36 98q0 66 -29.5 97.5t-77.5 31.5q-26 0 -48.5 -6.5t-48.5 -16.5l-20 62l47 18q73 27 111 59.5t38 83.5q0 45 -25.5 69t-65.5 24
q-42 0 -66.5 -20t-44.5 -62l-68 41q26 60 71 88.5t117 28.5q32 0 63.5 -9t56.5 -28.5t40.5 -49t15.5 -69.5q0 -32 -9 -55.5t-23.5 -41.5t-34 -32t-40.5 -25v-3q62 -12 98.5 -57t36.5 -117z" />
    <glyph glyph-name="four.OT" unicode="&#xe055;" 
d="M334 -100v155h-303v81l302 458h79v-463h84v-76h-84v-155h-78zM327 460h-2l-206 -327v-2h208v329z" />
    <glyph glyph-name="five.OT" unicode="&#xe056;" 
d="M474 116q0 -48 -17.5 -88t-48.5 -68.5t-73.5 -44t-92.5 -15.5q-33 0 -62.5 4.5t-55.5 16.5t-48 32t-39 51l66 49q22 -38 54.5 -57.5t83.5 -19.5q36 0 62.5 10t44 27t26.5 39.5t9 48.5q0 49 -22.5 81t-61.5 53t-90.5 32t-109.5 18l21 309h313v-83h-245l-10 -155
q54 -9 107 -24t95 -42t68 -69t26 -105z" />
    <glyph glyph-name="six.OT" unicode="&#xe057;" 
d="M494 217q0 -53 -17 -95.5t-47 -72.5t-70 -46.5t-86 -16.5q-68 0 -113 25t-72 67t-38.5 97.5t-11.5 117.5q0 94 19.5 168.5t55.5 126.5t88.5 79t118.5 27q64 0 111.5 -22.5t77.5 -73.5l-66 -49q-22 34 -51 51.5t-72 17.5q-91 0 -135 -70t-51 -200h2q40 32 78 51.5t88 19.5
q44 0 79.5 -15t60 -42t38 -64t13.5 -81zM397 205q0 70 -33.5 103.5t-83.5 33.5q-48 0 -80.5 -20.5t-60.5 -47.5q-1 -8 -1 -15v-15q0 -40 8 -73.5t24.5 -57.5t41.5 -37.5t60 -13.5q32 0 55.5 11t39 30t23 45t7.5 57z" />
    <glyph glyph-name="seven.OT" unicode="&#xe058;" 
d="M152 -114q7 63 25.5 125t48.5 132.5t72 155l97 192.5v2h-256v-98h-81v185h436v-76l-100.5 -198t-69.5 -154t-44 -132.5t-24 -133.5h-104z" />
    </font>
</defs>
</svg>
