<?xml version="1.0" standalone="no"?>
<!DOCTYPE svg PUBLIC "-//W3C//DTD SVG 1.1//EN" "http://www.w3.org/Graphics/SVG/1.1/DTD/svg11.dtd" >
<svg>
<metadata>
Created by FontForge 20090622 at Tue May 19 15:49:46 2015
 By deploy user
2006 Copyright Jean Francois Porchez, Porchez Typofonderie. All rights reserved. designed for an exclusive use by The Boston Consulting Group, inc. distributed exclusively by Porchez Typofonderie, France. Henderson is a trademark of the Boston Consulting Group.
</metadata>
<defs>
<font id="HendersonBCGSerif-Bold" horiz-adv-x="520" >
  <font-face 
    font-family="Henderson BCG Serif"
    font-weight="700"
    font-stretch="normal"
    units-per-em="1000"
    panose-1="2 3 8 2 5 4 6 2 2 4"
    ascent="800"
    descent="-200"
    x-height="518"
    cap-height="680"
    bbox="-138 -235 1259 1082"
    underline-thickness="80"
    underline-position="-80"
    unicode-range="U+0020-U+FD3F"
  />
<missing-glyph 
d="M10 0v700h500v-700h-500zM460 650h-400v-600h400v600zM262 572q-19 0 -29.5 -9t-18.5 -20.5t-16.5 -20.5t-22.5 -9t-25.5 11.5t-11.5 25.5q0 26 30.5 44.5t75.5 18.5q28 0 54 -8t46.5 -24t33 -40t12.5 -55q0 -28 -10.5 -52t-29 -44t-43 -36.5t-51.5 -29.5l-3 -64h-37
l-10 132q-1 7 6 9q46 17 77.5 44.5t31.5 67.5q0 25 -16 42t-43 17zM287 162q0 -20 -14 -34t-37 -14q-24 0 -37.5 14t-13.5 34q0 21 14 35.5t38 14.5t37 -14.5t13 -35.5z" />
    <glyph glyph-name="f_b" unicode="fb" horiz-adv-x="938" 
d="M754 257q0 93 -27.5 137t-79.5 44q-29 0 -51.5 -11.5t-38.5 -31.5v-310q14 -14 34.5 -21.5t43.5 -7.5q33 0 55.5 15t37 41.5t20.5 63.5t6 81zM415 520q0 22 -3 51t-13 54.5t-28.5 43.5t-49.5 18q-29 0 -46.5 -9.5t-27 -30t-12.5 -51t-3 -72.5v-16h111v-62h-111v-282
q0 -42 1.5 -65.5t8.5 -35.5t22.5 -16.5t43.5 -8.5q7 -1 7 -9v-29q-16 0 -35.5 0.5l-40.5 1t-41.5 0.5h-36.5q-33 0 -68 -0.5t-67 -1.5v29q0 8 7 9q21 4 32.5 8t17 16t6.5 35.5t1 66.5v282h-55q-5 0 -5.5 2.5t-0.5 7.5v52h61v16q0 54 18 94t50 66.5t77 39t99 12.5
q81 0 147 -20h3l64 19q11 5 11 -5q-1 -20 -1.5 -49.5t-0.5 -52.5v-183h2q31 39 70 63t89 24q42 0 76.5 -17.5t59.5 -51t38.5 -82t13.5 -111.5t-17 -115.5t-48.5 -90t-75 -58t-95.5 -20.5q-46 0 -88.5 15.5t-70.5 42.5h-2l-39 -46q-3 -4 -6.5 -4.5t-8.5 -0.5h-31q-5 0 -8 0.5
t-3 5.5q1 20 1.5 47.5t0.5 50.5v423z" />
    <glyph glyph-name="f_f_b" unicode="ffb" horiz-adv-x="1263" 
d="M343 726q41 0 78.5 -8.5t67.5 -29.5h3q36 26 80 37t92 11q42 0 76 -5t67 -15h2l64 19q12 5 12 -5q-1 -20 -1.5 -49.5t-0.5 -52.5v-183h2q31 39 69.5 63t89.5 24q42 0 76.5 -17.5t59.5 -51t38.5 -82t13.5 -111.5t-17 -115.5t-48.5 -90t-75 -58t-96.5 -20.5q-46 0 -88 15.5
t-70 42.5h-2l-39 -46q-3 -4 -6.5 -4.5t-8.5 -0.5h-31q-5 0 -8 0.5t-3 5.5q1 20 1.5 47.5t0.5 50.5v423q0 22 -3 51t-12.5 54.5t-28.5 43.5t-51 18q-29 0 -46 -9.5t-27 -30t-13 -51t-3 -72.5v-16h112v-62h-112v-282q0 -42 1.5 -65.5t9 -35.5t22.5 -16.5t43 -8.5q7 -1 7 -9
v-29q-16 0 -35.5 0.5l-40 1t-41 0.5h-36.5q-33 0 -68.5 -0.5t-67.5 -1.5v29q0 8 7 9q21 4 32.5 8t17 16t6.5 35.5t1 66.5v282h-183v-282q0 -42 1 -65.5t7 -35.5t19 -16.5t37 -8.5q7 -1 7 -9v-29q-32 1 -70.5 1.5t-71.5 0.5t-68 -0.5t-67 -1.5v29q0 8 7 9q21 4 32.5 8t17 16
t6.5 35.5t1 66.5v282h-55q-5 0 -5.5 2.5t-0.5 7.5v52h61v16q0 51 19 89t53 63t80.5 37.5t100.5 12.5zM1080 257q0 93 -28 137t-79 44q-29 0 -51.5 -11.5t-38.5 -31.5v-310q14 -14 34 -21.5t44 -7.5q33 0 55.5 15t37 41.5t20.5 63.5t6 81zM415 508v16q0 37 9 67
q-18 42 -43.5 64t-60.5 22q-29 0 -46.5 -10t-26.5 -29.5t-12 -48t-3 -65.5v-16h183z" />
    <glyph glyph-name="f_f" unicode="ff" horiz-adv-x="700" 
d="M652 0q-16 0 -37.5 0.5l-44.5 1t-45 0.5h-38q-33 0 -68.5 -0.5t-67.5 -1.5v29q0 8 7 9q21 4 32.5 8t17 16t6.5 35.5t1 66.5v282h-183v-282q0 -42 1 -65.5t7 -35.5t19 -16.5t37 -8.5q7 -1 7 -9v-29q-32 1 -70.5 1.5t-71.5 0.5t-68 -0.5t-67 -1.5v29q0 8 7 9q21 4 32.5 8
t17 16t6.5 35.5t1 66.5v282h-55q-5 0 -5.5 2.5t-0.5 7.5v52h61v16q0 51 19 89t53 63t80.5 37.5t100.5 12.5q42 0 77.5 -8.5t62.5 -25.5h2q59 44 152 44q26 0 52.5 -5t48 -15.5t35 -27t13.5 -39.5q0 -28 -20.5 -43.5t-44.5 -15.5q-23 0 -32.5 15t-16.5 33.5t-16 33.5t-32 15
t-36 -11t-20 -31.5t-9 -51t-2 -69.5v-16h124v-62h-124v-282q0 -42 1.5 -65.5t10 -35.5t26.5 -16.5t50 -8.5q7 -1 7 -9v-29zM415 524q0 20 2.5 38t5.5 31q-17 40 -42.5 62t-60.5 22q-29 0 -46.5 -10t-26.5 -29.5t-12 -48t-3 -65.5v-16h183v16z" />
    <glyph glyph-name="f_h" unicode="fh" horiz-adv-x="945" 
d="M415 520q0 22 -3 51t-12.5 54.5t-28.5 43.5t-50 18q-29 0 -46.5 -9.5t-27 -30t-12.5 -51t-3 -72.5v-16h111v-62h-111v-282q0 -42 1 -65.5t7 -35.5t19 -16.5t37 -8.5q7 -1 7 -9v-29q-32 1 -70.5 1.5t-71.5 0.5t-68 -0.5t-67 -1.5v29q0 8 7 9q21 4 32.5 8t17 16t6.5 35.5
t1 66.5v282h-55q-5 0 -5.5 2.5t-0.5 7.5v52h61v16q0 54 18 94t50.5 66.5t78 39t101.5 12.5q42 0 76.5 -5t66.5 -15h3l64 19q11 5 11 -5q-1 -20 -1.5 -49.5t-0.5 -52.5v-183h2q32 37 70 62t92 25q33 0 60.5 -11t47.5 -31t31 -49t11 -66v-211q0 -43 1 -66.5t6 -35.5t16.5 -16
t31.5 -8q7 -1 7 -9v-29q-32 1 -64.5 1.5t-65.5 0.5t-68 -0.5t-67 -1.5v29q0 8 7 9q20 4 31 8t16 16t6 35.5t1 66.5v177q0 48 -21 72.5t-59 24.5q-27 0 -51 -11.5t-41 -31.5v-231q0 -43 1 -66.5t6.5 -35.5t16.5 -16t31 -8q7 -1 7 -9v-29q-32 1 -66.5 1.5t-67.5 0.5
t-67.5 -0.5t-66.5 -1.5v29q0 8 7 9q21 4 32.5 8t17 16t6.5 35.5t1 66.5v356z" />
    <glyph glyph-name="f_f_h" unicode="ffh" horiz-adv-x="1267" 
d="M664 736q42 0 76 -5t67 -15h2l64 19q12 5 12 -5q-1 -20 -1.5 -49.5t-0.5 -52.5v-183h2q32 37 70 62t92 25q33 0 60.5 -11t47.5 -31t31 -49t11 -66v-211q0 -43 1 -66.5t6 -35.5t16.5 -16t31.5 -8q7 -1 7 -9v-29q-32 1 -65 1.5t-66 0.5t-68 -0.5t-67 -1.5v29q0 8 7 9
q20 4 31 8t16.5 16t6.5 35.5t1 66.5v177q0 48 -21.5 72.5t-59.5 24.5q-27 0 -50.5 -11.5t-40.5 -31.5v-231q0 -43 1 -66.5t6 -35.5t16 -16t31 -8q7 -1 7 -9v-29q-32 1 -66 1.5t-67 0.5t-67.5 -0.5t-66.5 -1.5v29q0 8 7 9q21 4 32.5 8t17 16t6.5 35.5t1 66.5v356q0 22 -3 51
t-12.5 54.5t-28.5 43.5t-51 18q-29 0 -46 -9.5t-27 -30t-13 -51t-3 -72.5v-16h112v-62h-112v-282q0 -42 1.5 -65.5t7.5 -35.5t19 -16.5t36 -8.5q7 -1 7 -9v-29q-32 1 -70 1.5t-71 0.5t-68.5 -0.5t-67.5 -1.5v29q0 8 7 9q21 4 32.5 8t17 16t6.5 35.5t1 66.5v282h-183v-282
q0 -42 1 -65.5t7 -35.5t19 -16.5t37 -8.5q7 -1 7 -9v-29q-32 1 -70.5 1.5t-71.5 0.5t-68 -0.5t-67 -1.5v29q0 8 7 9q21 4 32.5 8t17 16t6.5 35.5t1 66.5v282h-55q-5 0 -5.5 2.5t-0.5 7.5v52h61v16q0 51 19 89t53 63t80.5 37.5t100.5 12.5q41 0 78.5 -8.5t67.5 -29.5h3
q36 26 80 37t92 11zM415 508v16q0 37 9 67q-18 42 -43.5 64t-60.5 22q-29 0 -46.5 -10t-26.5 -29.5t-12 -48t-3 -65.5v-16h183z" />
    <glyph glyph-name="fi" unicode="fi" horiz-adv-x="641" 
d="M35 446q-5 0 -5.5 2.5t-0.5 7.5v52h61v16q0 100 63 156t189 56q31 0 65 -4t62 -14t46.5 -27t18.5 -43q0 -30 -22 -48t-48 -18q-27 0 -39.5 16.5t-24 36t-28 36t-51.5 16.5q-30 0 -47.5 -10.5t-26.5 -31t-12 -51t-3 -70.5v-16h92q35 0 70.5 2t65.5 4.5t53.5 5t34.5 4.5
t11 -6q-1 -20 -1.5 -47.5t-0.5 -50.5v-256q0 -43 1 -66.5t6.5 -35.5t17 -16t32.5 -8q7 -1 7 -9v-29q-32 1 -66.5 1.5t-67.5 0.5t-68.5 -0.5t-67.5 -1.5v29q0 8 7 9q21 4 32.5 8t17 16t6.5 35.5t1 66.5v166q0 40 -1.5 63t-7 35t-16.5 15t-31 3h-127v-282q0 -42 1 -65.5
t7 -35.5t19 -16.5t37 -8.5q7 -1 7 -9v-29q-32 1 -70.5 1.5t-71.5 0.5t-68 -0.5t-67 -1.5v29q0 8 7 9q21 4 32.5 8t17 16t6.5 35.5t1 66.5v282h-55z" />
    <glyph glyph-name="f_f_i" unicode="ffi" horiz-adv-x="966" 
d="M947 0q-32 1 -67 1.5t-68 0.5t-68 -0.5t-67 -1.5v29q0 8 7 9q21 4 32.5 8t17 16t6.5 35.5t1 66.5v166q0 40 -1.5 63t-7 35t-16.5 15t-31 3h-128v-282q0 -42 1.5 -65.5t7.5 -35.5t19 -16.5t36 -8.5q7 -1 7 -9v-29q-32 1 -70 1.5t-71 0.5t-68.5 -0.5t-67.5 -1.5v29q0 8 7 9
q21 4 32.5 8t17 16t6.5 35.5t1 66.5v282h-183v-282q0 -42 1 -65.5t7 -35.5t19 -16.5t37 -8.5q7 -1 7 -9v-29q-32 1 -70.5 1.5t-71.5 0.5t-68 -0.5t-67 -1.5v29q0 8 7 9q21 4 32.5 8t17 16t6.5 35.5t1 66.5v282h-55q-5 0 -5.5 2.5t-0.5 7.5v52h61v16q0 51 19 89t53 63
t80.5 37.5t100.5 12.5q41 0 78.5 -8.5t67.5 -29.5h4q35 25 79 36.5t96 11.5q31 0 64.5 -4t62 -14t47 -27t18.5 -43q0 -30 -22 -48t-49 -18t-39.5 16.5t-23.5 36t-28 36t-51 16.5q-30 0 -48 -10.5t-27 -31t-12 -51t-3 -70.5v-16h93q35 0 70 2t65.5 4.5t54 5t34.5 4.5t11 -6
q-1 -20 -1.5 -47.5t-0.5 -50.5v-256q0 -43 1 -66.5t6.5 -35.5t17 -16t32.5 -8q7 -1 7 -9v-29zM415 508v16q0 35 9 67q-18 42 -43.5 64t-60.5 22q-29 0 -46.5 -10t-26.5 -29.5t-12 -48t-3 -65.5v-16h183z" />
    <glyph glyph-name="f_j" unicode="fj" horiz-adv-x="640" 
d="M232 164q0 -42 1.5 -65.5t8.5 -35.5t22.5 -16.5t43.5 -8.5q7 -1 7 -9v-29q-16 0 -35.5 0.5l-40.5 1t-41.5 0.5h-36.5q-33 0 -68 -0.5t-67 -1.5v29q0 8 7 9q21 4 32.5 8t17 16t6.5 35.5t1 66.5v282h-55q-5 0 -5.5 2.5t-0.5 7.5v52h61v16q0 100 63 156t189 56q31 0 65 -4
t62 -14t46.5 -27t18.5 -43q0 -30 -22 -48t-48 -18q-27 0 -39.5 16.5t-24 36t-28 36t-51.5 16.5q-30 0 -47.5 -10.5t-26.5 -31t-12 -51t-3 -70.5v-16h92q35 0 70.5 2t65.5 4.5t53.5 5t34.5 4.5t11 -6q-1 -20 -1.5 -47.5t-0.5 -50.5v-391q0 -62 -14.5 -107.5t-41.5 -75.5
t-65 -45t-85 -15q-26 0 -52 5.5t-46.5 16.5t-33 29t-12.5 43q0 14 5.5 25.5t14.5 19.5t19.5 12.5t20.5 4.5q25 0 35 -16.5t16.5 -36.5t14 -36.5t26.5 -16.5t30 11.5t17 35t7.5 60t1.5 86.5v301q0 40 -1.5 63t-7 35t-16.5 15t-31 3h-127v-282z" />
    <glyph glyph-name="f_f_j" unicode="ffj" horiz-adv-x="966" 
d="M883 29q0 -123 -56 -183t-150 -60q-26 0 -52 5.5t-46.5 16.5t-33 29t-12.5 43q0 29 19.5 45.5t39.5 16.5q25 0 35.5 -16.5t17 -36.5t14 -36.5t26.5 -16.5t30 11.5t17 35t7.5 60t1.5 86.5v301q0 40 -1.5 63t-7 35t-16.5 15t-31 3h-128v-282q0 -42 1.5 -65.5t9 -35.5
t22.5 -16.5t43 -8.5q7 -1 7 -9v-29q-16 0 -35.5 0.5l-40 1t-41 0.5h-36.5q-33 0 -68.5 -0.5t-67.5 -1.5v29q0 8 7 9q21 4 32.5 8t17 16t6.5 35.5t1 66.5v282h-183v-282q0 -42 1 -65.5t7 -35.5t19 -16.5t37 -8.5q7 -1 7 -9v-29q-32 1 -70.5 1.5t-71.5 0.5t-68 -0.5t-67 -1.5
v29q0 8 7 9q21 4 32.5 8t17 16t6.5 35.5t1 66.5v282h-55q-5 0 -5.5 2.5t-0.5 7.5v52h61v16q0 51 19 89t53 63t80.5 37.5t100.5 12.5q41 0 78.5 -8.5t67.5 -29.5h4q35 25 79 36.5t96 11.5q31 0 64.5 -4t62 -14t47 -27t18.5 -43q0 -30 -22 -48t-49 -18t-39.5 16.5t-23.5 36
t-28 36t-51 16.5q-30 0 -48 -10.5t-27 -31t-12 -51t-3 -70.5v-16h93q35 0 70 2t65.5 4.5t54 5t34.5 4.5t11 -6q-1 -20 -1.5 -47.5t-0.5 -50.5v-391zM415 508v16q0 35 9 67q-18 42 -43.5 64t-60.5 22q-29 0 -46.5 -10t-26.5 -29.5t-12 -48t-3 -65.5v-16h183z" />
    <glyph glyph-name="f_k" unicode="fk" horiz-adv-x="946" 
d="M559 287l69 73q31 34 44 55t13 35q0 16 -11 22t-35 8q-6 0 -6 9v29q29 -1 66 -1.5t67 -0.5t63 1t53 1v-29q0 -7 -7 -9q-25 -6 -41.5 -12t-33 -17.5t-36.5 -30.5t-51 -52l-21 -23l108 -185q23 -38 37.5 -60t25.5 -34.5t20.5 -18t22.5 -9.5q6 -1 6 -9v-29q-15 0 -25.5 0.5
t-20 1t-20.5 0.5h-26q-8 0 -18.5 -0.5t-21.5 -0.5t-21.5 -0.5t-16.5 -0.5q-8 0 -11.5 2t-8.5 10l-15 28l-15.5 28l-17.5 31l-80 143h-2l-35 -37v-41q0 -43 1.5 -66.5t7.5 -35.5t17 -16t29 -8q7 -1 7 -9v-29q-32 1 -65.5 1.5t-66.5 0.5t-68.5 -0.5t-67.5 -1.5v29q0 8 7 9
q21 4 32.5 8t17 16t6.5 35.5t1 66.5v356q0 22 -3 51t-12.5 54.5t-28.5 43.5t-50 18q-29 0 -46.5 -9.5t-27 -30t-12.5 -51t-3 -72.5v-16h111v-62h-111v-282q0 -42 1 -65.5t7 -35.5t19 -16.5t37 -8.5q7 -1 7 -9v-29q-32 1 -70.5 1.5t-71.5 0.5t-68 -0.5t-67 -1.5v29q0 8 7 9
q21 4 32.5 8t17 16t6.5 35.5t1 66.5v282h-55q-5 0 -5.5 2.5t-0.5 7.5v52h61v16q0 54 18 94t50.5 66.5t78 39t101.5 12.5q42 0 76.5 -5t66.5 -15h3l64 19q11 5 11 -5q-1 -20 -1.5 -49.5t-0.5 -52.5v-341h2z" />
    <glyph glyph-name="f_f_k" unicode="ffk" horiz-adv-x="1241" 
d="M883 287h2l68 73q31 34 44.5 55t13.5 35q0 16 -11.5 22t-35.5 8q-6 0 -6 9v29q29 -1 66.5 -1.5t67.5 -0.5t63 1t53 1v-29q0 -7 -7 -9q-26 -6 -42.5 -12t-33 -17.5t-36 -30.5t-50.5 -52l-21 -23l107 -185q23 -38 37.5 -60t25.5 -34.5t20.5 -18t22.5 -9.5q6 -1 6 -9v-29
q-15 0 -25.5 0.5t-20 1t-20.5 0.5h-26q-8 0 -18.5 -0.5t-21.5 -0.5t-21.5 -0.5t-16.5 -0.5q-8 0 -11.5 2t-8.5 10l-15 28l-15 28l-17 31l-80 143h-2l-35 -37v-41q0 -43 1.5 -66.5t7.5 -35.5t17 -16t29 -8q7 -1 7 -9v-29q-32 1 -66 1.5t-67 0.5t-68 -0.5t-67 -1.5v29q0 8 7 9
q21 4 32.5 8t17 16t6.5 35.5t1 66.5v356q0 22 -3 51t-12.5 54.5t-28.5 43.5t-51 18q-29 0 -46 -9.5t-27 -30t-13 -51t-3 -72.5v-16h112v-62h-112v-282q0 -42 1.5 -65.5t7.5 -35.5t19 -16.5t36 -8.5q7 -1 7 -9v-29q-32 1 -70 1.5t-71 0.5t-68.5 -0.5t-67.5 -1.5v29q0 8 7 9
q21 4 32.5 8t17 16t6.5 35.5t1 66.5v282h-183v-282q0 -42 1 -65.5t7 -35.5t19 -16.5t37 -8.5q7 -1 7 -9v-29q-32 1 -70.5 1.5t-71.5 0.5t-68 -0.5t-67 -1.5v29q0 8 7 9q21 4 32.5 8t17 16t6.5 35.5t1 66.5v282h-55q-5 0 -5.5 2.5t-0.5 7.5v52h61v16q0 51 19 89t53 63
t80.5 37.5t100.5 12.5q41 0 78.5 -8.5t67.5 -29.5h3q36 26 80 37t92 11q42 0 76 -5t67 -15h2l64 19q12 5 12 -5q-1 -20 -1.5 -49.5t-0.5 -52.5v-341zM415 508v16q0 37 9 67q-18 42 -43.5 64t-60.5 22q-29 0 -46.5 -10t-26.5 -29.5t-12 -48t-3 -65.5v-16h183z" />
    <glyph glyph-name="fl" unicode="fl" horiz-adv-x="641" 
d="M415 520q0 22 -3 51t-12.5 54.5t-28.5 43.5t-50 18q-29 0 -46.5 -9.5t-27 -30t-12.5 -51t-3 -72.5v-16h111v-62h-111v-282q0 -42 1 -65.5t7 -35.5t19 -16.5t37 -8.5q7 -1 7 -9v-29q-32 1 -70.5 1.5t-71.5 0.5t-68 -0.5t-67 -1.5v29q0 8 7 9q21 4 32.5 8t17 16t6.5 35.5
t1 66.5v282h-55q-5 0 -5.5 2.5t-0.5 7.5v52h61v16q0 54 18 94t50.5 66.5t78 39t101.5 12.5q42 0 76.5 -5t66.5 -15h3l64 19q11 5 11 -5q-1 -20 -1.5 -49.5t-0.5 -52.5v-464q0 -43 1 -66.5t6.5 -35.5t17 -16t32.5 -8q7 -1 7 -9v-29q-32 1 -66.5 1.5t-67.5 0.5t-68.5 -0.5
t-67.5 -1.5v29q0 8 7 9q21 4 32.5 8t17 16t6.5 35.5t1 66.5v356z" />
    <glyph glyph-name="f_f_l" unicode="ffl" horiz-adv-x="966" 
d="M415 508v16q0 37 9 67q-18 42 -43.5 64t-60.5 22q-29 0 -46.5 -10t-26.5 -29.5t-12 -48t-3 -65.5v-16h183zM741 520q0 22 -3 51t-12.5 54.5t-28.5 43.5t-51 18q-29 0 -46 -9.5t-27 -30t-13 -51t-3 -72.5v-16h112v-62h-112v-282q0 -42 1.5 -65.5t7.5 -35.5t19 -16.5
t36 -8.5q7 -1 7 -9v-29q-32 1 -70 1.5t-71 0.5t-68.5 -0.5t-67.5 -1.5v29q0 8 7 9q21 4 32.5 8t17 16t6.5 35.5t1 66.5v282h-183v-282q0 -42 1 -65.5t7 -35.5t19 -16.5t37 -8.5q7 -1 7 -9v-29q-32 1 -70.5 1.5t-71.5 0.5t-68 -0.5t-67 -1.5v29q0 8 7 9q21 4 32.5 8t17 16
t6.5 35.5t1 66.5v282h-55q-5 0 -5.5 2.5t-0.5 7.5v52h61v16q0 51 19 89t53 63t80.5 37.5t100.5 12.5q41 0 78.5 -8.5t67.5 -29.5h3q36 26 80 37t92 11q42 0 76 -5t67 -15h2l64 19q12 5 12 -5q-1 -20 -1.5 -49.5t-0.5 -52.5v-464q0 -43 1 -66.5t6.5 -35.5t17 -16t32.5 -8
q7 -1 7 -9v-29q-32 1 -67 1.5t-68 0.5t-68 -0.5t-67 -1.5v29q0 8 7 9q21 4 32.5 8t17 16t6.5 35.5t1 66.5v356z" />
    <glyph glyph-name="f_t" unicode="ft" horiz-adv-x="718" 
d="M232 446v-282q0 -42 1.5 -65.5t10 -35.5t26 -16.5t50.5 -8.5q7 -1 7 -9v-29q-16 0 -37.5 0.5l-44.5 1t-45.5 0.5h-38.5q-33 0 -68 -0.5t-67 -1.5v29q0 8 7 9q21 4 32.5 8t17 16t6.5 35.5t1 66.5v282h-55q-5 0 -5.5 2.5t-0.5 7.5v52h61v16q0 99 51.5 155.5t159.5 56.5
q25 0 51 -5t46 -15.5t33 -27t13 -39.5q0 -28 -20 -43.5t-44 -15.5q-23 0 -32 15t-15 33.5t-14.5 33.5t-29.5 15q-19 0 -30 -11t-17 -31.5t-8 -51t-2 -69.5v-16h114q28 0 50 7.5t41 24.5t36 44t36 66h42q5 0 8 -0.5t3 -5.5q-1 -20 -1.5 -47.5t-0.5 -50.5v-38h123v-62h-123
v-289q0 -36 11.5 -61t45.5 -25q23 0 39 10.5t30 27.5l23 -25q3 -3 4 -5.5t-2 -5.5q-32 -40 -69.5 -63.5t-93.5 -23.5q-68 0 -99 40.5t-31 103.5v316h-186z" />
    <glyph glyph-name="f_f_t" unicode="fft" horiz-adv-x="1043" 
d="M627 736q25 0 51 -5t46 -15.5t33 -27t13 -39.5q0 -28 -20.5 -43.5t-44.5 -15.5q-23 0 -32 15t-15 33.5t-14.5 33.5t-29.5 15q-19 0 -30 -11t-17 -31.5t-8 -51t-2 -69.5v-16h115q28 0 50 7.5t40.5 24.5t36 44t35.5 66h42q5 0 8 -0.5t3 -5.5q-1 -20 -1.5 -47.5t-0.5 -50.5
v-38h124v-62h-124v-289q0 -36 12 -61t45 -25q23 0 39 10.5t30 27.5l24 -25q6 -6 2 -11q-32 -40 -69.5 -63.5t-93.5 -23.5q-68 0 -99.5 40.5t-31.5 103.5v316h-186v-282q0 -42 1.5 -65.5t10 -35.5t26.5 -16.5t50 -8.5q7 -1 7 -9v-29q-16 0 -37.5 0.5l-44.5 1t-45 0.5h-38
q-33 0 -68.5 -0.5t-67.5 -1.5v29q0 8 7 9q21 4 32.5 8t17 16t6.5 35.5t1 66.5v282h-183v-282q0 -42 1 -65.5t7 -35.5t19 -16.5t37 -8.5q7 -1 7 -9v-29q-32 1 -70.5 1.5t-71.5 0.5t-68 -0.5t-67 -1.5v29q0 8 7 9q21 4 32.5 8t17 16t6.5 35.5t1 66.5v282h-55q-5 0 -5.5 2.5
t-0.5 7.5v52h61v16q0 51 19 89t53 63t80.5 37.5t100.5 12.5q40 0 76 -8.5t64 -25.5h2q53 44 142 44zM415 524q0 20 2.5 38t5.5 31q-17 40 -42.5 62t-60.5 22q-29 0 -46.5 -10t-26.5 -29.5t-12 -48t-3 -65.5v-16h183v16z" />
    <glyph glyph-name=".notdef" 
d="M10 0v700h500v-700h-500zM460 650h-400v-600h400v600zM262 572q-19 0 -29.5 -9t-18.5 -20.5t-16.5 -20.5t-22.5 -9t-25.5 11.5t-11.5 25.5q0 26 30.5 44.5t75.5 18.5q28 0 54 -8t46.5 -24t33 -40t12.5 -55q0 -28 -10.5 -52t-29 -44t-43 -36.5t-51.5 -29.5l-3 -64h-37
l-10 132q-1 7 6 9q46 17 77.5 44.5t31.5 67.5q0 25 -16 42t-43 17zM287 162q0 -20 -14 -34t-37 -14q-24 0 -37.5 14t-13.5 34q0 21 14 35.5t38 14.5t37 -14.5t13 -35.5z" />
    <glyph glyph-name=".null" horiz-adv-x="0" 
 />
    <glyph glyph-name="nonmarkingreturn" horiz-adv-x="260" 
 />
    <glyph glyph-name="space" unicode=" " horiz-adv-x="260" 
 />
    <glyph glyph-name="space" unicode="&#xa0;" horiz-adv-x="260" 
 />
    <glyph glyph-name="A" unicode="A" horiz-adv-x="735" 
d="M730 0q-35 1 -76 1.5t-78 0.5h-40t-44.5 -0.5l-44 -1t-39.5 -0.5v35q0 8 8 9q36 4 51 12t15 31q0 14 -9 46t-24 73l-10 29h-222l-10 -30q-8 -24 -14 -50.5t-6 -42.5q0 -21 6 -33.5t15 -19.5t20.5 -10t23.5 -5q7 -1 7 -9v-35q-17 0 -32 0.5l-29.5 1t-30 0.5h-33.5
q-36 0 -65 -0.5t-64 -1.5v35q0 8 8 9q19 4 31.5 10.5t24 24.5t25 51l36.5 90l141 354q11 27 23 60.5t19 59.5h107q8 -26 20 -58.5l23 -61.5l145 -358l38 -92t25 -49.5t22.5 -21.5t29.5 -9q7 -1 7 -9v-35zM328 533h-3l-87 -241h179z" />
    <glyph glyph-name="B" unicode="B" horiz-adv-x="679" 
d="M647 192q0 -40 -17.5 -75t-52.5 -61t-87 -41t-120 -15q-22 0 -46.5 0.5t-49 0.5t-48 0.5t-42.5 0.5q-36 0 -80 -0.5t-79 -1.5v35q0 8 8 9q27 5 41.5 9.5t21.5 18t8 39t1 72.5v314q0 47 -1 72.5t-8 39t-21.5 18t-41.5 9.5q-8 1 -8 9v35q35 -1 78.5 -1.5t79.5 -0.5
q15 0 34.5 0.5t40 0.5t40 0.5t34.5 0.5q46 0 91 -7t80.5 -25t57.5 -49t22 -79q0 -59 -40.5 -98t-116.5 -53v-2q108 -6 164.5 -51.5t56.5 -123.5zM477 193q0 40 -12.5 67t-36 43t-57 23t-75.5 7h-35v-139q0 -45 1.5 -72t9 -41.5t22 -18.5t41.5 -4q66 0 104 31.5t38 103.5z
M435 509q0 32 -8.5 53.5t-24 35t-36 20t-44.5 6.5q-11 0 -27 -0.5t-25 -1.5q-6 -1 -7.5 -3t-1.5 -7v-229h36q32 0 57.5 6t43.5 20.5t27.5 39t9.5 60.5z" />
    <glyph glyph-name="C" unicode="C" horiz-adv-x="670" 
d="M595 -7q-5 0 -8 0.5t-6 5.5l-16 25h-1q-21 -10 -69 -24t-120 -14q-73 0 -134.5 23t-106.5 68t-70 112t-25 155q0 74 21.5 138t63 111t102 74t137.5 27q100 0 163 -37h1l16 23q5 7 14 7h23v-47.5t0.5 -61l1 -61t0.5 -46.5h-34q-4 0 -5.5 1t-3.5 6q-17 77 -53.5 117.5
t-102.5 40.5q-54 0 -88.5 -25.5t-53.5 -67t-26 -93.5t-7 -105q0 -145 50.5 -222.5t147.5 -77.5q69 0 114 40.5t56 133.5q1 5 3 6t6 1h35q0 -17 -0.5 -49l-1 -67t-0.5 -67v-50h-23z" />
    <glyph glyph-name="D" unicode="D" horiz-adv-x="756" 
d="M719 340q0 -81 -28 -144t-77.5 -106.5t-117.5 -66.5t-149 -23q-15 0 -35.5 0.5t-42.5 0.5t-44.5 0.5t-40.5 0.5q-36 0 -80 -0.5t-79 -1.5v35q0 8 8 9q27 5 41.5 9.5t21.5 18t8 39t1 72.5v314q0 47 -1 72.5t-8 39t-21.5 18t-41.5 9.5q-8 1 -8 9v35q35 -1 78.5 -1.5
t79.5 -0.5q16 0 40.5 0.5t49.5 0.5t47.5 0.5t34.5 0.5q87 0 154.5 -23t114 -66.5t71 -107t24.5 -143.5zM550 325q0 73 -15 128.5t-43 93t-66.5 56.5t-86.5 19h-31.5t-35.5 -2q-8 -1 -9.5 -3t-1.5 -7v-411q0 -43 1.5 -70.5t10 -43t25.5 -21.5t49 -6q47 0 84.5 14.5t64 46.5
t40.5 83t14 123z" />
    <glyph glyph-name="E" unicode="E" horiz-adv-x="630" 
d="M594 0q-32 0 -76 1t-107 1h-251q-36 0 -68 -0.5t-67 -1.5v35q0 8 8 9q27 5 41.5 9.5t21.5 18t8 39t1 72.5v314q0 47 -1 72.5t-8 39t-21.5 18t-41.5 9.5q-8 1 -8 9v35q35 -1 66.5 -1.5t67.5 -0.5h199q63 0 107 1t76 1v-43t0.5 -50.5l1 -50t0.5 -41.5h-34q-8 0 -9 7
q-6 40 -17 63.5t-28 36t-41 16t-55 3.5h-87q-8 0 -9.5 -2.5t-1.5 -7.5v-229h14q28 0 46.5 3t30.5 12t19 26.5t11 46.5q1 7 9 7h35q-2 -32 -2 -63.5v-64.5t0.5 -58t1.5 -57h-35q-8 0 -9 7q-4 31 -11 49.5t-19 28t-30.5 12.5t-46.5 3h-14v-140q0 -47 1.5 -74t10 -40.5t27 -17
t52.5 -3.5h58q31 0 55 5.5t41 21t28 42.5t17 70q1 7 9 7h36q0 -17 -0.5 -44.5l-1 -57t-0.5 -57.5v-46z" />
    <glyph glyph-name="F" unicode="F" horiz-adv-x="583" 
d="M363 0q-17 0 -40 0.5l-47 1t-47 0.5h-41h-39t-43 -0.5l-42.5 -1t-38.5 -0.5v35q0 8 8 9q27 5 41.5 9.5t21.5 18t8 39t1 72.5v314q0 47 -1 72.5t-8 39t-21.5 18t-41.5 9.5q-8 1 -8 9v35q35 -1 66.5 -1.5t67.5 -0.5h211q63 0 107 1t76 1v-45.5t0.5 -56.5l1 -56t0.5 -44h-34
q-8 0 -9 7q-6 45 -17 72t-28.5 41.5t-41.5 18.5t-55 4h-98q-8 0 -9.5 -2.5t-1.5 -7.5v-249h19q30 0 49.5 3t32 12t19.5 26.5t11 46.5q1 7 9 7h35q-1 -33 -1.5 -64.5t-0.5 -63.5q0 -33 0.5 -63t1.5 -62h-35q-8 0 -9 7q-4 33 -11 53.5t-19.5 31.5t-32 14.5t-49.5 3.5h-19v-131
q0 -47 1.5 -72.5t10.5 -38.5t28 -18t54 -10q8 -1 8 -9v-35v0z" />
    <glyph glyph-name="G" unicode="G" horiz-adv-x="722" 
d="M701 265q0 -8 -8 -9q-20 -5 -30.5 -9t-15 -13.5t-5.5 -27t-1 -49.5v-31q0 -13 1 -30.5t1 -25.5q0 -10 -7 -10q-28 0 -51.5 -11.5l-51.5 -25.5t-65.5 -25.5t-94.5 -11.5q-73 0 -134 22.5t-105.5 67.5t-69.5 112t-25 156q0 72 20.5 136t62 111.5t104 75t147.5 27.5
q104 0 169 -37h1l16 23q5 7 14 7h23v-45.5t0.5 -57.5l1 -58t0.5 -45h-36q-4 0 -5 1t-3 6q-17 73 -55.5 110.5t-107.5 37.5q-57 0 -93 -26t-56 -67.5t-27 -93.5t-7 -105q0 -56 7.5 -110t27.5 -97t53.5 -69.5t86.5 -26.5q56 0 81.5 27t25.5 78v20q0 29 -1.5 45t-10 24.5
t-27 12.5t-52.5 8q-7 1 -7 9v35q35 -1 81.5 -1.5t83.5 -0.5q36 0 72.5 0.5t71.5 1.5v-35z" />
    <glyph glyph-name="H" unicode="H" horiz-adv-x="792" 
d="M767 0q-35 1 -78 1.5t-79 0.5t-80 -0.5t-79 -1.5v35q0 8 8 9q27 5 41.5 9.5t21.5 18t8 39t1 72.5v140h-270v-140q0 -47 1 -72.5t8 -39t21.5 -18t41.5 -9.5q8 -1 8 -9v-35q-35 1 -78 1.5t-79 0.5t-80 -0.5t-79 -1.5v35q0 8 8 9q27 5 41.5 9.5t21.5 18t8 39t1 72.5v314
q0 47 -1 72.5t-8 39t-21.5 18t-41.5 9.5q-8 1 -8 9v35q35 -1 78.5 -1.5t79.5 -0.5t79.5 0.5t78.5 1.5v-35q0 -8 -8 -9q-27 -5 -41.5 -9.5t-21.5 -18t-8 -39t-1 -72.5v-114h270v114q0 47 -1 72.5t-8 39t-21.5 18t-41.5 9.5q-8 1 -8 9v35q35 -1 78 -1.5t79 -0.5t80 0.5t79 1.5
v-35q0 -8 -8 -9q-27 -5 -41.5 -9.5t-21.5 -18t-8 -39t-1 -72.5v-314q0 -47 1 -72.5t8 -39t21.5 -18t41.5 -9.5q8 -1 8 -9v-35v0z" />
    <glyph glyph-name="I" unicode="I" horiz-adv-x="366" 
d="M341 0q-35 1 -78 1.5t-79 0.5t-80 -0.5t-79 -1.5v35q0 8 8 9q27 5 41.5 9.5t21.5 18t8 39t1 72.5v314q0 47 -1 72.5t-8 39t-21.5 18t-41.5 9.5q-8 1 -8 9v35q35 -1 78.5 -1.5t79.5 -0.5t79.5 0.5t78.5 1.5v-35q0 -8 -8 -9q-27 -5 -41.5 -9.5t-21.5 -18t-8 -39t-1 -72.5
v-314q0 -47 1 -72.5t8 -39t21.5 -18t41.5 -9.5q8 -1 8 -9v-35v0z" />
    <glyph glyph-name="J" unicode="J" horiz-adv-x="366" 
d="M263 41q0 -64 -17.5 -112t-49 -79.5t-75 -47.5t-96.5 -16q-35 0 -64.5 5.5t-51.5 16t-34.5 25.5t-12.5 35q0 27 19.5 46t42.5 19q22 0 34.5 -14t23 -30.5t23 -30t34.5 -13.5q23 0 36.5 12t20.5 36t9 61t2 87v456q0 47 -1 72.5t-8 39t-21.5 18t-41.5 9.5q-8 1 -8 9v35
q35 -1 78.5 -1.5t79.5 -0.5t79.5 0.5t78.5 1.5v-35q0 -8 -8 -9q-27 -5 -41.5 -9.5t-21.5 -18t-8 -39t-1 -72.5v-456v0z" />
    <glyph glyph-name="K" unicode="K" horiz-adv-x="703" 
d="M700 0q-11 0 -25.5 0.5t-30.5 1t-31 0.5h-26q-18 0 -44 -1t-41 -1q-10 0 -14 2t-10 12l-16 31l-18.5 33l-22.5 40l-106 186h-2l-52 -61v-60q0 -47 1 -72.5t8 -39t21.5 -18t41.5 -9.5q8 -1 8 -9v-35q-35 1 -78 1.5t-79 0.5t-80 -0.5t-79 -1.5v35q0 8 8 9q27 5 41.5 9.5
t21.5 18t8 39t1 72.5v314q0 47 -1 72.5t-8 39t-21.5 18t-41.5 9.5q-8 1 -8 9v35q35 -1 78.5 -1.5t79.5 -0.5t79.5 0.5t78.5 1.5v-35q0 -8 -8 -9q-27 -5 -41.5 -9.5t-21.5 -18t-8 -39t-1 -72.5v-160h2l143 175q19 23 35.5 46.5t16.5 42.5q0 17 -12.5 24t-36.5 11q-7 1 -7 9
v35q35 -1 67.5 -1.5t69.5 -0.5q36 0 62 0.5t61 1.5v-35q0 -8 -8 -9q-20 -4 -33.5 -8.5t-31.5 -19.5t-45 -44.5l-75 -83.5l-46 -53l134 -223l53.5 -87t32.5 -46t23.5 -19.5t26.5 -7.5q7 -1 7 -9v-35v0z" />
    <glyph glyph-name="L" unicode="L" horiz-adv-x="591" 
d="M575 0q-32 0 -68.5 1t-98.5 1h-250q-36 0 -67 -0.5t-66 -1.5v35q0 8 8 9q27 5 41.5 9.5t21.5 18t8 39t1 72.5v314q0 47 -1 72.5t-8 39t-21.5 18t-41.5 9.5q-8 1 -8 9v35q17 0 38 -0.5l42.5 -1t42.5 -0.5h39h41t46.5 0.5l46 1t40.5 0.5v-35q0 -8 -8 -9q-35 -5 -53.5 -9.5
t-27 -18t-10 -39t-1.5 -72.5v-303q0 -48 1.5 -75t10 -40.5t27 -16.5t52.5 -3h39q31 0 55 6.5t41 24t28 47.5t17 78q1 7 9 7h36q0 -17 -0.5 -47l-1 -63t-0.5 -63.5v-48.5z" />
    <glyph glyph-name="M" unicode="M" horiz-adv-x="901" 
d="M876 0q-35 1 -78 1.5t-79 0.5t-80 -0.5t-79 -1.5v35q0 8 8 9q27 5 41.5 9.5t21.5 18t8 39t1 72.5v364h-2l-148 -427q-11 -30 -21.5 -62t-17.5 -58h-96q-7 25 -17.5 58l-19.5 62l-139 426h-2v-263q0 -77 1.5 -122t9 -69.5t24 -33.5t47.5 -14q8 -1 8 -9v-35
q-35 1 -61.5 1.5t-62.5 0.5h-32t-27.5 -0.5l-27 -1t-31.5 -0.5v35q0 8 8 9q27 5 41.5 14t21.5 33.5t8 69.5t1 122v214q0 47 -1 72.5t-8 39t-21.5 18t-41.5 9.5q-8 1 -8 9v35q35 -1 73.5 -1.5t67.5 -0.5h35t37.5 0.5t35 1t26.5 0.5l146 -470h3l163 470q12 0 28.5 -0.5
l33.5 -1t33 -0.5h26q29 0 68.5 0.5t74.5 1.5v-35q0 -8 -8 -9q-27 -5 -41.5 -9.5t-21.5 -18t-8 -39t-1 -72.5v-314q0 -47 1 -72.5t8 -39t21.5 -18t41.5 -9.5q8 -1 8 -9v-35v0z" />
    <glyph glyph-name="N" unicode="N" horiz-adv-x="777" 
d="M557 -14l-34.5 52l-35.5 53l-304 436h-2v-244q0 -77 2 -122t12 -69.5t32 -34t62 -13.5q7 -1 7 -9v-35q-35 1 -75.5 1.5t-77.5 0.5h-32t-27.5 -0.5l-27 -1t-31.5 -0.5v35q0 8 8 9q27 5 41.5 14t21.5 33.5t8 69.5t1 122v214q0 47 -1 72.5t-8 39t-21.5 18t-41.5 9.5
q-8 1 -8 9v35q14 0 32 -0.5t35.5 -0.5t33.5 -0.5t25 -0.5q30 0 63 0.5t53 1.5l327 -473h2v190q0 77 -2 122t-12 69.5t-32 33.5t-62 14q-7 1 -7 9v35q35 -1 75.5 -1.5t77.5 -0.5h32t27.5 0.5l27 1t31.5 0.5v-35q0 -8 -8 -9q-27 -5 -41.5 -14t-21.5 -33.5t-8 -69.5t-1 -122
v-411h-115z" />
    <glyph glyph-name="O" unicode="O" horiz-adv-x="757" 
d="M549 343q0 80 -13.5 135.5t-37 90.5t-56.5 50.5t-72 15.5q-81 0 -121.5 -73t-40.5 -225q0 -80 13 -135.5t37 -90.5t57 -50.5t72 -15.5q80 0 121 73t41 225zM718 352q0 -94 -27.5 -163t-74 -114t-108 -67t-129.5 -22q-73 0 -135 24t-107.5 68t-71.5 107.5t-26 142.5
q0 94 27.5 163t74 114t108 67t129.5 22q72 0 134.5 -24t108 -68t71.5 -107.5t26 -142.5z" />
    <glyph glyph-name="P" unicode="P" horiz-adv-x="640" 
d="M610 500q0 -38 -12 -77t-45 -71t-92 -52.5t-153 -20.5h-47v-96q0 -47 1.5 -72.5t10 -39t27 -18t53.5 -9.5q8 -1 8 -9v-35q-17 0 -39.5 0.5t-47.5 1t-48.5 0.5h-41.5q-36 0 -80 -0.5t-79 -1.5v35q0 8 8 9q27 5 41.5 9.5t21.5 18t8 39t1 72.5v314q0 47 -1 72.5t-8 39
t-21.5 18t-41.5 9.5q-8 1 -8 9v35q17 0 37.5 -0.5l41.5 -1t41 -0.5h38q36 0 78.5 1t69.5 1q47 0 96.5 -7.5t90 -27.5t66.5 -55t26 -90zM448 490q0 70 -34 101t-88 32h-29t-27 -2q-6 -1 -7.5 -2.5t-1.5 -6.5v-277h40q72 0 109.5 35.5t37.5 119.5z" />
    <glyph glyph-name="Q" unicode="Q" horiz-adv-x="757" 
d="M718 352q0 -94 -27 -162.5t-73.5 -113.5t-107.5 -67.5t-129 -22.5l-50 -38v-2q25 -4 57.5 -11.5t68.5 -15t72 -13t68 -5.5q34 0 48 18.5t19 53.5h32q8 0 8 -10q-1 -35 -8 -66.5t-23 -56.5t-40.5 -39.5t-60.5 -14.5t-75 14.5t-77.5 33.5l-74 37.5t-64.5 26.5
q-25 -29 -48 -50t-55 -21q-17 0 -29.5 10.5t-12.5 28.5q0 26 31 47t76 29l62 50v2q-59 10 -107.5 37.5t-84 70.5t-55 100t-19.5 126q0 94 27.5 163t74 114t108 67t129.5 22q72 0 134.5 -24t108 -68t71.5 -107.5t26 -142.5zM549 343q0 80 -13.5 136t-37 90.5t-56.5 50
t-72 15.5q-81 0 -121.5 -72.5t-40.5 -225.5q0 -80 13 -136t37 -90.5t57 -50t72 -15.5q80 0 121 72.5t41 225.5z" />
    <glyph glyph-name="R" unicode="R" horiz-adv-x="713" 
d="M451 508q0 31 -9 53t-25 35.5t-37.5 20t-46.5 6.5h-14h-18.5t-18 -0.5t-12.5 -1.5q-6 0 -7.5 -2t-1.5 -7v-236h52q66 0 102 30t36 102zM614 520q0 -27 -9 -52.5t-31 -47.5t-58.5 -38.5t-91.5 -24.5v-2q45 -8 73.5 -25t46.5 -39.5t27.5 -49t16.5 -51.5q16 -58 29.5 -90.5
t37.5 -32.5q13 0 22.5 6t19.5 15l23 -26q5 -5 0 -11q-23 -28 -57.5 -44t-75.5 -16q-42 0 -69 15.5t-43.5 41t-26.5 59t-18 70.5q-8 36 -16.5 64t-21 46.5t-31 28.5t-46.5 10h-54v-143q0 -47 1 -72.5t8 -39t21.5 -18t41.5 -9.5q8 -1 8 -9v-35q-33 1 -77 1.5t-80 0.5t-80 -0.5
t-79 -1.5v35q0 8 8 9q27 5 41.5 9.5t21.5 18t8 39t1 72.5v314q0 47 -1 72.5t-8 39t-21.5 18t-41.5 9.5q-8 1 -8 9v35q35 -1 78.5 -1.5t79.5 -0.5q17 0 40.5 0.5t47 0.5t45 0.5t33.5 0.5q56 0 104.5 -8t84 -27t56 -49.5t20.5 -75.5z" />
    <glyph glyph-name="S" unicode="S" horiz-adv-x="554" 
d="M264 -14q-57 0 -95 10.5t-67 26.5h-1l-16 -23q-5 -7 -14 -7h-23v48t-0.5 63l-1 63t-0.5 47h35q4 0 6 -1t3 -6q6 -36 18.5 -66t32.5 -51t48.5 -33t67.5 -12q62 0 95 25.5t33 68.5q0 41 -25 66.5t-63 45t-81.5 37t-81.5 42.5t-63 62t-25 95q0 45 16 83t46 65.5t72.5 43
t94.5 15.5q35 0 71.5 -8.5t68.5 -28.5h1l16 23q5 7 14 7h23v-44t0.5 -54l1 -54.5t0.5 -43.5h-35q-4 0 -5.5 1t-3.5 6q-12 60 -48 98.5t-99 38.5q-47 0 -73.5 -22.5t-26.5 -61.5t25.5 -63.5t64 -43.5t83 -36.5t83 -43t64 -63t25.5 -95.5q0 -53 -20.5 -94t-55.5 -69
t-82.5 -42.5t-102.5 -14.5z" />
    <glyph glyph-name="T" unicode="T" horiz-adv-x="660" 
d="M488 0q-35 1 -78 1.5t-79 0.5t-80 -0.5t-79 -1.5v35q0 8 8 9q27 5 41.5 9.5t21.5 18t8 39t1 72.5v428q0 5 -1.5 7.5t-9.5 2.5h-45q-32 0 -56 -3.5t-41 -17.5t-28.5 -41.5t-17.5 -76.5q-1 -7 -9 -7h-34q0 17 0.5 44.5l1 57t0.5 57.5v46q32 0 76 -1t107 -1h274q63 0 105 1
t74 1v-46t0.5 -57.5l1 -57t0.5 -44.5h-34q-8 0 -9 7q-6 49 -17.5 76.5t-28.5 41.5t-41.5 17.5t-55.5 3.5h-45q-8 0 -9.5 -2.5t-1.5 -7.5v-428q0 -47 1 -72.5t8 -39t21.5 -18t41.5 -9.5q8 -1 8 -9v-35v0z" />
    <glyph glyph-name="U" unicode="U" horiz-adv-x="762" 
d="M662 253q0 -138 -70.5 -202.5t-199.5 -64.5q-149 0 -220.5 62.5t-71.5 194.5v254q0 47 -1 72.5t-8 39t-21.5 18t-41.5 9.5q-8 1 -8 9v35q35 -1 78 -1.5t79 -0.5t80 0.5t79 1.5v-35q0 -8 -8 -9q-27 -5 -41.5 -9.5t-21.5 -18t-8 -39t-1 -72.5v-274q0 -72 38 -116t124 -44
q81 0 122 43.5t41 126.5v164q0 79 -1.5 124t-11.5 68.5t-31.5 32t-60.5 14.5q-8 1 -8 9v35q35 -1 78 -1.5t79 -0.5h32t27 0.5l26.5 1t31.5 0.5v-35q0 -8 -8 -9q-27 -5 -41.5 -13t-21.5 -31.5t-8 -69t-1 -125.5v-144v0z" />
    <glyph glyph-name="V" unicode="V" horiz-adv-x="736" 
d="M316 -14q-8 26 -20 58.5l-23 61.5l-146 358l-38 92t-25 49.5t-22.5 22t-29.5 8.5q-7 1 -7 9v35q35 -1 75 -1.5t77 -0.5h40.5t45.5 0.5l45 1t40 0.5v-35q0 -8 -8 -9q-36 -4 -51.5 -12t-15.5 -31q0 -31 34 -123l120 -321h3l118 322q10 27 15.5 53.5t5.5 43.5q0 21 -6 33.5
t-15.5 19.5t-21 10t-23.5 5q-7 1 -7 9v35q35 -1 62 -1.5t64 -0.5q36 0 65 0.5t64 1.5v-35q0 -8 -8 -9q-20 -4 -32 -10.5t-24 -24.5t-26 -51t-36 -90l-141 -354q-11 -27 -23 -60.5t-19 -59.5h-106z" />
    <glyph glyph-name="W" unicode="W" horiz-adv-x="1018" 
d="M648 -14q-5 26 -13.5 58l-17.5 65l-101 370h-4l-120 -371l-19.5 -62t-15.5 -60h-105q-5 26 -14 60.5t-18 63.5l-105 354q-18 60 -30 93t-22.5 49.5t-22 21t-29.5 8.5q-6 1 -6 9v35q32 -1 73 -1.5t76 -0.5h39.5t45.5 0.5l44.5 1t38.5 0.5v-35q0 -8 -7 -9q-42 -4 -58.5 -12
t-16.5 -31q0 -16 8 -45.5l21 -77.5l78 -279h4l117 367l19.5 63t16.5 59h102q5 -26 15 -60.5l18 -63.5l101 -364h4l84 279q8 27 14 53.5t6 43.5q0 21 -6 33.5t-16 19.5t-23 10t-28 5q-7 1 -7 9v35q33 -1 64.5 -1.5t66.5 -0.5h31t26.5 0.5l26 1t30.5 0.5v-35q0 -7 -8 -9
q-16 -4 -26 -10.5t-20 -23.5t-22 -50.5t-31 -91.5l-120 -352l-19.5 -62t-16.5 -60h-102z" />
    <glyph glyph-name="X" unicode="X" horiz-adv-x="685" 
d="M680 0q-35 1 -73.5 1.5t-75.5 0.5h-39.5t-44 -0.5l-44 -1t-39.5 -0.5v35q0 8 8 9q16 2 24.5 5t12.5 7t4.5 9t0.5 10q0 6 -2.5 13.5t-9.5 20.5t-19.5 33l-31.5 50l-61 92h-3l-64 -113q-13 -23 -24 -46.5t-11 -40.5q0 -21 17 -28.5t37 -11.5q7 -1 7 -9v-35q-35 1 -61.5 1.5
t-59.5 0.5q-31 0 -59.5 -0.5t-63.5 -1.5v35q0 7 8 9q19 4 31 9t25.5 20t32.5 44l52 81l95 150l-77 118l-55.5 84.5t-35.5 49.5t-27 25t-29 11q-7 1 -7 9v35q35 -1 76.5 -1.5t78.5 -0.5q36 0 80 0.5t79 1.5v-35q0 -8 -8 -9q-32 -4 -40 -13t-8 -24q0 -11 11.5 -35.5
t39.5 -66.5l51 -78h3l53 92q13 23 23 45.5t10 39.5q0 21 -17 28.5t-37 11.5q-7 1 -7 9v35q35 -1 61 -1.5t58 -0.5t60 0.5t63 1.5v-35q0 -7 -8 -9q-18 -4 -30.5 -9t-26 -20t-32.5 -44l-52 -81l-80 -126l87 -132l61 -90t41 -52.5t31.5 -26t33.5 -11.5q7 -1 7 -9v-35v0z" />
    <glyph glyph-name="Y" unicode="Y" horiz-adv-x="651" 
d="M484 0q-35 1 -78 1.5t-79 0.5t-80 -0.5t-79 -1.5v35q0 8 8 9q27 5 41.5 9.5t21.5 18t8 39t1 72.5v105l-100 176l-53.5 93t-33 49.5t-24 21t-25.5 8.5q-7 1 -7 9v35q35 -1 72 -1.5t74 -0.5q36 0 74.5 0.5t73.5 1.5v-35q0 -8 -8 -9q-26 -3 -33.5 -10.5t-7.5 -20.5
q0 -8 5 -21.5t12.5 -29t17 -32.5t17.5 -33l68 -120h3l62 125q15 29 24 52.5t9 41.5q0 22 -14 33t-46 15q-7 1 -7 9v35q17 0 30.5 -0.5l26.5 -1t27.5 -0.5h32.5q36 0 64.5 0.5t63.5 1.5v-35q0 -8 -8 -9q-18 -4 -30 -9.5t-24.5 -22t-30.5 -47.5l-48 -85l-101 -184v-105
q0 -47 1 -72.5t8 -39t21.5 -18t41.5 -9.5q8 -1 8 -9v-35v0z" />
    <glyph glyph-name="Z" unicode="Z" horiz-adv-x="585" 
d="M553 0q-16 0 -30 0.5t-31 0.5t-38.5 0.5t-52.5 0.5h-254h-32t-27.5 -0.5l-27 -1t-31.5 -0.5v63q16 21 34.5 51.5l33.5 56.5l249 447v3h-119q-32 0 -56 -3.5t-41.5 -17.5t-28.5 -42t-17 -76q-1 -7 -9 -7h-34q0 17 0.5 44.5l1 57t0.5 57.5v46q32 0 74 -1t105 -1h154
q37 0 78 0.5t76 1.5v-67q-15 -21 -34.5 -51.5l-35.5 -57.5l-253 -441v-4h162q31 0 56 6t43.5 23t30.5 48.5t18 81.5q1 7 9 7h36q0 -17 -1.5 -47.5l-3 -64l-3 -64.5t-1.5 -49z" />
    <glyph glyph-name="Agrave" unicode="&#xc0;" horiz-adv-x="735" 
d="M730 0q-35 1 -76 1.5t-78 0.5h-40t-44.5 -0.5l-44 -1t-39.5 -0.5v35q0 8 8 9q36 4 51 12t15 31q0 14 -9 46t-24 73l-10 29h-222l-10 -30q-8 -24 -14 -50.5t-6 -42.5q0 -21 6 -33.5t15 -19.5t20.5 -10t23.5 -5q7 -1 7 -9v-35q-17 0 -32 0.5l-29.5 1t-30 0.5h-33.5
q-36 0 -65 -0.5t-64 -1.5v35q0 8 8 9q19 4 31.5 10.5t24 24.5t25 51l36.5 90l141 354q11 27 23 60.5t19 59.5h107q8 -26 20 -58.5l23 -61.5l145 -358l38 -92t25 -49.5t22.5 -21.5t29.5 -9q7 -1 7 -9v-35zM328 533h-3l-87 -241h179zM226 795q-12 6 -20.5 16t-8.5 23
q0 10 4.5 21t12 20t17.5 14.5t21 5.5q22 0 39 -22l105 -129q5 -5 1 -9l-18 -24z" />
    <glyph glyph-name="Aacute" unicode="&#xc1;" horiz-adv-x="735" 
d="M730 0q-35 1 -76 1.5t-78 0.5h-40t-44.5 -0.5l-44 -1t-39.5 -0.5v35q0 8 8 9q36 4 51 12t15 31q0 14 -9 46t-24 73l-10 29h-222l-10 -30q-8 -24 -14 -50.5t-6 -42.5q0 -21 6 -33.5t15 -19.5t20.5 -10t23.5 -5q7 -1 7 -9v-35q-17 0 -32 0.5l-29.5 1t-30 0.5h-33.5
q-36 0 -65 -0.5t-64 -1.5v35q0 8 8 9q19 4 31.5 10.5t24 24.5t25 51l36.5 90l141 354q11 27 23 60.5t19 59.5h107q8 -26 20 -58.5l23 -61.5l145 -358l38 -92t25 -49.5t22.5 -21.5t29.5 -9q7 -1 7 -9v-35zM328 533h-3l-87 -241h179zM344 739q-4 4 1 9l105 129q9 12 18.5 17
t20.5 5t21 -5.5t17.5 -14.5t12 -20t4.5 -21q0 -13 -8.5 -23t-20.5 -16l-153 -84z" />
    <glyph glyph-name="Acircumflex" unicode="&#xc2;" horiz-adv-x="735" 
d="M730 0q-35 1 -76 1.5t-78 0.5h-40t-44.5 -0.5l-44 -1t-39.5 -0.5v35q0 8 8 9q36 4 51 12t15 31q0 14 -9 46t-24 73l-10 29h-222l-10 -30q-8 -24 -14 -50.5t-6 -42.5q0 -21 6 -33.5t15 -19.5t20.5 -10t23.5 -5q7 -1 7 -9v-35q-17 0 -32 0.5l-29.5 1t-30 0.5h-33.5
q-36 0 -65 -0.5t-64 -1.5v35q0 8 8 9q19 4 31.5 10.5t24 24.5t25 51l36.5 90l141 354q11 27 23 60.5t19 59.5h107q8 -26 20 -58.5l23 -61.5l145 -358l38 -92t25 -49.5t22.5 -21.5t29.5 -9q7 -1 7 -9v-35zM328 533h-3l-87 -241h179zM370 803h-2l-124 -88l-20 22q-4 4 1 9
l82 120q13 17 25.5 25t36.5 8q25 0 38 -8t25 -25l83 -120q4 -5 0 -9l-19 -22z" />
    <glyph glyph-name="Atilde" unicode="&#xc3;" horiz-adv-x="735" 
d="M730 0q-35 1 -76 1.5t-78 0.5h-40t-44.5 -0.5l-44 -1t-39.5 -0.5v35q0 8 8 9q36 4 51 12t15 31q0 14 -9 46t-24 73l-10 29h-222l-10 -30q-8 -24 -14 -50.5t-6 -42.5q0 -21 6 -33.5t15 -19.5t20.5 -10t23.5 -5q7 -1 7 -9v-35q-17 0 -32 0.5l-29.5 1t-30 0.5h-33.5
q-36 0 -65 -0.5t-64 -1.5v35q0 8 8 9q19 4 31.5 10.5t24 24.5t25 51l36.5 90l141 354q11 27 23 60.5t19 59.5h107q8 -26 20 -58.5l23 -61.5l145 -358l38 -92t25 -49.5t22.5 -21.5t29.5 -9q7 -1 7 -9v-35zM328 533h-3l-87 -241h179zM435 769q-17 0 -35 3.5t-36 7.5l-35 7.5
t-30 3.5q-20 0 -30 -10.5t-15 -35.5l-33 6q-8 1 -6 9q4 22 9 42.5t14.5 36.5t25 25.5t41.5 9.5q16 0 34 -3.5l36 -7l34.5 -7t30.5 -3.5q20 0 30 10.5t16 35.5l33 -6q7 -1 5 -9q-3 -22 -8 -43t-14.5 -37t-25.5 -25.5t-41 -9.5z" />
    <glyph glyph-name="Adieresis" unicode="&#xc4;" horiz-adv-x="735" 
d="M730 0q-35 1 -76 1.5t-78 0.5h-40t-44.5 -0.5l-44 -1t-39.5 -0.5v35q0 8 8 9q36 4 51 12t15 31q0 14 -9 46t-24 73l-10 29h-222l-10 -30q-8 -24 -14 -50.5t-6 -42.5q0 -21 6 -33.5t15 -19.5t20.5 -10t23.5 -5q7 -1 7 -9v-35q-17 0 -32 0.5l-29.5 1t-30 0.5h-33.5
q-36 0 -65 -0.5t-64 -1.5v35q0 8 8 9q19 4 31.5 10.5t24 24.5t25 51l36.5 90l141 354q11 27 23 60.5t19 59.5h107q8 -26 20 -58.5l23 -61.5l145 -358l38 -92t25 -49.5t22.5 -21.5t29.5 -9q7 -1 7 -9v-35zM328 533h-3l-87 -241h179zM347 827q0 -30 -20.5 -51t-55.5 -21
t-54 21t-19 51t20 51t55 21t54.5 -21t19.5 -51zM538 827q0 -30 -20.5 -51t-55.5 -21t-54 21t-19 51t20 51t55 21t54.5 -21t19.5 -51z" />
    <glyph glyph-name="Amacron" unicode="&#x100;" horiz-adv-x="735" 
d="M730 0q-35 1 -76 1.5t-78 0.5h-40t-44.5 -0.5l-44 -1t-39.5 -0.5v35q0 8 8 9q36 4 51 12t15 31q0 14 -9 46t-24 73l-10 29h-222l-10 -30q-8 -24 -14 -50.5t-6 -42.5q0 -21 6 -33.5t15 -19.5t20.5 -10t23.5 -5q7 -1 7 -9v-35q-17 0 -32 0.5l-29.5 1t-30 0.5h-33.5
q-36 0 -65 -0.5t-64 -1.5v35q0 8 8 9q19 4 31.5 10.5t24 24.5t25 51l36.5 90l141 354q11 27 23 60.5t19 59.5h107q8 -26 20 -58.5l23 -61.5l145 -358l38 -92t25 -49.5t22.5 -21.5t29.5 -9q7 -1 7 -9v-35zM328 533h-3l-87 -241h179zM230 791v89h278v-89h-278z" />
    <glyph glyph-name="Abreve" unicode="&#x102;" horiz-adv-x="735" 
d="M730 0q-35 1 -76 1.5t-78 0.5h-40t-44.5 -0.5l-44 -1t-39.5 -0.5v35q0 8 8 9q36 4 51 12t15 31q0 14 -9 46t-24 73l-10 29h-222l-10 -30q-8 -24 -14 -50.5t-6 -42.5q0 -21 6 -33.5t15 -19.5t20.5 -10t23.5 -5q7 -1 7 -9v-35q-17 0 -32 0.5l-29.5 1t-30 0.5h-33.5
q-36 0 -65 -0.5t-64 -1.5v35q0 8 8 9q19 4 31.5 10.5t24 24.5t25 51l36.5 90l141 354q11 27 23 60.5t19 59.5h107q8 -26 20 -58.5l23 -61.5l145 -358l38 -92t25 -49.5t22.5 -21.5t29.5 -9q7 -1 7 -9v-35zM328 533h-3l-87 -241h179zM370 752q-37 0 -63 9.5t-43 26.5t-27 42
t-14 56q-1 7 6 8l34 5q7 -36 34 -49.5t73 -13.5t73 13.5t34 49.5l34 -5q7 -1 6 -8q-5 -31 -14.5 -56t-26.5 -42t-43 -26.5t-63 -9.5z" />
    <glyph glyph-name="Aring" unicode="&#xc5;" horiz-adv-x="735" 
d="M485 785q0 -31 -17 -56t-48 -37q8 -26 20 -58l23 -60l145 -358l38 -92t25 -49.5t22.5 -21.5t29.5 -9q7 -1 7 -9v-35q-35 1 -76 1.5t-78 0.5h-40t-44.5 -0.5l-44 -1t-39.5 -0.5v35q0 8 8 9q36 4 51 12t15 31q0 14 -9 46t-24 73l-10 29h-222l-10 -30q-8 -24 -14 -50.5
t-6 -42.5q0 -21 6 -33.5t15 -19.5t20.5 -10t23.5 -5q7 -1 7 -9v-35q-17 0 -32 0.5l-29.5 1t-30 0.5h-33.5q-36 0 -65 -0.5t-64 -1.5v35q0 8 8 9q19 4 31.5 10.5t24 24.5t25 51l36.5 90l141 354q11 26 23 58.5t19 58.5q-32 12 -48 37t-16 56q0 42 30.5 71.5t87.5 29.5
q59 0 88.5 -29.5t29.5 -70.5zM407 784q0 21 -8.5 41.5t-31.5 20.5q-12 0 -19.5 -5.5t-12 -14.5t-6 -20t-1.5 -21q0 -11 1.5 -22t6 -20t12.5 -15t20 -6q11 0 18.5 6t12 15t6.5 20t2 21zM238 292h179l-89 241h-3z" />
    <glyph glyph-name="Aringacute" unicode="&#x1fa;" horiz-adv-x="735" 
d="M485 785q0 -31 -17 -56t-48 -37q8 -26 20 -58l23 -60l145 -358l38 -92t25 -49.5t22.5 -21.5t29.5 -9q7 -1 7 -9v-35q-35 1 -76 1.5t-78 0.5h-40t-44.5 -0.5l-44 -1t-39.5 -0.5v35q0 8 8 9q36 4 51 12t15 31q0 14 -9 46t-24 73l-10 29h-222l-10 -30q-8 -24 -14 -50.5
t-6 -42.5q0 -21 6 -33.5t15 -19.5t20.5 -10t23.5 -5q7 -1 7 -9v-35q-17 0 -32 0.5l-29.5 1t-30 0.5h-33.5q-36 0 -65 -0.5t-64 -1.5v35q0 8 8 9q19 4 31.5 10.5t24 24.5t25 51l36.5 90l141 354q11 26 23 58.5t19 58.5q-32 12 -48 37t-16 56q0 42 30.5 71.5t87.5 29.5
q59 0 88.5 -29.5t29.5 -70.5zM407 784q0 21 -8.5 41.5t-31.5 20.5q-12 0 -19.5 -5.5t-12 -14.5t-6 -20t-1.5 -21q0 -11 1.5 -22t6 -20t12.5 -15t20 -6q11 0 18.5 6t12 15t6.5 20t2 21zM238 292h179l-89 241h-3zM347 922q-4 4 1 9l105 129q9 12 18.5 17t20.5 5t21 -5.5
t17.5 -14.5t12 -20t4.5 -21q0 -13 -8.5 -23t-20.5 -16l-153 -84z" />
    <glyph glyph-name="Aogonek" unicode="&#x104;" horiz-adv-x="735" 
d="M496 -214q-42 0 -64.5 23t-22.5 59q0 37 22.5 69.5t56.5 63.5q-22 0 -42.5 -0.5t-37.5 -0.5v35q0 8 8 9q36 4 51 12t15 31q0 14 -9 46t-24 73l-10 29h-222l-10 -30q-8 -24 -14 -50.5t-6 -42.5q0 -21 6 -33.5t15 -19.5t20.5 -10t23.5 -5q7 -1 7 -9v-35q-17 0 -32 0.5
l-29.5 1t-30 0.5h-33.5q-36 0 -65 -0.5t-64 -1.5v35q0 8 8 9q19 4 31.5 10.5t24 24.5t25 51l36.5 90l141 354q11 27 23 60.5t19 59.5h107q8 -26 20 -58.5l23 -61.5l145 -358l38 -92t25 -49.5t22.5 -21.5t29.5 -9q7 -1 7 -9v-35q-35 1 -80.5 1.5t-111.5 0.5
q-21 -24 -34.5 -47t-13.5 -46q0 -17 11 -32.5t36 -15.5q29 0 52 22l18 -26q3 -4 2.5 -6t-3.5 -6q-17 -20 -44.5 -39.5t-65.5 -19.5zM238 292h179l-89 241h-3z" />
    <glyph glyph-name="AE" unicode="&#xc6;" horiz-adv-x="1007" 
d="M971 0q-32 0 -76 1t-107 1h-249q-36 0 -68 -0.5t-67 -1.5v35q0 8 8 9q27 5 41.5 9.5t21.5 18t8 39t1 72.5v115h-182l-56 -100q-6 -11 -13.5 -23.5t-14 -26.5t-11 -27.5t-4.5 -25.5q0 -22 12.5 -34t43.5 -17q7 -1 7 -9v-35q-35 1 -65 1.5t-67 0.5q-36 0 -65 -0.5t-64 -1.5
v35q0 8 8 9q18 3 33 10.5t32.5 27t40.5 54t58 92.5l156 262q20 34 29 54.5t9 37.5q0 26 -17.5 37.5t-49.5 16.5q-8 1 -8 9v35q35 -1 66.5 -1.5t67.5 -0.5h305q63 0 107 1t76 1v-43t0.5 -50.5l1 -50t0.5 -41.5h-34q-8 0 -9 7q-6 40 -17 63.5t-28 36t-41 16t-55 3.5h-85
q-8 0 -9.5 -2.5t-1.5 -7.5v-256h12q27 0 45.5 3t30.5 12t19 26.5t11 46.5q1 7 9 7h35q-1 -32 -1.5 -63.5t-0.5 -64.5t0.5 -57.5t1.5 -56.5h-35q-8 0 -9 7q-4 31 -11 49.5t-19 28t-30.5 12.5t-45.5 3h-12v-114q0 -47 1.5 -74t10 -40.5t27 -17t52.5 -3.5h56q31 0 55 5.5t41 21
t28 42.5t17 70q1 7 9 7h36q0 -17 -0.5 -44.5l-1 -57t-0.5 -57.5v-46zM484 614h-4l-151 -268h155v268z" />
    <glyph glyph-name="AEacute" unicode="&#x1fc;" horiz-adv-x="1007" 
d="M971 0q-32 0 -76 1t-107 1h-249q-36 0 -68 -0.5t-67 -1.5v35q0 8 8 9q27 5 41.5 9.5t21.5 18t8 39t1 72.5v115h-182l-56 -100q-6 -11 -13.5 -23.5t-14 -26.5t-11 -27.5t-4.5 -25.5q0 -22 12.5 -34t43.5 -17q7 -1 7 -9v-35q-35 1 -65 1.5t-67 0.5q-36 0 -65 -0.5t-64 -1.5
v35q0 8 8 9q18 3 33 10.5t32.5 27t40.5 54t58 92.5l156 262q20 34 29 54.5t9 37.5q0 26 -17.5 37.5t-49.5 16.5q-8 1 -8 9v35q35 -1 66.5 -1.5t67.5 -0.5h305q63 0 107 1t76 1v-43t0.5 -50.5l1 -50t0.5 -41.5h-34q-8 0 -9 7q-6 40 -17 63.5t-28 36t-41 16t-55 3.5h-85
q-8 0 -9.5 -2.5t-1.5 -7.5v-256h12q27 0 45.5 3t30.5 12t19 26.5t11 46.5q1 7 9 7h35q-1 -32 -1.5 -63.5t-0.5 -64.5t0.5 -57.5t1.5 -56.5h-35q-8 0 -9 7q-4 31 -11 49.5t-19 28t-30.5 12.5t-45.5 3h-12v-114q0 -47 1.5 -74t10 -40.5t27 -17t52.5 -3.5h56q31 0 55 5.5t41 21
t28 42.5t17 70q1 7 9 7h36q0 -17 -0.5 -44.5l-1 -57t-0.5 -57.5v-46zM484 614h-4l-151 -268h155v268zM584 739q-4 4 1 9l105 129q9 12 18.5 17t20.5 5t21 -5.5t17.5 -14.5t12 -20t4.5 -21q0 -13 -8.5 -23t-20.5 -16l-153 -84z" />
    <glyph glyph-name="Cacute" unicode="&#x106;" horiz-adv-x="670" 
d="M595 -7q-5 0 -8 0.5t-6 5.5l-16 25h-1q-21 -10 -69 -24t-120 -14q-73 0 -134.5 23t-106.5 68t-70 112t-25 155q0 74 21.5 138t63 111t102 74t137.5 27q100 0 163 -37h1l16 23q5 7 14 7h23v-47.5t0.5 -61l1 -61t0.5 -46.5h-34q-4 0 -5.5 1t-3.5 6q-17 77 -53.5 117.5
t-102.5 40.5q-54 0 -88.5 -25.5t-53.5 -67t-26 -93.5t-7 -105q0 -145 50.5 -222.5t147.5 -77.5q69 0 114 40.5t56 133.5q1 5 3 6t6 1h35q0 -17 -0.5 -49l-1 -67t-0.5 -67v-50h-23zM330 739q-4 4 1 9l105 129q9 12 18.5 17t20.5 5t21 -5.5t17.5 -14.5t12 -20t4.5 -21
q0 -13 -8.5 -23t-20.5 -16l-153 -84z" />
    <glyph glyph-name="Ccircumflex" unicode="&#x108;" horiz-adv-x="670" 
d="M595 -7q-5 0 -8 0.5t-6 5.5l-16 25h-1q-21 -10 -69 -24t-120 -14q-73 0 -134.5 23t-106.5 68t-70 112t-25 155q0 74 21.5 138t63 111t102 74t137.5 27q100 0 163 -37h1l16 23q5 7 14 7h23v-47.5t0.5 -61l1 -61t0.5 -46.5h-34q-4 0 -5.5 1t-3.5 6q-17 77 -53.5 117.5
t-102.5 40.5q-54 0 -88.5 -25.5t-53.5 -67t-26 -93.5t-7 -105q0 -145 50.5 -222.5t147.5 -77.5q69 0 114 40.5t56 133.5q1 5 3 6t6 1h35q0 -17 -0.5 -49l-1 -67t-0.5 -67v-50h-23zM373 803h-2l-124 -88l-20 22q-4 4 1 9l82 120q13 17 25.5 25t36.5 8q25 0 38 -8t25 -25
l83 -120q4 -5 0 -9l-19 -22z" />
    <glyph glyph-name="Ccaron" unicode="&#x10c;" horiz-adv-x="670" 
d="M595 -7q-5 0 -8 0.5t-6 5.5l-16 25h-1q-21 -10 -69 -24t-120 -14q-73 0 -134.5 23t-106.5 68t-70 112t-25 155q0 74 21.5 138t63 111t102 74t137.5 27q100 0 163 -37h1l16 23q5 7 14 7h23v-47.5t0.5 -61l1 -61t0.5 -46.5h-34q-4 0 -5.5 1t-3.5 6q-17 77 -53.5 117.5
t-102.5 40.5q-54 0 -88.5 -25.5t-53.5 -67t-26 -93.5t-7 -105q0 -145 50.5 -222.5t147.5 -77.5q69 0 114 40.5t56 133.5q1 5 3 6t6 1h35q0 -17 -0.5 -49l-1 -67t-0.5 -67v-50h-23zM367 715q-24 0 -37 8t-25 25l-82 120q-5 5 -1 9l20 22l124 -88h2l126 88l19 -22q4 -5 0 -9
l-83 -120q-14 -17 -26 -25t-37 -8z" />
    <glyph glyph-name="Cdotaccent" unicode="&#x10a;" horiz-adv-x="670" 
d="M595 -7q-5 0 -8 0.5t-6 5.5l-16 25h-1q-21 -10 -69 -24t-120 -14q-73 0 -134.5 23t-106.5 68t-70 112t-25 155q0 74 21.5 138t63 111t102 74t137.5 27q100 0 163 -37h1l16 23q5 7 14 7h23v-47.5t0.5 -61l1 -61t0.5 -46.5h-34q-4 0 -5.5 1t-3.5 6q-17 77 -53.5 117.5
t-102.5 40.5q-54 0 -88.5 -25.5t-53.5 -67t-26 -93.5t-7 -105q0 -145 50.5 -222.5t147.5 -77.5q69 0 114 40.5t56 133.5q1 5 3 6t6 1h35q0 -17 -0.5 -49l-1 -67t-0.5 -67v-50h-23zM460 824q0 -30 -23.5 -51.5t-66.5 -21.5q-45 0 -66.5 21.5t-21.5 51.5q0 32 23.5 53.5
t65.5 21.5q44 0 66.5 -21.5t22.5 -53.5z" />
    <glyph glyph-name="Ccedilla" unicode="&#xc7;" horiz-adv-x="670" 
d="M595 -7q-5 0 -8 0.5t-6 5.5l-16 25h-1q-21 -10 -67.5 -23.5t-120.5 -14.5l-11 -27q45 -9 76.5 -29t31.5 -61q0 -38 -32.5 -60.5t-86.5 -22.5q-18 0 -35.5 3t-31 9t-22 14.5t-8.5 19.5q0 16 9.5 27t24.5 11q11 0 17.5 -7t12.5 -15t14 -15t22 -7q16 0 24 8.5t8 20.5
q0 20 -24 30.5t-65 18.5l28 85q-64 7 -117 33t-91.5 70.5t-59.5 107.5t-21 144q0 74 21.5 138t63 111t102 74t137.5 27q100 0 163 -37h1l16 23q5 7 14 7h23v-47.5t0.5 -61l1 -61t0.5 -46.5h-34q-4 0 -5.5 1t-3.5 6q-17 77 -53.5 117.5t-102.5 40.5q-54 0 -88.5 -25.5
t-53.5 -67t-26 -93.5t-7 -105q0 -145 50.5 -222.5t147.5 -77.5q69 0 114 40.5t56 133.5q1 5 3 6t6 1h35q0 -17 -0.5 -49l-1 -67t-0.5 -67v-50h-23z" />
    <glyph glyph-name="Dcaron" unicode="&#x10e;" horiz-adv-x="756" 
d="M719 340q0 -81 -28 -144t-77.5 -106.5t-117.5 -66.5t-149 -23q-15 0 -35.5 0.5t-42.5 0.5t-44.5 0.5t-40.5 0.5q-36 0 -80 -0.5t-79 -1.5v35q0 8 8 9q27 5 41.5 9.5t21.5 18t8 39t1 72.5v314q0 47 -1 72.5t-8 39t-21.5 18t-41.5 9.5q-8 1 -8 9v35q35 -1 78.5 -1.5
t79.5 -0.5q16 0 40.5 0.5t49.5 0.5t47.5 0.5t34.5 0.5q87 0 154.5 -23t114 -66.5t71 -107t24.5 -143.5zM550 325q0 73 -15 128.5t-43 93t-66.5 56.5t-86.5 19h-31.5t-35.5 -2q-8 -1 -9.5 -3t-1.5 -7v-411q0 -43 1.5 -70.5t10 -43t25.5 -21.5t49 -6q47 0 84.5 14.5t64 46.5
t40.5 83t14 123zM344 715q-24 0 -37 8t-25 25l-82 120q-5 5 -1 9l20 22l124 -88h2l126 88l19 -22q4 -5 0 -9l-83 -120q-14 -17 -26 -25t-37 -8z" />
    <glyph glyph-name="Dcroat" unicode="&#x110;" horiz-adv-x="756" 
d="M719 340q0 -81 -28 -144t-77.5 -106.5t-117.5 -66.5t-149 -23q-15 0 -35.5 0.5t-42.5 0.5t-44.5 0.5t-40.5 0.5q-36 0 -80 -0.5t-79 -1.5v35q0 8 8 9q27 5 41.5 9.5t21.5 18t8 39t1 72.5v144h-80v57h80v113q0 47 -1 72.5t-8 39t-21.5 18t-41.5 9.5q-8 1 -8 9v35
q35 -1 78.5 -1.5t79.5 -0.5q16 0 40.5 0.5t49.5 0.5t47.5 0.5t34.5 0.5q87 0 154.5 -23t114 -66.5t71 -107t24.5 -143.5zM550 325q0 73 -15 128.5t-43 93t-66.5 56.5t-86.5 19h-31.5t-35.5 -2q-8 -1 -9.5 -3t-1.5 -7v-226h137v-57h-137v-128q0 -43 1.5 -70.5t10 -43
t25.5 -21.5t49 -6q47 0 84.5 14.5t64 46.5t40.5 83t14 123z" />
    <glyph glyph-name="Egrave" unicode="&#xc8;" horiz-adv-x="630" 
d="M594 0q-32 0 -76 1t-107 1h-251q-36 0 -68 -0.5t-67 -1.5v35q0 8 8 9q27 5 41.5 9.5t21.5 18t8 39t1 72.5v314q0 47 -1 72.5t-8 39t-21.5 18t-41.5 9.5q-8 1 -8 9v35q35 -1 66.5 -1.5t67.5 -0.5h199q63 0 107 1t76 1v-43t0.5 -50.5l1 -50t0.5 -41.5h-34q-8 0 -9 7
q-6 40 -17 63.5t-28 36t-41 16t-55 3.5h-87q-8 0 -9.5 -2.5t-1.5 -7.5v-229h14q28 0 46.5 3t30.5 12t19 26.5t11 46.5q1 7 9 7h35q-2 -32 -2 -63.5v-64.5t0.5 -58t1.5 -57h-35q-8 0 -9 7q-4 31 -11 49.5t-19 28t-30.5 12.5t-46.5 3h-14v-140q0 -47 1.5 -74t10 -40.5t27 -17
t52.5 -3.5h58q31 0 55 5.5t41 21t28 42.5t17 70q1 7 9 7h36q0 -17 -0.5 -44.5l-1 -57t-0.5 -57.5v-46zM170 799q-12 6 -20.5 16t-8.5 23q0 10 4.5 21t12 20t17.5 14.5t21 5.5q22 0 39 -22l105 -129q5 -5 1 -9l-18 -24z" />
    <glyph glyph-name="Eacute" unicode="&#xc9;" horiz-adv-x="630" 
d="M594 0q-32 0 -76 1t-107 1h-251q-36 0 -68 -0.5t-67 -1.5v35q0 8 8 9q27 5 41.5 9.5t21.5 18t8 39t1 72.5v314q0 47 -1 72.5t-8 39t-21.5 18t-41.5 9.5q-8 1 -8 9v35q35 -1 66.5 -1.5t67.5 -0.5h199q63 0 107 1t76 1v-43t0.5 -50.5l1 -50t0.5 -41.5h-34q-8 0 -9 7
q-6 40 -17 63.5t-28 36t-41 16t-55 3.5h-87q-8 0 -9.5 -2.5t-1.5 -7.5v-229h14q28 0 46.5 3t30.5 12t19 26.5t11 46.5q1 7 9 7h35q-2 -32 -2 -63.5v-64.5t0.5 -58t1.5 -57h-35q-8 0 -9 7q-4 31 -11 49.5t-19 28t-30.5 12.5t-46.5 3h-14v-140q0 -47 1.5 -74t10 -40.5t27 -17
t52.5 -3.5h58q31 0 55 5.5t41 21t28 42.5t17 70q1 7 9 7h36q0 -17 -0.5 -44.5l-1 -57t-0.5 -57.5v-46zM277 739q-4 4 1 9l105 129q9 12 18.5 17t20.5 5t21 -5.5t17.5 -14.5t12 -20t4.5 -21q0 -13 -8.5 -23t-20.5 -16l-153 -84z" />
    <glyph glyph-name="Ecircumflex" unicode="&#xca;" horiz-adv-x="630" 
d="M594 0q-32 0 -76 1t-107 1h-251q-36 0 -68 -0.5t-67 -1.5v35q0 8 8 9q27 5 41.5 9.5t21.5 18t8 39t1 72.5v314q0 47 -1 72.5t-8 39t-21.5 18t-41.5 9.5q-8 1 -8 9v35q35 -1 66.5 -1.5t67.5 -0.5h199q63 0 107 1t76 1v-43t0.5 -50.5l1 -50t0.5 -41.5h-34q-8 0 -9 7
q-6 40 -17 63.5t-28 36t-41 16t-55 3.5h-87q-8 0 -9.5 -2.5t-1.5 -7.5v-229h14q28 0 46.5 3t30.5 12t19 26.5t11 46.5q1 7 9 7h35q-2 -32 -2 -63.5v-64.5t0.5 -58t1.5 -57h-35q-8 0 -9 7q-4 31 -11 49.5t-19 28t-30.5 12.5t-46.5 3h-14v-140q0 -47 1.5 -74t10 -40.5t27 -17
t52.5 -3.5h58q31 0 55 5.5t41 21t28 42.5t17 70q1 7 9 7h36q0 -17 -0.5 -44.5l-1 -57t-0.5 -57.5v-46zM322 803h-2l-124 -88l-20 22q-4 4 1 9l82 120q13 17 25.5 25t36.5 8q25 0 38 -8t25 -25l83 -120q4 -5 0 -9l-19 -22z" />
    <glyph glyph-name="Ecaron" unicode="&#x11a;" horiz-adv-x="630" 
d="M594 0q-32 0 -76 1t-107 1h-251q-36 0 -68 -0.5t-67 -1.5v35q0 8 8 9q27 5 41.5 9.5t21.5 18t8 39t1 72.5v314q0 47 -1 72.5t-8 39t-21.5 18t-41.5 9.5q-8 1 -8 9v35q35 -1 66.5 -1.5t67.5 -0.5h199q63 0 107 1t76 1v-43t0.5 -50.5l1 -50t0.5 -41.5h-34q-8 0 -9 7
q-6 40 -17 63.5t-28 36t-41 16t-55 3.5h-87q-8 0 -9.5 -2.5t-1.5 -7.5v-229h14q28 0 46.5 3t30.5 12t19 26.5t11 46.5q1 7 9 7h35q-2 -32 -2 -63.5v-64.5t0.5 -58t1.5 -57h-35q-8 0 -9 7q-4 31 -11 49.5t-19 28t-30.5 12.5t-46.5 3h-14v-140q0 -47 1.5 -74t10 -40.5t27 -17
t52.5 -3.5h58q31 0 55 5.5t41 21t28 42.5t17 70q1 7 9 7h36q0 -17 -0.5 -44.5l-1 -57t-0.5 -57.5v-46zM311 715q-24 0 -37 8t-25 25l-82 120q-5 5 -1 9l20 22l124 -88h2l126 88l19 -22q4 -5 0 -9l-83 -120q-14 -17 -26 -25t-37 -8z" />
    <glyph glyph-name="Edieresis" unicode="&#xcb;" horiz-adv-x="630" 
d="M594 0q-32 0 -76 1t-107 1h-251q-36 0 -68 -0.5t-67 -1.5v35q0 8 8 9q27 5 41.5 9.5t21.5 18t8 39t1 72.5v314q0 47 -1 72.5t-8 39t-21.5 18t-41.5 9.5q-8 1 -8 9v35q35 -1 66.5 -1.5t67.5 -0.5h199q63 0 107 1t76 1v-43t0.5 -50.5l1 -50t0.5 -41.5h-34q-8 0 -9 7
q-6 40 -17 63.5t-28 36t-41 16t-55 3.5h-87q-8 0 -9.5 -2.5t-1.5 -7.5v-229h14q28 0 46.5 3t30.5 12t19 26.5t11 46.5q1 7 9 7h35q-2 -32 -2 -63.5v-64.5t0.5 -58t1.5 -57h-35q-8 0 -9 7q-4 31 -11 49.5t-19 28t-30.5 12.5t-46.5 3h-14v-140q0 -47 1.5 -74t10 -40.5t27 -17
t52.5 -3.5h58q31 0 55 5.5t41 21t28 42.5t17 70q1 7 9 7h36q0 -17 -0.5 -44.5l-1 -57t-0.5 -57.5v-46zM281 827q0 -30 -20.5 -51t-55.5 -21t-54 21t-19 51t20 51t55 21t54.5 -21t19.5 -51zM472 827q0 -30 -20.5 -51t-55.5 -21t-54 21t-19 51t20 51t55 21t54.5 -21t19.5 -51z
" />
    <glyph glyph-name="Emacron" unicode="&#x112;" horiz-adv-x="630" 
d="M594 0q-32 0 -76 1t-107 1h-251q-36 0 -68 -0.5t-67 -1.5v35q0 8 8 9q27 5 41.5 9.5t21.5 18t8 39t1 72.5v314q0 47 -1 72.5t-8 39t-21.5 18t-41.5 9.5q-8 1 -8 9v35q35 -1 66.5 -1.5t67.5 -0.5h199q63 0 107 1t76 1v-43t0.5 -50.5l1 -50t0.5 -41.5h-34q-8 0 -9 7
q-6 40 -17 63.5t-28 36t-41 16t-55 3.5h-87q-8 0 -9.5 -2.5t-1.5 -7.5v-229h14q28 0 46.5 3t30.5 12t19 26.5t11 46.5q1 7 9 7h35q-2 -32 -2 -63.5v-64.5t0.5 -58t1.5 -57h-35q-8 0 -9 7q-4 31 -11 49.5t-19 28t-30.5 12.5t-46.5 3h-14v-140q0 -47 1.5 -74t10 -40.5t27 -17
t52.5 -3.5h58q31 0 55 5.5t41 21t28 42.5t17 70q1 7 9 7h36q0 -17 -0.5 -44.5l-1 -57t-0.5 -57.5v-46zM163 791v89h278v-89h-278z" />
    <glyph glyph-name="Ebreve" unicode="&#x114;" horiz-adv-x="630" 
d="M594 0q-32 0 -76 1t-107 1h-251q-36 0 -68 -0.5t-67 -1.5v35q0 8 8 9q27 5 41.5 9.5t21.5 18t8 39t1 72.5v314q0 47 -1 72.5t-8 39t-21.5 18t-41.5 9.5q-8 1 -8 9v35q35 -1 66.5 -1.5t67.5 -0.5h199q63 0 107 1t76 1v-43t0.5 -50.5l1 -50t0.5 -41.5h-34q-8 0 -9 7
q-6 40 -17 63.5t-28 36t-41 16t-55 3.5h-87q-8 0 -9.5 -2.5t-1.5 -7.5v-229h14q28 0 46.5 3t30.5 12t19 26.5t11 46.5q1 7 9 7h35q-2 -32 -2 -63.5v-64.5t0.5 -58t1.5 -57h-35q-8 0 -9 7q-4 31 -11 49.5t-19 28t-30.5 12.5t-46.5 3h-14v-140q0 -47 1.5 -74t10 -40.5t27 -17
t52.5 -3.5h58q31 0 55 5.5t41 21t28 42.5t17 70q1 7 9 7h36q0 -17 -0.5 -44.5l-1 -57t-0.5 -57.5v-46zM300 752q-37 0 -63 9.5t-43 26.5t-27 42t-14 56q-1 7 6 8l34 5q7 -36 34 -49.5t73 -13.5t73 13.5t34 49.5l34 -5q7 -1 6 -8q-5 -31 -14.5 -56t-26.5 -42t-43 -26.5
t-63 -9.5z" />
    <glyph glyph-name="Edotaccent" unicode="&#x116;" horiz-adv-x="630" 
d="M594 0q-32 0 -76 1t-107 1h-251q-36 0 -68 -0.5t-67 -1.5v35q0 8 8 9q27 5 41.5 9.5t21.5 18t8 39t1 72.5v314q0 47 -1 72.5t-8 39t-21.5 18t-41.5 9.5q-8 1 -8 9v35q35 -1 66.5 -1.5t67.5 -0.5h199q63 0 107 1t76 1v-43t0.5 -50.5l1 -50t0.5 -41.5h-34q-8 0 -9 7
q-6 40 -17 63.5t-28 36t-41 16t-55 3.5h-87q-8 0 -9.5 -2.5t-1.5 -7.5v-229h14q28 0 46.5 3t30.5 12t19 26.5t11 46.5q1 7 9 7h35q-2 -32 -2 -63.5v-64.5t0.5 -58t1.5 -57h-35q-8 0 -9 7q-4 31 -11 49.5t-19 28t-30.5 12.5t-46.5 3h-14v-140q0 -47 1.5 -74t10 -40.5t27 -17
t52.5 -3.5h58q31 0 55 5.5t41 21t28 42.5t17 70q1 7 9 7h36q0 -17 -0.5 -44.5l-1 -57t-0.5 -57.5v-46zM391 824q0 -30 -23.5 -51.5t-66.5 -21.5q-45 0 -66.5 21.5t-21.5 51.5q0 32 23.5 53.5t65.5 21.5q44 0 66.5 -21.5t22.5 -53.5z" />
    <glyph glyph-name="Eogonek" unicode="&#x118;" horiz-adv-x="630" 
d="M491 -214q-42 0 -64.5 23t-22.5 59q0 38 22.5 70t56.5 63q-17 1 -35 1h-37h-251q-36 0 -68 -0.5t-67 -1.5v35q0 8 8 9q27 5 41.5 9.5t21.5 18t8 39t1 72.5v314q0 47 -1 72.5t-8 39t-21.5 18t-41.5 9.5q-8 1 -8 9v35q35 -1 66.5 -1.5t67.5 -0.5h199q63 0 107 1t76 1v-43
t0.5 -50.5l1 -50t0.5 -41.5h-34q-8 0 -9 7q-6 40 -17 63.5t-28 36t-41 16t-55 3.5h-87q-8 0 -9.5 -2.5t-1.5 -7.5v-229h14q28 0 46.5 3t30.5 12t19 26.5t11 46.5q1 7 9 7h35q-2 -32 -2 -63.5v-64.5t0.5 -58t1.5 -57h-35q-8 0 -9 7q-4 31 -11 49.5t-19 28t-30.5 12.5t-46.5 3
h-14v-140q0 -47 1.5 -74t10 -40.5t27 -17t52.5 -3.5h58q31 0 55 5.5t41 21t28 42.5t17 70q1 7 9 7h36q0 -17 -0.5 -44.5l-1 -57t-0.5 -57.5v-46h-62q-20 -23 -33.5 -45.5t-13.5 -45.5q0 -17 11 -32.5t36 -15.5q29 0 52 22l18 -26q3 -4 2.5 -6t-3.5 -6q-17 -20 -44.5 -39.5
t-65.5 -19.5z" />
    <glyph glyph-name="fi.cap" unicode="&#xe09f;" horiz-adv-x="949" 
d="M363 0q-17 0 -40 0.5l-47 1t-47 0.5h-41h-39t-43 -0.5l-42.5 -1t-38.5 -0.5v35q0 8 8 9q27 5 41.5 9.5t21.5 18t8 39t1 72.5v314q0 47 -1 72.5t-8 39t-21.5 18t-41.5 9.5q-8 1 -8 9v35q35 -1 66.5 -1.5t67.5 -0.5h211q63 0 107 1t76 1v-45.5t0.5 -56.5l1 -56t0.5 -44h-34
q-8 0 -9 7q-6 45 -17 72t-28.5 41.5t-41.5 18.5t-55 4h-98q-8 0 -9.5 -2.5t-1.5 -7.5v-249h19q30 0 49.5 3t32 12t19.5 26.5t11 46.5q1 7 9 7h35q-1 -33 -1.5 -64.5t-0.5 -63.5q0 -33 0.5 -63t1.5 -62h-35q-8 0 -9 7q-4 33 -11 53.5t-19.5 31.5t-32 14.5t-49.5 3.5h-19v-131
q0 -47 1.5 -72.5t10.5 -38.5t28 -18t54 -10q8 -1 8 -9v-35v0zM924 0q-35 1 -78 1.5t-79 0.5t-80 -0.5t-79 -1.5v35q0 8 8 9q27 5 41.5 9.5t21.5 18t8 39t1 72.5v314q0 47 -1 72.5t-8 39t-21.5 18t-41.5 9.5q-8 1 -8 9v35q35 -1 78.5 -1.5t79.5 -0.5t79.5 0.5t78.5 1.5v-35
q0 -8 -8 -9q-27 -5 -41.5 -9.5t-21.5 -18t-8 -39t-1 -72.5v-314q0 -47 1 -72.5t8 -39t21.5 -18t41.5 -9.5q8 -1 8 -9v-35v0z" />
    <glyph glyph-name="fl.cap" unicode="&#xe0a0;" horiz-adv-x="1174" 
d="M363 0q-17 0 -40 0.5l-47 1t-47 0.5h-41h-39t-43 -0.5l-42.5 -1t-38.5 -0.5v35q0 8 8 9q27 5 41.5 9.5t21.5 18t8 39t1 72.5v314q0 47 -1 72.5t-8 39t-21.5 18t-41.5 9.5q-8 1 -8 9v35q35 -1 66.5 -1.5t67.5 -0.5h211q63 0 107 1t76 1v-45.5t0.5 -56.5l1 -56t0.5 -44h-34
q-8 0 -9 7q-6 45 -17 72t-28.5 41.5t-41.5 18.5t-55 4h-98q-8 0 -9.5 -2.5t-1.5 -7.5v-249h19q30 0 49.5 3t32 12t19.5 26.5t11 46.5q1 7 9 7h35q-1 -33 -1.5 -64.5t-0.5 -63.5q0 -33 0.5 -63t1.5 -62h-35q-8 0 -9 7q-4 33 -11 53.5t-19.5 31.5t-32 14.5t-49.5 3.5h-19v-131
q0 -47 1.5 -72.5t10.5 -38.5t28 -18t54 -10q8 -1 8 -9v-35v0zM1158 0q-32 0 -68.5 1t-98.5 1h-250q-36 0 -67 -0.5t-66 -1.5v35q0 8 8 9q27 5 41.5 9.5t21.5 18t8 39t1 72.5v314q0 47 -1 72.5t-8 39t-21.5 18t-41.5 9.5q-8 1 -8 9v35q17 0 38 -0.5l42.5 -1t42.5 -0.5h39h41
t46.5 0.5l46 1t40.5 0.5v-35q0 -8 -8 -9q-35 -5 -53.5 -9.5t-27 -18t-10 -39t-1.5 -72.5v-303q0 -48 1.5 -75t10 -40.5t27 -16.5t52.5 -3h39q31 0 55 6.5t41 24t28 47.5t17 78q1 7 9 7h36q0 -17 -0.5 -47l-1 -63t-0.5 -63.5v-48.5z" />
    <glyph glyph-name="Gcircumflex" unicode="&#x11c;" horiz-adv-x="722" 
d="M701 265q0 -8 -8 -9q-20 -5 -30.5 -9t-15 -13.5t-5.5 -27t-1 -49.5v-31q0 -13 1 -30.5t1 -25.5q0 -10 -7 -10q-28 0 -51.5 -11.5l-51.5 -25.5t-65.5 -25.5t-94.5 -11.5q-73 0 -134 22.5t-105.5 67.5t-69.5 112t-25 156q0 72 20.5 136t62 111.5t104 75t147.5 27.5
q104 0 169 -37h1l16 23q5 7 14 7h23v-45.5t0.5 -57.5l1 -58t0.5 -45h-36q-4 0 -5 1t-3 6q-17 73 -55.5 110.5t-107.5 37.5q-57 0 -93 -26t-56 -67.5t-27 -93.5t-7 -105q0 -56 7.5 -110t27.5 -97t53.5 -69.5t86.5 -26.5q56 0 81.5 27t25.5 78v20q0 29 -1.5 45t-10 24.5
t-27 12.5t-52.5 8q-7 1 -7 9v35q35 -1 81.5 -1.5t83.5 -0.5q36 0 72.5 0.5t71.5 1.5v-35zM366 803h-2l-124 -88l-20 22q-4 4 1 9l82 120q13 17 25.5 25t36.5 8q25 0 38 -8t25 -25l83 -120q4 -5 0 -9l-19 -22z" />
    <glyph glyph-name="Gbreve" unicode="&#x11e;" horiz-adv-x="722" 
d="M701 265q0 -8 -8 -9q-20 -5 -30.5 -9t-15 -13.5t-5.5 -27t-1 -49.5v-31q0 -13 1 -30.5t1 -25.5q0 -10 -7 -10q-28 0 -51.5 -11.5l-51.5 -25.5t-65.5 -25.5t-94.5 -11.5q-73 0 -134 22.5t-105.5 67.5t-69.5 112t-25 156q0 72 20.5 136t62 111.5t104 75t147.5 27.5
q104 0 169 -37h1l16 23q5 7 14 7h23v-45.5t0.5 -57.5l1 -58t0.5 -45h-36q-4 0 -5 1t-3 6q-17 73 -55.5 110.5t-107.5 37.5q-57 0 -93 -26t-56 -67.5t-27 -93.5t-7 -105q0 -56 7.5 -110t27.5 -97t53.5 -69.5t86.5 -26.5q56 0 81.5 27t25.5 78v20q0 29 -1.5 45t-10 24.5
t-27 12.5t-52.5 8q-7 1 -7 9v35q35 -1 81.5 -1.5t83.5 -0.5q36 0 72.5 0.5t71.5 1.5v-35zM365 752q-37 0 -63 9.5t-43 26.5t-27 42t-14 56q-1 7 6 8l34 5q7 -36 34 -49.5t73 -13.5t73 13.5t34 49.5l34 -5q7 -1 6 -8q-5 -31 -14.5 -56t-26.5 -42t-43 -26.5t-63 -9.5z" />
    <glyph glyph-name="Gdotaccent" unicode="&#x120;" horiz-adv-x="722" 
d="M701 265q0 -8 -8 -9q-20 -5 -30.5 -9t-15 -13.5t-5.5 -27t-1 -49.5v-31q0 -13 1 -30.5t1 -25.5q0 -10 -7 -10q-28 0 -51.5 -11.5l-51.5 -25.5t-65.5 -25.5t-94.5 -11.5q-73 0 -134 22.5t-105.5 67.5t-69.5 112t-25 156q0 72 20.5 136t62 111.5t104 75t147.5 27.5
q104 0 169 -37h1l16 23q5 7 14 7h23v-45.5t0.5 -57.5l1 -58t0.5 -45h-36q-4 0 -5 1t-3 6q-17 73 -55.5 110.5t-107.5 37.5q-57 0 -93 -26t-56 -67.5t-27 -93.5t-7 -105q0 -56 7.5 -110t27.5 -97t53.5 -69.5t86.5 -26.5q56 0 81.5 27t25.5 78v20q0 29 -1.5 45t-10 24.5
t-27 12.5t-52.5 8q-7 1 -7 9v35q35 -1 81.5 -1.5t83.5 -0.5q36 0 72.5 0.5t71.5 1.5v-35zM460 824q0 -30 -23.5 -51.5t-66.5 -21.5q-45 0 -66.5 21.5t-21.5 51.5q0 32 23.5 53.5t65.5 21.5q44 0 66.5 -21.5t22.5 -53.5z" />
    <glyph glyph-name="Gcommaaccent" unicode="&#x122;" horiz-adv-x="722" 
d="M701 265q0 -8 -8 -9q-20 -5 -30.5 -9t-15 -13.5t-5.5 -27t-1 -49.5v-31q0 -13 1 -30.5t1 -25.5q0 -10 -7 -10q-28 0 -51.5 -11.5l-51.5 -25.5t-65.5 -25.5t-94.5 -11.5q-73 0 -134 22.5t-105.5 67.5t-69.5 112t-25 156q0 72 20.5 136t62 111.5t104 75t147.5 27.5
q104 0 169 -37h1l16 23q5 7 14 7h23v-45.5t0.5 -57.5l1 -58t0.5 -45h-36q-4 0 -5 1t-3 6q-17 73 -55.5 110.5t-107.5 37.5q-57 0 -93 -26t-56 -67.5t-27 -93.5t-7 -105q0 -56 7.5 -110t27.5 -97t53.5 -69.5t86.5 -26.5q56 0 81.5 27t25.5 78v20q0 29 -1.5 45t-10 24.5
t-27 12.5t-52.5 8q-7 1 -7 9v35q35 -1 81.5 -1.5t83.5 -0.5q36 0 72.5 0.5t71.5 1.5v-35zM456 -110q0 -51 -39.5 -78t-106.5 -26v38q32 0 53.5 12t19.5 37h-13q-27 0 -44.5 10t-17.5 35q0 20 16 33.5t48 13.5q37 0 60.5 -19.5t23.5 -55.5z" />
    <glyph glyph-name="Hcircumflex" unicode="&#x124;" horiz-adv-x="792" 
d="M767 0q-35 1 -78 1.5t-79 0.5t-80 -0.5t-79 -1.5v35q0 8 8 9q27 5 41.5 9.5t21.5 18t8 39t1 72.5v140h-270v-140q0 -47 1 -72.5t8 -39t21.5 -18t41.5 -9.5q8 -1 8 -9v-35q-35 1 -78 1.5t-79 0.5t-80 -0.5t-79 -1.5v35q0 8 8 9q27 5 41.5 9.5t21.5 18t8 39t1 72.5v314
q0 47 -1 72.5t-8 39t-21.5 18t-41.5 9.5q-8 1 -8 9v35q35 -1 78.5 -1.5t79.5 -0.5t79.5 0.5t78.5 1.5v-35q0 -8 -8 -9q-27 -5 -41.5 -9.5t-21.5 -18t-8 -39t-1 -72.5v-114h270v114q0 47 -1 72.5t-8 39t-21.5 18t-41.5 9.5q-8 1 -8 9v35q35 -1 78 -1.5t79 -0.5t80 0.5t79 1.5
v-35q0 -8 -8 -9q-27 -5 -41.5 -9.5t-21.5 -18t-8 -39t-1 -72.5v-314q0 -47 1 -72.5t8 -39t21.5 -18t41.5 -9.5q8 -1 8 -9v-35v0zM400 803h-2l-124 -88l-20 22q-4 4 1 9l82 120q13 17 25.5 25t36.5 8q25 0 38 -8t25 -25l83 -120q4 -5 0 -9l-19 -22z" />
    <glyph glyph-name="Hbar" unicode="&#x126;" horiz-adv-x="792" 
d="M767 0q-35 1 -78 1.5t-79 0.5t-80 -0.5t-79 -1.5v35q0 8 8 9q27 5 41.5 9.5t21.5 18t8 39t1 72.5v140h-270v-140q0 -47 1 -72.5t8 -39t21.5 -18t41.5 -9.5q8 -1 8 -9v-35q-35 1 -78 1.5t-79 0.5t-80 -0.5t-79 -1.5v35q0 8 8 9q27 5 41.5 9.5t21.5 18t8 39t1 72.5v280h-80
v56h80q0 38 -2 59t-9 32.5t-21.5 16t-39.5 9.5q-8 1 -8 9v35q35 -1 78.5 -1.5t79.5 -0.5t79.5 0.5t78.5 1.5v-35q0 -8 -8 -9q-25 -5 -39.5 -9.5t-21.5 -16t-9 -32.5t-2 -59h270q0 38 -2 59t-9.5 32.5t-21.5 16t-39 9.5q-8 1 -8 9v35q35 -1 78 -1.5t79 -0.5t80 0.5t79 1.5
v-35q0 -8 -8 -9q-26 -5 -40 -9.5t-21.5 -16t-9 -32.5t-1.5 -59h80v-56h-80v-280q0 -47 1 -72.5t8 -39t21.5 -18t41.5 -9.5q8 -1 8 -9v-35zM531 463h-270v-80h270v80z" />
    <glyph glyph-name="Igrave" unicode="&#xcc;" horiz-adv-x="366" 
d="M341 0q-35 1 -78 1.5t-79 0.5t-80 -0.5t-79 -1.5v35q0 8 8 9q27 5 41.5 9.5t21.5 18t8 39t1 72.5v314q0 47 -1 72.5t-8 39t-21.5 18t-41.5 9.5q-8 1 -8 9v35q35 -1 78.5 -1.5t79.5 -0.5t79.5 0.5t78.5 1.5v-35q0 -8 -8 -9q-27 -5 -41.5 -9.5t-21.5 -18t-8 -39t-1 -72.5
v-314q0 -47 1 -72.5t8 -39t21.5 -18t41.5 -9.5q8 -1 8 -9v-35v0zM48 799q-12 6 -20.5 16t-8.5 23q0 10 4.5 21t12 20t17.5 14.5t21 5.5q22 0 39 -22l105 -129q5 -5 1 -9l-18 -24z" />
    <glyph glyph-name="Iacute" unicode="&#xcd;" horiz-adv-x="366" 
d="M341 0q-35 1 -78 1.5t-79 0.5t-80 -0.5t-79 -1.5v35q0 8 8 9q27 5 41.5 9.5t21.5 18t8 39t1 72.5v314q0 47 -1 72.5t-8 39t-21.5 18t-41.5 9.5q-8 1 -8 9v35q35 -1 78.5 -1.5t79.5 -0.5t79.5 0.5t78.5 1.5v-35q0 -8 -8 -9q-27 -5 -41.5 -9.5t-21.5 -18t-8 -39t-1 -72.5
v-314q0 -47 1 -72.5t8 -39t21.5 -18t41.5 -9.5q8 -1 8 -9v-35v0zM161 739q-4 4 1 9l105 129q9 12 18.5 17t20.5 5t21 -5.5t17.5 -14.5t12 -20t4.5 -21q0 -13 -8.5 -23t-20.5 -16l-153 -84z" />
    <glyph glyph-name="Icircumflex" unicode="&#xce;" horiz-adv-x="366" 
d="M341 0q-35 1 -78 1.5t-79 0.5t-80 -0.5t-79 -1.5v35q0 8 8 9q27 5 41.5 9.5t21.5 18t8 39t1 72.5v314q0 47 -1 72.5t-8 39t-21.5 18t-41.5 9.5q-8 1 -8 9v35q35 -1 78.5 -1.5t79.5 -0.5t79.5 0.5t78.5 1.5v-35q0 -8 -8 -9q-27 -5 -41.5 -9.5t-21.5 -18t-8 -39t-1 -72.5
v-314q0 -47 1 -72.5t8 -39t21.5 -18t41.5 -9.5q8 -1 8 -9v-35v0zM189 803h-2l-124 -88l-20 22q-4 4 1 9l82 120q13 17 25.5 25t36.5 8q25 0 38 -8t25 -25l83 -120q4 -5 0 -9l-19 -22z" />
    <glyph glyph-name="Itilde" unicode="&#x128;" horiz-adv-x="366" 
d="M341 0q-35 1 -78 1.5t-79 0.5t-80 -0.5t-79 -1.5v35q0 8 8 9q27 5 41.5 9.5t21.5 18t8 39t1 72.5v314q0 47 -1 72.5t-8 39t-21.5 18t-41.5 9.5q-8 1 -8 9v35q35 -1 78.5 -1.5t79.5 -0.5t79.5 0.5t78.5 1.5v-35q0 -8 -8 -9q-27 -5 -41.5 -9.5t-21.5 -18t-8 -39t-1 -72.5
v-314q0 -47 1 -72.5t8 -39t21.5 -18t41.5 -9.5q8 -1 8 -9v-35v0zM256 769q-17 0 -35 3.5t-36 7.5l-35 7.5t-30 3.5q-20 0 -30 -10.5t-15 -35.5l-33 6q-8 1 -6 9q4 22 9 42.5t14.5 36.5t25 25.5t41.5 9.5q16 0 34 -3.5l36 -7l34.5 -7t30.5 -3.5q20 0 30 10.5t16 35.5l33 -6
q7 -1 5 -9q-3 -22 -8 -43t-14.5 -37t-25.5 -25.5t-41 -9.5z" />
    <glyph glyph-name="Idieresis" unicode="&#xcf;" horiz-adv-x="366" 
d="M341 0q-35 1 -78 1.5t-79 0.5t-80 -0.5t-79 -1.5v35q0 8 8 9q27 5 41.5 9.5t21.5 18t8 39t1 72.5v314q0 47 -1 72.5t-8 39t-21.5 18t-41.5 9.5q-8 1 -8 9v35q35 -1 78.5 -1.5t79.5 -0.5t79.5 0.5t78.5 1.5v-35q0 -8 -8 -9q-27 -5 -41.5 -9.5t-21.5 -18t-8 -39t-1 -72.5
v-314q0 -47 1 -72.5t8 -39t21.5 -18t41.5 -9.5q8 -1 8 -9v-35v0zM166 827q0 -30 -20.5 -51t-55.5 -21t-54 21t-19 51t20 51t55 21t54.5 -21t19.5 -51zM357 827q0 -30 -20.5 -51t-55.5 -21t-54 21t-19 51t20 51t55 21t54.5 -21t19.5 -51z" />
    <glyph glyph-name="Imacron" unicode="&#x12a;" horiz-adv-x="366" 
d="M341 0q-35 1 -78 1.5t-79 0.5t-80 -0.5t-79 -1.5v35q0 8 8 9q27 5 41.5 9.5t21.5 18t8 39t1 72.5v314q0 47 -1 72.5t-8 39t-21.5 18t-41.5 9.5q-8 1 -8 9v35q35 -1 78.5 -1.5t79.5 -0.5t79.5 0.5t78.5 1.5v-35q0 -8 -8 -9q-27 -5 -41.5 -9.5t-21.5 -18t-8 -39t-1 -72.5
v-314q0 -47 1 -72.5t8 -39t21.5 -18t41.5 -9.5q8 -1 8 -9v-35v0zM48 791v89h278v-89h-278z" />
    <glyph glyph-name="Ibreve" unicode="&#x12c;" horiz-adv-x="366" 
d="M341 0q-35 1 -78 1.5t-79 0.5t-80 -0.5t-79 -1.5v35q0 8 8 9q27 5 41.5 9.5t21.5 18t8 39t1 72.5v314q0 47 -1 72.5t-8 39t-21.5 18t-41.5 9.5q-8 1 -8 9v35q35 -1 78.5 -1.5t79.5 -0.5t79.5 0.5t78.5 1.5v-35q0 -8 -8 -9q-27 -5 -41.5 -9.5t-21.5 -18t-8 -39t-1 -72.5
v-314q0 -47 1 -72.5t8 -39t21.5 -18t41.5 -9.5q8 -1 8 -9v-35v0zM187 752q-37 0 -63 9.5t-43 26.5t-27 42t-14 56q-1 7 6 8l34 5q7 -36 34 -49.5t73 -13.5t73 13.5t34 49.5l34 -5q7 -1 6 -8q-5 -31 -14.5 -56t-26.5 -42t-43 -26.5t-63 -9.5z" />
    <glyph glyph-name="Idotaccent" unicode="&#x130;" horiz-adv-x="366" 
d="M341 0q-35 1 -78 1.5t-79 0.5t-80 -0.5t-79 -1.5v35q0 8 8 9q27 5 41.5 9.5t21.5 18t8 39t1 72.5v314q0 47 -1 72.5t-8 39t-21.5 18t-41.5 9.5q-8 1 -8 9v35q35 -1 78.5 -1.5t79.5 -0.5t79.5 0.5t78.5 1.5v-35q0 -8 -8 -9q-27 -5 -41.5 -9.5t-21.5 -18t-8 -39t-1 -72.5
v-314q0 -47 1 -72.5t8 -39t21.5 -18t41.5 -9.5q8 -1 8 -9v-35v0zM277 824q0 -30 -23.5 -51.5t-66.5 -21.5q-45 0 -66.5 21.5t-21.5 51.5q0 32 23.5 53.5t65.5 21.5q44 0 66.5 -21.5t22.5 -53.5z" />
    <glyph glyph-name="Iogonek" unicode="&#x12e;" horiz-adv-x="366" 
d="M142 -214q-42 0 -65 23t-23 59q0 38 23 70t57 64q-28 -1 -56.5 -1.5t-52.5 -0.5v35q0 8 8 9q27 5 41.5 9.5t21.5 18t8 39t1 72.5v314q0 47 -1 72.5t-8 39t-21.5 18t-41.5 9.5q-8 1 -8 9v35q35 -1 78.5 -1.5t79.5 -0.5t79.5 0.5t78.5 1.5v-35q0 -8 -8 -9
q-27 -5 -41.5 -9.5t-21.5 -18t-8 -39t-1 -72.5v-314q0 -47 1 -72.5t8 -39t21.5 -18t41.5 -9.5q8 -1 8 -9v-35q-34 1 -76 1.5t-81 0.5q-21 -24 -34.5 -47t-13.5 -46q0 -17 11 -32.5t35 -15.5q30 0 53 22l17 -26q3 -4 2.5 -6t-3.5 -6q-17 -20 -44 -39.5t-65 -19.5z" />
    <glyph glyph-name="IJ" unicode="&#x132;" horiz-adv-x="749" 
d="M349 0q-35 1 -78 1.5t-79 0.5t-80 -0.5t-79 -1.5v35q0 8 8 9q27 5 41.5 9.5t21.5 18t8 39t1 72.5v314q0 47 -1 72.5t-8 39t-21.5 18t-41.5 9.5q-8 1 -8 9v35q35 -1 78.5 -1.5t79.5 -0.5t79.5 0.5t78.5 1.5v-35q0 -8 -8 -9q-27 -5 -41.5 -9.5t-21.5 -18t-8 -39t-1 -72.5
v-314q0 -47 1 -72.5t8 -39t21.5 -18t41.5 -9.5q8 -1 8 -9v-35v0zM646 41q0 -64 -17.5 -112t-49 -79.5t-75 -47.5t-96.5 -16q-35 0 -64.5 5.5t-51.5 16t-34.5 25.5t-12.5 35q0 27 19.5 46t42.5 19q22 0 34.5 -14t23 -30.5t23 -30t34.5 -13.5q23 0 36.5 12t20.5 36t9 61t2 87
v456q0 47 -1 72.5t-8 39t-21.5 18t-41.5 9.5q-8 1 -8 9v35q35 -1 78.5 -1.5t79.5 -0.5t79.5 0.5t78.5 1.5v-35q0 -8 -8 -9q-27 -5 -41.5 -9.5t-21.5 -18t-8 -39t-1 -72.5v-456v0z" />
    <glyph glyph-name="Jcircumflex" unicode="&#x134;" horiz-adv-x="366" 
d="M263 41q0 -64 -17.5 -112t-49 -79.5t-75 -47.5t-96.5 -16q-35 0 -64.5 5.5t-51.5 16t-34.5 25.5t-12.5 35q0 27 19.5 46t42.5 19q22 0 34.5 -14t23 -30.5t23 -30t34.5 -13.5q23 0 36.5 12t20.5 36t9 61t2 87v456q0 47 -1 72.5t-8 39t-21.5 18t-41.5 9.5q-8 1 -8 9v35
q35 -1 78.5 -1.5t79.5 -0.5t79.5 0.5t78.5 1.5v-35q0 -8 -8 -9q-27 -5 -41.5 -9.5t-21.5 -18t-8 -39t-1 -72.5v-456v0zM189 803h-2l-124 -88l-20 22q-4 4 1 9l82 120q13 17 25.5 25t36.5 8q25 0 38 -8t25 -25l83 -120q4 -5 0 -9l-19 -22z" />
    <glyph glyph-name="Kcommaaccent" unicode="&#x136;" horiz-adv-x="703" 
d="M700 0q-11 0 -25.5 0.5t-30.5 1t-31 0.5h-26q-18 0 -44 -1t-41 -1q-10 0 -14 2t-10 12l-16 31l-18.5 33l-22.5 40l-106 186h-2l-52 -61v-60q0 -47 1 -72.5t8 -39t21.5 -18t41.5 -9.5q8 -1 8 -9v-35q-35 1 -78 1.5t-79 0.5t-80 -0.5t-79 -1.5v35q0 8 8 9q27 5 41.5 9.5
t21.5 18t8 39t1 72.5v314q0 47 -1 72.5t-8 39t-21.5 18t-41.5 9.5q-8 1 -8 9v35q35 -1 78.5 -1.5t79.5 -0.5t79.5 0.5t78.5 1.5v-35q0 -8 -8 -9q-27 -5 -41.5 -9.5t-21.5 -18t-8 -39t-1 -72.5v-160h2l143 175q19 23 35.5 46.5t16.5 42.5q0 17 -12.5 24t-36.5 11q-7 1 -7 9
v35q35 -1 67.5 -1.5t69.5 -0.5q36 0 62 0.5t61 1.5v-35q0 -8 -8 -9q-20 -4 -33.5 -8.5t-31.5 -19.5t-45 -44.5l-75 -83.5l-46 -53l134 -223l53.5 -87t32.5 -46t23.5 -19.5t26.5 -7.5q7 -1 7 -9v-35v0zM446 -110q0 -51 -39.5 -78t-106.5 -26v38q32 0 53.5 12t19.5 37h-13
q-27 0 -44.5 10t-17.5 35q0 20 16 33.5t48 13.5q37 0 60.5 -19.5t23.5 -55.5z" />
    <glyph glyph-name="Lacute" unicode="&#x139;" horiz-adv-x="591" 
d="M575 0q-32 0 -68.5 1t-98.5 1h-250q-36 0 -67 -0.5t-66 -1.5v35q0 8 8 9q27 5 41.5 9.5t21.5 18t8 39t1 72.5v314q0 47 -1 72.5t-8 39t-21.5 18t-41.5 9.5q-8 1 -8 9v35q17 0 38 -0.5l42.5 -1t42.5 -0.5h39h41t46.5 0.5l46 1t40.5 0.5v-35q0 -8 -8 -9q-35 -5 -53.5 -9.5
t-27 -18t-10 -39t-1.5 -72.5v-303q0 -48 1.5 -75t10 -40.5t27 -16.5t52.5 -3h39q31 0 55 6.5t41 24t28 47.5t17 78q1 7 9 7h36q0 -17 -0.5 -47l-1 -63t-0.5 -63.5v-48.5zM177 739q-4 4 1 9l105 129q9 12 18.5 17t20.5 5t21 -5.5t17.5 -14.5t12 -20t4.5 -21q0 -13 -8.5 -23
t-20.5 -16l-153 -84z" />
    <glyph glyph-name="Lcaron" unicode="&#x13d;" horiz-adv-x="591" 
d="M575 0q-32 0 -68.5 1t-98.5 1h-250q-36 0 -67 -0.5t-66 -1.5v35q0 8 8 9q27 5 41.5 9.5t21.5 18t8 39t1 72.5v314q0 47 -1 72.5t-8 39t-21.5 18t-41.5 9.5q-8 1 -8 9v35q17 0 38 -0.5l42.5 -1t42.5 -0.5h39h41t46.5 0.5l46 1t40.5 0.5v-35q0 -8 -8 -9q-35 -5 -53.5 -9.5
t-27 -18t-10 -39t-1.5 -72.5v-303q0 -48 1.5 -75t10 -40.5t27 -16.5t52.5 -3h39q31 0 55 6.5t41 24t28 47.5t17 78q1 7 9 7h36q0 -17 -0.5 -47l-1 -63t-0.5 -63.5v-48.5zM428 549q-4 -5 -9 -3l-27 12l21 138q2 20 11 30t28 10q9 0 20 -3.5t21 -10t16.5 -16t6.5 -20.5
q0 -13 -12 -30z" />
    <glyph glyph-name="Lcommaaccent" unicode="&#x13b;" horiz-adv-x="591" 
d="M575 0q-32 0 -68.5 1t-98.5 1h-250q-36 0 -67 -0.5t-66 -1.5v35q0 8 8 9q27 5 41.5 9.5t21.5 18t8 39t1 72.5v314q0 47 -1 72.5t-8 39t-21.5 18t-41.5 9.5q-8 1 -8 9v35q17 0 38 -0.5l42.5 -1t42.5 -0.5h39h41t46.5 0.5l46 1t40.5 0.5v-35q0 -8 -8 -9q-35 -5 -53.5 -9.5
t-27 -18t-10 -39t-1.5 -72.5v-303q0 -48 1.5 -75t10 -40.5t27 -16.5t52.5 -3h39q31 0 55 6.5t41 24t28 47.5t17 78q1 7 9 7h36q0 -17 -0.5 -47l-1 -63t-0.5 -63.5v-48.5zM402 -110q0 -51 -39.5 -78t-106.5 -26v38q32 0 53.5 12t19.5 37h-13q-27 0 -44.5 10t-17.5 35
q0 20 16 33.5t48 13.5q37 0 60.5 -19.5t23.5 -55.5z" />
    <glyph glyph-name="Lslash" unicode="&#x141;" horiz-adv-x="591" 
d="M105 315v182q0 47 -1 72.5t-8 39t-21.5 18t-41.5 9.5q-8 1 -8 9v35q17 0 38 -0.5l42.5 -1t42.5 -0.5h39h41t46.5 0.5l46 1t40.5 0.5v-35q0 -8 -8 -9q-35 -5 -53.5 -9.5t-27 -18t-10 -39t-1.5 -72.5v-104l193 96l25 -52l-218 -109v-134q0 -48 1.5 -75t10 -40.5t27 -16.5
t52.5 -3h39q31 0 55 6.5t41 24t28 47.5t17 78q1 7 9 7h36q0 -17 -0.5 -47l-1 -63t-0.5 -63.5v-48.5q-32 0 -68.5 1t-98.5 1h-250q-36 0 -67 -0.5t-66 -1.5v35q0 8 8 9q27 5 41.5 9.5t21.5 18t8 39t1 72.5v68l-64 -31l-26 51z" />
    <glyph glyph-name="Ldot" unicode="&#x13f;" horiz-adv-x="591" 
d="M575 0q-32 0 -68.5 1t-98.5 1h-250q-36 0 -67 -0.5t-66 -1.5v35q0 8 8 9q27 5 41.5 9.5t21.5 18t8 39t1 72.5v314q0 47 -1 72.5t-8 39t-21.5 18t-41.5 9.5q-8 1 -8 9v35q17 0 38 -0.5l42.5 -1t42.5 -0.5h39h41t46.5 0.5l46 1t40.5 0.5v-35q0 -8 -8 -9q-35 -5 -53.5 -9.5
t-27 -18t-10 -39t-1.5 -72.5v-303q0 -48 1.5 -75t10 -40.5t27 -16.5t52.5 -3h39q31 0 55 6.5t41 24t28 47.5t17 78q1 7 9 7h36q0 -17 -0.5 -47l-1 -63t-0.5 -63.5v-48.5zM558 397q0 -34 -22.5 -58t-63.5 -24t-62.5 24t-21.5 58t22.5 58t63.5 24q40 0 62 -24t22 -58z" />
    <glyph glyph-name="Nacute" unicode="&#x143;" horiz-adv-x="777" 
d="M557 -14l-34.5 52l-35.5 53l-304 436h-2v-244q0 -77 2 -122t12 -69.5t32 -34t62 -13.5q7 -1 7 -9v-35q-35 1 -75.5 1.5t-77.5 0.5h-32t-27.5 -0.5l-27 -1t-31.5 -0.5v35q0 8 8 9q27 5 41.5 14t21.5 33.5t8 69.5t1 122v214q0 47 -1 72.5t-8 39t-21.5 18t-41.5 9.5
q-8 1 -8 9v35q14 0 32 -0.5t35.5 -0.5t33.5 -0.5t25 -0.5q30 0 63 0.5t53 1.5l327 -473h2v190q0 77 -2 122t-12 69.5t-32 33.5t-62 14q-7 1 -7 9v35q35 -1 75.5 -1.5t77.5 -0.5h32t27.5 0.5l27 1t31.5 0.5v-35q0 -8 -8 -9q-27 -5 -41.5 -14t-21.5 -33.5t-8 -69.5t-1 -122
v-411h-115zM370 739q-4 4 1 9l105 129q9 12 18.5 17t20.5 5t21 -5.5t17.5 -14.5t12 -20t4.5 -21q0 -13 -8.5 -23t-20.5 -16l-153 -84z" />
    <glyph glyph-name="Ncaron" unicode="&#x147;" horiz-adv-x="777" 
d="M557 -14l-34.5 52l-35.5 53l-304 436h-2v-244q0 -77 2 -122t12 -69.5t32 -34t62 -13.5q7 -1 7 -9v-35q-35 1 -75.5 1.5t-77.5 0.5h-32t-27.5 -0.5l-27 -1t-31.5 -0.5v35q0 8 8 9q27 5 41.5 14t21.5 33.5t8 69.5t1 122v214q0 47 -1 72.5t-8 39t-21.5 18t-41.5 9.5
q-8 1 -8 9v35q14 0 32 -0.5t35.5 -0.5t33.5 -0.5t25 -0.5q30 0 63 0.5t53 1.5l327 -473h2v190q0 77 -2 122t-12 69.5t-32 33.5t-62 14q-7 1 -7 9v35q35 -1 75.5 -1.5t77.5 -0.5h32t27.5 0.5l27 1t31.5 0.5v-35q0 -8 -8 -9q-27 -5 -41.5 -14t-21.5 -33.5t-8 -69.5t-1 -122
v-411h-115zM394 715q-24 0 -37 8t-25 25l-82 120q-5 5 -1 9l20 22l124 -88h2l126 88l19 -22q4 -5 0 -9l-83 -120q-14 -17 -26 -25t-37 -8z" />
    <glyph glyph-name="Ntilde" unicode="&#xd1;" horiz-adv-x="777" 
d="M557 -14l-34.5 52l-35.5 53l-304 436h-2v-244q0 -77 2 -122t12 -69.5t32 -34t62 -13.5q7 -1 7 -9v-35q-35 1 -75.5 1.5t-77.5 0.5h-32t-27.5 -0.5l-27 -1t-31.5 -0.5v35q0 8 8 9q27 5 41.5 14t21.5 33.5t8 69.5t1 122v214q0 47 -1 72.5t-8 39t-21.5 18t-41.5 9.5
q-8 1 -8 9v35q14 0 32 -0.5t35.5 -0.5t33.5 -0.5t25 -0.5q30 0 63 0.5t53 1.5l327 -473h2v190q0 77 -2 122t-12 69.5t-32 33.5t-62 14q-7 1 -7 9v35q35 -1 75.5 -1.5t77.5 -0.5h32t27.5 0.5l27 1t31.5 0.5v-35q0 -8 -8 -9q-27 -5 -41.5 -14t-21.5 -33.5t-8 -69.5t-1 -122
v-411h-115zM463 769q-17 0 -35 3.5t-36 7.5l-35 7.5t-30 3.5q-20 0 -30 -10.5t-15 -35.5l-33 6q-8 1 -6 9q4 22 9 42.5t14.5 36.5t25 25.5t41.5 9.5q16 0 34 -3.5l36 -7l34.5 -7t30.5 -3.5q20 0 30 10.5t16 35.5l33 -6q7 -1 5 -9q-3 -22 -8 -43t-14.5 -37t-25.5 -25.5
t-41 -9.5z" />
    <glyph glyph-name="Ncommaaccent" unicode="&#x145;" horiz-adv-x="777" 
d="M557 -14l-34.5 52l-35.5 53l-304 436h-2v-244q0 -77 2 -122t12 -69.5t32 -34t62 -13.5q7 -1 7 -9v-35q-35 1 -75.5 1.5t-77.5 0.5h-32t-27.5 -0.5l-27 -1t-31.5 -0.5v35q0 8 8 9q27 5 41.5 14t21.5 33.5t8 69.5t1 122v214q0 47 -1 72.5t-8 39t-21.5 18t-41.5 9.5
q-8 1 -8 9v35q14 0 32 -0.5t35.5 -0.5t33.5 -0.5t25 -0.5q30 0 63 0.5t53 1.5l327 -473h2v190q0 77 -2 122t-12 69.5t-32 33.5t-62 14q-7 1 -7 9v35q35 -1 75.5 -1.5t77.5 -0.5h32t27.5 0.5l27 1t31.5 0.5v-35q0 -8 -8 -9q-27 -5 -41.5 -14t-21.5 -33.5t-8 -69.5t-1 -122
v-411h-115zM471 -110q0 -51 -39.5 -78t-106.5 -26v38q32 0 53.5 12t19.5 37h-13q-27 0 -44.5 10t-17.5 35q0 20 16 33.5t48 13.5q37 0 60.5 -19.5t23.5 -55.5z" />
    <glyph glyph-name="Ograve" unicode="&#xd2;" horiz-adv-x="757" 
d="M549 343q0 80 -13.5 135.5t-37 90.5t-56.5 50.5t-72 15.5q-81 0 -121.5 -73t-40.5 -225q0 -80 13 -135.5t37 -90.5t57 -50.5t72 -15.5q80 0 121 73t41 225zM718 352q0 -94 -27.5 -163t-74 -114t-108 -67t-129.5 -22q-73 0 -135 24t-107.5 68t-71.5 107.5t-26 142.5
q0 94 27.5 163t74 114t108 67t129.5 22q72 0 134.5 -24t108 -68t71.5 -107.5t26 -142.5zM246 799q-12 6 -20.5 16t-8.5 23q0 10 4.5 21t12 20t17.5 14.5t21 5.5q22 0 39 -22l105 -129q5 -5 1 -9l-18 -24z" />
    <glyph glyph-name="Oacute" unicode="&#xd3;" horiz-adv-x="757" 
d="M549 343q0 80 -13.5 135.5t-37 90.5t-56.5 50.5t-72 15.5q-81 0 -121.5 -73t-40.5 -225q0 -80 13 -135.5t37 -90.5t57 -50.5t72 -15.5q80 0 121 73t41 225zM718 352q0 -94 -27.5 -163t-74 -114t-108 -67t-129.5 -22q-73 0 -135 24t-107.5 68t-71.5 107.5t-26 142.5
q0 94 27.5 163t74 114t108 67t129.5 22q72 0 134.5 -24t108 -68t71.5 -107.5t26 -142.5zM342 739q-4 4 1 9l105 129q9 12 18.5 17t20.5 5t21 -5.5t17.5 -14.5t12 -20t4.5 -21q0 -13 -8.5 -23t-20.5 -16l-153 -84z" />
    <glyph glyph-name="Ocircumflex" unicode="&#xd4;" horiz-adv-x="757" 
d="M549 343q0 80 -13.5 135.5t-37 90.5t-56.5 50.5t-72 15.5q-81 0 -121.5 -73t-40.5 -225q0 -80 13 -135.5t37 -90.5t57 -50.5t72 -15.5q80 0 121 73t41 225zM718 352q0 -94 -27.5 -163t-74 -114t-108 -67t-129.5 -22q-73 0 -135 24t-107.5 68t-71.5 107.5t-26 142.5
q0 94 27.5 163t74 114t108 67t129.5 22q72 0 134.5 -24t108 -68t71.5 -107.5t26 -142.5zM382 803h-2l-124 -88l-20 22q-4 4 1 9l82 120q13 17 25.5 25t36.5 8q25 0 38 -8t25 -25l83 -120q4 -5 0 -9l-19 -22z" />
    <glyph glyph-name="Otilde" unicode="&#xd5;" horiz-adv-x="757" 
d="M549 343q0 80 -13.5 135.5t-37 90.5t-56.5 50.5t-72 15.5q-81 0 -121.5 -73t-40.5 -225q0 -80 13 -135.5t37 -90.5t57 -50.5t72 -15.5q80 0 121 73t41 225zM718 352q0 -94 -27.5 -163t-74 -114t-108 -67t-129.5 -22q-73 0 -135 24t-107.5 68t-71.5 107.5t-26 142.5
q0 94 27.5 163t74 114t108 67t129.5 22q72 0 134.5 -24t108 -68t71.5 -107.5t26 -142.5zM449 769q-17 0 -35 3.5t-36 7.5l-35 7.5t-30 3.5q-20 0 -30 -10.5t-15 -35.5l-33 6q-8 1 -6 9q4 22 9 42.5t14.5 36.5t25 25.5t41.5 9.5q16 0 34 -3.5l36 -7l34.5 -7t30.5 -3.5
q20 0 30 10.5t16 35.5l33 -6q7 -1 5 -9q-3 -22 -8 -43t-14.5 -37t-25.5 -25.5t-41 -9.5z" />
    <glyph glyph-name="Odieresis" unicode="&#xd6;" horiz-adv-x="757" 
d="M549 343q0 80 -13.5 135.5t-37 90.5t-56.5 50.5t-72 15.5q-81 0 -121.5 -73t-40.5 -225q0 -80 13 -135.5t37 -90.5t57 -50.5t72 -15.5q80 0 121 73t41 225zM718 352q0 -94 -27.5 -163t-74 -114t-108 -67t-129.5 -22q-73 0 -135 24t-107.5 68t-71.5 107.5t-26 142.5
q0 94 27.5 163t74 114t108 67t129.5 22q72 0 134.5 -24t108 -68t71.5 -107.5t26 -142.5zM361 827q0 -30 -20.5 -51t-55.5 -21t-54 21t-19 51t20 51t55 21t54.5 -21t19.5 -51zM552 827q0 -30 -20.5 -51t-55.5 -21t-54 21t-19 51t20 51t55 21t54.5 -21t19.5 -51z" />
    <glyph glyph-name="Omacron" unicode="&#x14c;" horiz-adv-x="757" 
d="M549 343q0 80 -13.5 135.5t-37 90.5t-56.5 50.5t-72 15.5q-81 0 -121.5 -73t-40.5 -225q0 -80 13 -135.5t37 -90.5t57 -50.5t72 -15.5q80 0 121 73t41 225zM718 352q0 -94 -27.5 -163t-74 -114t-108 -67t-129.5 -22q-73 0 -135 24t-107.5 68t-71.5 107.5t-26 142.5
q0 94 27.5 163t74 114t108 67t129.5 22q72 0 134.5 -24t108 -68t71.5 -107.5t26 -142.5zM243 791v89h278v-89h-278z" />
    <glyph glyph-name="Obreve" unicode="&#x14e;" horiz-adv-x="757" 
d="M549 343q0 80 -13.5 135.5t-37 90.5t-56.5 50.5t-72 15.5q-81 0 -121.5 -73t-40.5 -225q0 -80 13 -135.5t37 -90.5t57 -50.5t72 -15.5q80 0 121 73t41 225zM718 352q0 -94 -27.5 -163t-74 -114t-108 -67t-129.5 -22q-73 0 -135 24t-107.5 68t-71.5 107.5t-26 142.5
q0 94 27.5 163t74 114t108 67t129.5 22q72 0 134.5 -24t108 -68t71.5 -107.5t26 -142.5zM382 752q-37 0 -63 9.5t-43 26.5t-27 42t-14 56q-1 7 6 8l34 5q7 -36 34 -49.5t73 -13.5t73 13.5t34 49.5l34 -5q7 -1 6 -8q-5 -31 -14.5 -56t-26.5 -42t-43 -26.5t-63 -9.5z" />
    <glyph glyph-name="Ohungarumlaut" unicode="&#x150;" horiz-adv-x="757" 
d="M549 343q0 80 -13.5 135.5t-37 90.5t-56.5 50.5t-72 15.5q-81 0 -121.5 -73t-40.5 -225q0 -80 13 -135.5t37 -90.5t57 -50.5t72 -15.5q80 0 121 73t41 225zM718 352q0 -94 -27.5 -163t-74 -114t-108 -67t-129.5 -22q-73 0 -135 24t-107.5 68t-71.5 107.5t-26 142.5
q0 94 27.5 163t74 114t108 67t129.5 22q72 0 134.5 -24t108 -68t71.5 -107.5t26 -142.5zM272 743q-3 5 1 9l111 128q14 19 35 19q11 0 21 -6t17.5 -15t12 -19.5t4.5 -20.5q0 -13 -8.5 -23t-20.5 -16l-154 -84zM462 743q-3 5 1 9l111 128q14 19 35 19q11 0 21 -6t17.5 -15
t12 -19.5t4.5 -20.5q0 -13 -8.5 -23t-20.5 -16l-154 -84z" />
    <glyph glyph-name="Oslash" unicode="&#xd8;" horiz-adv-x="757" 
d="M143 71q-49 45 -76.5 109.5t-27.5 147.5q0 94 27.5 163t74 114t108 67t129.5 22q51 0 96 -12t84 -35l67 93h73l-91 -126q51 -45 81 -111t30 -151q0 -94 -27.5 -163t-74 -114t-108 -67t-129.5 -22q-109 0 -189 50l-69 -96h-72zM370 635q-81 0 -121.5 -73t-40.5 -225
q0 -45 5.5 -81t16.5 -65l269 375q-24 36 -57 52.5t-72 16.5zM549 343q0 49 -6.5 88t-17.5 70l-271 -377q24 -42 57.5 -60.5t75.5 -18.5q80 0 121 73t41 225z" />
    <glyph glyph-name="Oslashacute" unicode="&#x1fe;" horiz-adv-x="757" 
d="M143 71q-49 45 -76.5 109.5t-27.5 147.5q0 94 27.5 163t74 114t108 67t129.5 22q51 0 96 -12t84 -35l67 93h73l-91 -126q51 -45 81 -111t30 -151q0 -94 -27.5 -163t-74 -114t-108 -67t-129.5 -22q-109 0 -189 50l-69 -96h-72zM370 635q-81 0 -121.5 -73t-40.5 -225
q0 -45 5.5 -81t16.5 -65l269 375q-24 36 -57 52.5t-72 16.5zM549 343q0 49 -6.5 88t-17.5 70l-271 -377q24 -42 57.5 -60.5t75.5 -18.5q80 0 121 73t41 225zM342 739q-4 4 1 9l105 129q9 12 18.5 17t20.5 5t21 -5.5t17.5 -14.5t12 -20t4.5 -21q0 -13 -8.5 -23t-20.5 -16
l-153 -84z" />
    <glyph glyph-name="OE" unicode="&#x152;" horiz-adv-x="1045" 
d="M1010 0q-32 0 -76 1t-107 1h-252q-17 0 -36.5 -0.5t-39.5 -0.5t-38 -0.5t-30 -0.5q-95 0 -168 23.5t-123 67t-75.5 105t-25.5 137.5q0 81 26 145.5t77 109.5t125.5 68.5t171.5 23.5q30 0 64 -1t71 -1h200q63 0 107 1t76 1v-43t0.5 -50.5l1 -50t0.5 -41.5h-34q-8 0 -9 7
q-6 40 -17 63.5t-28 36t-41 16t-55 3.5h-87q-8 0 -9.5 -2.5t-1.5 -7.5v-229h14q27 0 45.5 3t30.5 12t19 26.5t11 46.5q1 7 9 7h35q-1 -32 -1.5 -63.5t-0.5 -64.5t0.5 -58t1.5 -57h-35q-8 0 -9 7q-4 31 -11 49.5t-19 28t-30.5 12.5t-45.5 3h-14v-140q0 -47 1.5 -74t10 -40.5
t27 -17t52.5 -3.5h58q31 0 55 5.5t41 21t28 42.5t17 70q1 7 9 7h36q0 -17 -0.5 -44.5l-1 -57t-0.5 -57.5v-46zM427 621q-114 0 -166.5 -72.5t-52.5 -202.5q0 -140 62 -214t167 -74h29.5t43.5 2q8 1 9.5 3t1.5 7v539q0 5 -1.5 7t-9.5 3q-27 2 -47.5 2h-35.5z" />
    <glyph glyph-name="Racute" unicode="&#x154;" horiz-adv-x="713" 
d="M451 508q0 31 -9 53t-25 35.5t-37.5 20t-46.5 6.5h-14h-18.5t-18 -0.5t-12.5 -1.5q-6 0 -7.5 -2t-1.5 -7v-236h52q66 0 102 30t36 102zM614 520q0 -27 -9 -52.5t-31 -47.5t-58.5 -38.5t-91.5 -24.5v-2q45 -8 73.5 -25t46.5 -39.5t27.5 -49t16.5 -51.5q16 -58 29.5 -90.5
t37.5 -32.5q13 0 22.5 6t19.5 15l23 -26q5 -5 0 -11q-23 -28 -57.5 -44t-75.5 -16q-42 0 -69 15.5t-43.5 41t-26.5 59t-18 70.5q-8 36 -16.5 64t-21 46.5t-31 28.5t-46.5 10h-54v-143q0 -47 1 -72.5t8 -39t21.5 -18t41.5 -9.5q8 -1 8 -9v-35q-33 1 -77 1.5t-80 0.5t-80 -0.5
t-79 -1.5v35q0 8 8 9q27 5 41.5 9.5t21.5 18t8 39t1 72.5v314q0 47 -1 72.5t-8 39t-21.5 18t-41.5 9.5q-8 1 -8 9v35q35 -1 78.5 -1.5t79.5 -0.5q17 0 40.5 0.5t47 0.5t45 0.5t33.5 0.5q56 0 104.5 -8t84 -27t56 -49.5t20.5 -75.5zM280 739q-4 4 1 9l105 129q9 12 18.5 17
t20.5 5t21 -5.5t17.5 -14.5t12 -20t4.5 -21q0 -13 -8.5 -23t-20.5 -16l-153 -84z" />
    <glyph glyph-name="Rcaron" unicode="&#x158;" horiz-adv-x="713" 
d="M451 508q0 31 -9 53t-25 35.5t-37.5 20t-46.5 6.5h-14h-18.5t-18 -0.5t-12.5 -1.5q-6 0 -7.5 -2t-1.5 -7v-236h52q66 0 102 30t36 102zM614 520q0 -27 -9 -52.5t-31 -47.5t-58.5 -38.5t-91.5 -24.5v-2q45 -8 73.5 -25t46.5 -39.5t27.5 -49t16.5 -51.5q16 -58 29.5 -90.5
t37.5 -32.5q13 0 22.5 6t19.5 15l23 -26q5 -5 0 -11q-23 -28 -57.5 -44t-75.5 -16q-42 0 -69 15.5t-43.5 41t-26.5 59t-18 70.5q-8 36 -16.5 64t-21 46.5t-31 28.5t-46.5 10h-54v-143q0 -47 1 -72.5t8 -39t21.5 -18t41.5 -9.5q8 -1 8 -9v-35q-33 1 -77 1.5t-80 0.5t-80 -0.5
t-79 -1.5v35q0 8 8 9q27 5 41.5 9.5t21.5 18t8 39t1 72.5v314q0 47 -1 72.5t-8 39t-21.5 18t-41.5 9.5q-8 1 -8 9v35q35 -1 78.5 -1.5t79.5 -0.5q17 0 40.5 0.5t47 0.5t45 0.5t33.5 0.5q56 0 104.5 -8t84 -27t56 -49.5t20.5 -75.5zM326 715q-24 0 -37 8t-25 25l-82 120
q-5 5 -1 9l20 22l124 -88h2l126 88l19 -22q4 -5 0 -9l-83 -120q-14 -17 -26 -25t-37 -8z" />
    <glyph glyph-name="Rcommaaccent" unicode="&#x156;" horiz-adv-x="713" 
d="M451 508q0 31 -9 53t-25 35.5t-37.5 20t-46.5 6.5h-14h-18.5t-18 -0.5t-12.5 -1.5q-6 0 -7.5 -2t-1.5 -7v-236h52q66 0 102 30t36 102zM614 520q0 -27 -9 -52.5t-31 -47.5t-58.5 -38.5t-91.5 -24.5v-2q45 -8 73.5 -25t46.5 -39.5t27.5 -49t16.5 -51.5q16 -58 29.5 -90.5
t37.5 -32.5q13 0 22.5 6t19.5 15l23 -26q5 -5 0 -11q-23 -28 -57.5 -44t-75.5 -16q-42 0 -69 15.5t-43.5 41t-26.5 59t-18 70.5q-8 36 -16.5 64t-21 46.5t-31 28.5t-46.5 10h-54v-143q0 -47 1 -72.5t8 -39t21.5 -18t41.5 -9.5q8 -1 8 -9v-35q-33 1 -77 1.5t-80 0.5t-80 -0.5
t-79 -1.5v35q0 8 8 9q27 5 41.5 9.5t21.5 18t8 39t1 72.5v314q0 47 -1 72.5t-8 39t-21.5 18t-41.5 9.5q-8 1 -8 9v35q35 -1 78.5 -1.5t79.5 -0.5q17 0 40.5 0.5t47 0.5t45 0.5t33.5 0.5q56 0 104.5 -8t84 -27t56 -49.5t20.5 -75.5zM445 -110q0 -51 -39.5 -78t-106.5 -26v38
q32 0 53.5 12t19.5 37h-13q-27 0 -44.5 10t-17.5 35q0 20 16 33.5t48 13.5q37 0 60.5 -19.5t23.5 -55.5z" />
    <glyph glyph-name="germandbls.cap" unicode="&#xe0aa;" horiz-adv-x="1107" 
d="M264 -14q-57 0 -95 10.5t-67 26.5h-1l-16 -23q-5 -7 -14 -7h-23v48t-0.5 63l-1 63t-0.5 47h35q4 0 6 -1t3 -6q6 -36 18.5 -66t32.5 -51t48.5 -33t67.5 -12q62 0 95 25.5t33 68.5q0 41 -25 66.5t-63 45t-81.5 37t-81.5 42.5t-63 62t-25 95q0 45 16 83t46 65.5t72.5 43
t94.5 15.5q35 0 71.5 -8.5t68.5 -28.5h1l16 23q5 7 14 7h23v-44t0.5 -54l1 -54.5t0.5 -43.5h-35q-4 0 -5.5 1t-3.5 6q-12 60 -48 98.5t-99 38.5q-47 0 -73.5 -22.5t-26.5 -61.5t25.5 -63.5t64 -43.5t83 -36.5t83 -43t64 -63t25.5 -95.5q0 -53 -20.5 -94t-55.5 -69
t-82.5 -42.5t-102.5 -14.5zM818 -14q-57 0 -95 10.5t-67 26.5h-1l-16 -23q-5 -7 -14 -7h-23v48t-0.5 63l-1 63t-0.5 47h35q4 0 6 -1t3 -6q6 -36 18.5 -66t32.5 -51t48.5 -33t66.5 -12q63 0 96 25.5t33 68.5q0 41 -25 66.5t-63 45t-81.5 37t-81.5 42.5t-63 62t-25 95
q0 45 16 83t46 65.5t72 43t94 15.5q36 0 72 -8.5t68 -28.5h1l16 23q5 7 14 7h24v-44t0.5 -54l1 -54.5t0.5 -43.5h-35q-4 0 -6 1t-3 6q-13 60 -48.5 98.5t-98.5 38.5q-47 0 -73.5 -22.5t-26.5 -61.5t25.5 -63.5t64 -43.5t83 -36.5t83 -43t64 -63t25.5 -95.5q0 -53 -20.5 -94
t-55.5 -69t-82.5 -42.5t-102.5 -14.5z" />
    <glyph glyph-name="Sacute" unicode="&#x15a;" horiz-adv-x="554" 
d="M264 -14q-57 0 -95 10.5t-67 26.5h-1l-16 -23q-5 -7 -14 -7h-23v48t-0.5 63l-1 63t-0.5 47h35q4 0 6 -1t3 -6q6 -36 18.5 -66t32.5 -51t48.5 -33t67.5 -12q62 0 95 25.5t33 68.5q0 41 -25 66.5t-63 45t-81.5 37t-81.5 42.5t-63 62t-25 95q0 45 16 83t46 65.5t72.5 43
t94.5 15.5q35 0 71.5 -8.5t68.5 -28.5h1l16 23q5 7 14 7h23v-44t0.5 -54l1 -54.5t0.5 -43.5h-35q-4 0 -5.5 1t-3.5 6q-12 60 -48 98.5t-99 38.5q-47 0 -73.5 -22.5t-26.5 -61.5t25.5 -63.5t64 -43.5t83 -36.5t83 -43t64 -63t25.5 -95.5q0 -53 -20.5 -94t-55.5 -69
t-82.5 -42.5t-102.5 -14.5zM237 739q-4 4 1 9l105 129q9 12 18.5 17t20.5 5t21 -5.5t17.5 -14.5t12 -20t4.5 -21q0 -13 -8.5 -23t-20.5 -16l-153 -84z" />
    <glyph glyph-name="Scircumflex" unicode="&#x15c;" horiz-adv-x="554" 
d="M264 -14q-57 0 -95 10.5t-67 26.5h-1l-16 -23q-5 -7 -14 -7h-23v48t-0.5 63l-1 63t-0.5 47h35q4 0 6 -1t3 -6q6 -36 18.5 -66t32.5 -51t48.5 -33t67.5 -12q62 0 95 25.5t33 68.5q0 41 -25 66.5t-63 45t-81.5 37t-81.5 42.5t-63 62t-25 95q0 45 16 83t46 65.5t72.5 43
t94.5 15.5q35 0 71.5 -8.5t68.5 -28.5h1l16 23q5 7 14 7h23v-44t0.5 -54l1 -54.5t0.5 -43.5h-35q-4 0 -5.5 1t-3.5 6q-12 60 -48 98.5t-99 38.5q-47 0 -73.5 -22.5t-26.5 -61.5t25.5 -63.5t64 -43.5t83 -36.5t83 -43t64 -63t25.5 -95.5q0 -53 -20.5 -94t-55.5 -69
t-82.5 -42.5t-102.5 -14.5zM279 803h-2l-124 -88l-20 22q-4 4 1 9l82 120q13 17 25.5 25t36.5 8q25 0 38 -8t25 -25l83 -120q4 -5 0 -9l-19 -22z" />
    <glyph glyph-name="Scaron" unicode="&#x160;" horiz-adv-x="554" 
d="M264 -14q-57 0 -95 10.5t-67 26.5h-1l-16 -23q-5 -7 -14 -7h-23v48t-0.5 63l-1 63t-0.5 47h35q4 0 6 -1t3 -6q6 -36 18.5 -66t32.5 -51t48.5 -33t67.5 -12q62 0 95 25.5t33 68.5q0 41 -25 66.5t-63 45t-81.5 37t-81.5 42.5t-63 62t-25 95q0 45 16 83t46 65.5t72.5 43
t94.5 15.5q35 0 71.5 -8.5t68.5 -28.5h1l16 23q5 7 14 7h23v-44t0.5 -54l1 -54.5t0.5 -43.5h-35q-4 0 -5.5 1t-3.5 6q-12 60 -48 98.5t-99 38.5q-47 0 -73.5 -22.5t-26.5 -61.5t25.5 -63.5t64 -43.5t83 -36.5t83 -43t64 -63t25.5 -95.5q0 -53 -20.5 -94t-55.5 -69
t-82.5 -42.5t-102.5 -14.5zM275 715q-24 0 -37 8t-25 25l-82 120q-5 5 -1 9l20 22l124 -88h2l126 88l19 -22q4 -5 0 -9l-83 -120q-14 -17 -26 -25t-37 -8z" />
    <glyph glyph-name="Scedilla" unicode="&#x15e;" horiz-adv-x="554" 
d="M290 -41q22 -5 41.5 -11.5t34.5 -17t23.5 -25.5t8.5 -36q0 -38 -33 -60.5t-87 -22.5q-18 0 -35.5 3t-31 9t-21.5 14.5t-8 19.5q0 16 9 27t25 11q11 0 17 -7t12 -15t14 -15t22 -7q16 0 24 8.5t8 20.5q0 20 -24 30.5t-65 18.5l27 82q-51 2 -86 12t-63 25h-1l-16 -23
q-5 -7 -14 -7h-23v48t-0.5 63l-1 63t-0.5 47h35q4 0 6 -1t3 -6q6 -36 18.5 -66t32.5 -51t48.5 -33t67.5 -12q67 0 97.5 28t30.5 66q0 41 -25 66.5t-63 45t-81.5 37t-81.5 42.5t-63 62t-25 95q0 45 16 83t46 65.5t72.5 43t94.5 15.5q35 0 71 -8.5t68 -28.5h1l16 23q5 7 14 7
h24v-44t0.5 -54l1 -54.5t0.5 -43.5h-35q-4 0 -5.5 1t-3.5 6q-14 66 -52 101.5t-92 35.5q-21 0 -39.5 -5t-32.5 -15t-22.5 -26t-8.5 -38q0 -39 25.5 -63.5t64 -43.5t83 -36.5t83 -43t64 -63t25.5 -95.5q0 -49 -17 -87.5t-47 -66t-71.5 -44t-89.5 -20.5l-10 -29v0z" />
    <glyph glyph-name="Scommaaccent" unicode="&#x218;" horiz-adv-x="554" 
d="M264 -14q-57 0 -95 10.5t-67 26.5h-1l-16 -23q-5 -7 -14 -7h-23v48t-0.5 63l-1 63t-0.5 47h35q4 0 6 -1t3 -6q6 -36 18.5 -66t32.5 -51t48.5 -33t67.5 -12q62 0 95 25.5t33 68.5q0 41 -25 66.5t-63 45t-81.5 37t-81.5 42.5t-63 62t-25 95q0 45 16 83t46 65.5t72.5 43
t94.5 15.5q35 0 71.5 -8.5t68.5 -28.5h1l16 23q5 7 14 7h23v-44t0.5 -54l1 -54.5t0.5 -43.5h-35q-4 0 -5.5 1t-3.5 6q-12 60 -48 98.5t-99 38.5q-47 0 -73.5 -22.5t-26.5 -61.5t25.5 -63.5t64 -43.5t83 -36.5t83 -43t64 -63t25.5 -95.5q0 -53 -20.5 -94t-55.5 -69
t-82.5 -42.5t-102.5 -14.5zM359 -110q0 -51 -39.5 -78t-106.5 -26v38q32 0 53.5 12t19.5 37h-13q-27 0 -44.5 10t-17.5 35q0 20 16 33.5t48 13.5q37 0 60.5 -19.5t23.5 -55.5z" />
    <glyph glyph-name="Tcaron" unicode="&#x164;" horiz-adv-x="660" 
d="M488 0q-35 1 -78 1.5t-79 0.5t-80 -0.5t-79 -1.5v35q0 8 8 9q27 5 41.5 9.5t21.5 18t8 39t1 72.5v428q0 5 -1.5 7.5t-9.5 2.5h-45q-32 0 -56 -3.5t-41 -17.5t-28.5 -41.5t-17.5 -76.5q-1 -7 -9 -7h-34q0 17 0.5 44.5l1 57t0.5 57.5v46q32 0 76 -1t107 -1h274q63 0 105 1
t74 1v-46t0.5 -57.5l1 -57t0.5 -44.5h-34q-8 0 -9 7q-6 49 -17.5 76.5t-28.5 41.5t-41.5 17.5t-55.5 3.5h-45q-8 0 -9.5 -2.5t-1.5 -7.5v-428q0 -47 1 -72.5t8 -39t21.5 -18t41.5 -9.5q8 -1 8 -9v-35v0zM334 715q-24 0 -37 8t-25 25l-82 120q-5 5 -1 9l20 22l124 -88h2
l126 88l19 -22q4 -5 0 -9l-83 -120q-14 -17 -26 -25t-37 -8z" />
    <glyph glyph-name="Tcommaaccent" unicode="&#x162;" horiz-adv-x="660" 
d="M488 0q-35 1 -78 1.5t-79 0.5t-80 -0.5t-79 -1.5v35q0 8 8 9q27 5 41.5 9.5t21.5 18t8 39t1 72.5v428q0 5 -1.5 7.5t-9.5 2.5h-45q-32 0 -56 -3.5t-41 -17.5t-28.5 -41.5t-17.5 -76.5q-1 -7 -9 -7h-34q0 17 0.5 44.5l1 57t0.5 57.5v46q32 0 76 -1t107 -1h274q63 0 105 1
t74 1v-46t0.5 -57.5l1 -57t0.5 -44.5h-34q-8 0 -9 7q-6 49 -17.5 76.5t-28.5 41.5t-41.5 17.5t-55.5 3.5h-45q-8 0 -9.5 -2.5t-1.5 -7.5v-428q0 -47 1 -72.5t8 -39t21.5 -18t41.5 -9.5q8 -1 8 -9v-35v0zM408 -110q0 -51 -39.5 -78t-106.5 -26v38q32 0 53.5 12t19.5 37h-13
q-27 0 -44.5 10t-17.5 35q0 20 16 33.5t48 13.5q37 0 60.5 -19.5t23.5 -55.5z" />
    <glyph glyph-name="Tcommaaccent" unicode="&#x21a;" horiz-adv-x="660" 
d="M488 0q-35 1 -78 1.5t-79 0.5t-80 -0.5t-79 -1.5v35q0 8 8 9q27 5 41.5 9.5t21.5 18t8 39t1 72.5v428q0 5 -1.5 7.5t-9.5 2.5h-45q-32 0 -56 -3.5t-41 -17.5t-28.5 -41.5t-17.5 -76.5q-1 -7 -9 -7h-34q0 17 0.5 44.5l1 57t0.5 57.5v46q32 0 76 -1t107 -1h274q63 0 105 1
t74 1v-46t0.5 -57.5l1 -57t0.5 -44.5h-34q-8 0 -9 7q-6 49 -17.5 76.5t-28.5 41.5t-41.5 17.5t-55.5 3.5h-45q-8 0 -9.5 -2.5t-1.5 -7.5v-428q0 -47 1 -72.5t8 -39t21.5 -18t41.5 -9.5q8 -1 8 -9v-35v0zM408 -110q0 -51 -39.5 -78t-106.5 -26v38q32 0 53.5 12t19.5 37h-13
q-27 0 -44.5 10t-17.5 35q0 20 16 33.5t48 13.5q37 0 60.5 -19.5t23.5 -55.5z" />
    <glyph glyph-name="Tbar" unicode="&#x166;" horiz-adv-x="660" 
d="M488 0q-35 1 -78 1.5t-79 0.5t-80 -0.5t-79 -1.5v35q0 8 8 9q27 5 41.5 9.5t21.5 18t8 39t1 72.5v139h-139v57h139v232q0 5 -1.5 7.5t-9.5 2.5h-45q-32 0 -56 -3.5t-41 -17.5t-28.5 -41.5t-17.5 -76.5q-1 -7 -9 -7h-34q0 17 0.5 44.5l1 57t0.5 57.5v46q32 0 76 -1t107 -1
h274q63 0 105 1t74 1v-46t0.5 -57.5l1 -57t0.5 -44.5h-34q-8 0 -9 7q-6 49 -17.5 76.5t-28.5 41.5t-41.5 17.5t-55.5 3.5h-45q-8 0 -9.5 -2.5t-1.5 -7.5v-232h139v-57h-139v-139q0 -47 1 -72.5t8 -39t21.5 -18t41.5 -9.5q8 -1 8 -9v-35v0z" />
    <glyph glyph-name="Ugrave" unicode="&#xd9;" horiz-adv-x="762" 
d="M662 253q0 -138 -70.5 -202.5t-199.5 -64.5q-149 0 -220.5 62.5t-71.5 194.5v254q0 47 -1 72.5t-8 39t-21.5 18t-41.5 9.5q-8 1 -8 9v35q35 -1 78 -1.5t79 -0.5t80 0.5t79 1.5v-35q0 -8 -8 -9q-27 -5 -41.5 -9.5t-21.5 -18t-8 -39t-1 -72.5v-274q0 -72 38 -116t124 -44
q81 0 122 43.5t41 126.5v164q0 79 -1.5 124t-11.5 68.5t-31.5 32t-60.5 14.5q-8 1 -8 9v35q35 -1 78 -1.5t79 -0.5h32t27 0.5l26.5 1t31.5 0.5v-35q0 -8 -8 -9q-27 -5 -41.5 -13t-21.5 -31.5t-8 -69t-1 -125.5v-144v0zM282 799q-12 6 -20.5 16t-8.5 23q0 10 4.5 21t12 20
t17.5 14.5t21 5.5q22 0 39 -22l105 -129q5 -5 1 -9l-18 -24z" />
    <glyph glyph-name="Uacute" unicode="&#xda;" horiz-adv-x="762" 
d="M662 253q0 -138 -70.5 -202.5t-199.5 -64.5q-149 0 -220.5 62.5t-71.5 194.5v254q0 47 -1 72.5t-8 39t-21.5 18t-41.5 9.5q-8 1 -8 9v35q35 -1 78 -1.5t79 -0.5t80 0.5t79 1.5v-35q0 -8 -8 -9q-27 -5 -41.5 -9.5t-21.5 -18t-8 -39t-1 -72.5v-274q0 -72 38 -116t124 -44
q81 0 122 43.5t41 126.5v164q0 79 -1.5 124t-11.5 68.5t-31.5 32t-60.5 14.5q-8 1 -8 9v35q35 -1 78 -1.5t79 -0.5h32t27 0.5l26.5 1t31.5 0.5v-35q0 -8 -8 -9q-27 -5 -41.5 -13t-21.5 -31.5t-8 -69t-1 -125.5v-144v0zM385 739q-4 4 1 9l105 129q9 12 18.5 17t20.5 5
t21 -5.5t17.5 -14.5t12 -20t4.5 -21q0 -13 -8.5 -23t-20.5 -16l-153 -84z" />
    <glyph glyph-name="Ucircumflex" unicode="&#xdb;" horiz-adv-x="762" 
d="M662 253q0 -138 -70.5 -202.5t-199.5 -64.5q-149 0 -220.5 62.5t-71.5 194.5v254q0 47 -1 72.5t-8 39t-21.5 18t-41.5 9.5q-8 1 -8 9v35q35 -1 78 -1.5t79 -0.5t80 0.5t79 1.5v-35q0 -8 -8 -9q-27 -5 -41.5 -9.5t-21.5 -18t-8 -39t-1 -72.5v-274q0 -72 38 -116t124 -44
q81 0 122 43.5t41 126.5v164q0 79 -1.5 124t-11.5 68.5t-31.5 32t-60.5 14.5q-8 1 -8 9v35q35 -1 78 -1.5t79 -0.5h32t27 0.5l26.5 1t31.5 0.5v-35q0 -8 -8 -9q-27 -5 -41.5 -13t-21.5 -31.5t-8 -69t-1 -125.5v-144v0zM415 803h-2l-124 -88l-20 22q-4 4 1 9l82 120
q13 17 25.5 25t36.5 8q25 0 38 -8t25 -25l83 -120q4 -5 0 -9l-19 -22z" />
    <glyph glyph-name="Utilde" unicode="&#x168;" horiz-adv-x="762" 
d="M662 253q0 -138 -70.5 -202.5t-199.5 -64.5q-149 0 -220.5 62.5t-71.5 194.5v254q0 47 -1 72.5t-8 39t-21.5 18t-41.5 9.5q-8 1 -8 9v35q35 -1 78 -1.5t79 -0.5t80 0.5t79 1.5v-35q0 -8 -8 -9q-27 -5 -41.5 -9.5t-21.5 -18t-8 -39t-1 -72.5v-274q0 -72 38 -116t124 -44
q81 0 122 43.5t41 126.5v164q0 79 -1.5 124t-11.5 68.5t-31.5 32t-60.5 14.5q-8 1 -8 9v35q35 -1 78 -1.5t79 -0.5h32t27 0.5l26.5 1t31.5 0.5v-35q0 -8 -8 -9q-27 -5 -41.5 -13t-21.5 -31.5t-8 -69t-1 -125.5v-144v0zM480 769q-17 0 -35 3.5t-36 7.5l-35 7.5t-30 3.5
q-20 0 -30 -10.5t-15 -35.5l-33 6q-8 1 -6 9q4 22 9 42.5t14.5 36.5t25 25.5t41.5 9.5q16 0 34 -3.5l36 -7l34.5 -7t30.5 -3.5q20 0 30 10.5t16 35.5l33 -6q7 -1 5 -9q-3 -22 -8 -43t-14.5 -37t-25.5 -25.5t-41 -9.5z" />
    <glyph glyph-name="Udieresis" unicode="&#xdc;" horiz-adv-x="762" 
d="M662 253q0 -138 -70.5 -202.5t-199.5 -64.5q-149 0 -220.5 62.5t-71.5 194.5v254q0 47 -1 72.5t-8 39t-21.5 18t-41.5 9.5q-8 1 -8 9v35q35 -1 78 -1.5t79 -0.5t80 0.5t79 1.5v-35q0 -8 -8 -9q-27 -5 -41.5 -9.5t-21.5 -18t-8 -39t-1 -72.5v-274q0 -72 38 -116t124 -44
q81 0 122 43.5t41 126.5v164q0 79 -1.5 124t-11.5 68.5t-31.5 32t-60.5 14.5q-8 1 -8 9v35q35 -1 78 -1.5t79 -0.5h32t27 0.5l26.5 1t31.5 0.5v-35q0 -8 -8 -9q-27 -5 -41.5 -13t-21.5 -31.5t-8 -69t-1 -125.5v-144v0zM388 827q0 -30 -20.5 -51t-55.5 -21t-54 21t-19 51
t20 51t55 21t54.5 -21t19.5 -51zM579 827q0 -30 -20.5 -51t-55.5 -21t-54 21t-19 51t20 51t55 21t54.5 -21t19.5 -51z" />
    <glyph glyph-name="Umacron" unicode="&#x16a;" horiz-adv-x="762" 
d="M662 253q0 -138 -70.5 -202.5t-199.5 -64.5q-149 0 -220.5 62.5t-71.5 194.5v254q0 47 -1 72.5t-8 39t-21.5 18t-41.5 9.5q-8 1 -8 9v35q35 -1 78 -1.5t79 -0.5t80 0.5t79 1.5v-35q0 -8 -8 -9q-27 -5 -41.5 -9.5t-21.5 -18t-8 -39t-1 -72.5v-274q0 -72 38 -116t124 -44
q81 0 122 43.5t41 126.5v164q0 79 -1.5 124t-11.5 68.5t-31.5 32t-60.5 14.5q-8 1 -8 9v35q35 -1 78 -1.5t79 -0.5h32t27 0.5l26.5 1t31.5 0.5v-35q0 -8 -8 -9q-27 -5 -41.5 -13t-21.5 -31.5t-8 -69t-1 -125.5v-144v0zM270 791v89h278v-89h-278z" />
    <glyph glyph-name="Ubreve" unicode="&#x16c;" horiz-adv-x="762" 
d="M662 253q0 -138 -70.5 -202.5t-199.5 -64.5q-149 0 -220.5 62.5t-71.5 194.5v254q0 47 -1 72.5t-8 39t-21.5 18t-41.5 9.5q-8 1 -8 9v35q35 -1 78 -1.5t79 -0.5t80 0.5t79 1.5v-35q0 -8 -8 -9q-27 -5 -41.5 -9.5t-21.5 -18t-8 -39t-1 -72.5v-274q0 -72 38 -116t124 -44
q81 0 122 43.5t41 126.5v164q0 79 -1.5 124t-11.5 68.5t-31.5 32t-60.5 14.5q-8 1 -8 9v35q35 -1 78 -1.5t79 -0.5h32t27 0.5l26.5 1t31.5 0.5v-35q0 -8 -8 -9q-27 -5 -41.5 -13t-21.5 -31.5t-8 -69t-1 -125.5v-144v0zM410 752q-37 0 -63 9.5t-43 26.5t-27 42t-14 56
q-1 7 6 8l34 5q7 -36 34 -49.5t73 -13.5t73 13.5t34 49.5l34 -5q7 -1 6 -8q-5 -31 -14.5 -56t-26.5 -42t-43 -26.5t-63 -9.5z" />
    <glyph glyph-name="Uring" unicode="&#x16e;" horiz-adv-x="762" 
d="M662 253q0 -138 -70.5 -202.5t-199.5 -64.5q-149 0 -220.5 62.5t-71.5 194.5v254q0 47 -1 72.5t-8 39t-21.5 18t-41.5 9.5q-8 1 -8 9v35q35 -1 78 -1.5t79 -0.5t80 0.5t79 1.5v-35q0 -8 -8 -9q-27 -5 -41.5 -9.5t-21.5 -18t-8 -39t-1 -72.5v-274q0 -72 38 -116t124 -44
q81 0 122 43.5t41 126.5v164q0 79 -1.5 124t-11.5 68.5t-31.5 32t-60.5 14.5q-8 1 -8 9v35q35 -1 78 -1.5t79 -0.5h32t27 0.5l26.5 1t31.5 0.5v-35q0 -8 -8 -9q-27 -5 -41.5 -13t-21.5 -31.5t-8 -69t-1 -125.5v-144v0zM450 819q0 10 -2 20.5t-7 19.5t-12.5 14.5t-19.5 5.5
q-11 0 -18.5 -5.5t-12 -14t-6.5 -19t-2 -20.5q0 -21 8 -40.5t33 -19.5q11 0 18.5 5.5t12 14t6.5 19t2 20.5zM528 821q0 -45 -32 -72.5t-86 -27.5q-58 0 -88 26.5t-30 71.5q0 44 31 71t87 27q57 0 87.5 -26.5t30.5 -69.5z" />
    <glyph glyph-name="Uhungarumlaut" unicode="&#x170;" horiz-adv-x="762" 
d="M662 253q0 -138 -70.5 -202.5t-199.5 -64.5q-149 0 -220.5 62.5t-71.5 194.5v254q0 47 -1 72.5t-8 39t-21.5 18t-41.5 9.5q-8 1 -8 9v35q35 -1 78 -1.5t79 -0.5t80 0.5t79 1.5v-35q0 -8 -8 -9q-27 -5 -41.5 -9.5t-21.5 -18t-8 -39t-1 -72.5v-274q0 -72 38 -116t124 -44
q81 0 122 43.5t41 126.5v164q0 79 -1.5 124t-11.5 68.5t-31.5 32t-60.5 14.5q-8 1 -8 9v35q35 -1 78 -1.5t79 -0.5h32t27 0.5l26.5 1t31.5 0.5v-35q0 -8 -8 -9q-27 -5 -41.5 -13t-21.5 -31.5t-8 -69t-1 -125.5v-144v0zM297 743q-3 5 1 9l111 128q14 19 35 19q11 0 21 -6
t17.5 -15t12 -19.5t4.5 -20.5q0 -13 -8.5 -23t-20.5 -16l-154 -84zM487 743q-3 5 1 9l111 128q14 19 35 19q11 0 21 -6t17.5 -15t12 -19.5t4.5 -20.5q0 -13 -8.5 -23t-20.5 -16l-154 -84z" />
    <glyph glyph-name="Uogonek" unicode="&#x172;" horiz-adv-x="762" 
d="M399 -214q-42 0 -64.5 23t-22.5 59q0 32 17.5 61.5t44.5 57.5q-140 3 -207 65.5t-67 190.5v254q0 47 -1 72.5t-8 39t-21.5 18t-41.5 9.5q-8 1 -8 9v35q35 -1 78 -1.5t79 -0.5t80 0.5t79 1.5v-35q0 -8 -8 -9q-27 -5 -41.5 -9.5t-21.5 -18t-8 -39t-1 -72.5v-274
q0 -72 38 -116t124 -44q81 0 122 43.5t41 126.5v164q0 79 -1.5 124t-11.5 68.5t-31.5 32t-60.5 14.5q-8 1 -8 9v35q35 -1 78 -1.5t79 -0.5h32t27 0.5l26.5 1t31.5 0.5v-35q0 -8 -8 -9q-27 -5 -41.5 -13t-21.5 -31.5t-8 -69t-1 -125.5v-144q0 -129 -60 -193t-173 -72
q-16 -20 -26 -39.5t-10 -39.5q0 -17 11 -32.5t35 -15.5q30 0 53 22l18 -26q3 -4 2.5 -6t-3.5 -6q-17 -20 -44.5 -39.5t-65.5 -19.5z" />
    <glyph glyph-name="Wgrave" unicode="&#x1e80;" horiz-adv-x="1018" 
d="M648 -14q-5 26 -13.5 58l-17.5 65l-101 370h-4l-120 -371l-19.5 -62t-15.5 -60h-105q-5 26 -14 60.5t-18 63.5l-105 354q-18 60 -30 93t-22.5 49.5t-22 21t-29.5 8.5q-6 1 -6 9v35q32 -1 73 -1.5t76 -0.5h39.5t45.5 0.5l44.5 1t38.5 0.5v-35q0 -8 -7 -9q-42 -4 -58.5 -12
t-16.5 -31q0 -16 8 -45.5l21 -77.5l78 -279h4l117 367l19.5 63t16.5 59h102q5 -26 15 -60.5l18 -63.5l101 -364h4l84 279q8 27 14 53.5t6 43.5q0 21 -6 33.5t-16 19.5t-23 10t-28 5q-7 1 -7 9v35q33 -1 64.5 -1.5t66.5 -0.5h31t26.5 0.5l26 1t30.5 0.5v-35q0 -7 -8 -9
q-16 -4 -26 -10.5t-20 -23.5t-22 -50.5t-31 -91.5l-120 -352l-19.5 -62t-16.5 -60h-102zM411 799q-12 6 -20.5 16t-8.5 23q0 10 4.5 21t12 20t17.5 14.5t21 5.5q22 0 39 -22l105 -129q5 -5 1 -9l-18 -24z" />
    <glyph glyph-name="Wacute" unicode="&#x1e82;" horiz-adv-x="1018" 
d="M648 -14q-5 26 -13.5 58l-17.5 65l-101 370h-4l-120 -371l-19.5 -62t-15.5 -60h-105q-5 26 -14 60.5t-18 63.5l-105 354q-18 60 -30 93t-22.5 49.5t-22 21t-29.5 8.5q-6 1 -6 9v35q32 -1 73 -1.5t76 -0.5h39.5t45.5 0.5l44.5 1t38.5 0.5v-35q0 -8 -7 -9q-42 -4 -58.5 -12
t-16.5 -31q0 -16 8 -45.5l21 -77.5l78 -279h4l117 367l19.5 63t16.5 59h102q5 -26 15 -60.5l18 -63.5l101 -364h4l84 279q8 27 14 53.5t6 43.5q0 21 -6 33.5t-16 19.5t-23 10t-28 5q-7 1 -7 9v35q33 -1 64.5 -1.5t66.5 -0.5h31t26.5 0.5l26 1t30.5 0.5v-35q0 -7 -8 -9
q-16 -4 -26 -10.5t-20 -23.5t-22 -50.5t-31 -91.5l-120 -352l-19.5 -62t-16.5 -60h-102zM536 739q-4 4 1 9l105 129q9 12 18.5 17t20.5 5t21 -5.5t17.5 -14.5t12 -20t4.5 -21q0 -13 -8.5 -23t-20.5 -16l-153 -84z" />
    <glyph glyph-name="Wcircumflex" unicode="&#x174;" horiz-adv-x="1018" 
d="M648 -14q-5 26 -13.5 58l-17.5 65l-101 370h-4l-120 -371l-19.5 -62t-15.5 -60h-105q-5 26 -14 60.5t-18 63.5l-105 354q-18 60 -30 93t-22.5 49.5t-22 21t-29.5 8.5q-6 1 -6 9v35q32 -1 73 -1.5t76 -0.5h39.5t45.5 0.5l44.5 1t38.5 0.5v-35q0 -8 -7 -9q-42 -4 -58.5 -12
t-16.5 -31q0 -16 8 -45.5l21 -77.5l78 -279h4l117 367l19.5 63t16.5 59h102q5 -26 15 -60.5l18 -63.5l101 -364h4l84 279q8 27 14 53.5t6 43.5q0 21 -6 33.5t-16 19.5t-23 10t-28 5q-7 1 -7 9v35q33 -1 64.5 -1.5t66.5 -0.5h31t26.5 0.5l26 1t30.5 0.5v-35q0 -7 -8 -9
q-16 -4 -26 -10.5t-20 -23.5t-22 -50.5t-31 -91.5l-120 -352l-19.5 -62t-16.5 -60h-102zM551 803h-2l-124 -88l-20 22q-4 4 1 9l82 120q13 17 25.5 25t36.5 8q25 0 38 -8t25 -25l83 -120q4 -5 0 -9l-19 -22z" />
    <glyph glyph-name="Wdieresis" unicode="&#x1e84;" horiz-adv-x="1018" 
d="M648 -14q-5 26 -13.5 58l-17.5 65l-101 370h-4l-120 -371l-19.5 -62t-15.5 -60h-105q-5 26 -14 60.5t-18 63.5l-105 354q-18 60 -30 93t-22.5 49.5t-22 21t-29.5 8.5q-6 1 -6 9v35q32 -1 73 -1.5t76 -0.5h39.5t45.5 0.5l44.5 1t38.5 0.5v-35q0 -8 -7 -9q-42 -4 -58.5 -12
t-16.5 -31q0 -16 8 -45.5l21 -77.5l78 -279h4l117 367l19.5 63t16.5 59h102q5 -26 15 -60.5l18 -63.5l101 -364h4l84 279q8 27 14 53.5t6 43.5q0 21 -6 33.5t-16 19.5t-23 10t-28 5q-7 1 -7 9v35q33 -1 64.5 -1.5t66.5 -0.5h31t26.5 0.5l26 1t30.5 0.5v-35q0 -7 -8 -9
q-16 -4 -26 -10.5t-20 -23.5t-22 -50.5t-31 -91.5l-120 -352l-19.5 -62t-16.5 -60h-102zM527 827q0 -30 -20.5 -51t-55.5 -21t-54 21t-19 51t20 51t55 21t54.5 -21t19.5 -51zM718 827q0 -30 -20.5 -51t-55.5 -21t-54 21t-19 51t20 51t55 21t54.5 -21t19.5 -51z" />
    <glyph glyph-name="Ygrave" unicode="&#x1ef2;" horiz-adv-x="651" 
d="M484 0q-35 1 -78 1.5t-79 0.5t-80 -0.5t-79 -1.5v35q0 8 8 9q27 5 41.5 9.5t21.5 18t8 39t1 72.5v105l-100 176l-53.5 93t-33 49.5t-24 21t-25.5 8.5q-7 1 -7 9v35q35 -1 72 -1.5t74 -0.5q36 0 74.5 0.5t73.5 1.5v-35q0 -8 -8 -9q-26 -3 -33.5 -10.5t-7.5 -20.5
q0 -8 5 -21.5t12.5 -29t17 -32.5t17.5 -33l68 -120h3l62 125q15 29 24 52.5t9 41.5q0 22 -14 33t-46 15q-7 1 -7 9v35q17 0 30.5 -0.5l26.5 -1t27.5 -0.5h32.5q36 0 64.5 0.5t63.5 1.5v-35q0 -8 -8 -9q-18 -4 -30 -9.5t-24.5 -22t-30.5 -47.5l-48 -85l-101 -184v-105
q0 -47 1 -72.5t8 -39t21.5 -18t41.5 -9.5q8 -1 8 -9v-35v0zM219 799q-12 6 -20.5 16t-8.5 23q0 10 4.5 21t12 20t17.5 14.5t21 5.5q22 0 39 -22l105 -129q5 -5 1 -9l-18 -24z" />
    <glyph glyph-name="Yacute" unicode="&#xdd;" horiz-adv-x="651" 
d="M484 0q-35 1 -78 1.5t-79 0.5t-80 -0.5t-79 -1.5v35q0 8 8 9q27 5 41.5 9.5t21.5 18t8 39t1 72.5v105l-100 176l-53.5 93t-33 49.5t-24 21t-25.5 8.5q-7 1 -7 9v35q35 -1 72 -1.5t74 -0.5q36 0 74.5 0.5t73.5 1.5v-35q0 -8 -8 -9q-26 -3 -33.5 -10.5t-7.5 -20.5
q0 -8 5 -21.5t12.5 -29t17 -32.5t17.5 -33l68 -120h3l62 125q15 29 24 52.5t9 41.5q0 22 -14 33t-46 15q-7 1 -7 9v35q17 0 30.5 -0.5l26.5 -1t27.5 -0.5h32.5q36 0 64.5 0.5t63.5 1.5v-35q0 -8 -8 -9q-18 -4 -30 -9.5t-24.5 -22t-30.5 -47.5l-48 -85l-101 -184v-105
q0 -47 1 -72.5t8 -39t21.5 -18t41.5 -9.5q8 -1 8 -9v-35v0zM336 739q-4 4 1 9l105 129q9 12 18.5 17t20.5 5t21 -5.5t17.5 -14.5t12 -20t4.5 -21q0 -13 -8.5 -23t-20.5 -16l-153 -84z" />
    <glyph glyph-name="Ycircumflex" unicode="&#x176;" horiz-adv-x="651" 
d="M484 0q-35 1 -78 1.5t-79 0.5t-80 -0.5t-79 -1.5v35q0 8 8 9q27 5 41.5 9.5t21.5 18t8 39t1 72.5v105l-100 176l-53.5 93t-33 49.5t-24 21t-25.5 8.5q-7 1 -7 9v35q35 -1 72 -1.5t74 -0.5q36 0 74.5 0.5t73.5 1.5v-35q0 -8 -8 -9q-26 -3 -33.5 -10.5t-7.5 -20.5
q0 -8 5 -21.5t12.5 -29t17 -32.5t17.5 -33l68 -120h3l62 125q15 29 24 52.5t9 41.5q0 22 -14 33t-46 15q-7 1 -7 9v35q17 0 30.5 -0.5l26.5 -1t27.5 -0.5h32.5q36 0 64.5 0.5t63.5 1.5v-35q0 -8 -8 -9q-18 -4 -30 -9.5t-24.5 -22t-30.5 -47.5l-48 -85l-101 -184v-105
q0 -47 1 -72.5t8 -39t21.5 -18t41.5 -9.5q8 -1 8 -9v-35v0zM350 803h-2l-124 -88l-20 22q-4 4 1 9l82 120q13 17 25.5 25t36.5 8q25 0 38 -8t25 -25l83 -120q4 -5 0 -9l-19 -22z" />
    <glyph glyph-name="Ydieresis" unicode="&#x178;" horiz-adv-x="651" 
d="M484 0q-35 1 -78 1.5t-79 0.5t-80 -0.5t-79 -1.5v35q0 8 8 9q27 5 41.5 9.5t21.5 18t8 39t1 72.5v105l-100 176l-53.5 93t-33 49.5t-24 21t-25.5 8.5q-7 1 -7 9v35q35 -1 72 -1.5t74 -0.5q36 0 74.5 0.5t73.5 1.5v-35q0 -8 -8 -9q-26 -3 -33.5 -10.5t-7.5 -20.5
q0 -8 5 -21.5t12.5 -29t17 -32.5t17.5 -33l68 -120h3l62 125q15 29 24 52.5t9 41.5q0 22 -14 33t-46 15q-7 1 -7 9v35q17 0 30.5 -0.5l26.5 -1t27.5 -0.5h32.5q36 0 64.5 0.5t63.5 1.5v-35q0 -8 -8 -9q-18 -4 -30 -9.5t-24.5 -22t-30.5 -47.5l-48 -85l-101 -184v-105
q0 -47 1 -72.5t8 -39t21.5 -18t41.5 -9.5q8 -1 8 -9v-35v0zM318 827q0 -30 -20.5 -51t-55.5 -21t-54 21t-19 51t20 51t55 21t54.5 -21t19.5 -51zM509 827q0 -30 -20.5 -51t-55.5 -21t-54 21t-19 51t20 51t55 21t54.5 -21t19.5 -51z" />
    <glyph glyph-name="Zacute" unicode="&#x179;" horiz-adv-x="585" 
d="M553 0q-16 0 -30 0.5t-31 0.5t-38.5 0.5t-52.5 0.5h-254h-32t-27.5 -0.5l-27 -1t-31.5 -0.5v63q16 21 34.5 51.5l33.5 56.5l249 447v3h-119q-32 0 -56 -3.5t-41.5 -17.5t-28.5 -42t-17 -76q-1 -7 -9 -7h-34q0 17 0.5 44.5l1 57t0.5 57.5v46q32 0 74 -1t105 -1h154
q37 0 78 0.5t76 1.5v-67q-15 -21 -34.5 -51.5l-35.5 -57.5l-253 -441v-4h162q31 0 56 6t43.5 23t30.5 48.5t18 81.5q1 7 9 7h36q0 -17 -1.5 -47.5l-3 -64l-3 -64.5t-1.5 -49zM260 739q-4 4 1 9l105 129q9 12 18.5 17t20.5 5t21 -5.5t17.5 -14.5t12 -20t4.5 -21
q0 -13 -8.5 -23t-20.5 -16l-153 -84z" />
    <glyph glyph-name="Zcaron" unicode="&#x17d;" horiz-adv-x="585" 
d="M553 0q-16 0 -30 0.5t-31 0.5t-38.5 0.5t-52.5 0.5h-254h-32t-27.5 -0.5l-27 -1t-31.5 -0.5v63q16 21 34.5 51.5l33.5 56.5l249 447v3h-119q-32 0 -56 -3.5t-41.5 -17.5t-28.5 -42t-17 -76q-1 -7 -9 -7h-34q0 17 0.5 44.5l1 57t0.5 57.5v46q32 0 74 -1t105 -1h154
q37 0 78 0.5t76 1.5v-67q-15 -21 -34.5 -51.5l-35.5 -57.5l-253 -441v-4h162q31 0 56 6t43.5 23t30.5 48.5t18 81.5q1 7 9 7h36q0 -17 -1.5 -47.5l-3 -64l-3 -64.5t-1.5 -49zM299 715q-24 0 -37 8t-25 25l-82 120q-5 5 -1 9l20 22l124 -88h2l126 88l19 -22q4 -5 0 -9
l-83 -120q-14 -17 -26 -25t-37 -8z" />
    <glyph glyph-name="Zdotaccent" unicode="&#x17b;" horiz-adv-x="585" 
d="M553 0q-16 0 -30 0.5t-31 0.5t-38.5 0.5t-52.5 0.5h-254h-32t-27.5 -0.5l-27 -1t-31.5 -0.5v63q16 21 34.5 51.5l33.5 56.5l249 447v3h-119q-32 0 -56 -3.5t-41.5 -17.5t-28.5 -42t-17 -76q-1 -7 -9 -7h-34q0 17 0.5 44.5l1 57t0.5 57.5v46q32 0 74 -1t105 -1h154
q37 0 78 0.5t76 1.5v-67q-15 -21 -34.5 -51.5l-35.5 -57.5l-253 -441v-4h162q31 0 56 6t43.5 23t30.5 48.5t18 81.5q1 7 9 7h36q0 -17 -1.5 -47.5l-3 -64l-3 -64.5t-1.5 -49zM388 824q0 -30 -23.5 -51.5t-66.5 -21.5q-45 0 -66.5 21.5t-21.5 51.5q0 32 23.5 53.5t65.5 21.5
q44 0 66.5 -21.5t22.5 -53.5z" />
    <glyph glyph-name="Eng" unicode="&#x14a;" horiz-adv-x="776" 
d="M672 37q0 -58 -13.5 -104.5t-38.5 -79t-61 -50t-81 -17.5q-18 0 -36.5 3t-33.5 11t-24.5 20.5t-9.5 32.5q0 24 15 40t33 16q16 0 27 -8t21.5 -17.5t21.5 -17.5t26 -8q17 0 31.5 13t14.5 45q0 26 -15.5 67.5t-60.5 107.5l-305 436h-2v-244q0 -77 2 -122t12 -69.5t32 -34
t62 -13.5q7 -1 7 -9v-35q-35 1 -76 1.5t-78 0.5h-32t-27 -0.5l-26.5 -1t-31.5 -0.5v35q0 8 8 9q27 5 41.5 14t21.5 33.5t8 69.5t1 122v214q0 47 -1 72.5t-8 39t-21.5 18t-41.5 9.5q-8 1 -8 9v35q14 0 31.5 -0.5t35.5 -0.5t33.5 -0.5t24.5 -0.5q30 0 63 0.5t53 1.5l328 -473
h2v190q0 77 -2 122t-12 69.5t-32 33.5t-62 14q-7 1 -7 9v35q35 -1 75.5 -1.5t77.5 -0.5h32t27.5 0.5l27 1t31.5 0.5v-35q0 -8 -8 -9q-27 -5 -41.5 -14t-21.5 -33.5t-8 -69.5t-1 -122v-360v0z" />
    <glyph glyph-name="Eth" unicode="&#xd0;" horiz-adv-x="756" 
d="M719 340q0 -81 -28 -144t-77.5 -106.5t-117.5 -66.5t-149 -23q-15 0 -35.5 0.5t-42.5 0.5t-44.5 0.5t-40.5 0.5q-36 0 -80 -0.5t-79 -1.5v35q0 8 8 9q27 5 41.5 9.5t21.5 18t8 39t1 72.5v144h-80v57h80v113q0 47 -1 72.5t-8 39t-21.5 18t-41.5 9.5q-8 1 -8 9v35
q35 -1 78.5 -1.5t79.5 -0.5q16 0 40.5 0.5t49.5 0.5t47.5 0.5t34.5 0.5q87 0 154.5 -23t114 -66.5t71 -107t24.5 -143.5zM550 325q0 73 -15 128.5t-43 93t-66.5 56.5t-86.5 19h-31.5t-35.5 -2q-8 -1 -9.5 -3t-1.5 -7v-226h137v-57h-137v-128q0 -43 1.5 -70.5t10 -43
t25.5 -21.5t49 -6q47 0 84.5 14.5t64 46.5t40.5 83t14 123z" />
    <glyph glyph-name="Thorn" unicode="&#xde;" horiz-adv-x="640" 
d="M448 382q0 70 -34 101t-88 32h-29t-27 -2q-6 -1 -7.5 -2t-1.5 -6v-278h40q72 0 109.5 35.5t37.5 119.5zM261 571q20 1 38 1h32q47 0 96.5 -7.5t90 -27.5t66.5 -55t26 -90q0 -38 -12 -77t-45 -71t-92 -52.5t-153 -20.5h-47v-8q0 -40 2.5 -62t12 -33t27.5 -15.5t50 -8.5
q8 -1 8 -9v-35q-17 0 -39.5 0.5t-47.5 1t-48.5 0.5h-41.5q-36 0 -80 -0.5t-79 -1.5v35q0 8 8 9q27 5 41.5 9.5t21.5 18t8 39t1 72.5v314q0 47 -1 72.5t-8 39t-21.5 18t-41.5 9.5q-8 1 -8 9v35q35 -1 78.5 -1.5t79.5 -0.5t79.5 0.5t78.5 1.5v-35q0 -8 -8 -9
q-19 -3 -32.5 -6.5t-21.5 -9.5t-12.5 -17.5t-5.5 -31.5z" />
    <glyph glyph-name="a" unicode="a" horiz-adv-x="559" 
d="M444 -9q-86 0 -104 82h-3q-34 -40 -73.5 -63.5t-93.5 -23.5q-56 0 -93.5 30.5t-37.5 89.5q0 38 16 66.5t51.5 53.5t92 50t136.5 55v46q0 54 -19.5 79.5t-63.5 25.5q-42 0 -57 -18t-22 -47q-7 -30 -17 -47.5t-36 -17.5t-44 18t-18 43q0 23 16.5 44.5t46 38t70 26.5
t88.5 10q102 0 150.5 -40.5t48.5 -138.5q0 -49 -1 -98.5t-1 -110.5q0 -35 5.5 -58.5t31.5 -23.5q13 0 22.5 5t18.5 13l17 -26q4 -6 -1 -11q-26 -23 -57 -37.5t-69 -14.5zM335 282q-48 -17 -77.5 -33.5t-45.5 -33.5t-21 -34.5t-5 -35.5q0 -28 15.5 -48.5t48.5 -20.5
q27 0 49 14.5t36 32.5v159z" />
    <glyph glyph-name="b" unicode="b" horiz-adv-x="603" 
d="M419 257q0 93 -27.5 137t-79.5 44q-29 0 -51.5 -11.5t-38.5 -31.5v-310q14 -14 34.5 -21.5t43.5 -7.5q33 0 55.5 15t37 41.5t20.5 63.5t6 81zM571 270q0 -63 -17 -115.5t-48.5 -90t-75 -58t-95.5 -20.5q-47 0 -89 15.5t-70 42.5h-2l-39 -46q-3 -4 -6.5 -4.5t-8.5 -0.5
h-31q-5 0 -8 0.5t-3 5.5q1 20 1.5 47.5t0.5 50.5v455q0 43 -1.5 66t-7 35t-17 16t-31.5 9q-7 1 -7 9v29l197 20q11 1 11 -6q0 -20 -1 -49.5t-1 -52.5v-183h2q31 39 70 63t89 24q42 0 76.5 -17.5t59.5 -51t38.5 -82t13.5 -111.5z" />
    <glyph glyph-name="c" unicode="c" horiz-adv-x="486" 
d="M264 -14q-60 0 -104 21t-72.5 57.5t-42.5 85t-14 103.5q0 63 17 114.5t49.5 88t79 56.5t105.5 20q37 0 68.5 -6.5t54.5 -20t36 -33.5t13 -46q0 -29 -19.5 -45t-45.5 -16q-16 0 -25 8.5t-15 21t-10.5 27t-11.5 27t-18.5 21t-30.5 8.5q-48 0 -70.5 -54t-22.5 -149
q0 -40 6 -77t21 -65.5t39.5 -45.5t61.5 -17q42 0 69.5 19.5t50.5 52.5l28 -19q3 -2 4 -4t-1 -7q-29 -58 -80.5 -92t-119.5 -34z" />
    <glyph glyph-name="d" unicode="d" horiz-adv-x="603" 
d="M380 433q-14 14 -34 21.5t-43 7.5q-33 0 -56 -15t-37 -41.5t-20.5 -63.5t-6.5 -81q0 -93 28 -137t80 -44q29 0 51 11.5t38 31.5v310zM409 -10q-9 -1 -11 6q-5 17 -9 38t-6 41h-3q-31 -40 -70 -64.5t-90 -24.5q-42 0 -77 17.5t-59.5 51t-38.5 82t-14 111.5q0 67 18.5 120
t50 89.5t73.5 55.5t89 19q63 0 116 -33h2v53q0 43 -1 66t-6.5 35t-17 16t-32.5 9q-7 1 -7 9v29l197 20q11 2 11 -6q0 -20 -1 -49.5t-1 -52.5v-454q0 -42 1.5 -65.5t7.5 -35.5t17 -16.5t31 -8.5q7 -1 7 -9v-29z" />
    <glyph glyph-name="e" unicode="e" horiz-adv-x="548" 
d="M290 -14q-72 0 -121.5 23.5t-80 61t-44 85t-13.5 96.5q0 63 18 115t51.5 88.5t81 56.5t106.5 20q110 0 167.5 -60t57.5 -162q0 -8 -2.5 -10t-7.5 -2h-320v-25q0 -41 7.5 -78t25.5 -65t47.5 -44.5t72.5 -16.5q46 0 80.5 19.5t60.5 53.5l28 -19q3 -2 4 -4t-1 -7
q-32 -60 -87.5 -93t-130.5 -33zM367 400q0 35 -20.5 57t-55.5 22q-48 0 -72 -36.5t-32 -98.5h129q51 0 51 56z" />
    <glyph glyph-name="f" unicode="f" horiz-adv-x="375" 
d="M327 0q-16 0 -37.5 0.5l-44.5 1t-45.5 0.5h-38.5q-33 0 -68 -0.5t-67 -1.5v29q0 8 7 9q21 4 32.5 8t17 16t6.5 35.5t1 66.5v282h-55q-5 0 -5.5 2.5t-0.5 7.5v52h61v16q0 99 53 155.5t168 56.5q26 0 52.5 -5t48 -15.5t35 -27t13.5 -39.5q0 -28 -20.5 -43.5t-44.5 -15.5
q-23 0 -32.5 15t-16 33.5t-15.5 33.5t-32 15t-36 -11t-20 -31.5t-9 -51t-2 -69.5v-16h123v-62h-123v-282q0 -42 1.5 -65.5t10 -35.5t26 -16.5t50.5 -8.5q7 -1 7 -9v-29v0z" />
    <glyph glyph-name="g" unicode="g" horiz-adv-x="541" 
d="M517 -26q0 -43 -20 -78t-55 -59.5t-83 -37.5t-104 -13q-43 0 -84 7.5t-73 24t-51.5 41.5t-19.5 60q0 28 18.5 51t54.5 23q19 0 33.5 -8t14.5 -25q0 -8 -2.5 -13.5t-5.5 -11.5t-5.5 -12.5t-2.5 -16.5q0 -18 12 -30.5t31 -21t42.5 -12.5t47.5 -4q25 0 49.5 5t43.5 16
t30.5 28t11.5 42q0 35 -20.5 50.5t-66.5 17.5l-115 7q-25 1 -49.5 6t-44 15.5t-31.5 28.5t-12 47q0 38 19 64t45 47v2q-45 21 -67.5 60.5t-22.5 88.5q0 37 14.5 68t41.5 53.5t65.5 35t85.5 12.5q44 0 77.5 -10t59.5 -27q20 14 44.5 25.5t51.5 11.5t45 -14t18 -37
q0 -19 -10.5 -32t-27.5 -13q-13 0 -20.5 5.5t-14.5 12.5t-14 12.5t-19 5.5q-5 0 -10 -2l-10 -4v-2q36 -45 36 -106q0 -38 -14.5 -69t-41 -53.5t-64.5 -35t-85 -12.5q-22 0 -41.5 2.5t-36.5 7.5q-22 -17 -22 -41q0 -20 16.5 -28t45.5 -9l111 -3q47 -2 84 -9t63 -23t40 -43
t14 -68zM311 358q0 25 -3 47.5t-11.5 40t-22 28t-34.5 10.5q-20 0 -32.5 -10.5t-20.5 -27t-11 -38.5t-3 -44q0 -26 3.5 -48.5t11.5 -40t21.5 -27.5t34.5 -10q20 0 33 10t20.5 26.5t10.5 38.5t3 45z" />
    <glyph glyph-name="h" unicode="h" horiz-adv-x="613" 
d="M601 0q-32 1 -64.5 1.5t-65.5 0.5t-68 -0.5t-67 -1.5v29q0 8 7 9q20 4 31 8t16 16t6 35.5t1 66.5v177q0 48 -21 72.5t-59 24.5q-27 0 -51 -11.5t-41 -31.5v-231q0 -43 1 -66.5t6.5 -35.5t16.5 -16t31 -8q7 -1 7 -9v-29q-32 1 -66.5 1.5t-67.5 0.5t-67.5 -0.5t-66.5 -1.5
v29q0 8 7 9q21 4 32.5 8t17 16t6.5 35.5t1 66.5v388q0 43 -1 66t-6.5 35t-17 16t-32.5 9q-7 1 -7 9v29l197 20q11 2 11 -6q0 -20 -1 -49.5t-1 -52.5v-183h2q32 37 70 62t92 25q33 0 60.5 -11t47.5 -31t31 -49t11 -66v-211q0 -43 1 -66.5t6 -35.5t16.5 -16t31.5 -8q7 -1 7 -9
v-29v0z" />
    <glyph glyph-name="i" unicode="i" horiz-adv-x="309" 
d="M232 662q0 -31 -23 -52.5t-67 -21.5q-45 0 -66 21.5t-21 52.5t23.5 52.5t65.5 21.5q44 0 66 -21.5t22 -52.5zM289 0q-32 1 -66.5 1.5t-67.5 0.5t-68.5 -0.5t-67.5 -1.5v29q0 8 7 9q21 4 32.5 8t17 16t6.5 35.5t1 66.5v180q0 43 -1 66t-6.5 35t-17 16t-32.5 9q-7 1 -7 9
v29l197 20q11 2 11 -6q-1 -20 -1.5 -49.5t-0.5 -52.5v-256q0 -43 1 -66.5t6.5 -35.5t17 -16t32.5 -8q7 -1 7 -9v-29z" />
    <glyph glyph-name="j" unicode="j" horiz-adv-x="311" 
d="M235 662q0 -31 -23.5 -52.5t-66.5 -21.5q-45 0 -66.5 21.5t-21.5 52.5t23.5 52.5t65.5 21.5q44 0 66.5 -21.5t22.5 -52.5zM228 29q0 -62 -14.5 -107.5t-41.5 -75.5t-65.5 -45t-85.5 -15q-26 0 -51.5 5.5t-46 16.5t-33.5 29t-13 43q0 14 5.5 25.5t14.5 19.5t19.5 12.5
t20.5 4.5q25 0 35 -16.5t16.5 -36.5t14 -36.5t26.5 -16.5q38 0 47.5 46.5t9.5 146.5v315q0 43 -1.5 66t-7 35t-17 16t-31.5 9q-7 1 -7 9v29l197 20q11 2 11 -6q-1 -20 -1.5 -49.5t-0.5 -52.5v-391z" />
    <glyph glyph-name="k" unicode="k" horiz-adv-x="583" 
d="M580 0q-15 0 -25.5 0.5t-20 1t-20.5 0.5h-26q-8 0 -18.5 -0.5t-21.5 -0.5t-21.5 -0.5t-16.5 -0.5q-8 0 -11.5 2t-8.5 10l-15 28l-15.5 28l-17.5 31l-80 143h-2l-35 -37v-41q0 -43 1.5 -66.5t7.5 -35.5t17 -16t29 -8q7 -1 7 -9v-29q-32 1 -65.5 1.5t-66.5 0.5t-68.5 -0.5
t-67.5 -1.5v29q0 8 7 9q21 4 32.5 8t17 16t6.5 35.5t1 66.5v388q0 43 -1 66t-6.5 35t-17 16t-32.5 9q-7 1 -7 9v29l197 20q11 2 11 -6q-1 -20 -1.5 -49.5t-0.5 -52.5v-341h2l69 73q31 34 44 55t13 35q0 16 -11 22t-35 8q-6 0 -6 9v29q29 -1 66 -1.5t67 -0.5t63 1t53 1v-29
q0 -7 -7 -9q-25 -6 -41.5 -12t-33 -17.5t-36.5 -30.5t-51 -52l-21 -23l108 -185q23 -38 37.5 -60t25.5 -34.5t20.5 -18t22.5 -9.5q6 -1 6 -9v-29v0z" />
    <glyph glyph-name="l" unicode="l" horiz-adv-x="309" 
d="M289 0q-32 1 -66.5 1.5t-67.5 0.5t-68.5 -0.5t-67.5 -1.5v29q0 8 7 9q21 4 32.5 8t17 16t6.5 35.5t1 66.5v388q0 43 -1 66t-6.5 35t-17 16t-32.5 9q-7 1 -7 9v29l197 20q11 2 11 -6q-1 -20 -1.5 -49.5t-0.5 -52.5v-464q0 -43 1 -66.5t6.5 -35.5t17 -16t32.5 -8q7 -1 7 -9
v-29v0z" />
    <glyph glyph-name="m" unicode="m" horiz-adv-x="930" 
d="M919 0q-32 1 -66.5 1.5t-67.5 0.5t-67.5 -0.5t-66.5 -1.5v29q0 8 7 9q20 4 31 8t16.5 16t6.5 35.5t1 66.5v177q0 48 -21.5 72.5t-59.5 24.5q-54 0 -94 -45q0 -3 0.5 -8t0.5 -10v-211q0 -43 1 -66.5t6 -35.5t16.5 -16t31.5 -8q7 -1 7 -9v-29q-32 1 -64.5 1.5t-65.5 0.5
t-68 -0.5t-67 -1.5v29q0 8 7 9q20 4 31 8t16 16t6 35.5t1 66.5v177q0 48 -21 72.5t-59 24.5q-27 0 -51 -11.5t-41 -31.5v-231q0 -43 1 -66.5t6.5 -35.5t16.5 -16t31 -8q7 -1 7 -9v-29q-32 1 -66.5 1.5t-67.5 0.5t-67.5 -0.5t-66.5 -1.5v29q0 8 7 9q21 4 32.5 8t17 16
t6.5 35.5t1 66.5v180q0 42 -1.5 65t-7.5 35t-17.5 16.5t-30.5 9.5q-7 1 -7 9v29l178 20q9 1 11 -6q5 -17 8.5 -38t5.5 -41h3q33 38 71.5 63.5t92.5 25.5q51 0 87.5 -25t52.5 -70h3q40 48 81 71.5t91 23.5q33 0 60.5 -11t47.5 -31t31.5 -49t11.5 -66v-211q0 -43 1 -66.5
t6.5 -35.5t17 -16t32.5 -8q7 -1 7 -9v-29v0z" />
    <glyph glyph-name="n" unicode="n" horiz-adv-x="625" 
d="M613 0q-32 1 -68.5 1.5t-69.5 0.5t-66.5 -0.5t-65.5 -1.5v29q0 8 7 9q21 4 32.5 8t17 16t6.5 35.5t1 66.5v176q0 51 -24 74.5t-62 23.5q-29 0 -53.5 -11.5t-42.5 -31.5v-231q0 -43 1 -66.5t6.5 -35.5t17 -16t32.5 -8q7 -1 7 -9v-29q-32 1 -66.5 1.5t-67.5 0.5t-68.5 -0.5
t-67.5 -1.5v29q0 8 7 9q21 4 32.5 8t17 16t6.5 35.5t1 66.5v180q0 42 -1.5 65t-7.5 35t-17.5 16.5t-30.5 9.5q-7 1 -7 9v29l178 20q9 1 11 -6q5 -17 8.5 -38t5.5 -41h3q34 38 73.5 63.5t96.5 25.5q33 0 61 -11t49 -31t32.5 -49t11.5 -66v-211q0 -43 1 -66.5t6.5 -35.5
t17 -16t32.5 -8q7 -1 7 -9v-29v0z" />
    <glyph glyph-name="o" unicode="o" horiz-adv-x="587" 
d="M402 255q0 45 -4 85.5t-16 71.5t-33.5 49t-57.5 18q-33 0 -54 -18.5t-32.5 -48.5t-15.5 -69t-4 -80q0 -45 4 -85.5t16 -71.5t33.5 -49t57.5 -18q33 0 54 18.5t32.5 48.5t15.5 69t4 80zM556 255q0 -61 -18.5 -110.5t-53 -85t-82.5 -54.5t-108 -19q-64 0 -113 20t-82.5 57
t-50.5 87.5t-17 112.5q0 61 18.5 110.5t53 85t82.5 54.5t108 19q64 0 113 -20t82.5 -57t50.5 -88t17 -112z" />
    <glyph glyph-name="p" unicode="p" horiz-adv-x="606" 
d="M422 257q0 93 -27.5 137t-79.5 44q-29 0 -51.5 -11.5t-38.5 -31.5v-310q14 -14 34.5 -21.5t43.5 -7.5q33 0 55.5 15t37 41.5t20.5 63.5t6 81zM574 270q0 -67 -18.5 -120t-50 -89.5t-73.5 -55.5t-88 -19q-62 0 -117 33h-2v-55q0 -43 1.5 -66.5t9 -35.5t23 -16t43.5 -8
q7 -1 7 -9v-29q-16 0 -36 0.5l-41 1t-41.5 0.5h-36.5q-33 0 -68 -0.5t-67 -1.5v29q0 8 7 9q21 4 32.5 8t17 16t6.5 35.5t1 66.5v380q0 42 -1.5 65t-7.5 35t-17.5 16.5t-30.5 9.5q-7 1 -7 9v29l178 20q9 1 11 -6q5 -17 8.5 -38t5.5 -41h3q32 40 71 64.5t90 24.5
q42 0 76.5 -17.5t59.5 -51t38.5 -82t13.5 -111.5z" />
    <glyph glyph-name="q" unicode="q" horiz-adv-x="602" 
d="M589 -200q-32 1 -76 1.5t-79 0.5t-71.5 -0.5t-69.5 -1.5v29q0 8 7 9q30 4 46 8t23.5 16t9 35.5t1.5 66.5v109h-1q-32 -39 -70.5 -63t-88.5 -24q-42 0 -77 17.5t-59.5 51t-38.5 82t-14 111.5t17 115t48.5 89.5t75 58.5t96.5 21q46 0 88.5 -15.5t69.5 -42.5h2l40 46
q3 4 6 4.5t8 0.5h32q5 0 8 -0.5t3 -5.5q-1 -20 -2 -47.5t-1 -50.5v-457q0 -43 1 -66.5t7 -35.5t18 -16t34 -8q7 -1 7 -9v-29zM380 433q-14 14 -34 21.5t-43 7.5q-33 0 -56 -15t-37 -41.5t-20.5 -63.5t-6.5 -81q0 -93 28 -137t80 -44q29 0 51 11.5t38 31.5v310z" />
    <glyph glyph-name="r" unicode="r" horiz-adv-x="436" 
d="M319 0q-16 0 -36 0.5l-41.5 1t-42.5 0.5h-37q-33 0 -72 -0.5t-71 -1.5v29q0 8 7 9q21 4 32.5 8t17 16t6.5 35.5t1 66.5v180q0 41 -2 64.5t-8 35.5t-17.5 16.5t-30.5 9.5q-7 1 -7 9v29l177 20q10 1 11 -6q5 -17 9 -36.5t6 -41.5h3l28.5 33t30 28t33.5 19.5t38 7.5
q37 0 58 -25t21 -59q0 -29 -19.5 -48t-42.5 -19q-17 0 -25.5 8t-16 18t-16.5 18t-26 8q-15 0 -31 -10t-31 -27v-232q0 -42 1.5 -65t10 -35t26 -16.5t49.5 -9.5q7 -1 7 -9v-29v0z" />
    <glyph glyph-name="s" unicode="s" horiz-adv-x="437" 
d="M411 163q0 -41 -16 -74t-43 -56t-64 -35t-79 -12q-35 0 -65 6.5t-59 23.5h-2l-12 -18q-4 -5 -9 -5h-22q0 16 -0.5 40t-0.5 49t-0.5 48t-0.5 37h33q9 0 10 -7q19 -118 125 -118q35 0 59 15.5t24 47.5q0 28 -18 45.5t-45.5 31t-59 26.5t-59 32.5t-45.5 49t-18 75.5
q0 37 13.5 68t37.5 53t56.5 34t70.5 12q32 0 59 -7.5t44 -21.5h1l12 17q2 3 3.5 4t6.5 1h19q0 -33 0.5 -75t1.5 -74h-31q-8 0 -9 7q-8 46 -36 70.5t-66 24.5q-32 0 -49 -16t-17 -42q0 -27 18.5 -44t46.5 -30t60 -26t60 -32.5t46.5 -49t18.5 -75.5z" />
    <glyph glyph-name="t" unicode="t" horiz-adv-x="380" 
d="M211 -14q-68 0 -99 40.5t-31 103.5v316h-56q-5 0 -5.5 2.5t-0.5 7.5v49q30 7 50 16t36.5 24.5t31 40.5t34.5 64h43q5 0 8 -0.5t3 -5.5q-1 -20 -1.5 -47.5t-0.5 -50.5v-38h123v-62h-123v-289q0 -36 11.5 -61t45.5 -25q23 0 38.5 10.5t29.5 27.5l24 -25q6 -6 2 -12
q-32 -40 -69.5 -63t-93.5 -23z" />
    <glyph glyph-name="u" unicode="u" horiz-adv-x="617" 
d="M421 -11q-10 -1 -11 6q-5 17 -9 38t-6 41h-3q-33 -38 -71.5 -63t-92.5 -25q-33 0 -60.5 10.5t-47.5 31t-31 49.5t-11 65v202q0 43 -1 66t-7 35t-18 16t-34 9q-7 1 -7 9v29l200 20q11 2 11 -6q-1 -20 -1.5 -49.5t-0.5 -52.5v-244q0 -48 21.5 -72.5t59.5 -24.5
q27 0 50.5 11.5t40.5 31.5v222q0 43 -1 66t-7 35t-18 16t-34 9q-7 1 -7 9v29l200 20q11 2 11 -6q-1 -20 -1.5 -49.5t-0.5 -52.5v-247q0 -42 1.5 -65.5t7.5 -35.5t17 -16.5t31 -8.5q7 -1 7 -9v-29z" />
    <glyph glyph-name="v" unicode="v" horiz-adv-x="551" 
d="M218 -14l-14 44.5t-16 46.5l-97 277l-25 68t-16.5 35.5t-16 15.5t-22.5 7q-7 1 -7 9v29q30 -1 52.5 -1.5t54.5 -0.5h36.5t42.5 0.5l42.5 1t35.5 0.5v-29q0 -8 -6 -9q-26 -3 -37.5 -7.5t-11.5 -21.5q0 -13 7 -35.5l18 -56.5l76 -243h2l74 232q8 23 12 43t4 40t-11 32.5
t-40 16.5q-7 1 -7 9v29q15 0 27 -0.5l23.5 -1t23.5 -0.5h28h27.5t22 0.5l21.5 1t26 0.5v-29q0 -7 -7 -9q-14 -4 -22.5 -9.5t-16.5 -18.5t-16.5 -37l-22.5 -64l-95 -274q-8 -21 -16 -46l-14 -45h-119z" />
    <glyph glyph-name="w" unicode="w" horiz-adv-x="812" 
d="M510 -14q-3 18 -10 43.5l-13 45.5l-81 270h-2l-77 -269q-7 -23 -12.5 -46l-10.5 -44h-112q-4 19 -10.5 43t-13.5 47l-79 278q-12 44 -20 68t-15.5 36t-17 15.5t-25.5 6.5q-7 1 -7 9v29q31 -1 66.5 -1.5t67.5 -0.5t69.5 0.5t64.5 1.5v-29q0 -8 -7 -9q-29 -3 -39.5 -7.5
t-10.5 -21.5q0 -14 4.5 -35.5t12.5 -56.5l49 -210h2l81 278q7 23 13.5 47.5t10.5 43.5h111q4 -18 10.5 -43t13.5 -47l80 -279h2l51 200q6 26 9.5 44.5t3.5 38.5q0 25 -14.5 34.5t-40.5 13.5q-7 1 -7 9v29q31 -1 53 -1.5t54 -0.5h27t21 0.5l21 1t26 0.5v-29q0 -7 -7 -9
q-16 -4 -25.5 -9.5t-17 -18t-15 -36.5l-19.5 -65l-79 -274q-8 -23 -13.5 -46.5l-10.5 -44.5h-112z" />
    <glyph glyph-name="x" unicode="x" horiz-adv-x="539" 
d="M535 0q-31 1 -64 1.5t-65 0.5t-69.5 -0.5t-68.5 -1.5v29q0 8 7 9q23 3 29.5 9t6.5 17q0 13 -14.5 36.5l-43.5 68.5l-22 32h-2l-28 -43q-20 -31 -30.5 -50t-10.5 -36q0 -16 9 -24t31 -10q7 -1 7 -9v-29q-19 1 -46.5 1.5t-51.5 0.5q-29 0 -54 -0.5t-51 -1.5v29q0 8 7 9
q11 1 19.5 4.5t20 14.5t27.5 32t42 59l74 107l-73 109l-41.5 61.5t-26 34t-17.5 15t-17 5.5q-7 1 -7 9v29q31 -1 64.5 -1.5t65.5 -0.5t69 0.5t68 1.5v-29q0 -8 -7 -9q-23 -3 -29.5 -9t-6.5 -17t13 -32.5l39 -61.5l21 -32h2l21 35q19 30 29.5 48.5t10.5 37.5q0 14 -8 21.5
t-31 9.5q-7 1 -7 9v29q19 -1 46 -1.5t51 -0.5q29 0 54.5 0.5t51.5 1.5v-29q0 -8 -7 -9q-12 -2 -21 -5t-20 -14t-26.5 -32.5l-41.5 -58.5l-67 -97l80 -119l42.5 -61.5t25.5 -33.5t17 -15t17 -6q7 -1 7 -9v-29v0z" />
    <glyph glyph-name="y" unicode="y" horiz-adv-x="549" 
d="M331 170l57 178q8 27 12 45t4 38t-11 32.5t-40 16.5q-7 1 -7 9v29q15 0 27 -0.5l23.5 -1t23.5 -0.5h28h27.5t22 0.5l21.5 1t26 0.5v-29q0 -7 -7 -9q-14 -4 -22.5 -9t-16 -17.5t-16 -36.5l-23.5 -66l-95 -274l-31 -96.5t-22 -67.5q-9 -26 -21 -49.5t-28 -40.5t-36 -27
t-44 -10q-29 0 -49.5 19t-20.5 48q0 21 15.5 37t58.5 23q21 3 35 10t23 17t14.5 22t10.5 26q-2 7 -6.5 19t-11.5 27l-14.5 30.5l-14.5 29.5l-129 260l-31.5 63t-20 37t-15 18.5t-16.5 7.5q-7 1 -7 9v29q30 -1 65.5 -1.5t67.5 -0.5t68 0.5t66 1.5v-29q0 -8 -6 -9
q-26 -3 -38 -7.5t-12 -21.5q0 -24 31 -94l83 -187h2z" />
    <glyph glyph-name="z" unicode="z" horiz-adv-x="492" 
d="M457 0q-25 0 -57.5 1t-80.5 1h-175q-29 0 -60 -0.5t-58 -1.5v72l32 45.5l35 51.5l187 288v2h-80q-35 0 -54.5 -2t-30 -12t-16 -29.5t-11.5 -53.5q-2 -8 -3.5 -10.5t-6.5 -2.5h-31q1 35 1.5 80.5t0.5 88.5q25 0 57.5 -1t80.5 -1h138q29 0 60 0.5t58 1.5v-72l-32 -46
l-34 -51l-186 -286v-2h98q42 0 65 2.5t36 12.5t19 30.5t14 57.5q1 7 9 7h34l-4.5 -85.5z" />
    <glyph glyph-name="agrave" unicode="&#xe0;" horiz-adv-x="559" 
d="M444 -9q-86 0 -104 82h-3q-34 -40 -73.5 -63.5t-93.5 -23.5q-56 0 -93.5 30.5t-37.5 89.5q0 38 16 66.5t51.5 53.5t92 50t136.5 55v46q0 54 -19.5 79.5t-63.5 25.5q-42 0 -57 -18t-22 -47q-7 -30 -17 -47.5t-36 -17.5t-44 18t-18 43q0 23 16.5 44.5t46 38t70 26.5
t88.5 10q102 0 150.5 -40.5t48.5 -138.5q0 -49 -1 -98.5t-1 -110.5q0 -35 5.5 -58.5t31.5 -23.5q13 0 22.5 5t18.5 13l17 -26q4 -6 -1 -11q-26 -23 -57 -37.5t-69 -14.5zM335 282q-48 -17 -77.5 -33.5t-45.5 -33.5t-21 -34.5t-5 -35.5q0 -28 15.5 -48.5t48.5 -20.5
q27 0 49 14.5t36 32.5v159zM150 636q-12 6 -20.5 16t-8.5 24q0 10 4.5 20.5t12 19.5t17.5 14.5t21 5.5q22 0 39 -22l105 -129q5 -5 1 -9l-18 -23z" />
    <glyph glyph-name="aacute" unicode="&#xe1;" horiz-adv-x="559" 
d="M444 -9q-86 0 -104 82h-3q-34 -40 -73.5 -63.5t-93.5 -23.5q-56 0 -93.5 30.5t-37.5 89.5q0 38 16 66.5t51.5 53.5t92 50t136.5 55v46q0 54 -19.5 79.5t-63.5 25.5q-42 0 -57 -18t-22 -47q-7 -30 -17 -47.5t-36 -17.5t-44 18t-18 43q0 23 16.5 44.5t46 38t70 26.5
t88.5 10q102 0 150.5 -40.5t48.5 -138.5q0 -49 -1 -98.5t-1 -110.5q0 -35 5.5 -58.5t31.5 -23.5q13 0 22.5 5t18.5 13l17 -26q4 -6 -1 -11q-26 -23 -57 -37.5t-69 -14.5zM335 282q-48 -17 -77.5 -33.5t-45.5 -33.5t-21 -34.5t-5 -35.5q0 -28 15.5 -48.5t48.5 -20.5
q27 0 49 14.5t36 32.5v159zM240 576q-4 4 1 9l105 129q9 12 18.5 17t20.5 5t21 -5.5t17.5 -14.5t12 -19.5t4.5 -20.5q0 -14 -8.5 -24t-20.5 -16l-153 -83z" />
    <glyph glyph-name="acircumflex" unicode="&#xe2;" horiz-adv-x="559" 
d="M444 -9q-86 0 -104 82h-3q-34 -40 -73.5 -63.5t-93.5 -23.5q-56 0 -93.5 30.5t-37.5 89.5q0 38 16 66.5t51.5 53.5t92 50t136.5 55v46q0 54 -19.5 79.5t-63.5 25.5q-42 0 -57 -18t-22 -47q-7 -30 -17 -47.5t-36 -17.5t-44 18t-18 43q0 23 16.5 44.5t46 38t70 26.5
t88.5 10q102 0 150.5 -40.5t48.5 -138.5q0 -49 -1 -98.5t-1 -110.5q0 -35 5.5 -58.5t31.5 -23.5q13 0 22.5 5t18.5 13l17 -26q4 -6 -1 -11q-26 -23 -57 -37.5t-69 -14.5zM335 282q-48 -17 -77.5 -33.5t-45.5 -33.5t-21 -34.5t-5 -35.5q0 -28 15.5 -48.5t48.5 -20.5
q27 0 49 14.5t36 32.5v159zM283 640h-2l-124 -87l-20 21q-3 4 1 10l82 119q13 17 25.5 25t36.5 8q25 0 38 -8t25 -25l83 -119q4 -5 0 -10l-19 -21z" />
    <glyph glyph-name="atilde" unicode="&#xe3;" horiz-adv-x="559" 
d="M444 -9q-86 0 -104 82h-3q-34 -40 -73.5 -63.5t-93.5 -23.5q-56 0 -93.5 30.5t-37.5 89.5q0 38 16 66.5t51.5 53.5t92 50t136.5 55v46q0 54 -19.5 79.5t-63.5 25.5q-42 0 -57 -18t-22 -47q-7 -30 -17 -47.5t-36 -17.5t-44 18t-18 43q0 23 16.5 44.5t46 38t70 26.5
t88.5 10q102 0 150.5 -40.5t48.5 -138.5q0 -49 -1 -98.5t-1 -110.5q0 -35 5.5 -58.5t31.5 -23.5q13 0 22.5 5t18.5 13l17 -26q4 -6 -1 -11q-26 -23 -57 -37.5t-69 -14.5zM335 282q-48 -17 -77.5 -33.5t-45.5 -33.5t-21 -34.5t-5 -35.5q0 -28 15.5 -48.5t48.5 -20.5
q27 0 49 14.5t36 32.5v159zM345 607q-17 0 -35 3.5l-36 7l-35 7t-30 3.5q-20 0 -30 -10.5t-15 -35.5l-33 6q-8 1 -6 9q4 22 9 43t14.5 37t25 25.5t41.5 9.5q16 0 34 -3.5t36 -7.5l34.5 -7.5t30.5 -3.5q20 0 30 10.5t16 35.5l33 -6q7 -1 5 -9q-3 -22 -8 -42.5t-14.5 -36.5
t-25.5 -25.5t-41 -9.5z" />
    <glyph glyph-name="adieresis" unicode="&#xe4;" horiz-adv-x="559" 
d="M444 -9q-86 0 -104 82h-3q-34 -40 -73.5 -63.5t-93.5 -23.5q-56 0 -93.5 30.5t-37.5 89.5q0 38 16 66.5t51.5 53.5t92 50t136.5 55v46q0 54 -19.5 79.5t-63.5 25.5q-42 0 -57 -18t-22 -47q-7 -30 -17 -47.5t-36 -17.5t-44 18t-18 43q0 23 16.5 44.5t46 38t70 26.5
t88.5 10q102 0 150.5 -40.5t48.5 -138.5q0 -49 -1 -98.5t-1 -110.5q0 -35 5.5 -58.5t31.5 -23.5q13 0 22.5 5t18.5 13l17 -26q4 -6 -1 -11q-26 -23 -57 -37.5t-69 -14.5zM335 282q-48 -17 -77.5 -33.5t-45.5 -33.5t-21 -34.5t-5 -35.5q0 -28 15.5 -48.5t48.5 -20.5
q27 0 49 14.5t36 32.5v159zM255 664q0 -30 -20.5 -51t-55.5 -21t-54 21t-19 51q0 31 20 51.5t55 20.5t54.5 -20.5t19.5 -51.5zM446 664q0 -30 -20.5 -51t-55.5 -21t-54 21t-19 51q0 31 20 51.5t55 20.5t54.5 -20.5t19.5 -51.5z" />
    <glyph glyph-name="amacron" unicode="&#x101;" horiz-adv-x="559" 
d="M444 -9q-86 0 -104 82h-3q-34 -40 -73.5 -63.5t-93.5 -23.5q-56 0 -93.5 30.5t-37.5 89.5q0 38 16 66.5t51.5 53.5t92 50t136.5 55v46q0 54 -19.5 79.5t-63.5 25.5q-42 0 -57 -18t-22 -47q-7 -30 -17 -47.5t-36 -17.5t-44 18t-18 43q0 23 16.5 44.5t46 38t70 26.5
t88.5 10q102 0 150.5 -40.5t48.5 -138.5q0 -49 -1 -98.5t-1 -110.5q0 -35 5.5 -58.5t31.5 -23.5q13 0 22.5 5t18.5 13l17 -26q4 -6 -1 -11q-26 -23 -57 -37.5t-69 -14.5zM335 282q-48 -17 -77.5 -33.5t-45.5 -33.5t-21 -34.5t-5 -35.5q0 -28 15.5 -48.5t48.5 -20.5
q27 0 49 14.5t36 32.5v159zM140 628v90h278v-90h-278z" />
    <glyph glyph-name="abreve" unicode="&#x103;" horiz-adv-x="559" 
d="M444 -9q-86 0 -104 82h-3q-34 -40 -73.5 -63.5t-93.5 -23.5q-56 0 -93.5 30.5t-37.5 89.5q0 38 16 66.5t51.5 53.5t92 50t136.5 55v46q0 54 -19.5 79.5t-63.5 25.5q-42 0 -57 -18t-22 -47q-7 -30 -17 -47.5t-36 -17.5t-44 18t-18 43q0 23 16.5 44.5t46 38t70 26.5
t88.5 10q102 0 150.5 -40.5t48.5 -138.5q0 -49 -1 -98.5t-1 -110.5q0 -35 5.5 -58.5t31.5 -23.5q13 0 22.5 5t18.5 13l17 -26q4 -6 -1 -11q-26 -23 -57 -37.5t-69 -14.5zM335 282q-48 -17 -77.5 -33.5t-45.5 -33.5t-21 -34.5t-5 -35.5q0 -28 15.5 -48.5t48.5 -20.5
q27 0 49 14.5t36 32.5v159zM281 590q-37 0 -63 9t-43 26.5t-27 42t-14 55.5q-1 7 6 8l34 5q7 -36 34 -49.5t73 -13.5t73 13.5t34 49.5l34 -5q7 -1 6 -8q-5 -31 -14.5 -55.5t-26.5 -42t-43 -26.5t-63 -9z" />
    <glyph glyph-name="aring" unicode="&#xe5;" horiz-adv-x="559" 
d="M444 -9q-86 0 -104 82h-3q-34 -40 -73.5 -63.5t-93.5 -23.5q-56 0 -93.5 30.5t-37.5 89.5q0 38 16 66.5t51.5 53.5t92 50t136.5 55v46q0 54 -19.5 79.5t-63.5 25.5q-42 0 -57 -18t-22 -47q-7 -30 -17 -47.5t-36 -17.5t-44 18t-18 43q0 23 16.5 44.5t46 38t70 26.5
t88.5 10q102 0 150.5 -40.5t48.5 -138.5q0 -49 -1 -98.5t-1 -110.5q0 -35 5.5 -58.5t31.5 -23.5q13 0 22.5 5t18.5 13l17 -26q4 -6 -1 -11q-26 -23 -57 -37.5t-69 -14.5zM335 282q-48 -17 -77.5 -33.5t-45.5 -33.5t-21 -34.5t-5 -35.5q0 -28 15.5 -48.5t48.5 -20.5
q27 0 49 14.5t36 32.5v159zM320 657q0 20 -9 39.5t-32 19.5t-31 -19.5t-8 -39.5q0 -10 2 -20.5t6.5 -19t12.5 -14t20 -5.5q22 0 30.5 19.5t8.5 39.5zM398 658q0 -45 -32 -72.5t-86 -27.5q-58 0 -88 26.5t-30 71.5t31 72t87 27q57 0 87.5 -26.5t30.5 -70.5z" />
    <glyph glyph-name="aringacute" unicode="&#x1fb;" horiz-adv-x="559" 
d="M444 -9q-86 0 -104 82h-3q-34 -40 -73.5 -63.5t-93.5 -23.5q-56 0 -93.5 30.5t-37.5 89.5q0 38 16 66.5t51.5 53.5t92 50t136.5 55v46q0 54 -19.5 79.5t-63.5 25.5q-42 0 -57 -18t-22 -47q-7 -30 -17 -47.5t-36 -17.5t-44 18t-18 43q0 23 16.5 44.5t46 38t70 26.5
t88.5 10q102 0 150.5 -40.5t48.5 -138.5q0 -49 -1 -98.5t-1 -110.5q0 -35 5.5 -58.5t31.5 -23.5q13 0 22.5 5t18.5 13l17 -26q4 -6 -1 -11q-26 -23 -57 -37.5t-69 -14.5zM335 282q-48 -17 -77.5 -33.5t-45.5 -33.5t-21 -34.5t-5 -35.5q0 -28 15.5 -48.5t48.5 -20.5
q27 0 49 14.5t36 32.5v159zM320 657q0 20 -9 39.5t-32 19.5t-31 -19.5t-8 -39.5q0 -10 2 -20.5t6.5 -19t12.5 -14t20 -5.5q22 0 30.5 19.5t8.5 39.5zM398 658q0 -45 -32 -72.5t-86 -27.5q-58 0 -88 26.5t-30 71.5t31 72t87 27q57 0 87.5 -26.5t30.5 -70.5zM257 795q-4 4 1 9
l105 129q9 12 18.5 17t20.5 5t21 -5.5t17.5 -14.5t12 -19.5t4.5 -20.5q0 -14 -8.5 -24t-20.5 -16l-153 -83z" />
    <glyph glyph-name="aogonek" unicode="&#x105;" horiz-adv-x="559" 
d="M455 -214q-42 0 -65 23t-23 59q0 35 19.5 65t48.5 59q-79 5 -95 81h-3q-34 -40 -73.5 -63.5t-93.5 -23.5q-56 0 -93.5 30.5t-37.5 89.5q0 38 16 66.5t51.5 53.5t92 50t136.5 55v46q0 54 -19.5 79.5t-63.5 25.5q-42 0 -57 -18t-22 -47q-7 -30 -17 -47.5t-36 -17.5t-44 18
t-18 43q0 23 16.5 44.5t46 38t70 26.5t88.5 10q102 0 150.5 -40.5t48.5 -138.5q0 -49 -1 -98.5t-1 -110.5q0 -35 5.5 -58.5t31.5 -23.5q13 0 22.5 5t18.5 13l17 -26q5 -6 -1 -11q-19 -15 -40 -29t-39 -29t-30 -33t-12 -43q0 -17 11 -32.5t35 -15.5q30 0 53 22l17 -26
q3 -4 2.5 -6t-3.5 -6q-17 -20 -44 -39.5t-65 -19.5zM335 282q-48 -17 -77.5 -33.5t-45.5 -33.5t-21 -34.5t-5 -35.5q0 -28 15.5 -48.5t48.5 -20.5q27 0 49 14.5t36 32.5v159z" />
    <glyph glyph-name="ae" unicode="&#xe6;" horiz-adv-x="841" 
d="M583 -14q-144 0 -208 99h-3q-43 -45 -91.5 -72t-110.5 -27q-56 0 -93.5 30.5t-37.5 89.5q0 38 16 66.5t51.5 53.5t92 50t136.5 55v46q0 54 -19.5 79.5t-63.5 25.5q-42 0 -57 -18t-22 -47q-7 -30 -17 -47.5t-36 -17.5t-44 18t-18 43q0 23 16.5 44.5t46 38t70 26.5t88.5 10
q58 0 93 -13t59 -39h2q30 24 67.5 38t80.5 14q110 0 168 -60t58 -162q0 -8 -2.5 -10t-7.5 -2h-320q-1 -6 -1 -12.5v-12.5q0 -41 7.5 -78t25.5 -65t47.5 -44.5t72.5 -16.5q46 0 81 19.5t60 53.5l28 -19q3 -2 4 -4t-1 -7q-32 -60 -87.5 -93t-130.5 -33zM335 282
q-48 -17 -77.5 -33.5t-45.5 -33.5t-21 -34.5t-5 -35.5q0 -28 15.5 -48.5t48.5 -20.5q17 0 32 5.5t28 14t23.5 18.5l19.5 19q-6 19 -10 35t-5.5 32.5t-2 36t-0.5 45.5zM609 344q52 0 52 56q0 35 -20.5 57t-56.5 22q-48 0 -72 -36.5t-32 -98.5h129z" />
    <glyph glyph-name="aeacute" unicode="&#x1fd;" horiz-adv-x="841" 
d="M583 -14q-144 0 -208 99h-3q-43 -45 -91.5 -72t-110.5 -27q-56 0 -93.5 30.5t-37.5 89.5q0 38 16 66.5t51.5 53.5t92 50t136.5 55v46q0 54 -19.5 79.5t-63.5 25.5q-42 0 -57 -18t-22 -47q-7 -30 -17 -47.5t-36 -17.5t-44 18t-18 43q0 23 16.5 44.5t46 38t70 26.5t88.5 10
q58 0 93 -13t59 -39h2q30 24 67.5 38t80.5 14q110 0 168 -60t58 -162q0 -8 -2.5 -10t-7.5 -2h-320q-1 -6 -1 -12.5v-12.5q0 -41 7.5 -78t25.5 -65t47.5 -44.5t72.5 -16.5q46 0 81 19.5t60 53.5l28 -19q3 -2 4 -4t-1 -7q-32 -60 -87.5 -93t-130.5 -33zM335 282
q-48 -17 -77.5 -33.5t-45.5 -33.5t-21 -34.5t-5 -35.5q0 -28 15.5 -48.5t48.5 -20.5q17 0 32 5.5t28 14t23.5 18.5l19.5 19q-6 19 -10 35t-5.5 32.5t-2 36t-0.5 45.5zM609 344q52 0 52 56q0 35 -20.5 57t-56.5 22q-48 0 -72 -36.5t-32 -98.5h129zM431 576q-4 4 1 9l105 129
q9 12 18.5 17t20.5 5t21 -5.5t17.5 -14.5t12 -19.5t4.5 -20.5q0 -14 -8.5 -24t-20.5 -16l-153 -83z" />
    <glyph glyph-name="cacute" unicode="&#x107;" horiz-adv-x="486" 
d="M264 -14q-60 0 -104 21t-72.5 57.5t-42.5 85t-14 103.5q0 63 17 114.5t49.5 88t79 56.5t105.5 20q37 0 68.5 -6.5t54.5 -20t36 -33.5t13 -46q0 -29 -19.5 -45t-45.5 -16q-16 0 -25 8.5t-15 21t-10.5 27t-11.5 27t-18.5 21t-30.5 8.5q-48 0 -70.5 -54t-22.5 -149
q0 -40 6 -77t21 -65.5t39.5 -45.5t61.5 -17q42 0 69.5 19.5t50.5 52.5l28 -19q3 -2 4 -4t-1 -7q-29 -58 -80.5 -92t-119.5 -34zM250 576q-4 4 1 9l105 129q9 12 18.5 17t20.5 5t21 -5.5t17.5 -14.5t12 -19.5t4.5 -20.5q0 -14 -8.5 -24t-20.5 -16l-153 -83z" />
    <glyph glyph-name="ccircumflex" unicode="&#x109;" horiz-adv-x="486" 
d="M264 -14q-60 0 -104 21t-72.5 57.5t-42.5 85t-14 103.5q0 63 17 114.5t49.5 88t79 56.5t105.5 20q37 0 68.5 -6.5t54.5 -20t36 -33.5t13 -46q0 -29 -19.5 -45t-45.5 -16q-16 0 -25 8.5t-15 21t-10.5 27t-11.5 27t-18.5 21t-30.5 8.5q-48 0 -70.5 -54t-22.5 -149
q0 -40 6 -77t21 -65.5t39.5 -45.5t61.5 -17q42 0 69.5 19.5t50.5 52.5l28 -19q3 -2 4 -4t-1 -7q-29 -58 -80.5 -92t-119.5 -34zM278 640h-2l-124 -87l-20 21q-3 4 1 10l82 119q13 17 25.5 25t36.5 8q25 0 38 -8t25 -25l83 -119q4 -5 0 -10l-19 -21z" />
    <glyph glyph-name="ccaron" unicode="&#x10d;" horiz-adv-x="486" 
d="M264 -14q-60 0 -104 21t-72.5 57.5t-42.5 85t-14 103.5q0 63 17 114.5t49.5 88t79 56.5t105.5 20q37 0 68.5 -6.5t54.5 -20t36 -33.5t13 -46q0 -29 -19.5 -45t-45.5 -16q-16 0 -25 8.5t-15 21t-10.5 27t-11.5 27t-18.5 21t-30.5 8.5q-48 0 -70.5 -54t-22.5 -149
q0 -40 6 -77t21 -65.5t39.5 -45.5t61.5 -17q42 0 69.5 19.5t50.5 52.5l28 -19q3 -2 4 -4t-1 -7q-29 -58 -80.5 -92t-119.5 -34zM273 553q-24 0 -37 7.5t-25 24.5l-82 120q-5 5 -1 9l20 22l124 -88h2l126 88l19 -22q4 -5 0 -9l-83 -120q-13 -17 -25.5 -24.5t-37.5 -7.5z" />
    <glyph glyph-name="cdotaccent" unicode="&#x10b;" horiz-adv-x="486" 
d="M264 -14q-60 0 -104 21t-72.5 57.5t-42.5 85t-14 103.5q0 63 17 114.5t49.5 88t79 56.5t105.5 20q37 0 68.5 -6.5t54.5 -20t36 -33.5t13 -46q0 -29 -19.5 -45t-45.5 -16q-16 0 -25 8.5t-15 21t-10.5 27t-11.5 27t-18.5 21t-30.5 8.5q-48 0 -70.5 -54t-22.5 -149
q0 -40 6 -77t21 -65.5t39.5 -45.5t61.5 -17q42 0 69.5 19.5t50.5 52.5l28 -19q3 -2 4 -4t-1 -7q-29 -58 -80.5 -92t-119.5 -34zM358 662q0 -31 -23.5 -52.5t-66.5 -21.5q-45 0 -66.5 21.5t-21.5 52.5t23.5 52.5t65.5 21.5q44 0 66.5 -21.5t22.5 -52.5z" />
    <glyph glyph-name="ccedilla" unicode="&#xe7;" horiz-adv-x="486" 
d="M234 -12q-52 5 -90.5 27.5t-63.5 58.5t-37 82t-12 97q0 63 17 114.5t49.5 88t79 56.5t105.5 20q37 0 68.5 -6.5t54.5 -20t36 -33.5t13 -46q0 -29 -19.5 -45t-45.5 -16q-16 0 -25 8.5t-15 21t-10.5 27t-11.5 27t-18.5 21t-30.5 8.5q-48 0 -70.5 -54t-22.5 -149
q0 -40 6 -77t21 -65.5t39.5 -45.5t61.5 -17q42 0 69.5 19.5t50.5 52.5l28 -19q3 -2 4 -4t-1 -7q-27 -54 -74 -87t-108 -38l-10 -28q22 -5 41.5 -11.5t34.5 -17t23.5 -25.5t8.5 -36q0 -38 -33 -60.5t-87 -22.5q-18 0 -35.5 3t-31 9t-21.5 14.5t-8 19.5q0 16 9 27t25 11
q11 0 17 -7t12 -15t14 -15t22 -7q16 0 24 8.5t8 20.5q0 20 -24 30.5t-65 18.5z" />
    <glyph glyph-name="dcaron" unicode="&#x10f;" horiz-adv-x="680" 
d="M380 433q-14 14 -34 21.5t-43 7.5q-33 0 -56 -15t-37 -41.5t-20.5 -63.5t-6.5 -81q0 -93 28 -137t80 -44q29 0 51 11.5t38 31.5v310zM409 -10q-9 -1 -11 6q-5 17 -9 38t-6 41h-3q-31 -40 -70 -64.5t-90 -24.5q-42 0 -77 17.5t-59.5 51t-38.5 82t-14 111.5q0 67 18.5 120
t50 89.5t73.5 55.5t89 19q63 0 116 -33h2v53q0 43 -1 66t-6.5 35t-17 16t-32.5 9q-7 1 -7 9v29l197 20q11 2 11 -6q0 -20 -1 -49.5t-1 -52.5v-454q0 -42 1.5 -65.5t7.5 -35.5t17 -16.5t31 -8.5q7 -1 7 -9v-29zM592 549q-4 -5 -9 -3l-27 12l21 138q2 20 11 30t28 10
q9 0 20 -3.5t21 -10t16.5 -16t6.5 -20.5q0 -13 -12 -30z" />
    <glyph glyph-name="dcroat" unicode="&#x111;" horiz-adv-x="603" 
d="M379 615q-1 19 -4 30t-9.5 17t-16.5 9t-26 7q-7 1 -7 9v29l197 20q11 2 11 -6q0 -20 -1 -50.5t-1 -64.5h64v-49h-64v-392q0 -42 1.5 -65.5t7.5 -35.5t17 -16.5t31 -8.5q7 -1 7 -9v-29l-177 -20q-9 -1 -11 6q-5 17 -9 38t-6 41h-3q-31 -40 -70 -64.5t-90 -24.5
q-42 0 -77 17.5t-59.5 51t-38.5 82t-14 111.5q0 67 18.5 120t50 89.5t73.5 55.5t89 19q63 0 116 -33h2v67h-142v49h141zM380 433q-14 14 -34 21.5t-43 7.5q-33 0 -56 -15t-37 -41.5t-20.5 -63.5t-6.5 -81q0 -93 28 -137t80 -44q29 0 51 11.5t38 31.5v310z" />
    <glyph glyph-name="egrave" unicode="&#xe8;" horiz-adv-x="543" 
d="M290 -14q-72 0 -121.5 23.5t-80 61t-44 85t-13.5 96.5q0 63 18 115t51.5 88.5t81 56.5t106.5 20q110 0 167.5 -60t57.5 -162q0 -8 -2.5 -10t-7.5 -2h-320v-25q0 -41 7.5 -78t25.5 -65t47.5 -44.5t72.5 -16.5q46 0 80.5 19.5t60.5 53.5l28 -19q3 -2 4 -4t-1 -7
q-32 -60 -87.5 -93t-130.5 -33zM367 400q0 35 -20.5 57t-55.5 22q-48 0 -72 -36.5t-32 -98.5h129q51 0 51 56zM141 636q-12 6 -20.5 16t-8.5 24q0 10 4.5 20.5t12 19.5t17.5 14.5t21 5.5q22 0 39 -22l105 -129q5 -5 1 -9l-18 -23z" />
    <glyph glyph-name="eacute" unicode="&#xe9;" horiz-adv-x="543" 
d="M290 -14q-72 0 -121.5 23.5t-80 61t-44 85t-13.5 96.5q0 63 18 115t51.5 88.5t81 56.5t106.5 20q110 0 167.5 -60t57.5 -162q0 -8 -2.5 -10t-7.5 -2h-320v-25q0 -41 7.5 -78t25.5 -65t47.5 -44.5t72.5 -16.5q46 0 80.5 19.5t60.5 53.5l28 -19q3 -2 4 -4t-1 -7
q-32 -60 -87.5 -93t-130.5 -33zM367 400q0 35 -20.5 57t-55.5 22q-48 0 -72 -36.5t-32 -98.5h129q51 0 51 56zM263 576q-4 4 1 9l105 129q9 12 18.5 17t20.5 5t21 -5.5t17.5 -14.5t12 -19.5t4.5 -20.5q0 -14 -8.5 -24t-20.5 -16l-153 -83z" />
    <glyph glyph-name="ecircumflex" unicode="&#xea;" horiz-adv-x="543" 
d="M290 -14q-72 0 -121.5 23.5t-80 61t-44 85t-13.5 96.5q0 63 18 115t51.5 88.5t81 56.5t106.5 20q110 0 167.5 -60t57.5 -162q0 -8 -2.5 -10t-7.5 -2h-320v-25q0 -41 7.5 -78t25.5 -65t47.5 -44.5t72.5 -16.5q46 0 80.5 19.5t60.5 53.5l28 -19q3 -2 4 -4t-1 -7
q-32 -60 -87.5 -93t-130.5 -33zM367 400q0 35 -20.5 57t-55.5 22q-48 0 -72 -36.5t-32 -98.5h129q51 0 51 56zM287 640h-2l-124 -87l-20 21q-3 4 1 10l82 119q13 17 25.5 25t36.5 8q25 0 38 -8t25 -25l83 -119q4 -5 0 -10l-19 -21z" />
    <glyph glyph-name="ecaron" unicode="&#x11b;" horiz-adv-x="543" 
d="M290 -14q-72 0 -121.5 23.5t-80 61t-44 85t-13.5 96.5q0 63 18 115t51.5 88.5t81 56.5t106.5 20q110 0 167.5 -60t57.5 -162q0 -8 -2.5 -10t-7.5 -2h-320v-25q0 -41 7.5 -78t25.5 -65t47.5 -44.5t72.5 -16.5q46 0 80.5 19.5t60.5 53.5l28 -19q3 -2 4 -4t-1 -7
q-32 -60 -87.5 -93t-130.5 -33zM367 400q0 35 -20.5 57t-55.5 22q-48 0 -72 -36.5t-32 -98.5h129q51 0 51 56zM287 553q-24 0 -37 7.5t-25 24.5l-82 120q-5 5 -1 9l20 22l124 -88h2l126 88l19 -22q4 -5 0 -9l-83 -120q-13 -17 -25.5 -24.5t-37.5 -7.5z" />
    <glyph glyph-name="edieresis" unicode="&#xeb;" horiz-adv-x="543" 
d="M290 -14q-72 0 -121.5 23.5t-80 61t-44 85t-13.5 96.5q0 63 18 115t51.5 88.5t81 56.5t106.5 20q110 0 167.5 -60t57.5 -162q0 -8 -2.5 -10t-7.5 -2h-320v-25q0 -41 7.5 -78t25.5 -65t47.5 -44.5t72.5 -16.5q46 0 80.5 19.5t60.5 53.5l28 -19q3 -2 4 -4t-1 -7
q-32 -60 -87.5 -93t-130.5 -33zM367 400q0 35 -20.5 57t-55.5 22q-48 0 -72 -36.5t-32 -98.5h129q51 0 51 56zM269 664q0 -30 -20.5 -51t-55.5 -21t-54 21t-19 51q0 31 20 51.5t55 20.5t54.5 -20.5t19.5 -51.5zM460 664q0 -30 -20.5 -51t-55.5 -21t-54 21t-19 51
q0 31 20 51.5t55 20.5t54.5 -20.5t19.5 -51.5z" />
    <glyph glyph-name="emacron" unicode="&#x113;" horiz-adv-x="543" 
d="M290 -14q-72 0 -121.5 23.5t-80 61t-44 85t-13.5 96.5q0 63 18 115t51.5 88.5t81 56.5t106.5 20q110 0 167.5 -60t57.5 -162q0 -8 -2.5 -10t-7.5 -2h-320v-25q0 -41 7.5 -78t25.5 -65t47.5 -44.5t72.5 -16.5q46 0 80.5 19.5t60.5 53.5l28 -19q3 -2 4 -4t-1 -7
q-32 -60 -87.5 -93t-130.5 -33zM367 400q0 35 -20.5 57t-55.5 22q-48 0 -72 -36.5t-32 -98.5h129q51 0 51 56zM147 628v90h278v-90h-278z" />
    <glyph glyph-name="ebreve" unicode="&#x115;" horiz-adv-x="543" 
d="M290 -14q-72 0 -121.5 23.5t-80 61t-44 85t-13.5 96.5q0 63 18 115t51.5 88.5t81 56.5t106.5 20q110 0 167.5 -60t57.5 -162q0 -8 -2.5 -10t-7.5 -2h-320v-25q0 -41 7.5 -78t25.5 -65t47.5 -44.5t72.5 -16.5q46 0 80.5 19.5t60.5 53.5l28 -19q3 -2 4 -4t-1 -7
q-32 -60 -87.5 -93t-130.5 -33zM367 400q0 35 -20.5 57t-55.5 22q-48 0 -72 -36.5t-32 -98.5h129q51 0 51 56zM287 590q-37 0 -63 9t-43 26.5t-27 42t-14 55.5q-1 7 6 8l34 5q7 -36 34 -49.5t73 -13.5t73 13.5t34 49.5l34 -5q7 -1 6 -8q-5 -31 -14.5 -55.5t-26.5 -42
t-43 -26.5t-63 -9z" />
    <glyph glyph-name="edotaccent" unicode="&#x117;" horiz-adv-x="543" 
d="M290 -14q-72 0 -121.5 23.5t-80 61t-44 85t-13.5 96.5q0 63 18 115t51.5 88.5t81 56.5t106.5 20q110 0 167.5 -60t57.5 -162q0 -8 -2.5 -10t-7.5 -2h-320v-25q0 -41 7.5 -78t25.5 -65t47.5 -44.5t72.5 -16.5q46 0 80.5 19.5t60.5 53.5l28 -19q3 -2 4 -4t-1 -7
q-32 -60 -87.5 -93t-130.5 -33zM367 400q0 35 -20.5 57t-55.5 22q-48 0 -72 -36.5t-32 -98.5h129q51 0 51 56zM376 662q0 -31 -23.5 -52.5t-66.5 -21.5q-45 0 -66.5 21.5t-21.5 52.5t23.5 52.5t65.5 21.5q44 0 66.5 -21.5t22.5 -52.5z" />
    <glyph glyph-name="eogonek" unicode="&#x119;" horiz-adv-x="543" 
d="M508 112q-11 -22 -33 -47.5l-43.5 -51.5t-37.5 -52.5t-16 -51.5q0 -17 11 -32.5t35 -15.5q30 0 53 22l17 -26q3 -4 2.5 -6t-3.5 -6q-17 -20 -44 -39.5t-65 -19.5q-42 0 -65 23t-23 59q0 37 22 68.5t54 61.5q-20 -5 -40 -8.5t-42 -3.5q-72 0 -121.5 23.5t-80 61t-44 85
t-13.5 96.5q0 63 18 115t51.5 88.5t81 56.5t106.5 20q110 0 167.5 -60t57.5 -162q0 -8 -2.5 -10t-7.5 -2h-320v-25q0 -41 7.5 -78t25.5 -65t47.5 -44.5t72.5 -16.5q46 0 80.5 19.5t60.5 53.5l28 -19q3 -2 4 -4t-1 -7zM367 400q0 35 -20.5 57t-55.5 22q-48 0 -72 -36.5
t-32 -98.5h129q51 0 51 56z" />
    <glyph glyph-name="gcircumflex" unicode="&#x11d;" horiz-adv-x="541" 
d="M517 -26q0 -43 -20 -78t-55 -59.5t-83 -37.5t-104 -13q-43 0 -84 7.5t-73 24t-51.5 41.5t-19.5 60q0 28 18.5 51t54.5 23q19 0 33.5 -8t14.5 -25q0 -8 -2.5 -13.5t-5.5 -11.5t-5.5 -12.5t-2.5 -16.5q0 -18 12 -30.5t31 -21t42.5 -12.5t47.5 -4q25 0 49.5 5t43.5 16
t30.5 28t11.5 42q0 35 -20.5 50.5t-66.5 17.5l-115 7q-25 1 -49.5 6t-44 15.5t-31.5 28.5t-12 47q0 38 19 64t45 47v2q-45 21 -67.5 60.5t-22.5 88.5q0 37 14.5 68t41.5 53.5t65.5 35t85.5 12.5q44 0 77.5 -10t59.5 -27q20 14 44.5 25.5t51.5 11.5t45 -14t18 -37
q0 -19 -10.5 -32t-27.5 -13q-13 0 -20.5 5.5t-14.5 12.5t-14 12.5t-19 5.5q-5 0 -10 -2l-10 -4v-2q36 -45 36 -106q0 -38 -14.5 -69t-41 -53.5t-64.5 -35t-85 -12.5q-22 0 -41.5 2.5t-36.5 7.5q-22 -17 -22 -41q0 -20 16.5 -28t45.5 -9l111 -3q47 -2 84 -9t63 -23t40 -43
t14 -68zM311 358q0 25 -3 47.5t-11.5 40t-22 28t-34.5 10.5q-20 0 -32.5 -10.5t-20.5 -27t-11 -38.5t-3 -44q0 -26 3.5 -48.5t11.5 -40t21.5 -27.5t34.5 -10q20 0 33 10t20.5 26.5t10.5 38.5t3 45zM248 640h-2l-124 -87l-20 21q-3 4 1 10l82 119q13 17 25.5 25t36.5 8
q25 0 38 -8t25 -25l83 -119q4 -5 0 -10l-19 -21z" />
    <glyph glyph-name="gbreve" unicode="&#x11f;" horiz-adv-x="541" 
d="M517 -26q0 -43 -20 -78t-55 -59.5t-83 -37.5t-104 -13q-43 0 -84 7.5t-73 24t-51.5 41.5t-19.5 60q0 28 18.5 51t54.5 23q19 0 33.5 -8t14.5 -25q0 -8 -2.5 -13.5t-5.5 -11.5t-5.5 -12.5t-2.5 -16.5q0 -18 12 -30.5t31 -21t42.5 -12.5t47.5 -4q25 0 49.5 5t43.5 16
t30.5 28t11.5 42q0 35 -20.5 50.5t-66.5 17.5l-115 7q-25 1 -49.5 6t-44 15.5t-31.5 28.5t-12 47q0 38 19 64t45 47v2q-45 21 -67.5 60.5t-22.5 88.5q0 37 14.5 68t41.5 53.5t65.5 35t85.5 12.5q44 0 77.5 -10t59.5 -27q20 14 44.5 25.5t51.5 11.5t45 -14t18 -37
q0 -19 -10.5 -32t-27.5 -13q-13 0 -20.5 5.5t-14.5 12.5t-14 12.5t-19 5.5q-5 0 -10 -2l-10 -4v-2q36 -45 36 -106q0 -38 -14.5 -69t-41 -53.5t-64.5 -35t-85 -12.5q-22 0 -41.5 2.5t-36.5 7.5q-22 -17 -22 -41q0 -20 16.5 -28t45.5 -9l111 -3q47 -2 84 -9t63 -23t40 -43
t14 -68zM311 358q0 25 -3 47.5t-11.5 40t-22 28t-34.5 10.5q-20 0 -32.5 -10.5t-20.5 -27t-11 -38.5t-3 -44q0 -26 3.5 -48.5t11.5 -40t21.5 -27.5t34.5 -10q20 0 33 10t20.5 26.5t10.5 38.5t3 45zM249 590q-37 0 -63 9t-43 26.5t-27 42t-14 55.5q-1 7 6 8l34 5
q7 -36 34 -49.5t73 -13.5t73 13.5t34 49.5l34 -5q7 -1 6 -8q-5 -31 -14.5 -55.5t-26.5 -42t-43 -26.5t-63 -9z" />
    <glyph glyph-name="gdotaccent" unicode="&#x121;" horiz-adv-x="541" 
d="M517 -26q0 -43 -20 -78t-55 -59.5t-83 -37.5t-104 -13q-43 0 -84 7.5t-73 24t-51.5 41.5t-19.5 60q0 28 18.5 51t54.5 23q19 0 33.5 -8t14.5 -25q0 -8 -2.5 -13.5t-5.5 -11.5t-5.5 -12.5t-2.5 -16.5q0 -18 12 -30.5t31 -21t42.5 -12.5t47.5 -4q25 0 49.5 5t43.5 16
t30.5 28t11.5 42q0 35 -20.5 50.5t-66.5 17.5l-115 7q-25 1 -49.5 6t-44 15.5t-31.5 28.5t-12 47q0 38 19 64t45 47v2q-45 21 -67.5 60.5t-22.5 88.5q0 37 14.5 68t41.5 53.5t65.5 35t85.5 12.5q44 0 77.5 -10t59.5 -27q20 14 44.5 25.5t51.5 11.5t45 -14t18 -37
q0 -19 -10.5 -32t-27.5 -13q-13 0 -20.5 5.5t-14.5 12.5t-14 12.5t-19 5.5q-5 0 -10 -2l-10 -4v-2q36 -45 36 -106q0 -38 -14.5 -69t-41 -53.5t-64.5 -35t-85 -12.5q-22 0 -41.5 2.5t-36.5 7.5q-22 -17 -22 -41q0 -20 16.5 -28t45.5 -9l111 -3q47 -2 84 -9t63 -23t40 -43
t14 -68zM311 358q0 25 -3 47.5t-11.5 40t-22 28t-34.5 10.5q-20 0 -32.5 -10.5t-20.5 -27t-11 -38.5t-3 -44q0 -26 3.5 -48.5t11.5 -40t21.5 -27.5t34.5 -10q20 0 33 10t20.5 26.5t10.5 38.5t3 45zM339 662q0 -31 -23.5 -52.5t-66.5 -21.5q-45 0 -66.5 21.5t-21.5 52.5
t23.5 52.5t65.5 21.5q44 0 66.5 -21.5t22.5 -52.5z" />
    <glyph glyph-name="gcommaaccent" unicode="&#x123;" horiz-adv-x="495" 
d="M517 -26q0 -43 -20 -78t-55 -59.5t-83 -37.5t-104 -13q-43 0 -84 7.5t-73 24t-51.5 41.5t-19.5 60q0 28 18.5 51t54.5 23q19 0 33.5 -8t14.5 -25q0 -8 -2.5 -13.5t-5.5 -11.5t-5.5 -12.5t-2.5 -16.5q0 -18 12 -30.5t31 -21t42.5 -12.5t47.5 -4q25 0 49.5 5t43.5 16
t30.5 28t11.5 42q0 35 -20.5 50.5t-66.5 17.5l-115 7q-25 1 -49.5 6t-44 15.5t-31.5 28.5t-12 47q0 38 19 64t45 47v2q-45 21 -67.5 60.5t-22.5 88.5q0 37 14.5 68t41.5 53.5t65.5 35t85.5 12.5q44 0 77.5 -10t59.5 -27q20 14 44.5 25.5t51.5 11.5t45 -14t18 -37
q0 -19 -10.5 -32t-27.5 -13q-13 0 -20.5 5.5t-14.5 12.5t-14 12.5t-19 5.5q-5 0 -10 -2l-10 -4v-2q36 -45 36 -106q0 -38 -14.5 -69t-41 -53.5t-64.5 -35t-85 -12.5q-22 0 -41.5 2.5t-36.5 7.5q-22 -17 -22 -41q0 -20 16.5 -28t45.5 -9l111 -3q47 -2 84 -9t63 -23t40 -43
t14 -68zM311 358q0 25 -3 47.5t-11.5 40t-22 28t-34.5 10.5q-20 0 -32.5 -10.5t-20.5 -27t-11 -38.5t-3 -44q0 -26 3.5 -48.5t11.5 -40t21.5 -27.5t34.5 -10q20 0 33 10t20.5 26.5t10.5 38.5t3 45zM167 632q0 51 39.5 78t106.5 26v-38q-32 0 -53.5 -12t-19.5 -37h13
q27 0 44.5 -10t17.5 -35q0 -20 -16 -33.5t-48 -13.5q-37 0 -60.5 19.5t-23.5 55.5z" />
    <glyph glyph-name="hcircumflex" unicode="&#x125;" horiz-adv-x="613" 
d="M601 0q-32 1 -64.5 1.5t-65.5 0.5t-68 -0.5t-67 -1.5v29q0 8 7 9q20 4 31 8t16 16t6 35.5t1 66.5v177q0 48 -21 72.5t-59 24.5q-27 0 -51 -11.5t-41 -31.5v-231q0 -43 1 -66.5t6.5 -35.5t16.5 -16t31 -8q7 -1 7 -9v-29q-32 1 -66.5 1.5t-67.5 0.5t-67.5 -0.5t-66.5 -1.5
v29q0 8 7 9q21 4 32.5 8t17 16t6.5 35.5t1 66.5v388q0 43 -1 66t-6.5 35t-17 16t-32.5 9q-7 1 -7 9v29l197 20q11 2 11 -6q0 -20 -1 -49.5t-1 -52.5v-183h2q32 37 70 62t92 25q33 0 60.5 -11t47.5 -31t31 -49t11 -66v-211q0 -43 1 -66.5t6 -35.5t16.5 -16t31.5 -8q7 -1 7 -9
v-29v0zM136 810h-2l-124 -87l-20 21q-3 4 1 10l82 119q13 17 25.5 25t36.5 8q25 0 38 -8t25 -25l83 -119q4 -5 0 -10l-19 -21z" />
    <glyph glyph-name="hbar" unicode="&#x127;" horiz-adv-x="613" 
d="M82 615q-1 19 -4 30t-9.5 17t-16.5 9t-26 7q-7 1 -7 9v29l197 20q11 2 11 -6q0 -20 -1 -50t-1 -65h144v-49h-144v-121h2q32 37 70 62t92 25q33 0 60.5 -11t47.5 -31t31 -49t11 -66v-211q0 -43 1 -66.5t6 -35.5t16.5 -16t31.5 -8q7 -1 7 -9v-29q-32 1 -64.5 1.5t-65.5 0.5
t-68 -0.5t-67 -1.5v29q0 8 7 9q20 4 31 8t16 16t6 35.5t1 66.5v177q0 48 -21 72.5t-59 24.5q-27 0 -51 -11.5t-41 -31.5v-231q0 -43 1 -66.5t6.5 -35.5t16.5 -16t31 -8q7 -1 7 -9v-29q-32 1 -66.5 1.5t-67.5 0.5t-67.5 -0.5t-66.5 -1.5v29q0 8 7 9q21 4 32.5 8t17 16
t6.5 35.5t1 66.5v402h-64v49h63z" />
    <glyph glyph-name="igrave" unicode="&#xec;" horiz-adv-x="309" 
d="M-4 636q-12 6 -20.5 16t-8.5 24q0 10 4.5 20.5t12 19.5t17.5 14.5t21 5.5q22 0 39 -22l105 -129q5 -5 1 -9l-18 -23zM289 0q-32 1 -66.5 1.5t-67.5 0.5t-68.5 -0.5t-67.5 -1.5v29q0 8 7 9q21 4 32.5 8t17 16t6.5 35.5t1 66.5v180q0 43 -1 66t-6.5 35t-17 16t-32.5 9
q-7 1 -7 9v29l197 20q11 2 11 -6q-1 -20 -1.5 -49.5t-0.5 -52.5v-256q0 -43 1 -66.5t6.5 -35.5t17 -16t32.5 -8q7 -1 7 -9v-29v0z" />
    <glyph glyph-name="iacute" unicode="&#xed;" horiz-adv-x="309" 
d="M112 576q-4 4 1 9l105 129q9 12 18.5 17t20.5 5t21 -5.5t17.5 -14.5t12 -19.5t4.5 -20.5q0 -14 -8.5 -24t-20.5 -16l-153 -83zM289 0q-32 1 -66.5 1.5t-67.5 0.5t-68.5 -0.5t-67.5 -1.5v29q0 8 7 9q21 4 32.5 8t17 16t6.5 35.5t1 66.5v180q0 43 -1 66t-6.5 35t-17 16
t-32.5 9q-7 1 -7 9v29l197 20q11 2 11 -6q-1 -20 -1.5 -49.5t-0.5 -52.5v-256q0 -43 1 -66.5t6.5 -35.5t17 -16t32.5 -8q7 -1 7 -9v-29v0z" />
    <glyph glyph-name="icircumflex" unicode="&#xee;" horiz-adv-x="309" 
d="M289 0q-32 1 -66.5 1.5t-67.5 0.5t-68.5 -0.5t-67.5 -1.5v29q0 8 7 9q21 4 32.5 8t17 16t6.5 35.5t1 66.5v180q0 43 -1 66t-6.5 35t-17 16t-32.5 9q-7 1 -7 9v29l197 20q11 2 11 -6q-1 -20 -1.5 -49.5t-0.5 -52.5v-256q0 -43 1 -66.5t6.5 -35.5t17 -16t32.5 -8q7 -1 7 -9
v-29v0zM149 640h-2l-124 -87l-20 21q-3 4 1 10l82 119q13 17 25.5 25t36.5 8q25 0 38 -8t25 -25l83 -119q4 -5 0 -10l-19 -21z" />
    <glyph glyph-name="itilde" unicode="&#x129;" horiz-adv-x="309" 
d="M216 607q-17 0 -35 3.5l-36 7l-35 7t-30 3.5q-20 0 -30 -10.5t-15 -35.5l-33 6q-8 1 -6 9q4 22 9 43t14.5 37t25 25.5t41.5 9.5q16 0 34 -3.5t36 -7.5l34.5 -7.5t30.5 -3.5q20 0 30 10.5t16 35.5l33 -6q7 -1 5 -9q-3 -22 -8 -42.5t-14.5 -36.5t-25.5 -25.5t-41 -9.5z
M289 0q-32 1 -66.5 1.5t-67.5 0.5t-68.5 -0.5t-67.5 -1.5v29q0 8 7 9q21 4 32.5 8t17 16t6.5 35.5t1 66.5v180q0 43 -1 66t-6.5 35t-17 16t-32.5 9q-7 1 -7 9v29l197 20q11 2 11 -6q-1 -20 -1.5 -49.5t-0.5 -52.5v-256q0 -43 1 -66.5t6.5 -35.5t17 -16t32.5 -8q7 -1 7 -9
v-29v0z" />
    <glyph glyph-name="idieresis" unicode="&#xef;" horiz-adv-x="309" 
d="M131 664q0 -30 -20.5 -51t-55.5 -21t-54 21t-19 51q0 31 20 51.5t55 20.5t54.5 -20.5t19.5 -51.5zM322 664q0 -30 -20.5 -51t-55.5 -21t-54 21t-19 51q0 31 20 51.5t55 20.5t54.5 -20.5t19.5 -51.5zM289 0q-32 1 -66.5 1.5t-67.5 0.5t-68.5 -0.5t-67.5 -1.5v29q0 8 7 9
q21 4 32.5 8t17 16t6.5 35.5t1 66.5v180q0 43 -1 66t-6.5 35t-17 16t-32.5 9q-7 1 -7 9v29l197 20q11 2 11 -6q-1 -20 -1.5 -49.5t-0.5 -52.5v-256q0 -43 1 -66.5t6.5 -35.5t17 -16t32.5 -8q7 -1 7 -9v-29v0z" />
    <glyph glyph-name="imacron" unicode="&#x12b;" horiz-adv-x="309" 
d="M12 628v90h278v-90h-278zM289 0q-32 1 -66.5 1.5t-67.5 0.5t-68.5 -0.5t-67.5 -1.5v29q0 8 7 9q21 4 32.5 8t17 16t6.5 35.5t1 66.5v180q0 43 -1 66t-6.5 35t-17 16t-32.5 9q-7 1 -7 9v29l197 20q11 2 11 -6q-1 -20 -1.5 -49.5t-0.5 -52.5v-256q0 -43 1 -66.5t6.5 -35.5
t17 -16t32.5 -8q7 -1 7 -9v-29v0z" />
    <glyph glyph-name="ibreve" unicode="&#x12d;" horiz-adv-x="309" 
d="M151 590q-37 0 -63 9t-43 26.5t-27 42t-14 55.5q-1 7 6 8l34 5q7 -36 34 -49.5t73 -13.5t73 13.5t34 49.5l34 -5q7 -1 6 -8q-5 -31 -14.5 -55.5t-26.5 -42t-43 -26.5t-63 -9zM289 0q-32 1 -66.5 1.5t-67.5 0.5t-68.5 -0.5t-67.5 -1.5v29q0 8 7 9q21 4 32.5 8t17 16
t6.5 35.5t1 66.5v180q0 43 -1 66t-6.5 35t-17 16t-32.5 9q-7 1 -7 9v29l197 20q11 2 11 -6q-1 -20 -1.5 -49.5t-0.5 -52.5v-256q0 -43 1 -66.5t6.5 -35.5t17 -16t32.5 -8q7 -1 7 -9v-29v0z" />
    <glyph glyph-name="iogonek" unicode="&#x12f;" horiz-adv-x="309" 
d="M122 -214q-42 0 -64.5 23t-22.5 59q0 38 22.5 70t56.5 64q-25 -1 -48.5 -1.5t-46.5 -0.5v29q0 8 7 9q21 4 32.5 8t17 16t6.5 35.5t1 66.5v180q0 43 -1 66t-6.5 35t-17 16t-32.5 9q-7 1 -7 9v29l197 20q11 2 11 -6q-1 -20 -1.5 -49.5t-0.5 -52.5v-256q0 -43 1 -66.5
t6.5 -35.5t17 -16t32.5 -8q7 -1 7 -9v-29q-29 1 -61 1.5t-64 0.5q-21 -24 -34.5 -47t-13.5 -46q0 -17 11 -32.5t36 -15.5q29 0 52 22l18 -26q3 -4 2.5 -6t-3.5 -6q-17 -20 -44.5 -39.5t-65.5 -19.5zM232 662q0 -31 -23 -52.5t-67 -21.5q-45 0 -66 21.5t-21 52.5t23.5 52.5
t65.5 21.5q44 0 66 -21.5t22 -52.5z" />
    <glyph glyph-name="dotlessi" unicode="&#x131;" horiz-adv-x="309" 
d="M289 0q-32 1 -66.5 1.5t-67.5 0.5t-68.5 -0.5t-67.5 -1.5v29q0 8 7 9q21 4 32.5 8t17 16t6.5 35.5t1 66.5v180q0 43 -1 66t-6.5 35t-17 16t-32.5 9q-7 1 -7 9v29l197 20q11 2 11 -6q-1 -20 -1.5 -49.5t-0.5 -52.5v-256q0 -43 1 -66.5t6.5 -35.5t17 -16t32.5 -8q7 -1 7 -9
v-29v0z" />
    <glyph glyph-name="ij" unicode="&#x133;" horiz-adv-x="611" 
d="M232 662q0 -31 -23 -52.5t-67 -21.5q-45 0 -66 21.5t-21 52.5t23.5 52.5t65.5 21.5q44 0 66 -21.5t22 -52.5zM289 0q-32 1 -66.5 1.5t-67.5 0.5t-68.5 -0.5t-67.5 -1.5v29q0 8 7 9q21 4 32.5 8t17 16t6.5 35.5t1 66.5v180q0 43 -1 66t-6.5 35t-17 16t-32.5 9q-7 1 -7 9
v29l197 20q11 2 11 -6q-1 -20 -1.5 -49.5t-0.5 -52.5v-256q0 -43 1 -66.5t6.5 -35.5t17 -16t32.5 -8q7 -1 7 -9v-29zM536 662q0 -31 -23.5 -52.5t-66.5 -21.5q-45 0 -66.5 21.5t-21.5 52.5t23.5 52.5t65.5 21.5q44 0 66.5 -21.5t22.5 -52.5zM529 29q0 -62 -14.5 -107.5
t-41.5 -75.5t-65.5 -45t-85.5 -15q-26 0 -51.5 5.5t-46 16.5t-33.5 29t-13 43q0 14 5.5 25.5t14.5 19.5t19.5 12.5t20.5 4.5q25 0 35 -16.5t16.5 -36.5t14 -36.5t26.5 -16.5q38 0 47.5 46.5t9.5 146.5v315q0 43 -1.5 66t-7 35t-17 16t-31.5 9q-7 1 -7 9v29l197 20
q11 2 11 -6q-1 -20 -1.5 -49.5t-0.5 -52.5v-391z" />
    <glyph glyph-name="jcircumflex" unicode="&#x135;" horiz-adv-x="311" 
d="M228 29q0 -62 -14.5 -107.5t-41.5 -75.5t-65.5 -45t-85.5 -15q-26 0 -51.5 5.5t-46 16.5t-33.5 29t-13 43q0 14 5.5 25.5t14.5 19.5t19.5 12.5t20.5 4.5q25 0 35 -16.5t16.5 -36.5t14 -36.5t26.5 -16.5q38 0 47.5 46.5t9.5 146.5v315q0 43 -1.5 66t-7 35t-17 16t-31.5 9
q-7 1 -7 9v29l197 20q11 2 11 -6q-1 -20 -1.5 -49.5t-0.5 -52.5v-391zM152 640h-2l-124 -87l-20 21q-3 4 1 10l82 119q13 17 25.5 25t36.5 8q25 0 38 -8t25 -25l83 -119q4 -5 0 -10l-19 -21z" />
    <glyph glyph-name="kcommaaccent" unicode="&#x137;" horiz-adv-x="584" 
d="M580 0q-15 0 -25.5 0.5t-20 1t-20.5 0.5h-26q-8 0 -18.5 -0.5t-21.5 -0.5t-21.5 -0.5t-16.5 -0.5q-8 0 -11.5 2t-8.5 10l-15 28l-15.5 28l-17.5 31l-80 143h-2l-35 -37v-41q0 -43 1.5 -66.5t7.5 -35.5t17 -16t29 -8q7 -1 7 -9v-29q-32 1 -65.5 1.5t-66.5 0.5t-68.5 -0.5
t-67.5 -1.5v29q0 8 7 9q21 4 32.5 8t17 16t6.5 35.5t1 66.5v388q0 43 -1 66t-6.5 35t-17 16t-32.5 9q-7 1 -7 9v29l197 20q11 2 11 -6q-1 -20 -1.5 -49.5t-0.5 -52.5v-341h2l69 73q31 34 44 55t13 35q0 16 -11 22t-35 8q-6 0 -6 9v29q29 -1 66 -1.5t67 -0.5t63 1t53 1v-29
q0 -7 -7 -9q-25 -6 -41.5 -12t-33 -17.5t-36.5 -30.5t-51 -52l-21 -23l108 -185q23 -38 37.5 -60t25.5 -34.5t20.5 -18t22.5 -9.5q6 -1 6 -9v-29v0zM400 -110q0 -51 -39.5 -78t-106.5 -26v38q32 0 53.5 12t19.5 37h-13q-27 0 -44.5 10t-17.5 35q0 20 16 33.5t48 13.5
q37 0 60.5 -19.5t23.5 -55.5z" />
    <glyph glyph-name="lacute" unicode="&#x13a;" horiz-adv-x="309" 
d="M289 0q-32 1 -66.5 1.5t-67.5 0.5t-68.5 -0.5t-67.5 -1.5v29q0 8 7 9q21 4 32.5 8t17 16t6.5 35.5t1 66.5v388q0 43 -1 66t-6.5 35t-17 16t-32.5 9q-7 1 -7 9v29l197 20q11 2 11 -6q-1 -20 -1.5 -49.5t-0.5 -52.5v-464q0 -43 1 -66.5t6.5 -35.5t17 -16t32.5 -8q7 -1 7 -9
v-29v0zM122 792q-4 4 1 9l105 129q9 12 18.5 17t20.5 5t21 -5.5t17.5 -14.5t12 -19.5t4.5 -20.5q0 -14 -8.5 -24t-20.5 -16l-153 -83z" />
    <glyph glyph-name="lcaron" unicode="&#x13e;" horiz-adv-x="390" 
d="M289 0q-32 1 -66.5 1.5t-67.5 0.5t-68.5 -0.5t-67.5 -1.5v29q0 8 7 9q21 4 32.5 8t17 16t6.5 35.5t1 66.5v388q0 43 -1 66t-6.5 35t-17 16t-32.5 9q-7 1 -7 9v29l197 20q11 2 11 -6q-1 -20 -1.5 -49.5t-0.5 -52.5v-464q0 -43 1 -66.5t6.5 -35.5t17 -16t32.5 -8q7 -1 7 -9
v-29v0zM309 549q-4 -5 -9 -3l-27 12l21 138q2 20 11 30t28 10q9 0 20 -3.5t21 -10t16.5 -16t6.5 -20.5q0 -13 -12 -30z" />
    <glyph glyph-name="lcommaaccent" unicode="&#x13c;" horiz-adv-x="309" 
d="M289 0q-32 1 -66.5 1.5t-67.5 0.5t-68.5 -0.5t-67.5 -1.5v29q0 8 7 9q21 4 32.5 8t17 16t6.5 35.5t1 66.5v388q0 43 -1 66t-6.5 35t-17 16t-32.5 9q-7 1 -7 9v29l197 20q11 2 11 -6q-1 -20 -1.5 -49.5t-0.5 -52.5v-464q0 -43 1 -66.5t6.5 -35.5t17 -16t32.5 -8q7 -1 7 -9
v-29v0zM233 -110q0 -51 -39.5 -78t-106.5 -26v38q32 0 53.5 12t19.5 37h-13q-27 0 -44.5 10t-17.5 35q0 20 16 33.5t48 13.5q37 0 60.5 -19.5t23.5 -55.5z" />
    <glyph glyph-name="lslash" unicode="&#x142;" horiz-adv-x="309" 
d="M83 432v120q0 43 -1 66t-6.5 35t-17 16t-32.5 9q-7 1 -7 9v29l197 20q11 2 11 -6q-1 -20 -1.5 -49.5t-0.5 -52.5v-130l68 32l23 -48l-91 -44v-274q0 -43 1 -66.5t6.5 -35.5t17 -16t32.5 -8q7 -1 7 -9v-29q-32 1 -66.5 1.5t-67.5 0.5t-68.5 -0.5t-67.5 -1.5v29q0 8 7 9
q21 4 32.5 8t17 16t6.5 35.5t1 66.5v208l-59 -28l-23 49z" />
    <glyph glyph-name="ldot" unicode="&#x140;" horiz-adv-x="398" 
d="M289 0q-32 1 -66.5 1.5t-67.5 0.5t-68.5 -0.5t-67.5 -1.5v29q0 8 7 9q21 4 32.5 8t17 16t6.5 35.5t1 66.5v388q0 43 -1 66t-6.5 35t-17 16t-32.5 9q-7 1 -7 9v29l197 20q11 2 11 -6q-1 -20 -1.5 -49.5t-0.5 -52.5v-464q0 -43 1 -66.5t6.5 -35.5t17 -16t32.5 -8q7 -1 7 -9
v-29v0zM430 275q0 -34 -22.5 -58t-63.5 -24t-62.5 24t-21.5 58t22.5 58t63.5 24q40 0 62 -24t22 -58z" />
    <glyph glyph-name="nacute" unicode="&#x144;" horiz-adv-x="625" 
d="M613 0q-32 1 -68.5 1.5t-69.5 0.5t-66.5 -0.5t-65.5 -1.5v29q0 8 7 9q21 4 32.5 8t17 16t6.5 35.5t1 66.5v176q0 51 -24 74.5t-62 23.5q-29 0 -53.5 -11.5t-42.5 -31.5v-231q0 -43 1 -66.5t6.5 -35.5t17 -16t32.5 -8q7 -1 7 -9v-29q-32 1 -66.5 1.5t-67.5 0.5t-68.5 -0.5
t-67.5 -1.5v29q0 8 7 9q21 4 32.5 8t17 16t6.5 35.5t1 66.5v180q0 42 -1.5 65t-7.5 35t-17.5 16.5t-30.5 9.5q-7 1 -7 9v29l178 20q9 1 11 -6q5 -17 8.5 -38t5.5 -41h3q34 38 73.5 63.5t96.5 25.5q33 0 61 -11t49 -31t32.5 -49t11.5 -66v-211q0 -43 1 -66.5t6.5 -35.5
t17 -16t32.5 -8q7 -1 7 -9v-29v0zM287 576q-4 4 1 9l105 129q9 12 18.5 17t20.5 5t21 -5.5t17.5 -14.5t12 -19.5t4.5 -20.5q0 -14 -8.5 -24t-20.5 -16l-153 -83z" />
    <glyph glyph-name="ncaron" unicode="&#x148;" horiz-adv-x="625" 
d="M613 0q-32 1 -68.5 1.5t-69.5 0.5t-66.5 -0.5t-65.5 -1.5v29q0 8 7 9q21 4 32.5 8t17 16t6.5 35.5t1 66.5v176q0 51 -24 74.5t-62 23.5q-29 0 -53.5 -11.5t-42.5 -31.5v-231q0 -43 1 -66.5t6.5 -35.5t17 -16t32.5 -8q7 -1 7 -9v-29q-32 1 -66.5 1.5t-67.5 0.5t-68.5 -0.5
t-67.5 -1.5v29q0 8 7 9q21 4 32.5 8t17 16t6.5 35.5t1 66.5v180q0 42 -1.5 65t-7.5 35t-17.5 16.5t-30.5 9.5q-7 1 -7 9v29l178 20q9 1 11 -6q5 -17 8.5 -38t5.5 -41h3q34 38 73.5 63.5t96.5 25.5q33 0 61 -11t49 -31t32.5 -49t11.5 -66v-211q0 -43 1 -66.5t6.5 -35.5
t17 -16t32.5 -8q7 -1 7 -9v-29v0zM334 553q-24 0 -37 7.5t-25 24.5l-82 120q-5 5 -1 9l20 22l124 -88h2l126 88l19 -22q4 -5 0 -9l-83 -120q-13 -17 -25.5 -24.5t-37.5 -7.5z" />
    <glyph glyph-name="ntilde" unicode="&#xf1;" horiz-adv-x="625" 
d="M613 0q-32 1 -68.5 1.5t-69.5 0.5t-66.5 -0.5t-65.5 -1.5v29q0 8 7 9q21 4 32.5 8t17 16t6.5 35.5t1 66.5v176q0 51 -24 74.5t-62 23.5q-29 0 -53.5 -11.5t-42.5 -31.5v-231q0 -43 1 -66.5t6.5 -35.5t17 -16t32.5 -8q7 -1 7 -9v-29q-32 1 -66.5 1.5t-67.5 0.5t-68.5 -0.5
t-67.5 -1.5v29q0 8 7 9q21 4 32.5 8t17 16t6.5 35.5t1 66.5v180q0 42 -1.5 65t-7.5 35t-17.5 16.5t-30.5 9.5q-7 1 -7 9v29l178 20q9 1 11 -6q5 -17 8.5 -38t5.5 -41h3q34 38 73.5 63.5t96.5 25.5q33 0 61 -11t49 -31t32.5 -49t11.5 -66v-211q0 -43 1 -66.5t6.5 -35.5
t17 -16t32.5 -8q7 -1 7 -9v-29v0zM398 607q-17 0 -35 3.5l-36 7l-35 7t-30 3.5q-20 0 -30 -10.5t-15 -35.5l-33 6q-8 1 -6 9q4 22 9 43t14.5 37t25 25.5t41.5 9.5q16 0 34 -3.5t36 -7.5l34.5 -7.5t30.5 -3.5q20 0 30 10.5t16 35.5l33 -6q7 -1 5 -9q-3 -22 -8 -42.5
t-14.5 -36.5t-25.5 -25.5t-41 -9.5z" />
    <glyph glyph-name="ncommaaccent" unicode="&#x146;" horiz-adv-x="625" 
d="M613 0q-32 1 -68.5 1.5t-69.5 0.5t-66.5 -0.5t-65.5 -1.5v29q0 8 7 9q21 4 32.5 8t17 16t6.5 35.5t1 66.5v176q0 51 -24 74.5t-62 23.5q-29 0 -53.5 -11.5t-42.5 -31.5v-231q0 -43 1 -66.5t6.5 -35.5t17 -16t32.5 -8q7 -1 7 -9v-29q-32 1 -66.5 1.5t-67.5 0.5t-68.5 -0.5
t-67.5 -1.5v29q0 8 7 9q21 4 32.5 8t17 16t6.5 35.5t1 66.5v180q0 42 -1.5 65t-7.5 35t-17.5 16.5t-30.5 9.5q-7 1 -7 9v29l178 20q9 1 11 -6q5 -17 8.5 -38t5.5 -41h3q34 38 73.5 63.5t96.5 25.5q33 0 61 -11t49 -31t32.5 -49t11.5 -66v-211q0 -43 1 -66.5t6.5 -35.5
t17 -16t32.5 -8q7 -1 7 -9v-29v0zM395 -110q0 -51 -39.5 -78t-106.5 -26v38q32 0 53.5 12t19.5 37h-13q-27 0 -44.5 10t-17.5 35q0 20 16 33.5t48 13.5q37 0 60.5 -19.5t23.5 -55.5z" />
    <glyph glyph-name="ograve" unicode="&#xf2;" horiz-adv-x="587" 
d="M402 255q0 45 -4 85.5t-16 71.5t-33.5 49t-57.5 18q-33 0 -54 -18.5t-32.5 -48.5t-15.5 -69t-4 -80q0 -45 4 -85.5t16 -71.5t33.5 -49t57.5 -18q33 0 54 18.5t32.5 48.5t15.5 69t4 80zM556 255q0 -61 -18.5 -110.5t-53 -85t-82.5 -54.5t-108 -19q-64 0 -113 20t-82.5 57
t-50.5 87.5t-17 112.5q0 61 18.5 110.5t53 85t82.5 54.5t108 19q64 0 113 -20t82.5 -57t50.5 -88t17 -112zM165 636q-12 6 -20.5 16t-8.5 24q0 10 4.5 20.5t12 19.5t17.5 14.5t21 5.5q22 0 39 -22l105 -129q5 -5 1 -9l-18 -23z" />
    <glyph glyph-name="oacute" unicode="&#xf3;" horiz-adv-x="587" 
d="M402 255q0 45 -4 85.5t-16 71.5t-33.5 49t-57.5 18q-33 0 -54 -18.5t-32.5 -48.5t-15.5 -69t-4 -80q0 -45 4 -85.5t16 -71.5t33.5 -49t57.5 -18q33 0 54 18.5t32.5 48.5t15.5 69t4 80zM556 255q0 -61 -18.5 -110.5t-53 -85t-82.5 -54.5t-108 -19q-64 0 -113 20t-82.5 57
t-50.5 87.5t-17 112.5q0 61 18.5 110.5t53 85t82.5 54.5t108 19q64 0 113 -20t82.5 -57t50.5 -88t17 -112zM264 576q-4 4 1 9l105 129q9 12 18.5 17t20.5 5t21 -5.5t17.5 -14.5t12 -19.5t4.5 -20.5q0 -14 -8.5 -24t-20.5 -16l-153 -83z" />
    <glyph glyph-name="ocircumflex" unicode="&#xf4;" horiz-adv-x="587" 
d="M402 255q0 45 -4 85.5t-16 71.5t-33.5 49t-57.5 18q-33 0 -54 -18.5t-32.5 -48.5t-15.5 -69t-4 -80q0 -45 4 -85.5t16 -71.5t33.5 -49t57.5 -18q33 0 54 18.5t32.5 48.5t15.5 69t4 80zM556 255q0 -61 -18.5 -110.5t-53 -85t-82.5 -54.5t-108 -19q-64 0 -113 20t-82.5 57
t-50.5 87.5t-17 112.5q0 61 18.5 110.5t53 85t82.5 54.5t108 19q64 0 113 -20t82.5 -57t50.5 -88t17 -112zM298 640h-2l-124 -87l-20 21q-3 4 1 10l82 119q13 17 25.5 25t36.5 8q25 0 38 -8t25 -25l83 -119q4 -5 0 -10l-19 -21z" />
    <glyph glyph-name="otilde" unicode="&#xf5;" horiz-adv-x="587" 
d="M402 255q0 45 -4 85.5t-16 71.5t-33.5 49t-57.5 18q-33 0 -54 -18.5t-32.5 -48.5t-15.5 -69t-4 -80q0 -45 4 -85.5t16 -71.5t33.5 -49t57.5 -18q33 0 54 18.5t32.5 48.5t15.5 69t4 80zM556 255q0 -61 -18.5 -110.5t-53 -85t-82.5 -54.5t-108 -19q-64 0 -113 20t-82.5 57
t-50.5 87.5t-17 112.5q0 61 18.5 110.5t53 85t82.5 54.5t108 19q64 0 113 -20t82.5 -57t50.5 -88t17 -112zM366 607q-17 0 -35 3.5l-36 7l-35 7t-30 3.5q-20 0 -30 -10.5t-15 -35.5l-33 6q-8 1 -6 9q4 22 9 43t14.5 37t25 25.5t41.5 9.5q16 0 34 -3.5t36 -7.5l34.5 -7.5
t30.5 -3.5q20 0 30 10.5t16 35.5l33 -6q7 -1 5 -9q-3 -22 -8 -42.5t-14.5 -36.5t-25.5 -25.5t-41 -9.5z" />
    <glyph glyph-name="odieresis" unicode="&#xf6;" horiz-adv-x="587" 
d="M402 255q0 45 -4 85.5t-16 71.5t-33.5 49t-57.5 18q-33 0 -54 -18.5t-32.5 -48.5t-15.5 -69t-4 -80q0 -45 4 -85.5t16 -71.5t33.5 -49t57.5 -18q33 0 54 18.5t32.5 48.5t15.5 69t4 80zM556 255q0 -61 -18.5 -110.5t-53 -85t-82.5 -54.5t-108 -19q-64 0 -113 20t-82.5 57
t-50.5 87.5t-17 112.5q0 61 18.5 110.5t53 85t82.5 54.5t108 19q64 0 113 -20t82.5 -57t50.5 -88t17 -112zM279 664q0 -30 -20.5 -51t-55.5 -21t-54 21t-19 51q0 31 20 51.5t55 20.5t54.5 -20.5t19.5 -51.5zM470 664q0 -30 -20.5 -51t-55.5 -21t-54 21t-19 51q0 31 20 51.5
t55 20.5t54.5 -20.5t19.5 -51.5z" />
    <glyph glyph-name="omacron" unicode="&#x14d;" horiz-adv-x="587" 
d="M402 255q0 45 -4 85.5t-16 71.5t-33.5 49t-57.5 18q-33 0 -54 -18.5t-32.5 -48.5t-15.5 -69t-4 -80q0 -45 4 -85.5t16 -71.5t33.5 -49t57.5 -18q33 0 54 18.5t32.5 48.5t15.5 69t4 80zM556 255q0 -61 -18.5 -110.5t-53 -85t-82.5 -54.5t-108 -19q-64 0 -113 20t-82.5 57
t-50.5 87.5t-17 112.5q0 61 18.5 110.5t53 85t82.5 54.5t108 19q64 0 113 -20t82.5 -57t50.5 -88t17 -112zM159 628v90h278v-90h-278z" />
    <glyph glyph-name="obreve" unicode="&#x14f;" horiz-adv-x="587" 
d="M402 255q0 45 -4 85.5t-16 71.5t-33.5 49t-57.5 18q-33 0 -54 -18.5t-32.5 -48.5t-15.5 -69t-4 -80q0 -45 4 -85.5t16 -71.5t33.5 -49t57.5 -18q33 0 54 18.5t32.5 48.5t15.5 69t4 80zM556 255q0 -61 -18.5 -110.5t-53 -85t-82.5 -54.5t-108 -19q-64 0 -113 20t-82.5 57
t-50.5 87.5t-17 112.5q0 61 18.5 110.5t53 85t82.5 54.5t108 19q64 0 113 -20t82.5 -57t50.5 -88t17 -112zM298 590q-37 0 -63 9t-43 26.5t-27 42t-14 55.5q-1 7 6 8l34 5q7 -36 34 -49.5t73 -13.5t73 13.5t34 49.5l34 -5q7 -1 6 -8q-5 -31 -14.5 -55.5t-26.5 -42t-43 -26.5
t-63 -9z" />
    <glyph glyph-name="ohungarumlaut" unicode="&#x151;" horiz-adv-x="587" 
d="M402 255q0 45 -4 85.5t-16 71.5t-33.5 49t-57.5 18q-33 0 -54 -18.5t-32.5 -48.5t-15.5 -69t-4 -80q0 -45 4 -85.5t16 -71.5t33.5 -49t57.5 -18q33 0 54 18.5t32.5 48.5t15.5 69t4 80zM556 255q0 -61 -18.5 -110.5t-53 -85t-82.5 -54.5t-108 -19q-64 0 -113 20t-82.5 57
t-50.5 87.5t-17 112.5q0 61 18.5 110.5t53 85t82.5 54.5t108 19q64 0 113 -20t82.5 -57t50.5 -88t17 -112zM179 580q-3 5 1 9l111 128q14 19 35 19q11 0 21 -6t17.5 -15t12 -19.5t4.5 -19.5q0 -13 -8.5 -23t-20.5 -17l-154 -83zM369 580q-3 5 1 9l111 128q14 19 35 19
q11 0 21 -6t17.5 -15t12 -19.5t4.5 -19.5q0 -13 -8.5 -23t-20.5 -17l-154 -83z" />
    <glyph glyph-name="oslash" unicode="&#xf8;" horiz-adv-x="587" 
d="M556 255q0 -61 -18.5 -110.5t-53 -85t-82.5 -54.5t-108 -19q-37 0 -68.5 7t-58.5 20l-45 -73h-62l63 100q-46 37 -69 94t-23 129q0 61 18.5 110.5t53 85t82.5 54.5t108 19q35 0 65.5 -6.5t57.5 -18.5l44 71h62l-61 -98q47 -36 71 -93.5t24 -131.5zM402 255q0 31 -3 60
t-11 54l-172 -280q12 -23 31.5 -36.5t48.5 -13.5q33 0 54 18.5t32.5 48.5t15.5 69t4 80zM185 263q0 -29 2.5 -56t10.5 -50l171 277q-13 21 -31.5 33t-46.5 12q-33 0 -54 -18.5t-32.5 -48.5t-15.5 -69t-4 -80z" />
    <glyph glyph-name="oslashacute" unicode="&#x1ff;" horiz-adv-x="587" 
d="M265 576q-4 4 1 9l105 129q9 12 18.5 17t20.5 5t21 -5.5t17.5 -14.5t12 -19.5t4.5 -20.5q0 -14 -8.5 -24t-20.5 -16l-153 -83zM556 255q0 -61 -18.5 -110.5t-53 -85t-82.5 -54.5t-108 -19q-37 0 -68.5 7t-58.5 20l-45 -73h-62l63 100q-46 37 -69 94t-23 129
q0 61 18.5 110.5t53 85t82.5 54.5t108 19q35 0 65.5 -6.5t57.5 -18.5l44 71h62l-61 -98q47 -36 71 -93.5t24 -131.5zM402 255q0 31 -3 60t-11 54l-172 -280q12 -23 31.5 -36.5t48.5 -13.5q33 0 54 18.5t32.5 48.5t15.5 69t4 80zM185 263q0 -29 2.5 -56t10.5 -50l171 277
q-13 21 -31.5 33t-46.5 12q-33 0 -54 -18.5t-32.5 -48.5t-15.5 -69t-4 -80z" />
    <glyph glyph-name="oe" unicode="&#x153;" horiz-adv-x="909" 
d="M651 -14q-63 0 -106.5 20t-72.5 54h-2q-32 -33 -74 -53.5t-102 -20.5q-64 0 -113 20t-82.5 57t-50.5 87.5t-17 112.5q0 61 18.5 110.5t53 85t82.5 54.5t108 19q66 0 107.5 -22t72.5 -58h2q35 38 77 59t97 21t97.5 -15.5t71 -44.5t43 -70t14.5 -92q0 -8 -2.5 -10t-7.5 -2
h-320q-1 -6 -1 -12.5v-12.5q0 -41 8 -78t26 -65t47 -44.5t72 -16.5q47 0 81.5 19.5t59.5 53.5l28 -19q3 -2 4 -4t-1 -7q-32 -60 -87.5 -93t-130.5 -33zM402 255q0 45 -4 85.5t-16 71.5t-33.5 49t-57.5 18q-33 0 -54 -18.5t-32.5 -48.5t-15.5 -69t-4 -80q0 -45 4 -85.5
t16 -71.5t33.5 -49t57.5 -18q33 0 54 18.5t32.5 48.5t15.5 69t4 80zM677 344q52 0 52 56q0 36 -20.5 57.5t-56.5 21.5q-48 0 -72 -37t-32 -98h129z" />
    <glyph glyph-name="racute" unicode="&#x155;" horiz-adv-x="436" 
d="M319 0q-16 0 -36 0.5l-41.5 1t-42.5 0.5h-37q-33 0 -72 -0.5t-71 -1.5v29q0 8 7 9q21 4 32.5 8t17 16t6.5 35.5t1 66.5v180q0 41 -2 64.5t-8 35.5t-17.5 16.5t-30.5 9.5q-7 1 -7 9v29l177 20q10 1 11 -6q5 -17 9 -36.5t6 -41.5h3l28.5 33t30 28t33.5 19.5t38 7.5
q37 0 58 -25t21 -59q0 -29 -19.5 -48t-42.5 -19q-17 0 -25.5 8t-16 18t-16.5 18t-26 8q-15 0 -31 -10t-31 -27v-232q0 -42 1.5 -65t10 -35t26 -16.5t49.5 -9.5q7 -1 7 -9v-29v0zM198 576q-4 4 1 9l105 129q9 12 18.5 17t20.5 5t21 -5.5t17.5 -14.5t12 -19.5t4.5 -20.5
q0 -14 -8.5 -24t-20.5 -16l-153 -83z" />
    <glyph glyph-name="rcaron" unicode="&#x159;" horiz-adv-x="436" 
d="M319 0q-16 0 -36 0.5l-41.5 1t-42.5 0.5h-37q-33 0 -72 -0.5t-71 -1.5v29q0 8 7 9q21 4 32.5 8t17 16t6.5 35.5t1 66.5v180q0 41 -2 64.5t-8 35.5t-17.5 16.5t-30.5 9.5q-7 1 -7 9v29l177 20q10 1 11 -6q5 -17 9 -36.5t6 -41.5h3l28.5 33t30 28t33.5 19.5t38 7.5
q37 0 58 -25t21 -59q0 -29 -19.5 -48t-42.5 -19q-17 0 -25.5 8t-16 18t-16.5 18t-26 8q-15 0 -31 -10t-31 -27v-232q0 -42 1.5 -65t10 -35t26 -16.5t49.5 -9.5q7 -1 7 -9v-29v0zM240 553q-24 0 -37 7.5t-25 24.5l-82 120q-5 5 -1 9l20 22l124 -88h2l126 88l19 -22q4 -5 0 -9
l-83 -120q-13 -17 -25.5 -24.5t-37.5 -7.5z" />
    <glyph glyph-name="rcommaaccent" unicode="&#x157;" horiz-adv-x="436" 
d="M319 0q-16 0 -36 0.5l-41.5 1t-42.5 0.5h-37q-33 0 -72 -0.5t-71 -1.5v29q0 8 7 9q21 4 32.5 8t17 16t6.5 35.5t1 66.5v180q0 41 -2 64.5t-8 35.5t-17.5 16.5t-30.5 9.5q-7 1 -7 9v29l177 20q10 1 11 -6q5 -17 9 -36.5t6 -41.5h3l28.5 33t30 28t33.5 19.5t38 7.5
q37 0 58 -25t21 -59q0 -29 -19.5 -48t-42.5 -19q-17 0 -25.5 8t-16 18t-16.5 18t-26 8q-15 0 -31 -10t-31 -27v-232q0 -42 1.5 -65t10 -35t26 -16.5t49.5 -9.5q7 -1 7 -9v-29v0zM242 -110q0 -51 -39.5 -78t-106.5 -26v38q32 0 53.5 12t19.5 37h-13q-27 0 -44.5 10t-17.5 35
q0 20 16 33.5t48 13.5q37 0 60.5 -19.5t23.5 -55.5z" />
    <glyph glyph-name="sacute" unicode="&#x15b;" horiz-adv-x="437" 
d="M411 163q0 -41 -16 -74t-43 -56t-64 -35t-79 -12q-35 0 -65 6.5t-59 23.5h-2l-12 -18q-4 -5 -9 -5h-22q0 16 -0.5 40t-0.5 49t-0.5 48t-0.5 37h33q9 0 10 -7q19 -118 125 -118q35 0 59 15.5t24 47.5q0 28 -18 45.5t-45.5 31t-59 26.5t-59 32.5t-45.5 49t-18 75.5
q0 37 13.5 68t37.5 53t56.5 34t70.5 12q32 0 59 -7.5t44 -21.5h1l12 17q2 3 3.5 4t6.5 1h19q0 -33 0.5 -75t1.5 -74h-31q-8 0 -9 7q-8 46 -36 70.5t-66 24.5q-32 0 -49 -16t-17 -42q0 -27 18.5 -44t46.5 -30t60 -26t60 -32.5t46.5 -49t18.5 -75.5zM191 576q-4 4 1 9l105 129
q9 12 18.5 17t20.5 5t21 -5.5t17.5 -14.5t12 -19.5t4.5 -20.5q0 -14 -8.5 -24t-20.5 -16l-153 -83z" />
    <glyph glyph-name="scircumflex" unicode="&#x15d;" horiz-adv-x="437" 
d="M411 163q0 -41 -16 -74t-43 -56t-64 -35t-79 -12q-35 0 -65 6.5t-59 23.5h-2l-12 -18q-4 -5 -9 -5h-22q0 16 -0.5 40t-0.5 49t-0.5 48t-0.5 37h33q9 0 10 -7q19 -118 125 -118q35 0 59 15.5t24 47.5q0 28 -18 45.5t-45.5 31t-59 26.5t-59 32.5t-45.5 49t-18 75.5
q0 37 13.5 68t37.5 53t56.5 34t70.5 12q32 0 59 -7.5t44 -21.5h1l12 17q2 3 3.5 4t6.5 1h19q0 -33 0.5 -75t1.5 -74h-31q-8 0 -9 7q-8 46 -36 70.5t-66 24.5q-32 0 -49 -16t-17 -42q0 -27 18.5 -44t46.5 -30t60 -26t60 -32.5t46.5 -49t18.5 -75.5zM232 640h-2l-124 -87
l-20 21q-3 4 1 10l82 119q13 17 25.5 25t36.5 8q25 0 38 -8t25 -25l83 -119q4 -5 0 -10l-19 -21z" />
    <glyph glyph-name="scaron" unicode="&#x161;" horiz-adv-x="437" 
d="M411 163q0 -41 -16 -74t-43 -56t-64 -35t-79 -12q-35 0 -65 6.5t-59 23.5h-2l-12 -18q-4 -5 -9 -5h-22q0 16 -0.5 40t-0.5 49t-0.5 48t-0.5 37h33q9 0 10 -7q19 -118 125 -118q35 0 59 15.5t24 47.5q0 28 -18 45.5t-45.5 31t-59 26.5t-59 32.5t-45.5 49t-18 75.5
q0 37 13.5 68t37.5 53t56.5 34t70.5 12q32 0 59 -7.5t44 -21.5h1l12 17q2 3 3.5 4t6.5 1h19q0 -33 0.5 -75t1.5 -74h-31q-8 0 -9 7q-8 46 -36 70.5t-66 24.5q-32 0 -49 -16t-17 -42q0 -27 18.5 -44t46.5 -30t60 -26t60 -32.5t46.5 -49t18.5 -75.5zM216 553q-24 0 -37 7.5
t-25 24.5l-82 120q-5 5 -1 9l20 22l124 -88h2l126 88l19 -22q4 -5 0 -9l-83 -120q-13 -17 -25.5 -24.5t-37.5 -7.5z" />
    <glyph glyph-name="scedilla" unicode="&#x15f;" horiz-adv-x="437" 
d="M217 -214q-18 0 -35.5 3t-31 9t-22 14.5t-8.5 19.5q0 16 9.5 27t24.5 11q11 0 17.5 -7t12.5 -15t14 -15t22 -7q16 0 24 8.5t8 20.5q0 20 -24 30.5t-65 18.5l27 83q-59 4 -105 35h-2l-12 -18q-4 -5 -9 -5h-22q0 16 -0.5 39t-0.5 47t-0.5 46t-0.5 36h33q9 0 10 -7
q11 -62 42.5 -90t82.5 -28q42 0 62.5 19t20.5 44q0 28 -18 45.5t-45.5 31t-59 26.5t-59 32.5t-45.5 49t-18 75.5q0 37 13.5 68t37.5 53t56.5 34t70.5 12q30 0 58 -8t45 -21h1l12 17q2 3 3.5 4t6.5 1h19q0 -33 0.5 -75t1.5 -74h-31q-8 0 -9 7q-8 46 -36.5 70.5t-65.5 24.5
q-27 0 -46.5 -14.5t-19.5 -43.5q0 -27 18.5 -44t46.5 -30t60 -26t60 -32.5t46.5 -49t18.5 -75.5q0 -38 -13.5 -68.5t-36.5 -53t-54.5 -36t-67.5 -17.5l-11 -29q45 -9 76.5 -29t31.5 -61q0 -38 -32.5 -60.5t-86.5 -22.5z" />
    <glyph glyph-name="scommaaccent" unicode="&#x219;" horiz-adv-x="437" 
d="M411 163q0 -41 -16 -74t-43 -56t-64 -35t-79 -12q-35 0 -65 6.5t-59 23.5h-2l-12 -18q-4 -5 -9 -5h-22q0 16 -0.5 40t-0.5 49t-0.5 48t-0.5 37h33q9 0 10 -7q19 -118 125 -118q35 0 59 15.5t24 47.5q0 28 -18 45.5t-45.5 31t-59 26.5t-59 32.5t-45.5 49t-18 75.5
q0 37 13.5 68t37.5 53t56.5 34t70.5 12q32 0 59 -7.5t44 -21.5h1l12 17q2 3 3.5 4t6.5 1h19q0 -33 0.5 -75t1.5 -74h-31q-8 0 -9 7q-8 46 -36 70.5t-66 24.5q-32 0 -49 -16t-17 -42q0 -27 18.5 -44t46.5 -30t60 -26t60 -32.5t46.5 -49t18.5 -75.5zM307 -110q0 -51 -39.5 -78
t-106.5 -26v38q32 0 53.5 12t19.5 37h-13q-27 0 -44.5 10t-17.5 35q0 20 16 33.5t48 13.5q37 0 60.5 -19.5t23.5 -55.5z" />
    <glyph glyph-name="germandbls" unicode="&#xdf;" horiz-adv-x="645" 
d="M619 162q0 -41 -16 -74t-43 -55.5t-63.5 -34.5t-78.5 -12q-33 0 -62.5 6t-51 18t-34.5 29.5t-13 40.5q0 25 18 42.5t38 17.5q24 0 34.5 -15.5t19 -33.5t21.5 -33.5t42 -15.5q25 0 43.5 15.5t18.5 42.5t-16.5 45.5t-41.5 33t-53.5 28t-53.5 32t-41.5 44.5t-16.5 65
q0 46 24.5 75.5t62.5 56.5l28.5 21.5t23 23t15 28.5t5.5 39q0 45 -26 70t-68 25q-36 0 -57.5 -14t-33 -38t-15 -55.5t-3.5 -67.5v-408q0 -23 1 -50.5t1 -47.5q0 -5 -3 -5.5t-8 -0.5h-17q-23 0 -47 1t-41 1q-21 0 -46.5 -0.5t-45.5 -1.5v29q0 7 7 9q21 4 32.5 8t17 16
t6.5 35.5t1 66.5v356q0 57 20.5 98t56.5 67t83.5 38.5t101.5 12.5q42 0 81.5 -7.5t70.5 -23.5t50 -40.5t19 -58.5q0 -24 -8.5 -42.5t-22.5 -32.5t-31 -25t-35 -20l-31 -17t-26.5 -17t-18.5 -20t-7 -25q0 -24 17.5 -39t43 -27.5t56 -26t56 -32.5t43 -47.5t17.5 -72.5z" />
    <glyph glyph-name="tcaron" unicode="&#x165;" horiz-adv-x="380" 
d="M211 -14q-68 0 -99 40.5t-31 103.5v316h-56q-5 0 -5.5 2.5t-0.5 7.5v49q30 7 50 16t36.5 24.5t31 40.5t34.5 64h43q5 0 8 -0.5t3 -5.5q-1 -20 -1.5 -47.5t-0.5 -50.5v-38h123v-62h-123v-289q0 -36 11.5 -61t45.5 -25q23 0 38.5 10.5t29.5 27.5l24 -25q6 -6 2 -12
q-32 -40 -69.5 -63t-93.5 -23zM302 549q-4 -5 -9 -3l-27 12l21 138q2 20 11 30t28 10q9 0 20 -3.5t21 -10t16.5 -16t6.5 -20.5q0 -13 -12 -30z" />
    <glyph glyph-name="tcommaaccent" unicode="&#x163;" horiz-adv-x="380" 
d="M211 -14q-68 0 -99 40.5t-31 103.5v316h-56q-5 0 -5.5 2.5t-0.5 7.5v49q30 7 50 16t36.5 24.5t31 40.5t34.5 64h43q5 0 8 -0.5t3 -5.5q-1 -20 -1.5 -47.5t-0.5 -50.5v-38h123v-62h-123v-289q0 -36 11.5 -61t45.5 -25q23 0 38.5 10.5t29.5 27.5l24 -25q6 -6 2 -12
q-32 -40 -69.5 -63t-93.5 -23zM288 -110q0 -51 -39.5 -78t-106.5 -26v38q32 0 53.5 12t19.5 37h-13q-27 0 -44.5 10t-17.5 35q0 20 16 33.5t48 13.5q37 0 60.5 -19.5t23.5 -55.5z" />
    <glyph glyph-name="tcommaaccent" unicode="&#x21b;" horiz-adv-x="380" 
d="M211 -14q-68 0 -99 40.5t-31 103.5v316h-56q-5 0 -5.5 2.5t-0.5 7.5v49q30 7 50 16t36.5 24.5t31 40.5t34.5 64h43q5 0 8 -0.5t3 -5.5q-1 -20 -1.5 -47.5t-0.5 -50.5v-38h123v-62h-123v-289q0 -36 11.5 -61t45.5 -25q23 0 38.5 10.5t29.5 27.5l24 -25q6 -6 2 -12
q-32 -40 -69.5 -63t-93.5 -23zM288 -110q0 -51 -39.5 -78t-106.5 -26v38q32 0 53.5 12t19.5 37h-13q-27 0 -44.5 10t-17.5 35q0 20 16 33.5t48 13.5q37 0 60.5 -19.5t23.5 -55.5z" />
    <glyph glyph-name="tbar" unicode="&#x167;" horiz-adv-x="380" 
d="M19 313h62v133h-56q-5 0 -5.5 2.5t-0.5 7.5v49q30 7 50 16t36.5 24.5t31 40.5t34.5 64h43q5 0 8 -0.5t3 -5.5q-1 -20 -1.5 -47.5t-0.5 -50.5v-38h123v-62h-123v-133h112v-49h-112v-107q0 -36 11.5 -61t45.5 -25q23 0 38.5 10.5t29.5 27.5l24 -25q6 -6 2 -11
q-32 -40 -69.5 -63.5t-93.5 -23.5q-68 0 -99 40.5t-31 103.5v134h-62v49z" />
    <glyph glyph-name="ugrave" unicode="&#xf9;" horiz-adv-x="617" 
d="M421 -11q-10 -1 -11 6q-5 17 -9 38t-6 41h-3q-33 -38 -71.5 -63t-92.5 -25q-33 0 -60.5 10.5t-47.5 31t-31 49.5t-11 65v202q0 43 -1 66t-7 35t-18 16t-34 9q-7 1 -7 9v29l200 20q11 2 11 -6q-1 -20 -1.5 -49.5t-0.5 -52.5v-244q0 -48 21.5 -72.5t59.5 -24.5
q27 0 50.5 11.5t40.5 31.5v222q0 43 -1 66t-7 35t-18 16t-34 9q-7 1 -7 9v29l200 20q11 2 11 -6q-1 -20 -1.5 -49.5t-0.5 -52.5v-247q0 -42 1.5 -65.5t7.5 -35.5t17 -16.5t31 -8.5q7 -1 7 -9v-29zM144 636q-12 6 -20.5 16t-8.5 24q0 10 4.5 20.5t12 19.5t17.5 14.5t21 5.5
q22 0 39 -22l105 -129q5 -5 1 -9l-18 -23z" />
    <glyph glyph-name="uacute" unicode="&#xfa;" horiz-adv-x="617" 
d="M421 -11q-10 -1 -11 6q-5 17 -9 38t-6 41h-3q-33 -38 -71.5 -63t-92.5 -25q-33 0 -60.5 10.5t-47.5 31t-31 49.5t-11 65v202q0 43 -1 66t-7 35t-18 16t-34 9q-7 1 -7 9v29l200 20q11 2 11 -6q-1 -20 -1.5 -49.5t-0.5 -52.5v-244q0 -48 21.5 -72.5t59.5 -24.5
q27 0 50.5 11.5t40.5 31.5v222q0 43 -1 66t-7 35t-18 16t-34 9q-7 1 -7 9v29l200 20q11 2 11 -6q-1 -20 -1.5 -49.5t-0.5 -52.5v-247q0 -42 1.5 -65.5t7.5 -35.5t17 -16.5t31 -8.5q7 -1 7 -9v-29zM265 576q-4 4 1 9l105 129q9 12 18.5 17t20.5 5t21 -5.5t17.5 -14.5
t12 -19.5t4.5 -20.5q0 -14 -8.5 -24t-20.5 -16l-153 -83z" />
    <glyph glyph-name="ucircumflex" unicode="&#xfb;" horiz-adv-x="617" 
d="M421 -11q-10 -1 -11 6q-5 17 -9 38t-6 41h-3q-33 -38 -71.5 -63t-92.5 -25q-33 0 -60.5 10.5t-47.5 31t-31 49.5t-11 65v202q0 43 -1 66t-7 35t-18 16t-34 9q-7 1 -7 9v29l200 20q11 2 11 -6q-1 -20 -1.5 -49.5t-0.5 -52.5v-244q0 -48 21.5 -72.5t59.5 -24.5
q27 0 50.5 11.5t40.5 31.5v222q0 43 -1 66t-7 35t-18 16t-34 9q-7 1 -7 9v29l200 20q11 2 11 -6q-1 -20 -1.5 -49.5t-0.5 -52.5v-247q0 -42 1.5 -65.5t7.5 -35.5t17 -16.5t31 -8.5q7 -1 7 -9v-29zM306 640h-2l-124 -87l-20 21q-3 4 1 10l82 119q13 17 25.5 25t36.5 8
q25 0 38 -8t25 -25l83 -119q4 -5 0 -10l-19 -21z" />
    <glyph glyph-name="utilde" unicode="&#x169;" horiz-adv-x="617" 
d="M421 -11q-10 -1 -11 6q-5 17 -9 38t-6 41h-3q-33 -38 -71.5 -63t-92.5 -25q-33 0 -60.5 10.5t-47.5 31t-31 49.5t-11 65v202q0 43 -1 66t-7 35t-18 16t-34 9q-7 1 -7 9v29l200 20q11 2 11 -6q-1 -20 -1.5 -49.5t-0.5 -52.5v-244q0 -48 21.5 -72.5t59.5 -24.5
q27 0 50.5 11.5t40.5 31.5v222q0 43 -1 66t-7 35t-18 16t-34 9q-7 1 -7 9v29l200 20q11 2 11 -6q-1 -20 -1.5 -49.5t-0.5 -52.5v-247q0 -42 1.5 -65.5t7.5 -35.5t17 -16.5t31 -8.5q7 -1 7 -9v-29zM377 607q-17 0 -35 3.5l-36 7l-35 7t-30 3.5q-20 0 -30 -10.5t-15 -35.5
l-33 6q-8 1 -6 9q4 22 9 43t14.5 37t25 25.5t41.5 9.5q16 0 34 -3.5t36 -7.5l34.5 -7.5t30.5 -3.5q20 0 30 10.5t16 35.5l33 -6q7 -1 5 -9q-3 -22 -8 -42.5t-14.5 -36.5t-25.5 -25.5t-41 -9.5z" />
    <glyph glyph-name="udieresis" unicode="&#xfc;" horiz-adv-x="617" 
d="M421 -11q-10 -1 -11 6q-5 17 -9 38t-6 41h-3q-33 -38 -71.5 -63t-92.5 -25q-33 0 -60.5 10.5t-47.5 31t-31 49.5t-11 65v202q0 43 -1 66t-7 35t-18 16t-34 9q-7 1 -7 9v29l200 20q11 2 11 -6q-1 -20 -1.5 -49.5t-0.5 -52.5v-244q0 -48 21.5 -72.5t59.5 -24.5
q27 0 50.5 11.5t40.5 31.5v222q0 43 -1 66t-7 35t-18 16t-34 9q-7 1 -7 9v29l200 20q11 2 11 -6q-1 -20 -1.5 -49.5t-0.5 -52.5v-247q0 -42 1.5 -65.5t7.5 -35.5t17 -16.5t31 -8.5q7 -1 7 -9v-29zM296 664q0 -30 -20.5 -51t-55.5 -21t-54 21t-19 51q0 31 20 51.5t55 20.5
t54.5 -20.5t19.5 -51.5zM487 664q0 -30 -20.5 -51t-55.5 -21t-54 21t-19 51q0 31 20 51.5t55 20.5t54.5 -20.5t19.5 -51.5z" />
    <glyph glyph-name="umacron" unicode="&#x16b;" horiz-adv-x="617" 
d="M421 -11q-10 -1 -11 6q-5 17 -9 38t-6 41h-3q-33 -38 -71.5 -63t-92.5 -25q-33 0 -60.5 10.5t-47.5 31t-31 49.5t-11 65v202q0 43 -1 66t-7 35t-18 16t-34 9q-7 1 -7 9v29l200 20q11 2 11 -6q-1 -20 -1.5 -49.5t-0.5 -52.5v-244q0 -48 21.5 -72.5t59.5 -24.5
q27 0 50.5 11.5t40.5 31.5v222q0 43 -1 66t-7 35t-18 16t-34 9q-7 1 -7 9v29l200 20q11 2 11 -6q-1 -20 -1.5 -49.5t-0.5 -52.5v-247q0 -42 1.5 -65.5t7.5 -35.5t17 -16.5t31 -8.5q7 -1 7 -9v-29zM172 628v90h278v-90h-278z" />
    <glyph glyph-name="ubreve" unicode="&#x16d;" horiz-adv-x="617" 
d="M421 -11q-10 -1 -11 6q-5 17 -9 38t-6 41h-3q-33 -38 -71.5 -63t-92.5 -25q-33 0 -60.5 10.5t-47.5 31t-31 49.5t-11 65v202q0 43 -1 66t-7 35t-18 16t-34 9q-7 1 -7 9v29l200 20q11 2 11 -6q-1 -20 -1.5 -49.5t-0.5 -52.5v-244q0 -48 21.5 -72.5t59.5 -24.5
q27 0 50.5 11.5t40.5 31.5v222q0 43 -1 66t-7 35t-18 16t-34 9q-7 1 -7 9v29l200 20q11 2 11 -6q-1 -20 -1.5 -49.5t-0.5 -52.5v-247q0 -42 1.5 -65.5t7.5 -35.5t17 -16.5t31 -8.5q7 -1 7 -9v-29zM310 590q-37 0 -63 9t-43 26.5t-27 42t-14 55.5q-1 7 6 8l34 5
q7 -36 34 -49.5t73 -13.5t73 13.5t34 49.5l34 -5q7 -1 6 -8q-5 -31 -14.5 -55.5t-26.5 -42t-43 -26.5t-63 -9z" />
    <glyph glyph-name="uring" unicode="&#x16f;" horiz-adv-x="617" 
d="M421 -11q-10 -1 -11 6q-5 17 -9 38t-6 41h-3q-33 -38 -71.5 -63t-92.5 -25q-33 0 -60.5 10.5t-47.5 31t-31 49.5t-11 65v202q0 43 -1 66t-7 35t-18 16t-34 9q-7 1 -7 9v29l200 20q11 2 11 -6q-1 -20 -1.5 -49.5t-0.5 -52.5v-244q0 -48 21.5 -72.5t59.5 -24.5
q27 0 50.5 11.5t40.5 31.5v222q0 43 -1 66t-7 35t-18 16t-34 9q-7 1 -7 9v29l200 20q11 2 11 -6q-1 -20 -1.5 -49.5t-0.5 -52.5v-247q0 -42 1.5 -65.5t7.5 -35.5t17 -16.5t31 -8.5q7 -1 7 -9v-29zM346 657q0 20 -9 39.5t-32 19.5t-31 -19.5t-8 -39.5q0 -10 2 -20.5t6.5 -19
t12.5 -14t20 -5.5q22 0 30.5 19.5t8.5 39.5zM424 658q0 -45 -32 -72.5t-86 -27.5q-58 0 -88 26.5t-30 71.5t31 72t87 27q57 0 87.5 -26.5t30.5 -70.5z" />
    <glyph glyph-name="uhungarumlaut" unicode="&#x171;" horiz-adv-x="617" 
d="M421 -11q-10 -1 -11 6q-5 17 -9 38t-6 41h-3q-33 -38 -71.5 -63t-92.5 -25q-33 0 -60.5 10.5t-47.5 31t-31 49.5t-11 65v202q0 43 -1 66t-7 35t-18 16t-34 9q-7 1 -7 9v29l200 20q11 2 11 -6q-1 -20 -1.5 -49.5t-0.5 -52.5v-244q0 -48 21.5 -72.5t59.5 -24.5
q27 0 50.5 11.5t40.5 31.5v222q0 43 -1 66t-7 35t-18 16t-34 9q-7 1 -7 9v29l200 20q11 2 11 -6q-1 -20 -1.5 -49.5t-0.5 -52.5v-247q0 -42 1.5 -65.5t7.5 -35.5t17 -16.5t31 -8.5q7 -1 7 -9v-29zM169 580q-3 5 1 9l111 128q14 19 35 19q11 0 21 -6t17.5 -15t12 -19.5
t4.5 -19.5q0 -13 -8.5 -23t-20.5 -17l-154 -83zM359 580q-3 5 1 9l111 128q14 19 35 19q11 0 21 -6t17.5 -15t12 -19.5t4.5 -19.5q0 -13 -8.5 -23t-20.5 -17l-154 -83z" />
    <glyph glyph-name="uogonek" unicode="&#x173;" horiz-adv-x="617" 
d="M431 -214q-42 0 -64.5 23t-22.5 59q0 35 19 65t49 59q-8 20 -11.5 41t-5.5 41h-3q-33 -38 -71.5 -63t-92.5 -25q-33 0 -60.5 10.5t-47.5 31t-31 49.5t-11 65v202q0 43 -1 66t-7 35t-18 16t-34 9q-7 1 -7 9v29l200 20q11 2 11 -6q-1 -20 -1.5 -49.5t-0.5 -52.5v-244
q0 -48 21.5 -72.5t59.5 -24.5q27 0 50.5 11.5t40.5 31.5v222q0 43 -1 66t-7 35t-18 16t-34 9q-7 1 -7 9v29l200 20q11 2 11 -6q-1 -20 -1.5 -49.5t-0.5 -52.5v-247q0 -42 1.5 -65.5t7.5 -35.5t17 -16.5t31 -8.5q7 -1 7 -9v-29l-131 -14q-19 -23 -30.5 -44t-11.5 -42
q0 -17 11 -32.5t36 -15.5q29 0 52 22l18 -26q3 -4 2.5 -6t-3.5 -6q-17 -20 -44.5 -39.5t-65.5 -19.5z" />
    <glyph glyph-name="wgrave" unicode="&#x1e81;" horiz-adv-x="812" 
d="M510 -14q-3 18 -10 43.5l-13 45.5l-81 270h-2l-77 -269q-7 -23 -12.5 -46l-10.5 -44h-112q-4 19 -10.5 43t-13.5 47l-79 278q-12 44 -20 68t-15.5 36t-17 15.5t-25.5 6.5q-7 1 -7 9v29q31 -1 66.5 -1.5t67.5 -0.5t69.5 0.5t64.5 1.5v-29q0 -8 -7 -9q-29 -3 -39.5 -7.5
t-10.5 -21.5q0 -14 4.5 -35.5t12.5 -56.5l49 -210h2l81 278q7 23 13.5 47.5t10.5 43.5h111q4 -18 10.5 -43t13.5 -47l80 -279h2l51 200q6 26 9.5 44.5t3.5 38.5q0 25 -14.5 34.5t-40.5 13.5q-7 1 -7 9v29q31 -1 53 -1.5t54 -0.5h27t21 0.5l21 1t26 0.5v-29q0 -7 -7 -9
q-16 -4 -25.5 -9.5t-17 -18t-15 -36.5l-19.5 -65l-79 -274q-8 -23 -13.5 -46.5l-10.5 -44.5h-112zM298 636q-12 6 -20.5 16t-8.5 24q0 10 4.5 20.5t12 19.5t17.5 14.5t21 5.5q22 0 39 -22l105 -129q5 -5 1 -9l-18 -23z" />
    <glyph glyph-name="wacute" unicode="&#x1e83;" horiz-adv-x="812" 
d="M510 -14q-3 18 -10 43.5l-13 45.5l-81 270h-2l-77 -269q-7 -23 -12.5 -46l-10.5 -44h-112q-4 19 -10.5 43t-13.5 47l-79 278q-12 44 -20 68t-15.5 36t-17 15.5t-25.5 6.5q-7 1 -7 9v29q31 -1 66.5 -1.5t67.5 -0.5t69.5 0.5t64.5 1.5v-29q0 -8 -7 -9q-29 -3 -39.5 -7.5
t-10.5 -21.5q0 -14 4.5 -35.5t12.5 -56.5l49 -210h2l81 278q7 23 13.5 47.5t10.5 43.5h111q4 -18 10.5 -43t13.5 -47l80 -279h2l51 200q6 26 9.5 44.5t3.5 38.5q0 25 -14.5 34.5t-40.5 13.5q-7 1 -7 9v29q31 -1 53 -1.5t54 -0.5h27t21 0.5l21 1t26 0.5v-29q0 -7 -7 -9
q-16 -4 -25.5 -9.5t-17 -18t-15 -36.5l-19.5 -65l-79 -274q-8 -23 -13.5 -46.5l-10.5 -44.5h-112zM420 576q-4 4 1 9l105 129q9 12 18.5 17t20.5 5t21 -5.5t17.5 -14.5t12 -19.5t4.5 -20.5q0 -14 -8.5 -24t-20.5 -16l-153 -83z" />
    <glyph glyph-name="wcircumflex" unicode="&#x175;" horiz-adv-x="812" 
d="M510 -14q-3 18 -10 43.5l-13 45.5l-81 270h-2l-77 -269q-7 -23 -12.5 -46l-10.5 -44h-112q-4 19 -10.5 43t-13.5 47l-79 278q-12 44 -20 68t-15.5 36t-17 15.5t-25.5 6.5q-7 1 -7 9v29q31 -1 66.5 -1.5t67.5 -0.5t69.5 0.5t64.5 1.5v-29q0 -8 -7 -9q-29 -3 -39.5 -7.5
t-10.5 -21.5q0 -14 4.5 -35.5t12.5 -56.5l49 -210h2l81 278q7 23 13.5 47.5t10.5 43.5h111q4 -18 10.5 -43t13.5 -47l80 -279h2l51 200q6 26 9.5 44.5t3.5 38.5q0 25 -14.5 34.5t-40.5 13.5q-7 1 -7 9v29q31 -1 53 -1.5t54 -0.5h27t21 0.5l21 1t26 0.5v-29q0 -7 -7 -9
q-16 -4 -25.5 -9.5t-17 -18t-15 -36.5l-19.5 -65l-79 -274q-8 -23 -13.5 -46.5l-10.5 -44.5h-112zM437 640h-2l-124 -87l-20 21q-3 4 1 10l82 119q13 17 25.5 25t36.5 8q25 0 38 -8t25 -25l83 -119q4 -5 0 -10l-19 -21z" />
    <glyph glyph-name="wdieresis" unicode="&#x1e85;" horiz-adv-x="812" 
d="M510 -14q-3 18 -10 43.5l-13 45.5l-81 270h-2l-77 -269q-7 -23 -12.5 -46l-10.5 -44h-112q-4 19 -10.5 43t-13.5 47l-79 278q-12 44 -20 68t-15.5 36t-17 15.5t-25.5 6.5q-7 1 -7 9v29q31 -1 66.5 -1.5t67.5 -0.5t69.5 0.5t64.5 1.5v-29q0 -8 -7 -9q-29 -3 -39.5 -7.5
t-10.5 -21.5q0 -14 4.5 -35.5t12.5 -56.5l49 -210h2l81 278q7 23 13.5 47.5t10.5 43.5h111q4 -18 10.5 -43t13.5 -47l80 -279h2l51 200q6 26 9.5 44.5t3.5 38.5q0 25 -14.5 34.5t-40.5 13.5q-7 1 -7 9v29q31 -1 53 -1.5t54 -0.5h27t21 0.5l21 1t26 0.5v-29q0 -7 -7 -9
q-16 -4 -25.5 -9.5t-17 -18t-15 -36.5l-19.5 -65l-79 -274q-8 -23 -13.5 -46.5l-10.5 -44.5h-112zM412 664q0 -30 -20.5 -51t-55.5 -21t-54 21t-19 51q0 31 20 51.5t55 20.5t54.5 -20.5t19.5 -51.5zM603 664q0 -30 -20.5 -51t-55.5 -21t-54 21t-19 51q0 31 20 51.5t55 20.5
t54.5 -20.5t19.5 -51.5z" />
    <glyph glyph-name="ygrave" unicode="&#x1ef3;" horiz-adv-x="549" 
d="M331 170l57 178q8 27 12 45t4 38t-11 32.5t-40 16.5q-7 1 -7 9v29q15 0 27 -0.5l23.5 -1t23.5 -0.5h28h27.5t22 0.5l21.5 1t26 0.5v-29q0 -7 -7 -9q-14 -4 -22.5 -9t-16 -17.5t-16 -36.5l-23.5 -66l-95 -274l-31 -96.5t-22 -67.5q-9 -26 -21 -49.5t-28 -40.5t-36 -27
t-44 -10q-29 0 -49.5 19t-20.5 48q0 21 15.5 37t58.5 23q21 3 35 10t23 17t14.5 22t10.5 26q-2 7 -6.5 19t-11.5 27l-14.5 30.5l-14.5 29.5l-129 260l-31.5 63t-20 37t-15 18.5t-16.5 7.5q-7 1 -7 9v29q30 -1 65.5 -1.5t67.5 -0.5t68 0.5t66 1.5v-29q0 -8 -6 -9
q-26 -3 -38 -7.5t-12 -21.5q0 -24 31 -94l83 -187h2zM160 636q-12 6 -20.5 16t-8.5 24q0 10 4.5 20.5t12 19.5t17.5 14.5t21 5.5q22 0 39 -22l105 -129q5 -5 1 -9l-18 -23z" />
    <glyph glyph-name="yacute" unicode="&#xfd;" horiz-adv-x="549" 
d="M331 170l57 178q8 27 12 45t4 38t-11 32.5t-40 16.5q-7 1 -7 9v29q15 0 27 -0.5l23.5 -1t23.5 -0.5h28h27.5t22 0.5l21.5 1t26 0.5v-29q0 -7 -7 -9q-14 -4 -22.5 -9t-16 -17.5t-16 -36.5l-23.5 -66l-95 -274l-31 -96.5t-22 -67.5q-9 -26 -21 -49.5t-28 -40.5t-36 -27
t-44 -10q-29 0 -49.5 19t-20.5 48q0 21 15.5 37t58.5 23q21 3 35 10t23 17t14.5 22t10.5 26q-2 7 -6.5 19t-11.5 27l-14.5 30.5l-14.5 29.5l-129 260l-31.5 63t-20 37t-15 18.5t-16.5 7.5q-7 1 -7 9v29q30 -1 65.5 -1.5t67.5 -0.5t68 0.5t66 1.5v-29q0 -8 -6 -9
q-26 -3 -38 -7.5t-12 -21.5q0 -24 31 -94l83 -187h2zM280 576q-4 4 1 9l105 129q9 12 18.5 17t20.5 5t21 -5.5t17.5 -14.5t12 -19.5t4.5 -20.5q0 -14 -8.5 -24t-20.5 -16l-153 -83z" />
    <glyph glyph-name="ycircumflex" unicode="&#x177;" horiz-adv-x="549" 
d="M331 170l57 178q8 27 12 45t4 38t-11 32.5t-40 16.5q-7 1 -7 9v29q15 0 27 -0.5l23.5 -1t23.5 -0.5h28h27.5t22 0.5l21.5 1t26 0.5v-29q0 -7 -7 -9q-14 -4 -22.5 -9t-16 -17.5t-16 -36.5l-23.5 -66l-95 -274l-31 -96.5t-22 -67.5q-9 -26 -21 -49.5t-28 -40.5t-36 -27
t-44 -10q-29 0 -49.5 19t-20.5 48q0 21 15.5 37t58.5 23q21 3 35 10t23 17t14.5 22t10.5 26q-2 7 -6.5 19t-11.5 27l-14.5 30.5l-14.5 29.5l-129 260l-31.5 63t-20 37t-15 18.5t-16.5 7.5q-7 1 -7 9v29q30 -1 65.5 -1.5t67.5 -0.5t68 0.5t66 1.5v-29q0 -8 -6 -9
q-26 -3 -38 -7.5t-12 -21.5q0 -24 31 -94l83 -187h2zM304 640h-2l-124 -87l-20 21q-3 4 1 10l82 119q13 17 25.5 25t36.5 8q25 0 38 -8t25 -25l83 -119q4 -5 0 -10l-19 -21z" />
    <glyph glyph-name="ydieresis" unicode="&#xff;" horiz-adv-x="549" 
d="M331 170l57 178q8 27 12 45t4 38t-11 32.5t-40 16.5q-7 1 -7 9v29q15 0 27 -0.5l23.5 -1t23.5 -0.5h28h27.5t22 0.5l21.5 1t26 0.5v-29q0 -7 -7 -9q-14 -4 -22.5 -9t-16 -17.5t-16 -36.5l-23.5 -66l-95 -274l-31 -96.5t-22 -67.5q-9 -26 -21 -49.5t-28 -40.5t-36 -27
t-44 -10q-29 0 -49.5 19t-20.5 48q0 21 15.5 37t58.5 23q21 3 35 10t23 17t14.5 22t10.5 26q-2 7 -6.5 19t-11.5 27l-14.5 30.5l-14.5 29.5l-129 260l-31.5 63t-20 37t-15 18.5t-16.5 7.5q-7 1 -7 9v29q30 -1 65.5 -1.5t67.5 -0.5t68 0.5t66 1.5v-29q0 -8 -6 -9
q-26 -3 -38 -7.5t-12 -21.5q0 -24 31 -94l83 -187h2zM279 664q0 -30 -20.5 -51t-55.5 -21t-54 21t-19 51q0 31 20 51.5t55 20.5t54.5 -20.5t19.5 -51.5zM470 664q0 -30 -20.5 -51t-55.5 -21t-54 21t-19 51q0 31 20 51.5t55 20.5t54.5 -20.5t19.5 -51.5z" />
    <glyph glyph-name="zacute" unicode="&#x17a;" horiz-adv-x="492" 
d="M457 0q-25 0 -57.5 1t-80.5 1h-175q-29 0 -60 -0.5t-58 -1.5v72l32 45.5l35 51.5l187 288v2h-80q-35 0 -54.5 -2t-30 -12t-16 -29.5t-11.5 -53.5q-2 -8 -3.5 -10.5t-6.5 -2.5h-31q1 35 1.5 80.5t0.5 88.5q25 0 57.5 -1t80.5 -1h138q29 0 60 0.5t58 1.5v-72l-32 -46
l-34 -51l-186 -286v-2h98q42 0 65 2.5t36 12.5t19 30.5t14 57.5q1 7 9 7h34l-4.5 -85.5zM220 576q-4 4 1 9l105 129q9 12 18.5 17t20.5 5t21 -5.5t17.5 -14.5t12 -19.5t4.5 -20.5q0 -14 -8.5 -24t-20.5 -16l-153 -83z" />
    <glyph glyph-name="zcaron" unicode="&#x17e;" horiz-adv-x="492" 
d="M457 0q-25 0 -57.5 1t-80.5 1h-175q-29 0 -60 -0.5t-58 -1.5v72l32 45.5l35 51.5l187 288v2h-80q-35 0 -54.5 -2t-30 -12t-16 -29.5t-11.5 -53.5q-2 -8 -3.5 -10.5t-6.5 -2.5h-31q1 35 1.5 80.5t0.5 88.5q25 0 57.5 -1t80.5 -1h138q29 0 60 0.5t58 1.5v-72l-32 -46
l-34 -51l-186 -286v-2h98q42 0 65 2.5t36 12.5t19 30.5t14 57.5q1 7 9 7h34l-4.5 -85.5zM257 553q-24 0 -37 7.5t-25 24.5l-82 120q-5 5 -1 9l20 22l124 -88h2l126 88l19 -22q4 -5 0 -9l-83 -120q-13 -17 -25.5 -24.5t-37.5 -7.5z" />
    <glyph glyph-name="zdotaccent" unicode="&#x17c;" horiz-adv-x="492" 
d="M457 0q-25 0 -57.5 1t-80.5 1h-175q-29 0 -60 -0.5t-58 -1.5v72l32 45.5l35 51.5l187 288v2h-80q-35 0 -54.5 -2t-30 -12t-16 -29.5t-11.5 -53.5q-2 -8 -3.5 -10.5t-6.5 -2.5h-31q1 35 1.5 80.5t0.5 88.5q25 0 57.5 -1t80.5 -1h138q29 0 60 0.5t58 1.5v-72l-32 -46
l-34 -51l-186 -286v-2h98q42 0 65 2.5t36 12.5t19 30.5t14 57.5q1 7 9 7h34l-4.5 -85.5zM343 662q0 -31 -23.5 -52.5t-66.5 -21.5q-45 0 -66.5 21.5t-21.5 52.5t23.5 52.5t65.5 21.5q44 0 66.5 -21.5t22.5 -52.5z" />
    <glyph glyph-name="eng" unicode="&#x14b;" horiz-adv-x="625" 
d="M342 -214q-17 0 -35 3t-32.5 10.5t-24 20t-9.5 30.5q0 20 13 35.5t31 15.5q16 0 26.5 -9t18.5 -20.5t16.5 -20.5t20.5 -9q27 0 33.5 43.5t6.5 138.5v316q0 51 -24 74.5t-62 23.5q-29 0 -53.5 -11.5t-42.5 -31.5v-231q0 -43 1 -66.5t6.5 -35.5t17 -16t32.5 -8q7 -1 7 -9
v-29q-32 1 -66.5 1.5t-67.5 0.5t-68.5 -0.5t-67.5 -1.5v29q0 8 7 9q21 4 32.5 8t17 16t6.5 35.5t1 66.5v180q0 42 -1.5 65t-7.5 35t-17.5 16.5t-30.5 9.5q-7 1 -7 9v29l178 20q9 1 11 -6q5 -17 8.5 -38t5.5 -41h3q34 38 73.5 63.5t96.5 25.5q33 0 61 -11t49 -31t32.5 -49
t11.5 -66v-351q0 -53 -15.5 -97t-43.5 -75.5t-65.5 -48.5t-82.5 -17z" />
    <glyph glyph-name="eth" unicode="&#xf0;" horiz-adv-x="587" 
d="M261 636q-60 38 -134 61l13 34q2 5 11 4q53 -11 97 -27t81 -37l119 62l24 -43l-93 -48q49 -35 83 -77.5t54.5 -89.5t29.5 -97.5t9 -100.5q0 -60 -16 -112.5t-49 -92.5t-82 -63t-115 -23q-59 0 -107 19t-82.5 54t-53.5 84t-19 109q0 59 19.5 107t54 81.5t82 51.5t103.5 18
q23 0 46 -5.5t40 -15.5h2q-20 65 -74 113l-108 -55l-23 43zM290 457q-33 0 -53.5 -17.5t-32 -46t-15.5 -65.5t-4 -76q0 -43 4 -81.5t16 -68t33.5 -46.5t56.5 -17q33 0 54 17.5t32 46t15 66t4 76.5q0 43 -4 81.5t-15.5 67.5t-33 46t-57.5 17z" />
    <glyph glyph-name="thorn" unicode="&#xfe;" horiz-adv-x="603" 
d="M571 270q0 -67 -18.5 -120t-50 -89.5t-73.5 -55.5t-88 -19q-62 0 -117 33h-2v-55q0 -43 1.5 -66.5t9 -35.5t23 -16t43.5 -8q7 -1 7 -9v-29q-16 0 -36 0.5l-41 1t-41.5 0.5h-36.5q-33 0 -68 -0.5t-67 -1.5v29q0 8 7 9q21 4 32.5 8t17 16t6.5 35.5t1 66.5v588q0 43 -1.5 66
t-7 35t-17 16t-31.5 9q-7 1 -7 9v29l197 20q11 2 11 -6q-1 -20 -1.5 -49.5t-0.5 -52.5v-183h2q31 39 70 63t89 24q42 0 76.5 -17.5t59.5 -51t38.5 -82t13.5 -111.5zM419 257q0 93 -27.5 137t-79.5 44q-29 0 -51.5 -11.5t-38.5 -31.5v-310q14 -14 34.5 -21.5t43.5 -7.5
q33 0 55.5 15t37 41.5t20.5 63.5t6 81z" />
    <glyph glyph-name="A.small" unicode="&#xe0c3;" horiz-adv-x="653" 
d="M648 0q-14 0 -32.5 0.5l-38 1t-38.5 0.5h-35h-36.5t-44 -0.5l-43.5 -1t-35 -0.5v33q0 6 7 7q35 3 49 10t14 27q0 27 -30 105l-3 7h-191l-3 -8q-9 -23 -13.5 -45.5t-4.5 -37.5q0 -32 14.5 -43t45.5 -15q6 -1 6 -7v-33q-27 1 -54.5 1.5t-59.5 0.5q-31 0 -60 -0.5t-57 -1.5
v33q0 4 0.5 5t5.5 2q18 4 29.5 8.5t22 19t23 43t32.5 79.5l119 300l20 52.5t16 51.5h104l17 -51t20 -53l124 -303l33 -79t22 -42.5t20.5 -18.5t28.5 -7q6 -1 6 -7v-33zM286 438h-2l-73 -194h150z" />
    <glyph glyph-name="B.small" unicode="&#xe0c4;" horiz-adv-x="611" 
d="M579 165q0 -73 -61.5 -119t-179.5 -46q-11 0 -33.5 0.5t-48.5 0.5t-50 0.5t-36 0.5q-15 0 -34.5 -0.5t-39 -0.5t-38 -0.5t-33.5 -0.5v33q0 6 7 7q24 4 36.5 8t18.5 15.5t7 33.5t1 62v262q0 40 -1 62t-7 33.5t-18.5 15.5t-36.5 8q-7 1 -7 7v33q15 0 33.5 -0.5t38 -0.5
t39 -0.5t34.5 -0.5q12 0 30 0.5t37.5 0.5t37.5 0.5t30 0.5q117 0 168 -36t51 -100q0 -48 -35.5 -81.5t-104.5 -44.5v-1q100 -7 147.5 -48t47.5 -104zM416 164q0 29 -7 51t-24 36.5t-44.5 22t-68.5 7.5h-28v-110q0 -37 1.5 -60t7 -35.5t17 -16.5t31.5 -4q61 0 88 26.5
t27 82.5zM385 435q0 23 -5 40.5t-18 29t-36 17t-58 5.5q-10 0 -17 -1.5t-7 -8.5v-187h28q63 0 88 25t25 80z" />
    <glyph glyph-name="C.small" unicode="&#xe0c5;" horiz-adv-x="593" 
d="M521 -6q-5 0 -7.5 0.5t-4.5 4.5l-15 21q-20 -8 -60.5 -21t-103.5 -13q-64 0 -117.5 19.5t-92 58.5t-60 96.5t-21.5 133.5q0 63 18.5 118t54.5 95.5t88 63.5t119 23q43 0 79 -8.5t64 -24.5l14 19q3 5 5 5.5t7 0.5h21v-41t0.5 -54.5l1 -54.5t0.5 -41h-31q-3 0 -4.5 0.5
t-2.5 5.5q-15 65 -45.5 102t-85.5 37q-75 0 -108.5 -62.5t-33.5 -183.5q0 -131 43.5 -191.5t117.5 -60.5q57 0 95 35.5t48 116.5q1 5 3 5.5t5 0.5h31v-43t-0.5 -59.5t-0.5 -60v-43.5h-21z" />
    <glyph glyph-name="D.small" unicode="&#xe0c6;" horiz-adv-x="670" 
d="M473 277q0 126 -45 186.5t-122 60.5h-31t-23 -2q-8 -1 -8 -9v-336q0 -33 1 -56t7.5 -37.5t20 -20.5t39.5 -6q37 0 66.5 11.5t50.5 37t32.5 67.5t11.5 104zM633 290q0 -64 -20.5 -117.5t-60.5 -91.5t-99.5 -59.5t-136.5 -21.5q-13 0 -31.5 0.5t-38.5 0.5t-40 0.5t-36 0.5
q-15 0 -34.5 -0.5t-39 -0.5t-38 -0.5t-33.5 -0.5v33q0 6 7 7q24 4 36.5 8t18.5 15.5t7 33.5t1 62v262q0 40 -1 62t-7 33.5t-18.5 15.5t-36.5 8q-7 1 -7 7v33q15 0 33.5 -0.5t38 -0.5t39 -0.5t34.5 -0.5q14 0 36 0.5t44.5 0.5t42 0.5t30.5 0.5q151 0 230.5 -73.5t79.5 -216.5
z" />
    <glyph glyph-name="E.small" unicode="&#xe0c7;" horiz-adv-x="562" 
d="M526 0q-27 0 -65 1t-92 1h-199q-15 0 -34.5 -0.5t-39 -0.5t-38 -0.5t-33.5 -0.5v33q0 6 7 7q24 4 36.5 8t18.5 15.5t7 33.5t1 62v262q0 40 -1 62t-7 33.5t-18.5 15.5t-36.5 8q-7 1 -7 7v33q15 0 33.5 -0.5t38 -0.5t39 -0.5t34.5 -0.5h154q54 0 92 1t65 1v-37.5t0.5 -45.5
l1 -45t0.5 -37h-30q-7 0 -8 6q-5 34 -14.5 54.5t-24 31t-34.5 13.5t-47 3h-72q-6 0 -7.5 -2t-1.5 -7v-185h14q22 0 37 2.5t24.5 10.5t15.5 22.5t9 39.5q1 6 8 6h31q-1 -27 -1 -55.5v-56.5v-51.5t1 -49.5h-31q-7 0 -8 6q-3 27 -9 42.5t-15.5 24t-24.5 11t-37 2.5h-14v-112
q0 -40 1.5 -62.5t9 -34t23 -14t44.5 -2.5h46q27 0 47.5 4.5t35 17.5t24 36t14.5 60q0 6 7 6h32q0 -15 -0.5 -39l-1 -50.5t-0.5 -51.5v-41z" />
    <glyph glyph-name="F.small" unicode="&#xe0c8;" horiz-adv-x="522" 
d="M335 0q-15 0 -35.5 0.5l-43 1t-44 0.5h-36.5t-35 -0.5t-41 -0.5t-40.5 -0.5t-34.5 -0.5v33q0 6 7 7q24 4 36.5 8t18.5 15.5t7 33.5t1 62v262q0 40 -1 62t-7 33.5t-18.5 15.5t-36.5 8q-7 1 -7 7v33q15 0 33.5 -0.5t38 -0.5t39 -0.5t34.5 -0.5h165q54 0 91.5 1t65.5 1
v-39.5t0.5 -50l1 -49t0.5 -38.5h-30q-7 0 -8 6q-6 36 -15.5 58t-24 34.5t-34.5 17t-47 4.5h-82q-6 0 -7.5 -2t-1.5 -7v-202h16q24 0 40.5 2.5t27 10.5t16.5 22.5t9 39.5q1 6 8 6h31q-1 -27 -1.5 -55.5t-0.5 -56.5q0 -29 0.5 -56t1.5 -53h-31q-4 0 -5.5 0.5t-2.5 5.5
q-3 27 -9 44t-16.5 26.5t-27 13t-40.5 3.5h-16v-106q0 -39 1.5 -61t9.5 -33t25 -15.5t48 -8.5q7 -1 7 -8v-33v0z" />
    <glyph glyph-name="G.small" unicode="&#xe0c9;" horiz-adv-x="640" 
d="M619 230q0 -6 -7 -8q-18 -4 -28 -7.5t-14.5 -11.5t-5 -23t-0.5 -42v-38q0 -11 0.5 -26.5t0.5 -21.5q0 -9 -6 -9q-26 0 -46.5 -9l-45 -19.5t-57.5 -19.5t-83 -9q-73 0 -127 23.5t-90 64.5t-53.5 97.5t-17.5 122.5q0 61 17.5 116t53 95.5t90 64.5t128.5 24q45 0 83 -8.5
t66 -24.5l15 19q2 5 4.5 5.5t7.5 0.5h21v-40t0.5 -52l1 -51.5t0.5 -39.5h-32q-3 0 -4.5 0.5t-2.5 5.5q-14 63 -46 97t-93 34q-72 0 -111 -57.5t-39 -188.5q0 -257 138 -257q46 0 64.5 23t18.5 68v21q0 24 -1.5 37t-9 20t-23.5 10t-46 6q-6 1 -6 8v33q15 0 34 -0.5l39.5 -1
t40.5 -0.5h36q31 0 67.5 0.5t67.5 1.5v-33z" />
    <glyph glyph-name="H.small" unicode="&#xe0ca;" horiz-adv-x="703" 
d="M678 0q-15 0 -33.5 0.5t-38 0.5t-38.5 0.5t-34 0.5t-34.5 -0.5t-39 -0.5t-38 -0.5t-33.5 -0.5v33q0 6 7 7q24 4 36.5 8t18.5 15.5t7 33.5t1 62v114h-215v-114q0 -40 1 -62t7 -33.5t18.5 -15.5t36.5 -8q7 -1 7 -7v-33q-15 0 -33.5 0.5t-38 0.5t-38.5 0.5t-34 0.5
t-34.5 -0.5t-39 -0.5t-38 -0.5t-33.5 -0.5v33q0 6 7 7q24 4 36.5 8t18.5 15.5t7 33.5t1 62v262q0 40 -1 62t-7 33.5t-18.5 15.5t-36.5 8q-7 1 -7 7v33q15 0 33.5 -0.5t38 -0.5t39 -0.5t34.5 -0.5t34 0.5t38.5 0.5t38 0.5t33.5 0.5v-33q0 -6 -7 -7q-24 -4 -36.5 -8
t-18.5 -15.5t-7 -33.5t-1 -62v-91h215v91q0 40 -1 62t-7 33.5t-18.5 15.5t-36.5 8q-7 1 -7 7v33q15 0 33.5 -0.5t38 -0.5t39 -0.5t34.5 -0.5t34 0.5t38.5 0.5t38 0.5t33.5 0.5v-33q0 -6 -7 -7q-24 -4 -36.5 -8t-18.5 -15.5t-7 -33.5t-1 -62v-262q0 -40 1 -62t7 -33.5
t18.5 -15.5t36.5 -8q7 -1 7 -7v-33v0z" />
    <glyph glyph-name="I.small" unicode="&#xe0cb;" horiz-adv-x="343" 
d="M318 0q-15 0 -34 0.5t-38.5 0.5t-39 0.5t-34.5 0.5t-34.5 -0.5t-39.5 -0.5t-39 -0.5t-34 -0.5v33q0 6 7 7q24 4 37 8t19 15.5t7.5 33.5t1.5 62v262q0 40 -1.5 62t-7.5 33.5t-19 15.5t-37 8q-7 1 -7 7v33q15 0 34 -0.5t39 -0.5t39.5 -0.5t34.5 -0.5t34.5 0.5t39 0.5
t38.5 0.5t34 0.5v-33q0 -6 -7 -7q-24 -4 -37 -8t-19 -15.5t-7.5 -33.5t-1.5 -62v-262q0 -40 1.5 -62t7.5 -33.5t19 -15.5t37 -8q7 -1 7 -7v-33v0z" />
    <glyph glyph-name="J.small" unicode="&#xe0cc;" horiz-adv-x="341" 
d="M246 11q0 -59 -16.5 -101.5t-45 -70t-68 -40.5t-84.5 -13q-30 0 -56.5 4.5t-46.5 14t-31.5 24.5t-11.5 35q0 27 18 44t38 17q19 0 30.5 -12.5t20.5 -28t19.5 -28t28.5 -12.5q38 0 47 40t9 127v410q0 40 -1.5 62t-7.5 33.5t-19 15.5t-37 8q-7 1 -7 7v33q15 0 34 -0.5
t39 -0.5t39.5 -0.5t34.5 -0.5t34.5 0.5t39 0.5t38.5 0.5t34 0.5v-33q0 -6 -7 -7q-24 -4 -37 -8t-19 -15.5t-7.5 -33.5t-1.5 -62v-410v0z" />
    <glyph glyph-name="K.small" unicode="&#xe0cd;" horiz-adv-x="628" 
d="M246 159q0 -40 1.5 -62t7.5 -33.5t19 -15.5t37 -8q7 -1 7 -7v-33q-15 0 -34 0.5t-38.5 0.5t-39 0.5t-34.5 0.5t-34.5 -0.5t-39.5 -0.5t-39 -0.5t-34 -0.5v33q0 6 7 7q24 4 37 8t19 15.5t7.5 33.5t1.5 62v262q0 40 -1.5 62t-7.5 33.5t-19 15.5t-37 8q-7 1 -7 7v33
q15 0 34 -0.5t39 -0.5t39.5 -0.5t34.5 -0.5t34.5 0.5t39 0.5t38.5 0.5t34 0.5v-33q0 -6 -7 -7q-24 -4 -37 -8t-19 -15.5t-7.5 -33.5t-1.5 -62v-127h2l119 140q17 20 30.5 40t13.5 36t-12 21.5t-35 8.5q-6 1 -6 7v33q29 0 61.5 -1t63.5 -1t57 1t56 1v-33q0 -6 -7 -7
q-19 -3 -31.5 -6.5t-27.5 -15.5t-38 -36.5l-63 -69.5l-33 -37l113 -200q27 -48 43 -74t26.5 -38.5t19 -15.5t21.5 -6q6 -1 6 -8v-33q-9 0 -23 0.5t-29.5 1t-30 0.5h-23.5q-16 0 -35.5 -1t-32.5 -1q-8 0 -11.5 2t-8.5 11l-14 25q-7 11 -15 26l-17 31l-90 158h-2l-47 -55v-39z
" />
    <glyph glyph-name="L.small" unicode="&#xe0ce;" horiz-adv-x="527" 
d="M512 0q-28 0 -61 1t-87 1h-192q-15 0 -34.5 -0.5t-39.5 -0.5t-39 -0.5t-34 -0.5v33q0 6 7 7q24 4 37 8t19 15.5t7.5 33.5t1.5 62v262q0 40 -1.5 62t-7.5 33.5t-19 15.5t-37 8q-7 1 -7 7v33q15 0 34.5 -0.5t40.5 -0.5t41 -0.5t35 -0.5t36.5 0.5t43.5 0.5t43 0.5t36 0.5
v-33q0 -6 -7 -7q-31 -4 -47.5 -8t-24 -15.5t-9 -33.5t-1.5 -62v-250q0 -41 1.5 -63.5t9 -33.5t23 -13.5t44.5 -2.5h29q27 0 47.5 6t35 20.5t24 39.5t14.5 63q1 5 2 5.5t6 0.5h31v-41t-0.5 -54.5t-0.5 -55v-42.5z" />
    <glyph glyph-name="M.small" unicode="&#xe0cf;" horiz-adv-x="803" 
d="M778 0q-15 0 -34 0.5t-38.5 0.5t-39 0.5t-34.5 0.5t-34.5 -0.5t-39.5 -0.5t-39 -0.5t-34 -0.5v33q0 6 7 7q24 4 37 8t19 15.5t7.5 33.5t1.5 62v303h-2l-125 -360l-17.5 -53.5t-14.5 -48.5h-91q-5 20 -13.5 48.5l-16.5 53.5l-107 360h-2v-217q0 -68 2 -107t9.5 -59t22 -27
t39.5 -11q7 -1 7 -8v-33q-31 1 -58.5 1.5t-58.5 0.5t-53.5 -0.5t-52.5 -1.5v33q0 7 7 8q22 4 35 11t19.5 27t8.5 59t2 107v176q0 40 -1 62t-7 33.5t-19.5 15.5t-37.5 8q-7 1 -7 7v33q15 0 33 -0.5t35.5 -0.5t34 -0.5t28.5 -0.5h31.5t37 0.5t34 1t24.5 0.5l116 -383h2
l131 383q20 -1 52.5 -1.5t58.5 -0.5q31 0 68 1t67 1v-33q0 -6 -7 -7q-24 -4 -37 -8t-19 -15.5t-7.5 -33.5t-1.5 -62v-262q0 -40 1.5 -62t7.5 -33.5t19 -15.5t37 -8q7 -1 7 -7v-33v0z" />
    <glyph glyph-name="N.small" unicode="&#xe0d0;" horiz-adv-x="687" 
d="M516 336q0 69 -3 108.5t-13 59.5t-29.5 26t-52.5 10q-6 1 -6 8v33q15 0 33 -0.5l37.5 -1t38.5 -0.5h35q31 0 53.5 0.5t52.5 1.5v-33q0 -7 -7 -8q-22 -4 -35 -11t-19.5 -27.5t-8.5 -59t-2 -106.5v-349h-114q-13 23 -27.5 45l-30.5 45l-245 352h-2v-184q0 -69 3 -108.5
t13 -59.5t29.5 -26t52.5 -10q6 -1 6 -8v-33q-15 0 -33 0.5l-37.5 1t-38.5 0.5h-35q-31 0 -53.5 -0.5t-52.5 -1.5v33q0 7 7 8q22 4 35 11t19.5 27t8.5 59t2 107v176q0 40 -1 62t-6.5 33.5t-17.5 15.5t-34 8q-7 1 -7 7v33h28t32 -0.5t30.5 -0.5h22.5q26 0 58 0.5t49 0.5
l263 -383h2v139z" />
    <glyph glyph-name="O.small" unicode="&#xe0d1;" horiz-adv-x="667" 
d="M466 293q0 69 -10.5 116.5t-29.5 76.5t-44.5 41.5t-55.5 12.5q-63 0 -94.5 -60.5t-31.5 -192.5q0 -69 10.5 -116.5t29 -76.5t44.5 -41.5t56 -12.5q61 0 93.5 60.5t32.5 192.5zM628 300q0 -80 -23.5 -139t-64 -98t-94 -58t-112.5 -19q-63 0 -117 20.5t-93.5 59t-62 92.5
t-22.5 122q0 80 23.5 139t64 98t93.5 58t113 19q63 0 117 -20.5t93.5 -58.5t62 -92.5t22.5 -122.5z" />
    <glyph glyph-name="P.small" unicode="&#xe0d2;" horiz-adv-x="579" 
d="M395 416q0 46 -22 78.5t-77 32.5h-44q-7 0 -7 -8v-230h32q62 0 90 31t28 96zM549 424q0 -92 -64 -140.5t-200 -48.5h-40v-76q0 -40 1 -61.5t8.5 -33t22.5 -15.5t44 -8q7 -1 7 -8v-33q-14 0 -34 0.5t-42 0.5t-43.5 0.5t-36.5 0.5t-34.5 -0.5t-39.5 -0.5t-39 -0.5t-34 -0.5
v33q0 6 7 7q24 4 37 8t19 15.5t7.5 33.5t1.5 62v262q0 40 -1.5 62t-7.5 33.5t-19 15.5t-37 8q-7 1 -7 7v33q15 0 33.5 -0.5t38.5 -0.5t39.5 -0.5t34.5 -0.5t33.5 0.5t37 0.5t35.5 0.5t28 0.5q64 0 110 -11t76 -31.5t44 -49.5t14 -64z" />
    <glyph glyph-name="Q.small" unicode="&#xe0d3;" horiz-adv-x="668" 
d="M286 -52v-2q25 -4 57.5 -11.5t68.5 -15t72 -13t68 -5.5q34 0 48 18.5t19 53.5h32q8 0 8 -10q-1 -35 -8 -66.5t-23 -56.5t-40.5 -39.5t-60.5 -14.5t-75 14.5t-77.5 33.5l-74 37.5t-64.5 26.5q-25 -29 -48 -50t-55 -21q-17 0 -29.5 10.5t-12.5 28.5q0 26 31 47t76 29l65 53
v2q-50 10 -91 34.5t-70.5 60.5t-46 83.5t-16.5 104.5q0 80 23.5 139t64 98t93.5 58t113 19q63 0 117 -20.5t93.5 -58.5t62 -92t22.5 -122q0 -80 -23 -139t-62.5 -97.5t-92.5 -57t-112 -18.5zM466 293q0 69 -10.5 116.5t-29.5 76.5t-44.5 41.5t-55.5 12.5q-63 0 -94.5 -60.5
t-31.5 -192.5q0 -69 10.5 -116.5t29 -76t44.5 -41t56 -12.5q61 0 93.5 60t32.5 192z" />
    <glyph glyph-name="R.small" unicode="&#xe0d4;" horiz-adv-x="638" 
d="M401 433q0 48 -27 69.5t-67 21.5h-54q-7 0 -7 -8v-194h47q52 0 80 27t28 84zM392 307q39 -5 64 -19t40.5 -33.5t24 -41.5t14.5 -43q17 -60 28.5 -83t27.5 -23q8 0 17 5.5t16 12.5l21 -28q4 -4 0 -9q-23 -26 -48.5 -39.5t-71.5 -13.5q-39 0 -63 14t-38.5 36.5t-23 51
t-15.5 58.5q-7 29 -14 51.5t-17 37.5t-25 23t-37 8h-46v-113q0 -40 1.5 -62t7.5 -33.5t19 -15.5t37 -8q7 -1 7 -7v-33q-15 0 -34 0.5t-38.5 0.5t-39 0.5t-34.5 0.5t-34.5 -0.5t-39.5 -0.5t-39 -0.5t-34 -0.5v33q0 6 7 7q24 4 37 8t19 15.5t7.5 33.5t1.5 62v262q0 40 -1.5 62
t-7.5 33.5t-19 15.5t-37 8q-7 1 -7 7v33q15 0 34 -0.5t39 -0.5t39.5 -0.5t34.5 -0.5q14 0 36.5 0.5t45.5 0.5t43 0.5t31 0.5q48 0 89.5 -7t72 -23t48 -42t17.5 -64q0 -23 -7.5 -45t-26.5 -40.5t-50 -31.5t-79 -18v-2z" />
    <glyph glyph-name="S.small" unicode="&#xe0d5;" horiz-adv-x="496" 
d="M236 -14q-49 0 -82 10.5t-58 23.5l-15 -20q-4 -6 -12 -6h-21v42t-0.5 56.5t-1 56t-0.5 41.5h32q3 0 5 -0.5t3 -5.5q5 -28 14.5 -54t26 -46t41 -32t59.5 -12q52 0 78.5 20t26.5 56q0 31 -21 51.5t-53 36.5t-69 31.5t-69 38t-53 54.5t-21 81q0 40 14.5 74t41 58.5t64 38.5
t84.5 14q31 0 62.5 -8.5t58.5 -24.5l14 19q3 5 5 5.5t7 0.5h22v-38.5t0.5 -49t1 -48.5t0.5 -38h-32q-7 0 -8 6q-14 58 -42 90t-82 32q-38 0 -60 -17t-22 -52q0 -30 21.5 -50.5t54 -37.5t70.5 -33.5t70.5 -39t54 -53t21.5 -76.5t-17.5 -82t-48 -61t-73 -38.5t-92.5 -13.5z
" />
    <glyph glyph-name="T.small" unicode="&#xe0d6;" horiz-adv-x="575" 
d="M434 0q-15 0 -34 0.5t-38.5 0.5t-39 0.5t-34.5 0.5t-34.5 -0.5t-39.5 -0.5t-39 -0.5t-34 -0.5v33q0 6 7 7q24 4 37 8t19 15.5t7.5 33.5t1.5 62v355q0 5 -1.5 7t-8.5 2h-34q-27 0 -47 -3t-35 -15t-25 -35.5t-15 -65.5q-1 -6 -7 -6h-30q0 15 0.5 39.5t0.5 51v51.5v40
q28 0 66 -1t91 -1h242q54 0 89.5 1t63.5 1v-40t0.5 -51.5l1 -51t0.5 -39.5h-30q-7 0 -8 6q-5 42 -14.5 65.5t-24.5 35.5t-35.5 15t-47.5 3h-34q-6 0 -7.5 -2t-1.5 -7v-355q0 -40 1.5 -62t7.5 -33.5t19 -15.5t37 -8q7 -1 7 -7v-33v0z" />
    <glyph glyph-name="U.small" unicode="&#xe0d7;" horiz-adv-x="673" 
d="M582 218q0 -232 -237 -232q-253 0 -253 224v211q0 40 -1.5 62t-7.5 33.5t-19 15.5t-37 8q-7 1 -7 7v33q15 0 34 -0.5t39 -0.5t39.5 -0.5t34.5 -0.5t34.5 0.5t39 0.5t38.5 0.5t34 0.5v-33q0 -6 -7 -7q-24 -4 -37 -8t-19 -15.5t-7.5 -33.5t-1.5 -62v-235q0 -59 34.5 -90
t97.5 -31q66 0 101 33t35 96v142q0 69 -1.5 107t-10.5 58t-28 26.5t-53 12.5q-7 1 -7 7v33q30 0 70 -1t72 -1q31 0 51.5 1t50.5 1v-33q0 -4 -0.5 -5t-5.5 -2q-24 -4 -37.5 -10t-19.5 -25.5t-7 -59t-1 -109.5v-118v0z" />
    <glyph glyph-name="V.small" unicode="&#xe0d8;" horiz-adv-x="653" 
d="M423 540q-6 1 -6 7v33q29 0 55.5 -1t58.5 -1q31 0 59 1t58 1v-33q0 -4 -0.5 -5t-5.5 -2q-18 -4 -29.5 -8.5t-22 -19t-23 -43t-32.5 -79.5l-119 -302l-20 -51.5t-16 -50.5h-104q-7 22 -17 50t-20 52l-124 305l-33 79t-22 42.5t-20.5 18.5t-28.5 7q-6 1 -6 7v33
q15 0 33.5 -0.5t38 -0.5t38 -0.5t34.5 -0.5q15 0 36.5 0.5t43.5 0.5t43 0.5t36 0.5v-33q0 -6 -7 -7q-35 -3 -49 -10t-14 -27q0 -27 30 -105l99 -258h2l96 259q9 23 13.5 45.5t4.5 37.5q0 16 -3.5 26.5t-11 16.5t-19 9.5t-26.5 5.5z" />
    <glyph glyph-name="W.small" unicode="&#xe0d9;" horiz-adv-x="893" 
d="M562 -14q-5 23 -12.5 49.5l-15.5 55.5l-81 298h-4l-98 -299q-8 -23 -16.5 -52.5t-13.5 -51.5h-101q-5 23 -12 52t-15 54l-90 301q-15 51 -25 79t-19 42t-20 18t-29 8q-5 1 -5 7v33q35 0 73.5 -1t67.5 -1q42 0 82 1t73 1v-33q0 -7 -6 -7q-42 -4 -55.5 -10.5t-13.5 -26.5
q0 -14 7 -38.5t18 -66.5l61 -219h4l96 297q8 24 16 54t14 50h98q5 -22 13 -51l15 -54l82 -296h3l68 220q8 23 12.5 45.5t4.5 37.5q0 18 -5 28.5t-14 16.5t-21.5 8.5t-27.5 4.5q-5 1 -5.5 2t-0.5 5v33q28 0 58.5 -1t60.5 -1t53 1t52 1v-33q0 -6 -7 -7q-16 -3 -25.5 -8.5
t-18.5 -20t-19 -43l-27 -78.5l-102 -300q-8 -23 -14.5 -46t-14.5 -58h-98z" />
    </font>
</defs>
</svg>
